<?xml version="1.0" encoding="UTF-8" standalone="no"?>
<svg
   version="1.1"
   viewBox="0 0 2245 2418"
   id="svg2753"
   sodipodi:docname="-1.svg"
   inkscape:version="1.3.2 (091e20e, 2023-11-25)"
   xmlns:inkscape="http://www.inkscape.org/namespaces/inkscape"
   xmlns:sodipodi="http://sodipodi.sourceforge.net/DTD/sodipodi-0.dtd"
   xmlns="http://www.w3.org/2000/svg"
   xmlns:svg="http://www.w3.org/2000/svg">
  <defs
     id="defs2753" />
  <sodipodi:namedview
     id="namedview2753"
     pagecolor="#ffffff"
     bordercolor="#000000"
     borderopacity="0.25"
     inkscape:showpageshadow="2"
     inkscape:pageopacity="0.0"
     inkscape:pagecheckerboard="0"
     inkscape:deskcolor="#d1d1d1"
     inkscape:zoom="0.56893354"
     inkscape:cx="937.71937"
     inkscape:cy="923.65797"
     inkscape:window-width="1656"
     inkscape:window-height="930"
     inkscape:window-x="0"
     inkscape:window-y="25"
     inkscape:window-maximized="0"
     inkscape:current-layer="svg2753" />
  <g
     inkscape:groupmode="layer"
     id="layer1"
     inkscape:label="main"
     style="display:inline">
    <path
       id="polygon103"
       style="fill:#ffffff;stroke:#000000;stroke-miterlimit:10"
       d="M 388.53,1701.29 V 1589.7 h 31.65 v -27.88 h 20 v 139.47 z" />
    <path
       id="polygon147"
       style="fill:#ffffff;stroke:#000000;stroke-miterlimit:10"
       d="m 861.76,621.47 v -12.36 h 136.5 v 57.3 h -39.5 V 685.7 H 816.5 v -76.59 h 28.68 v 12.36 z" />
    <path
       id="rect150"
       style="fill:#ffffff;stroke:#000000;stroke-miterlimit:10"
       d="m 1081.59,667.58002 h 66.59 v 81.68 h -66.59 z" />
    <path
       id="polygon252"
       style="fill:#ffffff;stroke:#000000;stroke-miterlimit:10"
       d="m 369.12,1301.23 v -11.27 l 80.24,-0.64 92.46,-0.75 v 66.92 l -123.06,0.99 v -29.84 h -98.94 v -36.28 l 33.53,-0.27 v 11.14 z" />
    <path
       id="polygon247"
       style="fill:#ffffff;stroke:#000000;stroke-miterlimit:10"
       d="m 192.41,1378.64 v -48.23 h -11.29 v -99.99 l 170.11,-1.37 h 86.36 v 56.38 l -118.47,0.96 h -2.83 v 43.96 h 60.59 v 45.23 h 28.59 v 111.65 H 181.12 v -108.59 z" />
    <path
       id="polygon248"
       style="fill:#ffffff;stroke:#000000;stroke-miterlimit:10"
       d="m 437.59,1175.74 v 49.42 H 351.2 l -170.08,1.37 v -48.73 l 27.56,-0.22 17.61,-0.14 18.09,-0.15 z" />
    <path
       id="polygon249"
       style="fill:#ffffff;stroke:#000000;stroke-miterlimit:10"
       d="m 444.59,1175.68 84.72,-0.68 h 12.04 v 108.63 l -96.76,0.78 z" />
    <path
       id="polygon250"
       style="fill:#ffffff;stroke:#000000;stroke-miterlimit:10"
       d="M 409.35,1487.23 V 1361.7 h 9.41 v -0.28 l 56.71,-0.46 v 126.27 z" />
    <path
       id="polygon251"
       style="fill:#ffffff;stroke:#000000;stroke-miterlimit:10"
       d="m 542.53,1360.42 v 126.81 H 479 v -126.3 z" />
    <path
       id="polygon246"
       style="fill:#ffffff;stroke:#000000;stroke-miterlimit:10"
       d="m 1209.24,825 v -77.47 h -1.42 v -24.89 h 70.24 V 825 Z" />
    <path
       d="m 1553.12,947.7 v 10.24 h -20.47 v -0.85 l -58.53,28.36 v 0.78 H 1365 v -27.35 h -16.59 V 939.11 H 1365 v -80 h -16.59 L 1348.1468,841.0872 1156.53,840.88 v 38.5 h -5.24 v -18.04 h -21.64 v 64.19 h -112.41 v -86.45 h -22 v 129.56 h 161.29 v 89.77 h 199.82 v -10.35 h 21.36 v 13.41 h 189.05 V 947.7 Z m -364,11.88 h -18.38 v -19.05 h 18.38 z"
       fill="#ffffff"
       stroke="#000000"
       stroke-miterlimit="10"
       id="path245"
       style="display:inline;fill:#ffffff;stroke-width:1;stroke-dasharray:none"
       sodipodi:nodetypes="cccccccccccccccccccccccccccccccccccccc" />
    <path
       id="polygon245"
       style="fill:#ffffff;stroke:#000000;stroke-miterlimit:10"
       d="m 1367.47,983.76 v -127 h 9.65 v -19.29 l 186.82,-1.77 v 101.77 h -31.29 v 16.87 l -58.53,28.36 V 836.64 h -2.47 v 147.12 z" />
    <path
       id="polygon239"
       style="fill:#ffffff;stroke:#000000;stroke-miterlimit:10"
       d="m 1162.12,608.94 v -135 h 75 v 18.59 h 12.94 v 223.35 h -45.71 v 29.91 h -49.47 V 625.53 h 18.36 v -16.59 z" />
    <path
       id="polygon240"
       style="fill:#ffffff;stroke:#000000;stroke-miterlimit:10"
       d="m 1330.76,473.7 v 0.24 h -128.94 v -69.53 h 136.77 v 69.29 z" />
    <path
       id="polygon237"
       style="fill:#ffffff;stroke:#000000;stroke-miterlimit:10"
       d="m 562.55,2036.66 -40.08,0.36 v -135.39 l 0.02,1.88 80.04,-0.79 v 133.59 z" />
    <path
       id="polygon238"
       style="fill:#ffffff;stroke:#000000;stroke-miterlimit:10"
       d="m 596.65,2114.76 v 11.87 l -12.12,0.05 h -0.12 l -37.41,0.17 -37.18,0.16 h -1.17 l -12.23,0.05 v -26.18 h -4.37 v 26.2 l -12.34,0.06 h -0.48 l -38.17,0.17 -37.24,0.16 h -0.47 l -13.96,0.06 v -17.44 h -4.37 v 17.46 l -14.8,0.06 -35.93,0.16 -37.88,0.16 -12.92,0.06 v -21.35 h -4.37 v 21.37 l -14.24,0.06 -37.64,0.17 -38.12,0.16 -15.06,0.07 v -86.77 h 237.53 v -35.76 h -32.12 v -93.8 h 40.47 v -9.85 L 419,1813.44 h 99.82 v 4.23 l 0.14,38.05 0.14,38.04 v 146.53 h 3.37 l 40.08,-0.36 39.98,-0.35 h 37.41 v -39.52 H 605.9 v -92.71 H 707 v 218.8 l -12.35,0.05 -37.53,0.17 -37.3,0.16 h -0.11 l -18.69,0.08 v -11.85 z" />
    <path
       id="rect236"
       style="fill:#ffffff;stroke:#000000;stroke-miterlimit:10"
       d="m 277.76001,1912.14 h 98.06 v 123.39 h -98.06 z" />
    <path
       id="polygon232"
       style="fill:#ffffff;stroke:#000000;stroke-miterlimit:10"
       d="m 275.94,1172.1 v -94.46 h 195.47 v 43.83 h 55.94 v 48.6 z" />
    <path
       id="polygon233"
       style="fill:#ffffff;stroke:#000000;stroke-miterlimit:10"
       d="m 267.94,1172.16 -23.6,0.19 -18.05,0.15 -17.65,0.14 -27.52,0.22 v -164.57 h 86.82 z" />
    <path
       id="polygon234"
       style="fill:#ffffff;stroke:#000000;stroke-miterlimit:10"
       d="m 181.12,1003.35 v -46.24 h 290.29 v 116.71 h -60.67 v -9.76 h -18.56 v 9.76 H 275.94 v -70.47 z" />
    <path
       id="polygon235"
       style="fill:#ffffff;stroke:#000000;stroke-miterlimit:10"
       d="m 169,723.44 v -94.56 h 15.53 v -27.05 h 165.41 v 121.61 z" />
    <path
       id="rect235"
       style="fill:#ffffff;stroke:#000000;stroke-miterlimit:10"
       d="M 184.53,474.10999 H 349.94 V 597.94998 H 184.53 Z" />
    <path
       id="rect232"
       style="fill:#ffffff;stroke:#000000;stroke-miterlimit:10"
       d="m 480,957.10999 h 50.06 V 1036.79 H 480 Z" />
    <path
       id="polygon220"
       style="fill:#ffffff;stroke:#000000;stroke-miterlimit:10"
       d="m 800.18,1809.17 v 76.77 h -85.06 v 15.64 h -73.06 v -80.76 h 24.76 v -11.65 z" />
    <path
       id="polygon221"
       style="fill:#ffffff;stroke:#000000;stroke-miterlimit:10"
       d="m 522.68,1817.67 v -8.5 h 114.79 v 89.71 h -34.94 v 2.35 l -0.02,-1.88 -80.04,0.79 v -6.38 l 0.1,-38.04 z" />
    <path
       id="polygon222"
       style="fill:#ffffff;stroke:#000000;stroke-miterlimit:10"
       d="m 657.12,2132.55 37.53,-0.17 v 6.08 H 707 v 105.97 l -73.88,2.7 v -15.31 h -32.1 v -99.03 l 18.69,-0.08 h 0.11 z" />
    <path
       id="polygon223"
       style="fill:#ffffff;stroke:#000000;stroke-miterlimit:10"
       d="m 547,2133.03 37.41,-0.17 h 0.12 l 12.12,-0.05 v 115.01 h -82.37 v -8.24 h -17.86 v -106.34 l 12.23,-0.05 h 1.17 z" />
    <path
       id="polygon224"
       style="fill:#ffffff;stroke:#000000;stroke-miterlimit:10"
       d="m 403.35,2133.65 h 0.47 l 37.24,-0.16 38.17,-0.17 h 0.48 l 12.34,-0.06 v 106.32 h -0.22 v 5.77 h -88.48 v -18.65 h -13.96 v -92.99 z" />
    <path
       id="polygon225"
       style="fill:#ffffff;stroke:#000000;stroke-miterlimit:10"
       d="m 370.22,2133.79 14.8,-0.06 v 92.97 h -13.96 v 18.65 h -87.57 v -111.18 l 12.92,-0.06 37.88,-0.16 z" />
    <path
       id="polygon226"
       style="fill:#ffffff;stroke:#000000;stroke-miterlimit:10"
       d="m 264.88,2134.25 14.24,-0.06 v 111.16 h -95.41 v -15.41 h -9.65 v -95.29 l 15.06,-0.07 38.12,-0.16 z" />
    <path
       id="polygon227"
       style="fill:#ffffff;stroke:#000000;stroke-miterlimit:10"
       d="m 183.71,2035.53 v -29.59 h -9.65 v -93.8 h 100.06 v 123.39 z" />
    <path
       id="polygon228"
       style="fill:#ffffff;stroke:#000000;stroke-miterlimit:10"
       d="m 174.06,1812.29 h 147 v -1.18 h 92.76 l 0.94,91.18 h -240.7 z" />
    <path
       id="polygon229"
       style="fill:#ffffff;stroke:#000000;stroke-miterlimit:10"
       d="m 317.73,1702.7 v 99 H 317 v 2.47 H 188.76 V 1777 h -11.17 v -74.3 z" />
    <path
       id="polygon230"
       style="fill:#ffffff;stroke:#000000;stroke-miterlimit:10"
       d="m 317.83,1610.53 -0.05,37.58 -0.05,37.59 v 13.12 H 181.12 v -101.41 h 136.71 z" />
    <path
       id="rect230"
       style="fill:#ffffff;stroke:#000000;stroke-miterlimit:10"
       d="m 181.12,1491.11 h 136.71 v 102.42 H 181.12 Z" />
    <path
       id="rect218"
       style="fill:#ffffff;stroke:#000000;stroke-miterlimit:10"
       d="m 521.88,1589.9399 h 118.24 v 108.58 H 521.88 Z" />
    <path
       id="polygon219"
       style="fill:#ffffff;stroke:#000000;stroke-miterlimit:10"
       d="m 819.35,2004.47 v 21.88 H 717.94 v -52.06 h 112.35 v 30.18 z" />
    <path
       id="rect219"
       style="fill:#ffffff;stroke:#000000;stroke-miterlimit:10"
       d="m 717.94,1906.17 h 121.30001 v 59.3 H 717.94 Z" />
    <path
       id="polygon213"
       style="fill:#ffffff;stroke:#000000;stroke-miterlimit:10"
       d="m 845.5,965.55 v 8.32 h 28.62 v 84.8 h -28.24 v 11.15 h -80.06 v -9.53 h -37.29 v -94.74 z" />
    <path
       id="rect213"
       style="fill:#ffffff;stroke:#000000;stroke-miterlimit:10"
       d="M 619,967.10999 H 721.65 V 1060.29 H 619 Z" />
    <path
       id="polygon214"
       style="fill:#ffffff;stroke:#000000;stroke-miterlimit:10"
       d="m 631.71,1278.17 v -66.01 l 109.41,-4.91 v 138.89 H 652 v -27.26 h -20.29 v -25.53 h 9.41 v -15.18 z" />
    <path
       id="rect214"
       style="fill:#ffffff;stroke:#000000;stroke-miterlimit:10"
       d="m 845.17999,1305.8199 h 31 v 69.88 h -31 z" />
    <path
       id="rect215"
       style="fill:#ffffff;stroke:#000000;stroke-miterlimit:10"
       d="m 746.09003,1285.23 h 67.73 v 66 h -67.73 z" />
    <path
       id="polygon215"
       style="fill:#ffffff;stroke:#000000;stroke-miterlimit:10"
       d="m 840.59,1358.94 v 45.12 l -125.41,1.01 v -46.13 z" />
    <path
       id="polygon216"
       style="fill:#ffffff;stroke:#000000;stroke-miterlimit:10"
       d="m 715.18,1501.03 v -90.94 l 126.21,-1.02 v -0.01 h 3.79 v 90.92 z" />
    <path
       id="rect216"
       style="fill:#ffffff;stroke:#000000;stroke-miterlimit:10"
       d="m 810.28003,1591.17 h 37.9 v 302.3 h -37.9 z" />
    <path
       id="polygon217"
       style="fill:#ffffff;stroke:#000000;stroke-miterlimit:10"
       d="m 842.88,1505.02 v 47.15 h -7.41 v 32.94 h -29.96 v 217.83 h -92.33 v -296.87 z" />
    <path
       id="polygon218"
       style="fill:#ffffff;stroke:#000000;stroke-miterlimit:10"
       d="m 708.41,1505.94 v 190.94 l -32.13,0.26 -0.52,0.01 -30.92,0.43 v -107.64 h 0.22 v -84 z" />
    <path
       id="rect204"
       style="fill:#ffffff;stroke:#000000;stroke-miterlimit:10"
       d="m 1574.36,944.66998 h 229.39 V 1062.64 h -229.39 z" />
    <path
       id="rect205"
       style="fill:#ffffff;stroke:#000000;stroke-miterlimit:10"
       d="m 1717.65,856.16998 h 317.11 v 70.77 h -317.11 z" />
    <path
       id="polygon205"
       style="fill:#ffffff;stroke:#000000;stroke-miterlimit:10"
       d="m 1573.12,932.76 v -68.23 h 31.76 v -12.65 h 98.83 v 80.88 z" />
    <path
       id="polygon206"
       style="fill:#ffffff;stroke:#000000;stroke-miterlimit:10"
       d="m 1155.94,436.76 v 172.18 h -38.47 V 577.7 h -29.76 V 406.17 h 38.35 v 30.59 z" />
    <path
       id="polygon207"
       style="fill:#ffffff;stroke:#000000;stroke-miterlimit:10"
       d="m 1079.85,661 v -45.89 h 38.86 v 11.47 h 29.47 V 661 Z" />
    <path
       id="rect207"
       style="fill:#ffffff;stroke:#000000;stroke-miterlimit:10"
       d="m 1156.53,749.26001 h 48.29 v 73.74 h -48.29 z" />
    <path
       id="rect208"
       style="fill:#ffffff;stroke:#000000;stroke-miterlimit:10"
       d="m 1084.47,1002.29 h 65 v 68.53 h -65 z" />
    <path
       id="polygon208"
       style="fill:#ffffff;stroke:#000000;stroke-miterlimit:10"
       d="m 1076.88,990.88 v 91.35 h 79.65 V 1081 h 7.41 v 132.29 H 1006.29 V 1213 h 0.36 V 980.06 h 142.29 v 10.82 z" />
    <path
       id="polygon209"
       style="fill:#ffffff;stroke:#000000;stroke-miterlimit:10"
       d="m 1094.88,850.22 v -10.86 h 25.18 v 2.81 h 3.65 v 77.41 H 1023.18 V 795.67 h 68.06 v -5.94 h -68.06 v -69.67 h -5.94 v 103.47 h -91.06 v -79 h -9.89 V 690.2 h 54.36 v -20.73 h 106.06 v 89.88 h 69.35 V 823 h -26 v 8.94 h -51.21 v 7.42 h 10.24 v 10.86 z" />
    <path
       id="polygon210"
       style="fill:#ffffff;stroke:#000000;stroke-miterlimit:10"
       d="M 816.5,829.38 V 690.2 h 87.94 v 61.5 h 9.88 v 77.68 z" />
    <path
       id="polygon211"
       style="fill:#ffffff;stroke:#000000;stroke-miterlimit:10"
       d="m 1154.06,1288.06 v 10.7 H 941.35 v -81.18 h 228.24 v 70.48 z" />
    <path
       id="rect211"
       style="fill:#ffffff;stroke:#000000;stroke-miterlimit:10"
       d="m 821.59003,1217.58 h 112.23 v 81.18 h -112.23 z" />
    <path
       id="polygon212"
       style="fill:#ffffff;stroke:#000000;stroke-miterlimit:10"
       d="m 862.82,1061.11 h 18 V 973.87 H 998.18 V 1209 H 766.29 v -28.36 l -0.23,-49.82 -0.24,-49.82 v -8.19 h 97 z" />
    <path
       id="rect200"
       style="fill:#ffffff;stroke:#000000;stroke-miterlimit:10"
       d="m 637.34998,556.76001 h 103.05999 v 58.59 H 637.34998 Z" />
    <path
       id="polygon200"
       style="fill:#ffffff;stroke:#000000;stroke-miterlimit:10"
       d="m 726,751.29 v 94.29 H 640.65 V 625.7 h 99.76 v 125.59 z" />
    <path
       id="polygon201"
       style="fill:#ffffff;stroke:#000000;stroke-miterlimit:10"
       d="m 631,728.06 v 106.8 h -10.82 v 11.43 H 487.4 l -9.36,-24.13 -26.84,-69.13 -9.69,-24.97 z" />
    <path
       id="polygon202"
       style="fill:#ffffff;stroke:#000000;stroke-miterlimit:10"
       d="M 441.23,724.18 V 613.67 H 620.29 V 625.7 H 631 v 98.48 z" />
    <path
       id="polygon203"
       style="fill:#ffffff;stroke:#000000;stroke-miterlimit:10"
       d="m 630.65,610.76 v -0.97 H 441.23 V 497.23 H 631 v 113.53 z" />
    <path
       id="polygon204"
       style="fill:#ffffff;stroke:#000000;stroke-miterlimit:10"
       d="m 619.24,380.2 v 15.62 h 9.64 v 97.53 h -187.1 l -3.71,-10.94 -24.05,-70.94 -4.19,-12.36 h 0.23 v -17.39 z" />
    <path
       id="polygon182"
       style="fill:#ffffff;stroke:#000000;stroke-miterlimit:10"
       d="m 745.12,393.54 29.64,-0.07 H 995.44 V 521 H 745.12 Z" />
    <path
       id="polygon276"
       style="fill:#ffffff;stroke:#000000;stroke-miterlimit:10"
       d="M 184.76,849.11 V 838.47 H 169 V 727.32 h 180.94 v 121.79 z" />
    <path
       d="M 2044.65,673.7 V 639 h -17.77 v -37.42 h 5.65 v -11.41 h 12.12 V 407.11 h -18.59 V 389.7 h -189.34 v 10.4 h -34.67 V 389.7 H 1613 v 6.94 h -237.71 v 66.53 h -28.41 v 12 h -5.53 v 13.59 h -7.88 v -12.12 h -83.41 v 239.24 h 107.88 V 825 h 19.18 l 186.82,3.76 h 28.24 v -13.65 h 12.7 v 30.53 h 201.88 V 821.7 h 11.06 v -13.41 h 13.65 v 13.41 h 9.77 v 23.94 h 188.47 v -23.88 h 2 v -10.53 h 14.61 V 729.7 Z m -641.3,-49.23 h -14.82 v 9.59 h -36.59 v -7.53 h -14 v -20.71 h 14 v -8.35 h 36.59 v 6.09 h 14.82 z m 209.3,7.94 h -36.36 v -6.71 h -14.11 v -21 h 14.11 v -9.88 h 23.83 v -12.88 h 12.53 z m 229.23,3 h -36.17 V 598 h 10.23 v -13.77 h 14.3 V 598 h 11.64 z"
       fill="#ffffff"
       stroke="#000000"
       stroke-miterlimit="10"
       id="path288"
       style="fill:#ffffff" />
    <path
       id="rect2754"
       style="fill:#ffffff"
       d="m 412.12088,927.98022 h 97.19365 v 23.66065 h -97.19365 z" />
    <path
       style="fill:#ffffff;fill-opacity:1;stroke-miterlimit:10"
       d="m 183.80126,854.08213 -0.12907,97.57988 221.74899,0.25815 0.25815,-24.52405 h 5.80833 v -73.44306 z"
       id="path1" />
    <path
       id="rect273"
       style="fill:#ffffff;stroke:#000000;stroke-miterlimit:10"
       d="m 776.17999,2035.17 h 54.11 v 197.12 h -54.11 z" />
    <path
       style="fill:#ffffff;stroke:#000000;stroke-width:1.00697;stroke-miterlimit:10;stroke-dasharray:none;stroke-opacity:1"
       d="m 1278.1276,722.65415 c 74.379,0.29662 76.8032,0.17881 76.8032,0.17881 l 0.3036,102.14145 h -77.3896 z"
       id="path2754"
       sodipodi:nodetypes="ccccc" />
  </g>
</svg>
