<?xml version="1.0" encoding="UTF-8" standalone="no"?>
<svg
   version="1.1"
   viewBox="0 0 1105.23 891.19"
   id="svg310"
   sodipodi:docname="-2.svg"
   inkscape:version="1.3.2 (091e20e, 2023-11-25)"
   xmlns:inkscape="http://www.inkscape.org/namespaces/inkscape"
   xmlns:sodipodi="http://sodipodi.sourceforge.net/DTD/sodipodi-0.dtd"
   xmlns="http://www.w3.org/2000/svg"
   xmlns:svg="http://www.w3.org/2000/svg">
  <defs
     id="defs310" />
  <sodipodi:namedview
     id="namedview310"
     pagecolor="#ffffff"
     bordercolor="#000000"
     borderopacity="0.25"
     inkscape:showpageshadow="2"
     inkscape:pageopacity="0.0"
     inkscape:pagecheckerboard="0"
     inkscape:deskcolor="#d1d1d1"
     inkscape:zoom="0.78712723"
     inkscape:cx="552.00733"
     inkscape:cy="446.56059"
     inkscape:window-width="1608"
     inkscape:window-height="952"
     inkscape:window-x="0"
     inkscape:window-y="25"
     inkscape:window-maximized="0"
     inkscape:current-layer="svg310" />
  <g
     inkscape:groupmode="layer"
     id="layer1"
     inkscape:label="main"
     style="display:inline">
    <path
       id="polygon66"
       style="fill:#ffffff;stroke:#000000;stroke-miterlimit:10"
       d="m 265.99,500.12 h 30.88 v 128.85 h -30.88 v 31.87 h 30.88 v 54.58 h -23.83 v 76.45 h -8.73 v 17.69 H 139.17 v -17.23 h -0.21 v -0.46 H 105.74 V 660.84 h 34.3 v -31.87 h -34.3 V 500.12 h 34.3 v -31.86 h -34.3 V 341.62 h 34.3 v -31.56 h 122.39 v 31.56 h 34.44 v 126.64 h -30.88 z" />
    <path
       id="rect9"
       style="fill:#ffffff;stroke:#000000;stroke-miterlimit:10"
       d="m 882,498.29999 h 106.05 v 48.91 H 882 Z" />
    <path
       id="rect28"
       style="fill:#ffffff;stroke:#000000;stroke-miterlimit:10"
       d="m 882,382.23999 h 103.38 v 54.21 H 882 Z" />
    <path
       id="rect29"
       style="fill:#ffffff;stroke:#000000;stroke-miterlimit:10"
       d="m 882,440.37 h 106.05 v 53.84999 H 882 Z" />
    <path
       id="polygon29"
       style="fill:#ffffff;stroke:#000000;stroke-miterlimit:10"
       d="m 860.96,334.27 h -27.14 v 64.55 h -10.01 v 42.05 h 10.01 v 74.62 H 676.71 V 259.17 h 145.28 v 20.34 h 14.44 v -20.34 h 21.42 v 1.69 z" />
    <path
       id="polygon30"
       style="fill:#ffffff;stroke:#000000;stroke-miterlimit:10"
       d="m 671.72,438.62 v 76.87 H 566.23 v -95.05 h 95.57 v 18.18 z" />
    <path
       id="polygon31"
       style="fill:#ffffff;stroke:#000000;stroke-miterlimit:10"
       d="m 671.72,279.51 v 117.32 h -9.92 v 17.73 H 516.09 V 257.18 H 661.6 v 22.33 z" />
    <path
       id="rect32"
       style="fill:#ffffff;stroke:#000000;stroke-miterlimit:10"
       d="m 882,551.15002 h 106.05 v 71.40001 H 882 Z" />
    <path
       id="polygon33"
       style="fill:#ffffff;stroke:#000000;stroke-miterlimit:10"
       d="m 988.05,627.2 v 56.83 h -4.37 v 0.09 H 882 V 627.2 Z" />
    <path
       id="rect35"
       style="fill:#ffffff;stroke:#000000;stroke-miterlimit:10"
       d="m 838.29999,687.91998 h 145.38 v 52 h -145.38 z" />
    <path
       id="polygon36"
       style="fill:#ffffff;stroke:#000000;stroke-miterlimit:10"
       d="m 833.18,601.27 v 82.76 h -0.29 v 20.59 h -95.24 v 40.65 h -59.94 v -21.21 h -14.43 v 21.21 H 620.37 V 634.16 l 11.77,-9.02 0.47,-0.36 10.06,-7.56 10.34,-7.78 0.09,0.1 1.85,-1.56 8.69,-7.29 v 0.73 H 678 V 563.3 h 146.11 v 37.97 z" />
    <path
       id="polygon39"
       style="fill:#ffffff;stroke:#000000;stroke-miterlimit:10"
       d="m 663.64,563.3 v 32.89 l -9.36,7.86 -0.04,0.03 -13.84,10.4 -8.9,6.69 -0.01,-0.01 -1.42,1.09 -0.23,0.17 -9.57,7.33 H 580.13 V 563.3 Z" />
  </g>
</svg>
