<?xml version="1.0" encoding="UTF-8" standalone="no"?>
<svg
   version="1.1"
   viewBox="0 0 3991.7 3927.36"
   id="svg4882"
   sodipodi:docname="2.svg"
   inkscape:version="1.3.2 (091e20e, 2023-11-25)"
   xmlns:inkscape="http://www.inkscape.org/namespaces/inkscape"
   xmlns:sodipodi="http://sodipodi.sourceforge.net/DTD/sodipodi-0.dtd"
   xmlns="http://www.w3.org/2000/svg"
   xmlns:svg="http://www.w3.org/2000/svg">
  <defs
     id="defs4882" />
  <sodipodi:namedview
     id="namedview4882"
     pagecolor="#ffffff"
     bordercolor="#000000"
     borderopacity="0.25"
     inkscape:showpageshadow="2"
     inkscape:pageopacity="0.0"
     inkscape:pagecheckerboard="0"
     inkscape:deskcolor="#d1d1d1"
     inkscape:zoom="0.3384434"
     inkscape:cx="1526.1045"
     inkscape:cy="818.45295"
     inkscape:window-width="1648"
     inkscape:window-height="925"
     inkscape:window-x="0"
     inkscape:window-y="25"
     inkscape:window-maximized="0"
     inkscape:current-layer="svg4882" />
  <g
     inkscape:groupmode="layer"
     id="layer1"
     inkscape:label="main"
     style="display:none">
    <path
       style="fill:#00ffff;stroke-width:1.05458;stroke-miterlimit:10"
       d="m 2715.7989,837.60131 -11.864,-0.3364 V 757.6789 678.09289 h 24.7826 24.7826 v 5.27288 c 0,2.90009 0.4745,5.27289 1.0545,5.27289 0.58,0 1.0546,-2.3728 1.0546,-5.27289 v -5.27288 h 24.7826 24.7825 v 80.14784 80.14784 l -38.7557,-0.22543 c -21.3156,-0.12398 -44.0945,-0.3768 -50.6197,-0.56183 z"
       id="path4883" />
    <path
       style="fill:#00ffff;stroke-width:0.928019;stroke-miterlimit:10"
       d="m 2470.3862,833.43826 c 0,-2.74281 0.4627,-4.77868 1.16,-5.1041 0.928,-0.43307 0.928,-0.64962 0,-1.08269 -0.8696,-0.40581 -1.16,-5.05255 -1.16,-18.56037 0,-17.40036 0.064,-18.01904 1.856,-18.01904 1.0208,0 1.8561,-0.41761 1.8561,-0.92802 0,-0.51041 -0.8353,-0.92802 -1.8561,-0.92802 -1.8102,0 -1.856,-0.61868 -1.856,-25.05651 0,-21.65377 0.189,-25.0565 1.392,-25.0565 0.7656,0 1.392,-0.41761 1.392,-0.92802 0,-0.51041 -0.6264,-0.92802 -1.392,-0.92802 -1.2074,0 -1.392,-3.81519 -1.392,-28.76859 V 679.3098 h 50.577 c 49.9584,0 50.577,0.0227 50.577,1.85604 0,1.72579 0.6187,1.85603 8.8162,1.85603 h 8.8162 v -8.35216 c 0,-8.2903 -0.017,-8.35217 -2.3201,-8.35217 h -2.32 V 560.9874 455.65726 h 50.113 50.113 v 191.17188 191.17188 h -107.1861 -107.1862 z"
       id="path4884" />
    <path
       style="fill:#00ffff;stroke-width:0.795118;stroke-miterlimit:10"
       d="m 2421.1343,721.96713 v -42.93637 h 21.4682 21.4681 v 28.62425 c 0,28.09417 -0.029,28.62425 -1.5902,28.62425 -0.8835,0 -1.5902,0.53007 -1.5902,1.19267 0,0.6626 0.7067,1.19268 1.5902,1.19268 1.526,0 1.5902,0.53008 1.5902,13.11945 v 13.11944 h -21.4681 -21.4682 z"
       id="path4885" />
    <path
       style="fill:#00ffff;stroke-width:0.795118;stroke-miterlimit:10"
       d="m 2421.1343,791.1424 v -19.87795 h 21.4682 21.4681 v 8.7463 c 0,8.21621 -0.096,8.74629 -1.5902,8.74629 -0.8835,0 -1.5902,0.53008 -1.5902,1.19268 0,0.6626 0.7067,1.19268 1.5902,1.19268 1.5054,0 1.5902,0.53008 1.5902,9.93897 v 9.93898 h -21.4681 -21.4682 z"
       id="path4886" />
    <path
       style="fill:#00ffff;stroke-width:0.795118;stroke-miterlimit:10"
       d="m 2421.1343,827.71782 v -10.33653 h 21.0706 21.0706 v 4.77071 c 0,3.71055 -0.265,4.77071 -1.1927,4.77071 -0.6559,0 -1.1926,0.3578 -1.1926,0.79511 0,0.43732 0.5367,0.79512 1.1926,0.79512 0.9277,0 1.1927,1.06016 1.1927,4.77071 v 4.77071 h -21.0706 -21.0706 z"
       id="path4887" />
    <path
       style="fill:#00ffff;stroke-width:0.795118;stroke-miterlimit:10"
       d="M 2171.4672,551.81188 V 450.8319 h 118.075 118.0751 v 2.38535 c 0,1.31195 0.3578,2.38536 0.7951,2.38536 0.4373,0 0.7951,-1.07341 0.7951,-2.38536 v -2.38535 h 9.5414 9.5414 v 100.97998 100.97999 h -128.4115 -128.4116 z"
       id="path4889" />
    <path
       style="fill:#00ffff;stroke-width:1.34625;stroke-miterlimit:10"
       d="m 2077.2647,257.80699 v -12.78938 h 5.385 c 2.9617,0 5.385,-0.60582 5.385,-1.34625 0,-0.74044 -2.4233,-1.34625 -5.385,-1.34625 h -5.385 v -32.31002 -32.31001 h 37.0219 37.0218 v 23.46067 c 0,21.21146 -0.2258,23.5197 -2.3559,24.07634 -2.2437,0.58636 -2.2437,0.62311 0,0.77184 2.1423,0.14201 2.3559,2.17093 2.3559,22.3693 v 22.21314 h -18.8475 -18.8475 v -3.36563 c 0,-1.85109 -0.6058,-3.36562 -1.3462,-3.36562 -0.7405,0 -1.3463,1.51453 -1.3463,3.36562 v 3.36563 h -16.8281 -16.8281 z"
       id="path4890" />
    <path
       style="fill:#00ffff;stroke-width:1.34625;stroke-miterlimit:10"
       d="M 1919.7533,244.34448 V 218.0926 h 11.331 c 7.7484,0 11.5792,0.53205 12.1162,1.68281 0.6283,1.34625 0.9424,1.34625 1.5707,0 1.1432,-2.44972 96.9571,-2.44972 97.9456,0 0.5432,1.34625 0.7003,1.34625 0.7853,0 0.073,-1.16275 2.8106,-1.68281 8.8569,-1.68281 h 8.7507 v 12.11625 12.11626 h -4.0388 c -2.2213,0 -4.0387,0.60581 -4.0387,1.34625 0,0.74043 1.8174,1.34625 4.0387,1.34625 h 4.0388 v 12.78938 12.78938 h -70.6782 -70.6782 z"
       id="path4891" />
    <path
       style="fill:#00ffff;stroke-width:1.34625;stroke-miterlimit:10"
       d="m 1929.1771,426.08831 v -23.55938 h 3.3656 c 3.2448,0 3.3656,-0.31413 3.3656,-8.75063 0,-8.43651 -0.1208,-8.75063 -3.3656,-8.75063 h -3.3656 v -51.15752 -51.15753 h 90.8719 90.8719 v 3.36563 c 0,1.8511 0.6058,3.36563 1.3463,3.36563 0.7404,0 1.3462,-1.51453 1.3462,-3.36563 v -3.36563 h 18.8475 18.8475 v 50.4844 50.4844 h -3.3656 c -3.2694,0 -3.3656,0.26925 -3.3656,9.42375 0,9.15451 0.096,9.42376 3.3656,9.42376 h 3.3656 v 23.55938 23.55939 h -111.0656 -111.0657 z"
       id="path4892" />
    <path
       style="fill:#00ffff;stroke-width:1.34625;stroke-miterlimit:10"
       d="m 1929.1771,477.91896 v -21.54001 h 111.0657 111.0656 v 21.54001 21.54001 h -111.0656 -111.0657 z"
       id="path4893" />
    <path
       style="fill:#00ffff;stroke-width:1.34625;stroke-miterlimit:10"
       d="m 1937.2546,615.90965 c 0,-5.83376 -0.1496,-6.05813 -4.0388,-6.05813 h -4.0387 V 558.694 507.53647 h 69.3319 69.3319 v 57.21565 57.21565 h -65.2931 -65.2932 z"
       id="path4894" />
    <path
       style="fill:#00ffff;stroke-width:1.34625;stroke-miterlimit:10"
       d="m 2081.3034,564.75212 v -57.21565 h 35.889 35.8889 l -0.8864,26.46838 c -0.4876,14.5576 -0.8865,37.57849 -0.8865,51.15752 0,23.79165 -0.098,24.68915 -2.6925,24.68915 -2.2936,0 -2.6925,0.8975 -2.6925,6.05813 v 6.05812 h -32.31 -32.31 z"
       id="path4895" />
    <path
       style="fill:#00ffff;stroke-width:1.34625;stroke-miterlimit:10"
       d="m 1927.8308,703.52812 c 0,-17.44142 0.4311,-23.64835 1.6829,-24.23251 1.3462,-0.62825 1.3462,-0.94238 0,-1.57062 -1.249,-0.58287 -1.6829,-6.65647 -1.6829,-23.55939 v -22.77407 h 111.7388 111.7388 v 34.32939 34.32939 h -49.8112 -49.8113 v 13.4625 13.46251 h -61.9275 -61.9276 z"
       id="path4896" />
    <path
       style="fill:#00ffff;stroke-width:1.34625;stroke-miterlimit:10"
       d="m 1392.0225,785.20066 6e-4,-55.53284 h 38.3682 38.3681 v -4.71188 -4.71187 h -73.3707 -73.3706 v -6.05813 c 0,-3.33197 -0.6058,-6.05813 -1.3463,-6.05813 -0.7404,0 -1.3462,2.72616 -1.3462,6.05813 v 6.05813 h -30.2907 -30.2906 v -16.15501 c 0,-15.2575 0.1496,-16.15501 2.6925,-16.15501 2.6028,0 2.6925,-0.8975 2.6925,-26.92501 0,-26.02751 -0.09,-26.92501 -2.6925,-26.92501 -2.5951,0 -2.6925,-0.89751 -2.6925,-24.81622 v -24.81622 l 3.7022,-0.56083 3.7022,-0.56084 -3.7022,-0.20171 -3.7022,-0.2017 V 558.694 c 0,-23.33501 0.1,-24.23252 2.6925,-24.23252 2.6028,0 2.6925,-0.8975 2.6925,-26.92501 0,-26.0275 -0.09,-26.92501 -2.6925,-26.92501 -2.6741,0 -2.6925,-0.8975 -2.6925,-131.14932 0,-72.13213 -0.3677,-132.1076 -0.8172,-133.27881 -0.5858,-1.52658 -0.014,-2.12949 2.0194,-2.12949 1.5601,0 2.8366,-0.60581 2.8366,-1.34625 0,-0.74043 -1.2117,-1.34625 -2.6925,-1.34625 -2.5409,0 -2.6925,-0.8975 -2.6925,-15.93225 v -15.93224 l 186.0058,-0.89589 c 102.3032,-0.49273 250.7274,-0.89588 329.8314,-0.89588 h 143.8255 v 249.72948 c 0,221.08426 -0.2316,249.72949 -2.0193,249.72949 -1.1107,0 -2.0194,0.60581 -2.0194,1.34625 0,0.74044 0.9087,1.34625 2.0194,1.34625 1.7617,0 2.0193,6.9457 2.0193,54.43373 v 54.43373 l -3.7021,0.56083 -3.7022,0.56084 3.548,0.20171 3.548,0.20171 0.9843,22.95356 c 0.5415,12.62445 0.7477,23.19033 0.4583,23.47974 -0.2894,0.28939 -101.9852,1.17822 -225.9906,1.97518 -124.0055,0.79695 -242.276,1.59005 -262.8235,1.76245 l -37.3591,0.31346 z m 92.8919,-164.57914 v -9.42375 h -9.4238 -9.4237 v 9.42375 9.42376 h 9.4237 9.4238 z m 224.8239,0 v -9.42375 h -9.4238 -9.4238 v 9.42375 9.42376 h 9.4238 9.4238 z M 1484.9144,393.10517 v -9.42375 h -9.4238 -9.4237 v 9.42375 9.42376 h 9.4237 9.4238 z m 224.8239,0 v -9.42375 h -9.4238 -9.4238 v 9.42375 9.42376 h 9.4238 9.4238 z"
       id="path4897" />
    <path
       style="fill:#00ffff;stroke-width:1.34625;stroke-miterlimit:10"
       d="m 2000.5284,193.18696 v -18.17438 h 32.9831 32.9832 v 17.31373 17.31374 l -7.0679,0.84895 c -12.9151,1.55129 -15.5683,1.19838 -16.2146,-2.15672 l -0.5834,-3.02906 -0.1833,3.02906 c -0.1818,3.00308 -0.3623,3.02906 -21.0502,3.02906 h -20.8669 z m 60.2803,-7.03671 c -2.7571,-0.28928 -7.6036,-0.29328 -10.77,-0.009 -3.1665,0.28439 -0.9107,0.52107 5.0128,0.52596 5.9235,0.005 8.5142,-0.22779 5.7572,-0.51707 z"
       id="path4898" />
    <path
       style="fill:#00ffff;stroke-width:1.34625;stroke-miterlimit:10"
       d="m 1929.1771,191.84071 v -14.13563 h 30.9638 30.9637 v 5.385 5.385 h -11.4431 c -6.7313,0 -11.4431,0.55434 -11.4431,1.34625 0,0.79192 4.7118,1.34625 11.4431,1.34625 h 11.4431 v 7.40438 7.40438 h -22.774 c -16.903,0 -22.9766,-0.43383 -23.5594,-1.68281 -0.6283,-1.34625 -0.9424,-1.34625 -1.5707,0 -0.472,1.01159 -3.4254,1.68281 -7.4043,1.68281 h -6.6191 z"
       id="path4899" />
    <path
       style="fill:#00ffff;stroke-width:1.34625;stroke-miterlimit:10"
       d="m 1260.0906,828.0563 c 0,-9.41858 0.4955,-13.55141 1.6828,-14.03314 1.2859,-0.52177 1.2293,-0.99886 -0.2399,-2.02272 -1.5699,-1.094 -2.0348,-8.77201 -2.5332,-41.83626 l -0.6105,-40.49636 h 30.4679 30.4679 v 6.05813 c 0,3.33197 0.6058,6.05813 1.3462,6.05813 0.7405,0 1.3463,-2.72616 1.3463,-6.05813 v -6.05813 h 30.2906 30.2907 v 55.8694 55.8694 h -61.2544 -61.2544 z"
       id="path4900" />
    <path
       style="fill:#00ffff;stroke-width:1.34625;stroke-miterlimit:10"
       d="m 1196.8168,812.43436 v -28.97227 l 27.2615,0.36444 27.2616,0.36444 0.3837,13.79907 c 0.3644,13.10633 0.2461,13.79907 -2.356,13.79907 -1.5067,0 -2.7396,0.60581 -2.7396,1.34625 0,0.74043 1.2117,1.34625 2.6925,1.34625 2.513,0 2.6925,0.8975 2.6925,13.4625 v 13.46251 h -27.5981 -27.5981 z"
       id="path4901" />
    <path
       style="fill:#00ffff;stroke-width:1.34625;stroke-miterlimit:10"
       d="m 1196.8168,706.78156 v -72.69753 h 4.7119 c 4.1285,0 4.7118,-0.4167 4.7118,-3.36563 0,-3.21141 0.3656,-3.36562 7.9788,-3.36562 6.4668,0 8.0955,0.44645 8.5945,2.35593 0.5863,2.24375 0.6231,2.24375 0.7718,0 0.1302,-1.96462 1.4978,-2.35593 8.2337,-2.35593 7.7185,0 8.0775,0.14958 8.0775,3.36562 0,3.02907 0.5385,3.36563 5.385,3.36563 h 5.385 v 72.69753 72.69753 h -26.925 -26.925 z"
       id="path4902" />
    <path
       style="fill:#00ffff;stroke-width:1.34625;stroke-miterlimit:10"
       d="m 1194.1243,527.00445 c 0,-9.04493 0.2599,-10.04422 2.613,-10.04422 1.4372,0 2.9875,-0.60582 3.4451,-1.34625 0.4764,-0.77088 -0.7257,-1.34625 -2.8126,-1.34625 h -3.6446 l 0.8646,-11.10657 c 0.4755,-6.10861 0.8682,-30.64403 0.8727,-54.52315 l 0.01,-43.41658 h 5.385 5.385 v -9.42376 -9.42375 h -5.385 -5.385 v -70.00503 -70.00503 h 28.2713 28.2712 v 70.00503 70.00503 h -6.0581 -6.0581 v 9.42375 9.42376 h 6.0581 6.0581 v 65.93118 65.93118 l -28.9443,-0.0176 -28.9444,-0.0175 z"
       id="path4903" />
    <path
       style="fill:#00ffff;stroke-width:1.34625;stroke-miterlimit:10"
       d="m 1195.4705,211.36134 v -30.96376 h 5.385 c 3.8892,0 5.385,-0.56094 5.385,-2.01938 0,-1.69144 2.8421,-2.01937 17.5013,-2.01937 14.6592,0 17.5012,0.32793 17.5012,2.01937 0,1.41036 1.4211,2.01938 4.7119,2.01938 h 4.7119 v 13.3524 c 0,7.34382 0.3677,14.31066 0.8172,15.48188 0.6163,1.60622 -0.045,2.12948 -2.6925,2.12948 -1.9304,0 -3.5097,0.60582 -3.5097,1.34625 0,0.74044 1.5145,1.34625 3.3656,1.34625 h 3.3656 v 14.13564 14.13563 h -28.2712 -28.2713 z"
       id="path4904" />
    <path
       style="fill:#00ffff;stroke-width:1.34625;stroke-miterlimit:10"
       d="m 985.45543,389.06642 c 0,-2.17965 -0.8975,-2.6925 -4.71187,-2.6925 h -4.71188 V 282.71262 179.05133 h 106.56792 106.5678 l -0.8872,28.48833 c -0.4879,15.66858 -0.8872,40.80981 -0.8872,55.8694 v 27.38107 h -26.2519 c -25.3543,0 -26.2519,-0.092 -26.2519,-2.6925 0,-1.48088 -0.6058,-2.6925 -1.3462,-2.6925 -0.7404,0 -1.3463,1.21162 -1.3463,2.6925 0,2.60702 -0.8975,2.6925 -28.2712,2.6925 h -28.2713 v 50.48439 50.4844 h -24.2325 -24.2325 v -3.36562 c 0,-1.8511 -0.6058,-3.36563 -1.3462,-3.36563 -0.7405,0 -1.3463,1.51453 -1.3463,3.36563 v 3.36562 h -19.5206 c -18.62317,0 -19.52067,-0.12379 -19.52067,-2.6925 z"
       id="path4905" />
    <path
       style="fill:#00ffff;stroke-width:1.34625;stroke-miterlimit:10"
       d="m 1082.3855,329.15827 v -32.98314 h 24.9056 c 24.0081,0 24.9056,0.097 24.9056,2.6925 0,1.48088 0.6059,2.6925 1.3463,2.6925 0.7404,0 1.3462,-1.21162 1.3462,-2.6925 0,-2.60045 0.8975,-2.6925 26.2519,-2.6925 h 26.2519 v 32.98314 32.98314 h -52.5038 -52.5037 z"
       id="path4906" />
    <path
       style="fill:#00ffff;stroke-width:1.34625;stroke-miterlimit:10"
       d="M 868.33163,438.77056 V 403.6609 l 63.61034,0.21748 c 34.98569,0.11962 70.12283,0.54868 78.08253,0.95346 14.1232,0.71824 14.4722,0.81297 14.4722,3.92841 0,1.75584 0.6058,3.19243 1.3463,3.19243 0.7404,0 1.3462,-1.51453 1.3462,-3.36563 v -3.36562 h 22.8863 22.8862 v 6.73125 c 0,6.58167 0.09,6.73125 4.0388,6.73125 h 4.0387 V 396.4708 374.25766 h 52.5038 52.5038 v 40.38752 40.38752 h -52.5038 c -45.7725,0 -52.5038,-0.2589 -52.5038,-2.01938 0,-1.2565 -1.2714,-2.01937 -3.3656,-2.01937 -3.326,0 -3.3656,0.13462 -3.3656,11.44313 v 11.44313 h -14.037 c -12.2364,0 -14.1158,-0.30219 -14.6525,-2.35594 -0.5864,-2.24375 -0.6231,-2.24375 -0.7719,0 -0.1439,2.17067 -2.5823,2.35594 -31.0077,2.35594 -23.36494,0 -31.04216,-0.40836 -31.63691,-1.68282 -0.62825,-1.34625 -0.94237,-1.34625 -1.57062,0 -0.60024,1.28624 -9.48359,1.68282 -37.69502,1.68282 -31.91112,0 -36.9097,-0.27348 -36.9097,-2.01938 0,-1.11065 -0.60582,-2.01937 -1.34625,-2.01937 -0.74044,0 -1.34625,0.90872 -1.34625,2.01937 0,1.69144 -2.84209,2.01938 -17.50126,2.01938 h -17.50126 z"
       id="path4907" />
    <path
       style="fill:#00ffff;stroke-width:1.34625;stroke-miterlimit:10"
       d="m 1081.0392,502.8246 v -39.7144 h 52.5038 52.5038 v 25.57876 c 0,21.83918 -0.2953,25.57877 -2.0194,25.57877 -1.1107,0 -2.0194,0.60581 -2.0194,1.34625 0,0.74043 0.9087,1.34625 2.0194,1.34625 1.6533,0 2.0194,2.31854 2.0194,12.78938 v 12.78938 h -25.5788 c -21.8392,0 -25.5788,-0.29523 -25.5788,-2.01938 0,-1.11065 -0.6058,-2.01937 -1.3462,-2.01937 -0.7404,0 -1.3463,0.90872 -1.3463,2.01937 0,1.72415 -3.7395,2.01938 -25.5787,2.01938 h -25.5788 z"
       id="path4908" />
    <path
       style="fill:#00ffff;stroke-width:1.34625;stroke-miterlimit:10"
       d="m 1024.4967,512.29736 v -27.54912 l 24.9056,-0.031 24.9057,-0.031 v 27.58009 27.58009 h -12.7894 -12.7894 v -4.03875 c 0,-2.22132 -0.6058,-4.03876 -1.3462,-4.03876 -0.7405,0 -1.3463,1.81744 -1.3463,4.03876 v 4.03875 h -10.77 -10.77 z"
       id="path4909" />
    <path
       style="fill:#00ffff;stroke-width:1.34625;stroke-miterlimit:10"
       d="m 947.76042,512.24835 v -27.59814 h 16.04282 c 11.51792,0 16.26431,0.47464 16.82813,1.68282 0.62825,1.34625 0.94237,1.34625 1.57062,0 0.56641,-1.21374 5.44484,-1.68282 17.50126,-1.68282 h 16.71595 v 27.59814 27.59814 h -34.32939 -34.32939 z"
       id="path4910" />
    <path
       style="fill:#00ffff;stroke-width:1.34625;stroke-miterlimit:10"
       d="m 868.33163,511.57522 v -28.27126 h 17.50126 c 14.65917,0 17.50126,0.32793 17.50126,2.01938 0,1.11065 0.60581,2.01937 1.34625,2.01937 0.74043,0 1.34625,-0.90872 1.34625,-2.01937 0,-1.6873 2.76729,-2.01938 16.82813,-2.01938 h 16.82813 v 28.27126 28.27127 h -35.67564 -35.67564 z"
       id="path4911" />
    <path
       style="fill:#00ffff;stroke-width:1.34625;stroke-miterlimit:10"
       d="m 867.31379,285.74169 0.34472,-106.01724 50.82096,-0.35275 50.82096,-0.35275 v 103.67749 c 0,68.22082 -0.46041,103.67748 -1.34626,103.67748 -0.74043,0 -1.34625,1.21163 -1.34625,2.6925 0,2.644 -0.8975,2.6925 -49.81942,2.6925 h -49.81943 z"
       id="path4912" />
    <path
       style="fill:#00ffff;stroke-width:1.34625;stroke-miterlimit:10"
       d="m 753.90033,393.10517 c 0,-5.25678 -0.11219,-5.385 -4.71188,-5.385 h -4.71187 v -13.46251 -13.4625 h 4.03875 c 2.22131,0 4.03875,-0.60581 4.03875,-1.34625 0,-0.74044 -1.81744,-1.34625 -4.03875,-1.34625 h -4.03875 v -89.52567 -89.52566 h 21.32129 c 11.7267,0 37.77665,0.40024 57.88877,0.88943 l 36.56749,0.88943 v 108.82999 108.82999 h -53.1769 -53.1769 z"
       id="path4913" />
    <path
       style="fill:#00ffff;stroke-width:1.34625;stroke-miterlimit:10"
       d="m 656.97029,253.09511 v -70.00503 h 39.71439 39.71439 v 70.00503 70.00503 h -19.52063 c -16.45417,0 -19.52063,-0.31722 -19.52063,-2.01937 0,-1.11066 -0.60582,-2.01938 -1.34625,-2.01938 -0.74044,0 -1.34626,0.90872 -1.34626,2.01938 0,1.69883 -2.99166,2.01937 -18.8475,2.01937 h -18.84751 z"
       id="path4914" />
    <path
       style="fill:#00ffff;stroke-width:1.34625;stroke-miterlimit:10"
       d="m 790.44982,522.28635 c -11.70237,-12.44547 -13.66673,-15.14291 -12.26098,-16.83673 2.22534,-2.68137 0.58312,-4.15825 -2.12481,-1.91087 -1.85255,1.53748 -4.16418,-0.25359 -17.53379,-13.58527 l -15.39991,-15.35623 v -34.68791 -34.68791 h 59.23502 59.23503 v 65.96628 65.96628 l -28.60783,-0.0239 -28.60782,-0.0239 z"
       id="path4915" />
    <path
       style="fill:#00ffff;stroke-width:1.34625;stroke-miterlimit:10"
       d="m 530.42273,459.07145 v -70.00503 h -61.2544 -61.2544 v -4.71188 c 0,-2.59153 -0.60581,-4.71187 -1.34625,-4.71187 -0.74044,0 -1.34625,2.12034 -1.34625,4.71187 v 4.71188 h -53.1769 -53.1769 l 0.005,-87.16972 c 0.003,-47.94335 0.3994,-94.89384 0.88088,-104.33443 l 0.87543,-17.16469 h 174.13169 174.13169 v 144.36339 144.36339 l -14.40984,14.45467 c -13.57331,13.61552 -14.55072,14.32719 -16.83639,12.25869 -3.15898,-2.85885 -4.85137,-1.16645 -1.99253,1.99253 2.0685,2.28566 1.35683,3.26308 -12.25869,16.83638 l -14.45467,14.40985 h -29.2585 -29.25897 z"
       id="path4916" />
    <path
       style="fill:#00ffff;stroke-width:1.34625;stroke-miterlimit:10"
       d="m 298.86763,463.1102 v -65.96628 h 53.1769 53.1769 v 4.03876 c 0,2.22131 0.60581,4.03875 1.34625,4.03875 0.74044,0 1.34625,-1.81744 1.34625,-4.03875 v -4.03876 h 51.15752 51.15752 v 5.38501 c 0,2.96175 0.60582,5.385 1.34625,5.385 0.87756,0 1.34626,21.09126 1.34626,60.58128 v 60.58127 H 405.89455 298.86763 Z"
       id="path4917" />
    <path
       style="fill:#00ffff;stroke-width:1.34625;stroke-miterlimit:10"
       d="m 298.86763,585.61901 v -44.42627 h 89.52567 c 71.09358,0 89.52566,0.34918 89.52566,1.69597 0,1.33221 -5.93395,23.59646 -10.40191,39.02811 -0.4036,1.39395 -1.99227,2.35594 -3.89073,2.35594 -1.76474,0 -3.20862,0.60581 -3.20862,1.34625 0,0.74043 1.25245,1.34625 2.78323,1.34625 2.01921,0 2.59153,0.64671 2.0849,2.35594 -0.38408,1.29576 -3.24248,10.98877 -6.35201,21.54001 l -5.6537,19.18407 h -77.20624 -77.20625 z"
       id="path4918" />
    <path
       style="fill:#00ffff;stroke-width:1.34625;stroke-miterlimit:10"
       d="M 770.05534,863.61975 V 845.44537 H 757.26596 744.47658 V 741.78408 638.12278 h 3.36562 c 2.84209,0 3.36563,-0.62825 3.36563,-4.03875 v -4.03875 h 104.33442 104.33442 v 10.77 10.77001 h 11.4077 11.40771 v 36.34876 36.34877 h -11.40771 -11.4077 v 16.25341 16.25342 l -7.6483,8.65773 -7.64832,8.65772 -3.11638,-2.92769 c -4.15495,-3.90337 -5.77604,-2.00922 -1.85368,2.16593 l 3.07894,3.27738 -19.90037,20.61326 c -10.94521,11.33729 -20.99669,21.79308 -22.33664,23.2351 -2.40912,2.59264 -2.47407,2.58634 -5.82985,-0.56624 -1.86645,-1.75345 -3.85031,-2.72753 -4.40856,-2.16461 -0.55825,0.56291 0.74411,2.42925 2.89413,4.14743 l 3.9091,3.12396 -9.29411,10.19364 -9.29412,10.19365 -18.51095,0.0242 -18.51094,0.0242 v 18.17438 18.17439 h -17.50126 c -14.65917,0 -17.50126,-0.32794 -17.50126,-2.01938 0,-1.11066 -0.60581,-2.01937 -1.34625,-2.01937 -0.74043,0 -1.34625,0.90871 -1.34625,2.01937 0,1.6873 -2.76729,2.01938 -16.82813,2.01938 h -16.82813 z"
       id="path4919" />
    <path
       style="fill:#00ffff;stroke-width:1.34625;stroke-miterlimit:10"
       d="m 967.95417,741.11095 v -8.75063 h 11.44313 11.44313 V 710.9325 c 0,-15.82592 0.43994,-21.63313 1.68282,-22.21314 1.34625,-0.62825 1.34625,-0.94237 0,-1.57062 -1.24602,-0.58148 -1.68282,-6.52184 -1.68282,-22.88626 V 642.16153 H 979.3973 967.95417 v -7.40438 -7.40437 h 63.94693 63.9469 v 61.2544 61.2544 h -63.9469 -63.94693 z"
       id="path4920" />
    <path
       style="fill:#00ffff;stroke-width:1.34625;stroke-miterlimit:10"
       d="m 1103.9255,689.95343 v -62.60065 h 14.1356 c 13.2381,0 14.1356,0.17095 14.1356,2.6925 0,1.48087 0.6059,2.6925 1.3463,2.6925 0.7404,0 1.3462,-1.21163 1.3462,-2.6925 0,-2.60275 0.8975,-2.6925 26.9251,-2.6925 h 26.925 v 62.60065 62.60065 h -42.4069 -42.4069 z"
       id="path4921" />
    <path
       style="fill:#00ffff;stroke-width:1.34625;stroke-miterlimit:10"
       d="m 981.16138,848.47443 c -0.41098,-4.96571 -0.5237,-5.05946 -6.87888,-5.72156 -6.33304,-0.65979 -6.81988,-1.05905 -24.56908,-20.14946 -9.95941,-10.71199 -18.09174,-19.79918 -18.07185,-20.19376 0.0199,-0.39458 3.87943,-4.94578 8.57675,-10.11376 7.56111,-8.31873 8.79585,-9.1845 10.76637,-7.5491 3.08372,2.55925 4.44177,0.68912 1.69979,-2.34073 -2.12377,-2.34674 -1.67759,-3.04245 8.63927,-13.47076 l 10.87869,-10.99622 h 108.94156 108.9415 v 39.51691 c 0,21.7343 -0.3892,43.24066 -0.8649,47.7919 l -0.8649,8.27498 H 1084.9675 981.57921 Z"
       id="path4922" />
    <path
       style="fill:#00ffff;stroke-width:1.34625;stroke-miterlimit:10"
       d="m 922.60807,856.83906 c -19.38708,-1.69628 -36.29855,-3.28781 -37.58105,-3.53673 -1.76745,-0.34304 0.12232,-3.0538 7.80794,-11.20001 8.92822,-9.46327 10.40253,-10.52936 12.33885,-8.92235 1.85933,1.5431 2.19909,1.52922 2.19909,-0.0899 0,-1.05323 -0.59822,-2.51319 -1.32939,-3.24435 -0.87501,-0.87501 2.11012,-4.74593 8.73377,-11.32537 6.06447,-6.024 10.51667,-9.48109 11.20448,-8.70018 0.62774,0.71269 9.72252,10.46809 20.21063,21.67866 10.48811,11.21057 19.06928,20.94942 19.06928,21.6419 0,1.31983 -5.80372,7.23414 -6.81802,6.94793 -0.32249,-0.091 -16.44851,-1.55332 -35.83558,-3.24961 z"
       id="path4923" />
    <path
       style="fill:#00ffff;stroke-width:1.34625;stroke-miterlimit:10"
       d="M 880.44789,972.66605 V 872.37038 h 43.75314 43.75314 v 22.21314 22.21313 h 3.36563 3.36563 v -26.25188 -26.25189 h 104.33437 104.3345 v 51.83065 51.83064 h -7.4044 c -4.0724,0 -7.4044,0.60582 -7.4044,1.34626 0,0.74043 3.332,1.34625 7.4044,1.34625 h 7.4044 v 51.15752 51.1575 h -45.6831 -45.6831 l -0.5609,-3.7022 -0.5608,-3.7022 -0.2017,3.7022 -0.2017,3.7022 H 985.45543 880.44789 Z"
       id="path4924" />
    <path
       style="fill:#00ffff;stroke-width:1.34625;stroke-miterlimit:10"
       d="m 741.78408,927.56666 v -74.04379 h 9.42375 9.42375 v 18.17439 18.17438 h 21.54001 c 20.64251,0 21.54001,0.11219 21.54001,2.6925 0,1.48088 0.60582,2.6925 1.34625,2.6925 0.74044,0 1.34625,-1.21162 1.34625,-2.6925 0,-2.58031 0.8975,-2.6925 21.54001,-2.6925 h 21.54001 v -18.17438 -18.17439 h 10.77001 10.77 v 74.04379 74.04374 H 806.4041 741.78408 Z"
       id="path4925" />
    <path
       style="fill:#00ffff;stroke-width:1.34625;stroke-miterlimit:10"
       d="m 741.78408,1041.3248 v -31.6369 h 64.62002 64.62003 v 31.6369 31.6369 H 806.4041 741.78408 Z"
       id="path4926" />
    <path
       style="fill:#00ffff;stroke-width:1.34625;stroke-miterlimit:10"
       d="m 752.55408,1130.1774 c 0,-4.5997 -0.12821,-4.7119 -5.385,-4.7119 h -5.385 v -8.0775 c 0,-7.7185 0.14958,-8.0775 3.36562,-8.0775 1.8511,0 3.36563,-0.6058 3.36563,-1.3463 0,-0.7404 -1.51453,-1.3462 -3.36563,-1.3462 -3.21604,0 -3.36562,-0.359 -3.36562,-8.0775 v -8.0775 h 5.385 5.385 v -5.385 -5.385 h 70.67816 70.67815 v 27.5981 27.5981 h -70.67815 -70.67816 z"
       id="path4928" />
    <path
       style="fill:#00ffff;stroke-width:1.34625;stroke-miterlimit:10"
       d="m 901.9879,1107.2911 v -27.5981 h 28.27126 28.27126 v 27.5981 27.5981 H 945.1801 c -9.36392,0 -13.58481,-0.5024 -14.13563,-1.6828 -0.62825,-1.3462 -0.94237,-1.3462 -1.57062,0 -0.55082,1.1804 -4.77172,1.6828 -14.13564,1.6828 H 901.9879 Z"
       id="path4929" />
    <path
       style="fill:#00ffff;stroke-width:1.34625;stroke-miterlimit:10"
       d="m 604.46652,1018.4386 v -53.17693 h 24.90563 24.90564 v 37.69503 37.695 h -3.36563 c -1.85109,0 -3.36563,0.6058 -3.36563,1.3463 0,0.7404 1.51454,1.3462 3.36563,1.3462 h 3.36563 v 14.1356 14.1357 h -24.90564 -24.90563 z"
       id="path4930" />
    <path
       style="fill:#00ffff;stroke-width:1.34625;stroke-miterlimit:10"
       d="m 607.15902,947.85913 c 0,-10.31324 0.33411,-12.10486 2.35594,-12.63321 2.24375,-0.58636 2.24375,-0.62311 0,-0.77184 -2.05767,-0.1364 -2.35594,-1.69013 -2.35594,-12.27243 V 910.0654 h 23.55938 23.55939 v 24.90564 24.90563 H 630.7184 607.15902 Z"
       id="path4931" />
    <path
       style="fill:#00ffff;stroke-width:1.34625;stroke-miterlimit:10"
       d="m 607.15902,884.48664 c 0,-16.60376 0.13807,-17.50126 2.6925,-17.50126 1.48087,0 2.6925,-0.60581 2.6925,-1.34625 0,-0.74044 -1.21163,-1.34625 -2.6925,-1.34625 -2.55443,0 -2.6925,-0.8975 -2.6925,-17.50126 v -17.50126 h 23.55938 23.55939 v 36.34877 36.34877 H 630.7184 607.15902 Z"
       id="path4932" />
    <path
       style="fill:#00ffff;stroke-width:1.34625;stroke-miterlimit:10"
       d="m 607.15902,809.09661 c 0,-12.56501 0.1795,-13.46251 2.6925,-13.46251 1.48087,0 2.6925,-0.60581 2.6925,-1.34625 0,-0.74044 -1.21163,-1.34625 -2.6925,-1.34625 -2.5767,0 -2.6925,-0.8975 -2.6925,-20.86689 v -20.86688 h 23.55938 23.55939 v 35.67564 35.67564 H 630.7184 607.15902 Z"
       id="path4933" />
    <path
       style="fill:#00ffff;stroke-width:1.34625;stroke-miterlimit:10"
       d="m 527.73023,730.34095 c 0,-11.89188 0.18895,-12.78939 2.6925,-12.78939 1.48088,0 2.6925,-0.60581 2.6925,-1.34625 0,-0.74043 -1.21162,-1.34625 -2.6925,-1.34625 -2.63551,0 -2.6925,-0.8975 -2.6925,-42.40689 v -42.40689 h 30.95029 30.95029 l 32.99662,31.22395 32.99661,31.22394 v 25.31858 25.31858 h -63.94691 -63.9469 z"
       id="path4934" />
    <path
       style="fill:#00ffff;stroke-width:1.34625;stroke-miterlimit:10"
       d="M 296.17513,854.86913 V 751.20783 H 446.9552 597.73526 v 20.86688 c 0,17.65084 -0.31122,20.86689 -2.01937,20.86689 -1.11066,0 -2.01938,0.60581 -2.01938,1.34625 0,0.74044 0.90872,1.34625 2.01938,1.34625 1.66037,0 2.01937,2.39333 2.01937,13.46251 v 13.4625 h -10.77 c -9.8725,0 -10.77001,-0.22437 -10.77001,-2.6925 0,-1.48088 -0.60581,-2.6925 -1.34625,-2.6925 -0.74044,0 -1.34625,1.21162 -1.34625,2.6925 0,2.66307 -0.8975,2.6925 -82.12128,2.6925 -72.0992,0 -82.12129,-0.24644 -82.12129,-2.01937 0,-1.11066 -0.60581,-2.01938 -1.34625,-2.01938 -0.74044,0 -1.34625,0.90872 -1.34625,2.01938 0,1.74005 -4.5623,2.01937 -32.98314,2.01937 H 340.6014 v 67.98566 67.98565 h -9.32504 c -7.74895,0 -9.4291,-0.39819 -9.94071,-2.35594 -0.58636,-2.24375 -0.62311,-2.24375 -0.77184,0 -0.1364,2.05767 -1.69013,2.35594 -12.27242,2.35594 h -12.11626 z"
       id="path4935" />
    <path
       style="fill:#00ffff;stroke-width:1.34625;stroke-miterlimit:10"
       d="m 351.03484,958.91241 -3.70219,-0.56083 v -64.53061 -64.53061 h 29.61752 c 28.72001,0 29.61751,0.0816 29.61751,2.69251 0,1.48087 0.60581,2.6925 1.34625,2.6925 0.74044,0 1.34625,-1.21163 1.34625,-2.6925 0,-2.63166 0.8975,-2.69251 39.71439,-2.69251 h 39.71439 v 65.11929 65.11929 l -59.23502,0.2173 -59.23503,0.21729 v -3.40905 c 0,-1.87498 -0.60581,-3.40906 -1.34625,-3.40906 -0.74044,0 -1.34625,1.51453 -1.34625,3.36562 0,3.14595 -0.4174,3.35247 -6.39469,3.16392 -3.51708,-0.11094 -8.06067,-0.45409 -10.09688,-0.76255 z"
       id="path4936" />
    <path
       style="fill:#00ffff;stroke-width:1.34625;stroke-miterlimit:10"
       d="m 498.11272,893.91039 v -64.62003 h 37.69502 c 36.79751,0 37.69501,0.0641 37.69501,2.69251 0,1.48087 0.60581,2.6925 1.34625,2.6925 0.74044,0 1.34625,-1.21163 1.34625,-2.6925 0,-2.46813 0.8975,-2.69251 10.77001,-2.69251 h 10.77 v 17.50126 c 0,14.65917 -0.32793,17.50126 -2.01937,17.50126 -1.11066,0 -2.01938,0.60581 -2.01938,1.34625 0,0.74044 0.90872,1.34625 2.01938,1.34625 1.74099,0 2.01937,4.62612 2.01937,33.55755 0,30.82753 -0.19166,33.60764 -2.35594,34.17323 -2.24375,0.58635 -2.24375,0.6231 0,0.77183 2.04673,0.13567 2.35594,1.65807 2.35594,11.5993 v 11.44313 h -38.27872 -38.27872 l -0.56083,-3.70219 -0.56084,-3.70219 -0.20171,3.70219 -0.20171,3.70219 h -10.77001 -10.77 z m 29.61751,-37.69501 v -9.42376 h -9.42375 -9.42376 v 9.42376 9.42375 h 9.42376 9.42375 z"
       id="path4937" />
    <path
       style="fill:#00ffff;stroke-width:1.34625;stroke-miterlimit:10"
       d="m 556.00149,1035.2667 c 0,-35.45126 0.0665,-36.34876 2.69251,-36.34876 1.48087,0 2.6925,-0.60581 2.6925,-1.34625 0,-0.74044 -1.21163,-1.34625 -2.6925,-1.34625 -2.53642,0 -2.69251,-0.8975 -2.69251,-15.48188 v -15.48189 h 20.86689 20.86688 v 53.17693 53.1769 h -20.86688 -20.86689 z"
       id="path4938" />
    <path
       style="fill:#00ffff;stroke-width:1.34625;stroke-miterlimit:10"
       d="m 468.49521,1035.2667 c 0,-35.45126 0.0665,-36.34876 2.6925,-36.34876 1.48087,0 2.6925,-0.60581 2.6925,-1.34625 0,-0.74044 -1.21163,-1.34625 -2.6925,-1.34625 -2.52932,0 -2.6925,-0.8975 -2.6925,-14.80876 v -14.80876 l 14.47219,-0.008 c 7.95971,-0.004 19.41679,-0.39303 25.46018,-0.86352 10.81528,-0.84201 10.99754,-0.80485 11.59636,2.364 0.59076,3.12628 0.61368,3.13179 0.7917,0.1904 0.17717,-2.92709 0.63655,-3.02907 13.64584,-3.02907 h 13.46251 v 15.48189 c 0,14.58438 -0.15609,15.48188 -2.6925,15.48188 -1.48088,0 -2.6925,0.60581 -2.6925,1.34625 0,0.74044 1.21162,1.34625 2.6925,1.34625 2.62602,0 2.6925,0.8975 2.6925,36.3488 v 36.3488 H 508.2096 468.49521 Z"
       id="path4939" />
    <path
       style="fill:#00ffff;stroke-width:1.34625;stroke-miterlimit:10"
       d="m 397.14392,1020.4579 v -51.15747 h 31.63689 31.63689 v 13.4625 c 0,11.06917 -0.359,13.46251 -2.01937,13.46251 -1.11066,0 -2.01938,0.60581 -2.01938,1.34625 0,0.74044 0.90872,1.34625 2.01938,1.34625 1.74514,0 2.01937,4.93626 2.01937,36.34876 v 36.3488 h -31.63689 -31.63689 z"
       id="path4940" />
    <path
       style="fill:#00ffff;stroke-width:1.34625;stroke-miterlimit:10"
       d="m 351.3714,1019.7848 v -51.83063 h 8.07751 c 7.18,0 8.0775,0.29917 8.0775,2.69251 0,1.48087 0.60581,2.6925 1.34625,2.6925 0.74044,0 1.34625,-1.21163 1.34625,-2.6925 0,-2.43608 0.8975,-2.69251 9.42376,-2.69251 h 9.42375 v 51.83063 51.8307 H 370.21891 351.3714 Z"
       id="path4941" />
    <path
       style="fill:#00ffff;stroke-width:1.34625;stroke-miterlimit:10"
       d="m 297.52138,1128.158 c 0,-3.8892 -0.56094,-5.385 -2.01938,-5.385 -1.68281,0 -2.01937,-2.6925 -2.01937,-16.155 0,-9.8725 0.52354,-16.155 1.34625,-16.155 0.87777,0 1.34625,-21.3058 1.34625,-61.2248 v -61.22469 l 23.55939,0.0115 23.55938,0.0115 v 55.82819 55.8283 h 5.385 5.38501 v 16.7294 c 0,14.8007 -0.27161,16.8004 -2.35594,17.3451 -2.24375,0.5863 -2.24375,0.6231 0,0.7718 2.0045,0.1329 2.35594,1.5619 2.35594,9.5799 v 9.4238 h -15.48189 c -14.58438,0 -15.48188,-0.1561 -15.48188,-2.6925 0,-1.4809 -0.60581,-2.6925 -1.34625,-2.6925 -0.74044,0 -1.34625,1.2116 -1.34625,2.6925 0,2.4813 -0.8975,2.6925 -11.44313,2.6925 h -11.44313 z"
       id="path4942" />
    <path
       style="fill:#00ffff;stroke-width:1.34625;stroke-miterlimit:10"
       d="m 362.14141,1124.2129 c 0,-8.6053 0.23531,-9.3755 3.02906,-9.9136 l 3.02907,-0.5834 -3.02907,-0.1833 c -2.96992,-0.1798 -3.02906,-0.5119 -3.02906,-17.0115 v -16.8281 h 28.94439 28.94438 v 18.1744 c 0,17.2768 -0.13296,18.1743 -2.6925,18.1743 -1.48087,0 -2.6925,0.6059 -2.6925,1.3463 0,0.7404 1.21163,1.3462 2.6925,1.3462 2.36614,0 2.6925,0.8975 2.6925,7.4044 v 7.4044 H 391.0858 362.14141 Z"
       id="path4943" />
    <path
       style="fill:#00ffff;stroke-width:1.34625;stroke-miterlimit:10"
       d="m 426.76144,1126.1386 c 0,-7.0005 0.18358,-7.4044 3.36562,-7.4044 1.8511,0 3.36563,-0.6058 3.36563,-1.3462 0,-0.7404 -1.51453,-1.3463 -3.36563,-1.3463 -3.18204,0 -3.36562,-0.4038 -3.36562,-7.4043 v -7.4044 h 11.44313 11.44313 v -10.77 -10.77 h 28.94439 28.94438 v 26.925 26.925 h -40.38751 -40.38752 z"
       id="path4944" />
    <path
       style="fill:#00ffff;stroke-width:1.34625;stroke-miterlimit:10"
       d="m 525.03773,1129.5042 v -5.385 h -5.385 -5.385 v -16.8281 -16.8281 h 5.385 5.385 v -5.385 -5.385 h 64.62003 64.62003 v 13.4625 c 0,12.565 -0.1795,13.4625 -2.6925,13.4625 -1.48088,0 -2.69251,0.6058 -2.69251,1.3462 0,0.7405 1.21163,1.3463 2.69251,1.3463 2.50355,0 2.6925,0.8975 2.6925,12.7894 v 12.7893 h -64.62003 -64.62003 z"
       id="path4945" />
    <path
       style="fill:#00ffff;stroke-width:1.34625;stroke-miterlimit:10"
       d="m 293.48263,1196.6293 v -56.7301 l 7.06781,0.849 c 3.8873,0.4669 9.94543,0.8542 13.46251,0.8606 5.49329,0.01 6.39469,0.3912 6.39469,2.7042 0,1.4809 0.60581,2.6925 1.34625,2.6925 0.74044,0 1.34625,-1.2116 1.34625,-2.6925 0,-2.6672 0.8975,-2.6925 95.58379,-2.6925 h 95.5838 v 55.8694 55.8694 H 403.87518 293.48263 Z"
       id="path4946" />
    <path
       style="fill:#00ffff;stroke-width:1.34625;stroke-miterlimit:10"
       d="m 526.38398,1330.8809 c 0,-19.5954 0.42131,-26.3363 1.68281,-26.925 1.34625,-0.6283 1.34625,-0.9424 0,-1.5706 -1.31832,-0.6153 -1.68281,-17.965 -1.68281,-80.102 v -79.3165 h 65.96628 65.96628 v 80.6814 80.6814 l -3.02906,0.5834 -3.02907,0.5834 3.02907,0.1833 c 3.02853,0.1833 3.02906,0.1878 3.02906,25.7621 v 25.5788 h -51.73702 -51.73701 l -0.58342,-3.0291 -0.58343,-3.029 -0.18333,3.029 c -0.17716,2.9271 -0.63655,3.0291 -13.64584,3.0291 h -13.46251 z"
       id="path4947" />
    <path
       style="fill:#00ffff;stroke-width:1.34625;stroke-miterlimit:10"
       d="m 728.32157,1217.0105 v -39.0412 h 4.03875 c 2.22131,0 4.03875,-0.6058 4.03875,-1.3463 0,-0.7404 -1.81744,-1.3462 -4.03875,-1.3462 h -4.03875 v -15.2803 -15.2803 l 12.32307,-0.8747 c 6.77769,-0.4811 25.55789,-0.8747 41.73377,-0.8747 h 29.4107 v 56.5425 56.5425 h -41.73377 -41.73377 z"
       id="path4948" />
    <path
       style="fill:#00ffff;stroke-width:1.34625;stroke-miterlimit:10"
       d="m 819.86661,1199.5093 v -56.5425 h 54.52315 c 47.56752,0 54.52315,0.2576 54.52315,2.0193 0,1.1107 0.60581,2.0194 1.34625,2.0194 0.74044,0 1.34625,-0.9087 1.34625,-2.0194 0,-1.6454 2.24375,-2.0193 12.11625,-2.0193 h 12.11626 v 18.1743 c 0,17.2769 -0.13297,18.1744 -2.6925,18.1744 -1.48088,0 -2.6925,0.6058 -2.6925,1.3463 0,0.7404 1.21162,1.3462 2.6925,1.3462 2.62723,0 2.6925,0.8975 2.6925,37.0219 v 37.0219 h -67.98566 -67.98565 z"
       id="path4949" />
    <path
       style="fill:#00ffff;stroke-width:1.34625;stroke-miterlimit:10"
       d="m 744.47658,1700.9876 v -104.3344 h 4.03875 4.03875 v -9.4238 -9.4237 h -4.03875 -4.03875 V 1472.125 1366.4443 h 3.36562 c 3.26947,0 3.36563,-0.2692 3.36563,-9.4237 0,-9.1545 -0.0962,-9.4238 -3.36563,-9.4238 h -3.36562 v -28.9443 c 0,-24.8309 0.28699,-28.9444 2.01937,-28.9444 1.11066,0 2.01938,-0.6058 2.01938,-1.3463 0,-0.7404 -0.86421,-1.3462 -1.92046,-1.3462 -1.47839,0 -2.02071,-2.6349 -2.35594,-11.4463 l -0.43548,-11.4463 h 106.01724 106.01723 v 6.7313 6.7312 h 10.09688 10.09688 v -47.7919 c 0,-41.5842 0.2623,-47.7919 2.01937,-47.7919 1.11066,0 2.01938,-0.6058 2.01938,-1.3462 0,-0.7405 -0.90872,-1.3463 -2.01938,-1.3463 -1.74005,0 -2.01937,-4.5623 -2.01937,-32.9831 v -32.9832 h 16.82813 16.82809 v -12.1162 -12.1163 h -5.385 c -4.48746,0 -5.38496,-0.4487 -5.38496,-2.6925 0,-2.6396 0.8975,-2.6925 45.67386,-2.6925 42.3668,0 45.7183,0.1706 46.2894,2.356 0.5864,2.2437 0.6231,2.2437 0.7719,0 0.1454,-2.1945 3.2928,-2.356 45.9286,-2.356 h 45.7726 v 255.1145 255.1145 h -91.5451 -91.545 v -3.3656 c 0,-3.2909 -0.2244,-3.3657 -10.09689,-3.3657 h -10.09688 v -5.385 -5.385 h -9.90446 -9.90447 l 0.67408,114.4313 0.67408,114.4313 h -37.21525 c -36.31777,0 -37.21527,-0.065 -37.21527,-2.6925 0,-1.4808 -0.60581,-2.6925 -1.34625,-2.6925 -0.74044,0 -1.34625,1.2117 -1.34625,2.6925 0,2.6382 -0.89751,2.6925 -44.42627,2.6925 -43.52877,0 -44.42627,-0.054 -44.42627,-2.6925 0,-1.4808 -0.60581,-2.6925 -1.34625,-2.6925 -0.74044,0 -1.34625,1.2117 -1.34625,2.6925 0,2.5928 -0.8975,2.6925 -24.23251,2.6925 h -24.23251 z m 238.28635,-228.1895 v -29.6175 h -10.77 -10.77001 v 29.6175 29.6176 h 10.77001 10.77 z M 1015.0729,1359.04 v -10.0969 h -27.59809 -27.59814 v 10.0969 10.0969 h 27.59814 27.59809 z"
       id="path4950" />
    <path
       style="fill:#00ffff;stroke-width:1.34625;stroke-miterlimit:10"
       d="m 523.69148,1408.8512 v -43.7531 h 14.71934 14.71933 l 0.56084,3.7022 0.56083,3.7022 0.20171,-3.7022 0.20171,-3.7022 h 51.83065 51.83065 v 20.8669 c 0,19.9694 -0.11581,20.8669 -2.6925,20.8669 -1.48088,0 -2.6925,0.6058 -2.6925,1.3462 0,0.7405 1.21162,1.3463 2.6925,1.3463 2.58032,0 2.6925,0.8975 2.6925,21.54 v 21.54 h -67.31253 -67.31253 z"
       id="path4951" />
    <path
       style="fill:#00ffff;stroke-width:1.34625;stroke-miterlimit:10"
       d="m 293.48263,1310.575 v -47.7919 h 79.42878 79.42879 v 22.8862 c 0,21.9888 -0.10559,22.8863 -2.6925,22.8863 -1.48088,0 -2.6925,0.6058 -2.6925,1.3462 0,0.7405 1.21162,1.3463 2.6925,1.3463 2.58993,0 2.6925,0.8975 2.6925,23.5594 v 23.5593 h -79.42879 -79.42878 z"
       id="path4953" />
    <path
       style="fill:#00ffff;stroke-width:1.34625;stroke-miterlimit:10"
       d="m 293.48263,1476.1638 v -111.0657 h 79.42878 79.42879 v 26.8263 c 0,24.4168 -0.21161,26.8816 -2.35594,27.442 -2.24376,0.5863 -2.24376,0.6231 0,0.7718 2.20283,0.146 2.35594,3.7369 2.35594,55.2537 0,51.3419 -0.1606,55.1396 -2.35594,55.7133 -2.24376,0.5863 -2.24376,0.6231 0,0.7718 2.16205,0.1433 2.35594,2.4274 2.35594,27.7543 v 27.5981 h -79.42879 -79.42878 z"
       id="path4954" />
    <path
       style="fill:#00ffff;stroke-width:1.34625;stroke-miterlimit:10"
       d="m 293.48263,1649.157 v -55.1963 h 79.42878 79.42879 v 16.7387 16.7387 l -3.70219,0.5609 -3.70219,0.5608 3.70219,0.2017 3.70219,0.2017 v 37.695 37.695 h -79.42879 -79.42878 z"
       id="path4956" />
    <path
       style="fill:#00ffff;stroke-width:1.34625;stroke-miterlimit:10"
       d="m 293.48263,1763.5883 v -51.1575 h 79.42878 79.42879 v 25.5787 c 0,21.8392 -0.29523,25.5788 -2.01938,25.5788 -1.11065,0 -2.01937,0.6058 -2.01937,1.3462 0,0.7405 0.90872,1.3463 2.01937,1.3463 1.72021,0 2.01938,3.59 2.01938,24.2325 v 24.2325 h -79.42879 -79.42878 z"
       id="path4957" />
    <path
       style="fill:#00ffff;stroke-width:1.34625;stroke-miterlimit:10"
       d="m 459.07145,1869.2689 c 0,-12.7445 0.0118,-12.7893 3.36563,-12.7893 1.85109,0 3.36562,-0.6058 3.36562,-1.3463 0,-0.7404 -1.51453,-1.3462 -3.36562,-1.3462 h -3.36563 v -43.7532 c 0,-37.9942 0.2658,-43.7531 2.01938,-43.7531 1.11065,0 2.01937,-0.6058 2.01937,-1.3463 0,-0.7404 -0.90872,-1.3462 -2.01937,-1.3462 -1.75654,0 -2.01938,-6.1329 -2.01938,-47.1188 v -47.1188 h 28.27126 28.27127 v 36.3488 c 0,31.4125 -0.27424,36.3488 -2.01938,36.3488 -1.11066,0 -2.01938,0.6058 -2.01938,1.3462 0,0.7405 0.90872,1.3463 2.01938,1.3463 1.73517,0 2.01938,4.2631 2.01938,30.2906 v 30.2906 h -10.77001 -10.77 v 4.0388 c 0,3.8892 0.22437,4.0387 6.05812,4.0387 6.02608,0 6.05813,0.025 6.05813,4.7119 v 4.7119 h 9.42376 9.42375 v -4.7119 -4.7119 h 22.88626 22.88626 v 34.3294 34.3294 h -42.9906 -42.99059 l -0.56084,-3.7022 -0.56084,-3.7022 -0.20171,3.7022 -0.20171,3.7022 h -12.11625 -12.11626 z"
       id="path4958" />
    <path
       style="fill:#00ffff;stroke-width:1.34625;stroke-miterlimit:10"
       d="m 293.48263,1874.6539 v -51.8306 h 79.42878 79.42879 v 15.4819 c 0,12.8642 -0.34144,15.4819 -2.01938,15.4819 -1.11065,0 -2.01937,0.6058 -2.01937,1.3462 0,0.7405 0.90872,1.3463 2.01937,1.3463 1.74322,0 2.01938,4.7866 2.01938,35.0025 v 35.0025 h -79.42879 -79.42878 z"
       id="path4959" />
    <path
       style="fill:#00ffff;stroke-width:1.34625;stroke-miterlimit:10"
       d="m 293.48263,1986.3927 v -53.1769 h 82.79441 82.79441 v -22.2131 -22.2131 H 471.089 c 10.31324,0 12.10485,0.3341 12.6332,2.3559 0.58636,2.2438 0.62311,2.2438 0.77185,0 0.14526,-2.1914 3.16459,-2.3559 43.23618,-2.3559 h 43.08002 v 75.39 75.39 h -24.23251 c -23.33501,0 -24.23251,-0.1 -24.23251,-2.6925 0,-2.4163 -0.89751,-2.6925 -8.75063,-2.6925 -7.85312,0 -8.75063,0.2762 -8.75063,2.6925 0,2.6697 -0.8975,2.6925 -105.68067,2.6925 H 293.48263 Z"
       id="path4960" />
    <path
       style="fill:#00ffff;stroke-width:1.34625;stroke-miterlimit:10"
       d="m 580.234,1926.4846 v -113.0851 h 10.00746 c 9.88377,0 10.01439,0.046 10.5683,3.7022 l 0.56083,3.7022 0.20171,-3.7022 0.20171,-3.7022 h 11.44313 11.44313 v 113.0851 113.085 H 602.44714 580.234 Z"
       id="path4961" />
    <path
       style="fill:#00ffff;stroke-width:1.34625;stroke-miterlimit:10"
       d="m 634.08403,1926.4846 v -113.0851 h 22.79684 22.79684 l 0.56083,3.7022 0.56084,3.7022 0.20171,-3.7022 0.20171,-3.7022 h 26.25189 26.25188 v 113.0851 113.085 H 683.8953 634.08403 Z"
       id="path4962" />
    <path
       style="fill:#00ffff;stroke-width:1.34625;stroke-miterlimit:10"
       d="m 741.78408,1901.579 v -78.7557 h 5.385 c 5.25679,0 5.385,-0.1122 5.385,-4.7119 v -4.7119 h 20.19376 c 17.05251,0 20.19376,0.3142 20.19376,2.0194 0,1.1107 0.60581,2.0194 1.34625,2.0194 0.74044,0 1.34625,-0.9087 1.34625,-2.0194 0,-1.7108 3.29083,-2.0194 21.54001,-2.0194 h 21.54001 v 83.4676 83.4675 h -23.55939 c -20.04417,0 -23.55938,-0.3013 -23.55938,-2.0194 0,-1.1106 -0.60582,-2.0193 -1.34625,-2.0193 -0.74044,0 -1.34625,0.9087 -1.34625,2.0193 0,1.7181 -3.51521,2.0194 -23.55939,2.0194 h -23.55938 z"
       id="path4963" />
    <path
       style="fill:#00ffff;stroke-width:1.34625;stroke-miterlimit:10"
       d="m 753.90033,2036.204 c 0,-3.0914 -0.49362,-3.3656 -6.05813,-3.3656 h -6.05812 v -22.2131 -22.2132 h 23.55938 c 20.04418,0 23.55939,0.3013 23.55939,2.0194 0,1.1107 0.60581,2.0194 1.34625,2.0194 0.74043,0 1.34625,-0.9087 1.34625,-2.0194 0,-1.7181 3.51521,-2.0194 23.55938,-2.0194 h 23.55939 v 25.5788 25.5787 h -42.4069 -42.40689 z"
       id="path4964" />
    <path
       style="fill:#00ffff;stroke-width:1.34625;stroke-miterlimit:10"
       d="m 809.09661,2689.1356 c 0,-26.0276 0.2842,-30.2907 2.01937,-30.2907 1.11066,0 2.01938,-0.6058 2.01938,-1.3462 0,-0.7405 -0.90872,-1.3463 -2.01938,-1.3463 -1.72223,0 -2.01937,-3.6648 -2.01937,-24.9056 v -24.9057 h 78.08253 78.08253 v 53.1769 c 0,46.3709 -0.25845,53.1769 -2.01937,53.1769 -1.2565,0 -2.01938,1.2715 -2.01938,3.3657 v 3.3656 h -76.06316 -76.06315 z"
       id="path4967" />
    <path
       style="fill:#00ffff;stroke-width:1.34625;stroke-miterlimit:10"
       d="m 1200.8555,1019.1117 v -48.46502 h 6.7313 c 3.7022,0 6.7312,-0.60582 6.7312,-1.34625 0,-0.74044 -3.029,-1.34626 -6.7312,-1.34626 h -6.7313 v -51.83064 -51.83065 h 128.3443 c 70.5893,0 182.0589,-0.40274 247.7101,-0.89499 l 119.3658,-0.89499 v 102.53691 102.53689 h -247.7101 -247.7101 z"
       id="path4968" />
    <path
       style="fill:#00ffff;stroke-width:1.34625;stroke-miterlimit:10"
       d="m 1305.5265,2520.4999 -31.9734,-0.3675 v -4.6875 c 0,-4.6581 -0.038,-4.6875 -6.0582,-4.6875 h -6.0581 v -102.3151 -102.315 h 69.3319 69.3319 v 107.6572 107.6571 l -31.3003,-0.2871 c -17.2152,-0.1579 -45.6884,-0.4525 -63.2738,-0.6546 z"
       id="path4970" />
    <path
       style="fill:#00ffff;stroke-width:1.34625;stroke-miterlimit:10"
       d="m 1408.1781,2413.8273 v -107.7 h 35.0025 35.0025 v 107.7 107.7001 h -35.0025 -35.0025 z"
       id="path4971" />
    <path
       style="fill:#00ffff;stroke-width:1.34625;stroke-miterlimit:10"
       d="m 1254.7056,2569.3193 v -38.3682 h 45.7725 45.7725 v 20.2666 20.2666 l 10.7157,18.1015 10.7157,18.1016 h -9.3695 c -7.4309,0 -9.3694,-0.4178 -9.3694,-2.0194 0,-1.1106 -0.6058,-2.0194 -1.3463,-2.0194 -0.7404,0 -1.3462,0.9088 -1.3462,2.0194 0,1.7554 -5.9833,2.0194 -45.7725,2.0194 h -45.7725 z"
       id="path4972" />
    <path
       style="fill:#00ffff;stroke-width:1.34625;stroke-miterlimit:10"
       d="M 1254.7056,2865.4944 V 2761.16 h 8.0775 8.0775 v -8.7507 -8.7506 h -8.0775 -8.0775 v -63.9469 -63.9469 h 45.7725 c 39.7892,0 45.7725,0.264 45.7725,2.0194 0,1.1106 0.6058,2.0193 1.3462,2.0193 0.7405,0 1.3463,-0.9087 1.3463,-2.0193 0,-1.726 3.8144,-2.0194 26.2519,-2.0194 h 26.2519 v 3.3656 c 0,1.8511 0.6058,3.3657 1.3462,3.3657 0.7405,0 1.3463,-1.5146 1.3463,-3.3657 v -3.3656 h 43.08 43.08 v 63.9469 63.9469 h -5.385 -5.385 v 8.7506 8.7507 h 5.385 5.385 v 104.3344 104.3344 h -24.9056 -24.9057 v -22.2131 -22.2132 h -73.3706 -73.3707 v 22.2132 22.2131 h -19.5206 -19.5206 z"
       id="path4973" />
    <path
       style="fill:#00ffff;stroke-width:1.34625;stroke-miterlimit:10"
       d="M 1499.7232,2865.4944 V 2761.16 h 16.8281 16.8281 v 3.3656 c 0,1.8511 0.6058,3.3656 1.3463,3.3656 0.7404,0 1.3462,-1.5145 1.3462,-3.3656 v -3.3656 h 69.9238 69.9238 l 0.528,5.0484 0.5281,5.0484 0.2263,-5.0484 0.2263,-5.0484 h 19.5207 19.5206 v 104.3344 104.3344 h -108.3732 -108.3731 z"
       id="path4975" />
    <path
       style="fill:#00ffff;stroke-width:1.34625;stroke-miterlimit:10"
       d="m 1579.1519,2685.0968 v -67.9857 h 23.5594 23.5594 v 32.9832 32.9831 h 45.7725 45.7726 v 30.2907 30.2906 h -6.0582 c -6.026,0 -6.0581,0.025 -6.0581,4.7119 v 4.7119 h -14.0462 -14.0462 l -0.5609,-3.7022 -0.5608,-3.7022 -0.2017,3.7022 -0.2017,3.7022 h -48.465 -48.4651 z"
       id="path4976" />
    <path
       style="fill:#00ffff;stroke-width:1.34625;stroke-miterlimit:10"
       d="m 1633.002,2648.0749 v -30.9638 h 42.4069 42.4069 v 7.9205 c 0,7.0198 -0.3445,8.0344 -3.0291,8.9216 l -3.0291,1.001 3.0291,0.5959 c 2.9895,0.5881 3.0291,0.8756 3.0291,22.0422 v 21.4464 h -9.4238 c -7.4792,0 -9.4238,-0.4167 -9.4238,-2.0194 0,-1.6027 -1.9445,-2.0194 -9.4237,-2.0194 -7.4792,0 -9.4238,0.4167 -9.4238,2.0194 0,1.7181 -3.5152,2.0194 -23.5593,2.0194 h -23.5594 z"
       id="path4977" />
    <path
       style="fill:#00ffff;stroke-width:1.34625;stroke-miterlimit:10"
       d="m 1591.2682,2496.7154 c 0,-24.6606 0.019,-24.8156 3.0291,-25.3955 l 3.029,-0.5834 -3.029,-0.1833 c -2.9883,-0.1809 -3.0291,-0.4371 -3.0291,-19.0309 v -18.8475 h 29.6175 29.6175 v 3.3656 c 0,1.8511 0.6058,3.3657 1.3463,3.3657 0.7404,0 1.3462,-1.5146 1.3462,-3.3657 v -3.3656 h 27.5982 27.5981 v 44.4263 44.4263 h -29.5053 c -22.288,0 -29.6974,-0.4117 -30.2907,-1.6829 -0.6282,-1.3462 -0.9423,-1.3462 -1.5706,0 -0.5906,1.2657 -7.5988,1.6829 -28.2713,1.6829 h -27.4859 z"
       id="path4978" />
    <path
       style="fill:#00ffff;stroke-width:1.34625;stroke-miterlimit:10"
       d="m 1498.3769,2516.8155 c 0,-4.5997 -0.1282,-4.7119 -5.385,-4.7119 h -5.385 v -47.7919 -47.7919 h 46.4456 46.4457 v 26.8356 26.8356 l -3.7022,0.5608 -3.7022,0.5609 3.7022,0.2017 3.7022,0.2017 v 24.9056 24.9057 h -41.0606 -41.0607 z"
       id="path4979" />
    <path
       style="fill:#00ffff;stroke-width:1.34625;stroke-miterlimit:10"
       d="m 1588.5764,2414.837 8e-4,-7.0678 -50.4852,0.4375 -50.4851,0.4376 v -51.2585 -51.2585 h 108.3732 108.3731 v 57.8887 57.8888 h -25.5787 c -21.8392,0 -25.5788,-0.2952 -25.5788,-2.0194 0,-1.1106 -0.6058,-2.0193 -1.3462,-2.0193 -0.7405,0 -1.3463,0.9087 -1.3463,2.0193 0,1.7365 -4.3379,2.0194 -30.9637,2.0194 h -30.9638 z"
       id="path4980" />
    <path
       style="fill:#00ffff;stroke-width:1.34625;stroke-miterlimit:10"
       d="m 1724.547,2518.1617 c 0,-3.029 -0.5385,-3.3656 -5.385,-3.3656 h -5.385 v -104.3344 -104.3344 h 55.8694 55.8694 v 107.7 107.7001 h -28.8322 c -21.8061,0 -28.9977,-0.4101 -29.5112,-1.6829 -0.5433,-1.3462 -0.7003,-1.3462 -0.7853,0 -0.08,1.2693 -5.2339,1.6829 -20.9732,1.6829 h -20.8669 z"
       id="path4981" />
    <path
       style="fill:#00ffff;stroke-width:1.34625;stroke-miterlimit:10"
       d="m 1832.2471,2389.5948 v -83.4675 h 52.5037 52.5038 v 64.5213 c 0,60.3168 -0.1535,64.5614 -2.3559,65.137 -2.2438,0.5863 -2.2438,0.6231 0,0.7718 2.1197,0.1405 2.3559,1.9786 2.3559,18.3306 v 18.1743 h -52.5038 -52.5037 z"
       id="path4982" />
    <path
       style="fill:#00ffff;stroke-width:1.34625;stroke-miterlimit:10"
       d="m 1950.7171,2518.1247 c 0,-2.4311 -0.726,-3.3286 -2.6925,-3.3286 -2.6304,0 -2.6925,-0.8975 -2.6925,-38.9426 0,-35.9561 0.1807,-38.9897 2.3559,-39.5582 2.2438,-0.5863 2.2438,-0.6231 0,-0.7718 -2.2088,-0.1464 -2.3559,-4.1903 -2.3559,-64.7762 v -64.62 h 111.0657 111.0657 v 104.3344 104.3344 h -4.7119 c -4.1329,0 -4.7119,0.415 -4.7119,3.3773 v 3.3773 l -103.6613,-0.049 -103.6613,-0.049 z"
       id="path4983" />
    <path
       style="fill:#00ffff;stroke-width:1.34625;stroke-miterlimit:10"
       d="m 1723.2008,2689.8087 v -53.85 h 3.3656 c 1.8511,0 3.3656,-0.6059 3.3656,-1.3463 0,-0.7404 -1.5145,-1.3462 -3.3656,-1.3462 -3.2161,0 -3.3656,-0.359 -3.3656,-8.0775 v -8.0776 h 109.7194 109.7194 v 28.9444 c 0,24.8309 -0.287,28.9444 -2.0194,28.9444 -1.1106,0 -2.0193,0.6058 -2.0193,1.3463 0,0.7404 0.9087,1.3462 2.0193,1.3462 1.7401,0 2.0194,4.5623 2.0194,32.9832 v 32.9831 h -21.4547 -21.4547 l -0.543,-4.3753 -0.543,-4.3753 -0.2154,4.3753 -0.2155,4.3753 h -87.5063 -87.5062 z"
       id="path4984" />
    <path
       style="fill:#00ffff;stroke-width:1.34625;stroke-miterlimit:10"
       d="M 1723.2008,2860.1094 V 2750.39 h 87.4288 87.4289 l 0.5153,5.7215 0.5154,5.7216 0.2352,-5.7216 0.2352,-5.7215 h 15.4819 15.4818 v 6.0581 6.0581 h 6.0582 6.0581 v 53.85 53.8501 h -5.385 -5.385 v 49.8112 49.8113 h -104.3344 -104.3344 z"
       id="path4985" />
    <path
       style="fill:#00ffff;stroke-width:1.34625;stroke-miterlimit:10"
       d="m 2032.8384,2671.7465 c 0,-12.0564 0.4691,-16.9349 1.6828,-17.5013 1.3463,-0.6282 1.3463,-0.9423 0,-1.5706 -1.2236,-0.571 -1.6828,-5.7141 -1.6828,-18.8475 v -18.0622 h 31.6369 31.6369 v 10.6578 c 0,7.2099 -0.5444,10.9119 -1.6828,11.4431 -1.3463,0.6283 -1.3463,0.9424 0,1.5707 1.2544,0.5854 1.6828,6.9257 1.6828,24.9056 v 24.1203 h -31.6369 -31.6369 z"
       id="path4986" />
    <path
       style="fill:#00ffff;stroke-width:1.34625;stroke-miterlimit:10"
       d="m 2032.8384,2758.5796 c 0,-12.6516 0.4585,-17.574 1.6828,-18.0681 1.3463,-0.5432 1.3463,-0.7002 0,-0.7853 -1.274,-0.08 -1.6828,-5.5031 -1.6828,-22.3194 v -22.2131 h 32.31 32.31 l 0.1344,3.7022 c 0.074,2.0362 0.3607,20.2106 0.6373,40.3875 l 0.5028,36.6853 h -32.9473 -32.9472 z"
       id="path4987" />
    <path
       style="fill:#00ffff;stroke-width:1.34625;stroke-miterlimit:10"
       d="m 2105.5359,2669.6149 c 0,-25.4292 0.2856,-29.6175 2.0194,-29.6175 1.1107,0 2.0194,-0.6058 2.0194,-1.3462 0,-0.7405 -0.9087,-1.3463 -2.0194,-1.3463 -1.6366,0 -2.0194,-2.169 -2.0194,-11.4431 v -11.4432 h 30.9638 30.9638 v 42.4069 42.4069 h -30.9638 -30.9638 z"
       id="path4988" />
    <path
       style="fill:#00ffff;stroke-width:1.34625;stroke-miterlimit:10"
       d="m 2106.8822,2724.1381 v -19.5207 h 32.31 32.31 v 19.5207 19.5206 h -32.31 -32.31 z"
       id="path4989" />
    <path
       style="fill:#00ffff;stroke-width:1.34625;stroke-miterlimit:10"
       d="m 2106.8822,2762.5062 v -13.4625 h 24.2325 24.2325 v 5.385 5.385 h 5.385 5.385 v 8.0775 8.0775 h -29.6175 -29.6175 z"
       id="path4990" />
    <path
       style="fill:#00ffff;stroke-width:1.34625;stroke-miterlimit:10"
       d="m 2032.8384,2848.1053 c 0,-12.0564 0.4691,-16.9348 1.6828,-17.5012 1.3463,-0.6283 1.3463,-0.9424 0,-1.5707 -1.2429,-0.58 -1.6828,-6.3872 -1.6828,-22.2131 v -21.4278 h 66.6394 66.6394 v 39.7144 39.7144 h -66.6394 -66.6394 z"
       id="path4991" />
    <path
       style="fill:#00ffff;stroke-width:1.34625;stroke-miterlimit:10"
       d="m 2178.2335,2863.475 v -103.6613 h 33.6562 33.6563 v 47.0766 47.0767 l 10.77,-0.8306 c 10.3779,-0.8002 10.77,-0.7252 10.77,2.0616 0,1.5906 0.6058,2.892 1.3462,2.892 0.7405,0 1.3463,-1.2116 1.3463,-2.6925 0,-2.6512 0.8975,-2.6925 58.5619,-2.6925 h 58.5619 v 57.2157 57.2156 h -104.3344 -104.3344 z"
       id="path4992" />
    <path
       style="fill:#00ffff;stroke-width:1.34625;stroke-miterlimit:10"
       d="m 2252.2772,2804.24 v -44.4263 h 8.0775 c 6.2825,0 8.0775,0.4488 8.0775,2.0194 0,1.1106 0.6059,2.0194 1.3463,2.0194 0.7404,0 1.3462,-0.9088 1.3462,-2.0194 0,-1.7637 7.3296,-2.0194 57.8888,-2.0194 h 57.8888 v 14.0369 c 0,12.2365 -0.3022,14.1159 -2.3559,14.6526 -2.2438,0.5864 -2.2438,0.6231 0,0.7719 2.1676,0.1436 2.3559,2.5235 2.3559,29.7736 v 29.6176 h -58.4497 c -45.4435,0 -58.6245,-0.3745 -59.235,-1.6829 -0.6283,-1.3462 -0.9424,-1.3462 -1.5707,0 -0.4865,1.0425 -3.5601,1.6829 -8.0775,1.6829 h -7.2922 z"
       id="path4993" />
    <path
       style="fill:#00ffff;stroke-width:1.34625;stroke-miterlimit:10"
       d="m 2179.5797,2684.4237 v -70.0051 h 100.2957 100.2956 v 70.0051 70.005 h -54.5231 c -53.6257,0 -54.5232,-0.044 -54.5232,-2.6925 0,-1.4809 -0.6058,-2.6925 -1.3462,-2.6925 -0.7404,0 -1.3463,1.2116 -1.3463,2.6925 0,2.6381 -0.8975,2.6925 -44.4262,2.6925 h -44.4263 z"
       id="path4994" />
    <path
       style="fill:#00ffff;stroke-width:1.34625;stroke-miterlimit:10"
       d="m 2281.8948,2413.8273 v -107.7 h 79.4287 79.4288 v 102.9881 102.9882 h -4.7119 c -4.4875,0 -4.7118,0.2244 -4.7118,4.7119 v 4.7119 h -15.4819 -15.4819 v -4.0388 -4.0387 h -9.4238 -9.4237 v 4.0387 4.0388 h -24.2325 c -20.6425,0 -24.2325,-0.2992 -24.2325,-2.0194 0,-1.1107 -0.6058,-2.0194 -1.3463,-2.0194 -0.7404,0 -1.3462,0.9087 -1.3462,2.0194 0,1.7202 -3.59,2.0194 -24.2325,2.0194 h -24.2325 z"
       id="path4995" />
    <path
       style="fill:#00ffff;stroke-width:1.34625;stroke-miterlimit:10"
       d="m 2175.541,2413.8273 v -107.7 h 49.1381 49.1381 v 107.7 107.7001 h -24.1338 c -21.8525,0 -24.1919,-0.2227 -24.7494,-2.356 -0.5864,-2.2437 -0.6231,-2.2437 -0.7719,0 -0.1425,2.1507 -2.267,2.356 -24.3886,2.356 h -24.2325 z"
       id="path4996" />
    <path
       style="fill:#00ffff;stroke-width:1.34625;stroke-miterlimit:10"
       d="m 2399.0186,2745.005 v -6.7313 h -6.0582 -6.0581 v -61.9275 -61.9276 h 14.1356 c 11.6675,0 14.1357,0.3526 14.1357,2.0194 0,1.1107 0.6058,2.0194 1.3462,2.0194 0.7404,0 1.3463,-0.9087 1.3463,-2.0194 0,-1.6533 2.3185,-2.0194 12.7893,-2.0194 h 12.7894 v 61.9276 61.9275 h -4.7119 -4.7118 v 6.7313 6.7312 h -17.5013 -17.5012 z"
       id="path4997" />
    <path
       style="fill:#00ffff;stroke-width:1.34625;stroke-miterlimit:10"
       d="m 2455.5611,2685.0968 v -66.6394 h 89.8392 89.8393 l 13.822,13.775 13.8221,13.775 v 45.46 c 0,39.5114 -0.2643,45.4601 -2.0194,45.4601 -1.5502,0 -2.0194,1.7202 -2.0194,7.4043 v 7.4044 h -61.9275 c -54.1492,0 -61.9275,-0.2536 -61.9275,-2.0194 0,-1.1106 -0.6059,-2.0193 -1.3463,-2.0193 -0.7404,0 -1.3462,0.9087 -1.3462,2.0193 0,1.7478 -5.1607,2.0194 -38.3682,2.0194 h -38.3681 z"
       id="path4998" />
    <path
       style="fill:#00ffff;stroke-width:1.34625;stroke-miterlimit:10"
       d="m 2394.9798,2891.7463 v -75.3901 h 12.6957 c 12.092,0 12.7241,0.1441 13.2916,3.0291 l 0.5959,3.0291 1.001,-3.0291 1.0011,-3.0291 h 65.8093 65.8092 v 75.3901 75.39 h -80.1019 -80.1019 z"
       id="path4999" />
    <path
       style="fill:#00ffff;stroke-width:1.34625;stroke-miterlimit:10"
       d="m 2563.2611,2891.7463 v -75.3901 h 17.5013 c 16.6037,0 17.5012,0.1381 17.5012,2.6925 0,1.4809 0.6059,2.6925 1.3463,2.6925 0.7404,0 1.3462,-1.2116 1.3462,-2.6925 0,-2.6295 0.8975,-2.6925 38.3682,-2.6925 h 38.3681 v 75.3901 75.39 h -57.2156 -57.2157 z"
       id="path5000" />
    <path
       style="fill:#00ffff;stroke-width:1.34625;stroke-miterlimit:10"
       d="m 2685.7699,2924.0563 v -43.08 l 15.8185,-0.01 c 8.7001,0 20.7241,-0.39 26.7199,-0.8569 10.6357,-0.828 10.9271,-0.7704 11.9506,2.3641 l 1.0491,3.2127 0.5959,-3.029 c 0.5934,-3.0169 0.701,-3.0291 26.7541,-3.0291 h 26.1582 v 43.7532 43.7531 h -54.5231 -54.5232 z"
       id="path5001" />
    <path
       style="fill:#00ffff;stroke-width:1.34625;stroke-miterlimit:10"
       d="M 2800.2012,2924.1682 V 2881.2 l 8.9239,-8.5259 c 5.3864,-5.1462 9.9149,-8.4002 11.4239,-8.2087 1.6909,0.2146 2.3972,-0.4389 2.1826,-2.0194 -0.1916,-1.4111 3.9705,-6.4532 10.5077,-12.7295 l 10.825,-10.3928 23.1679,23.1962 23.1678,23.1963 v 40.7101 40.71 h -45.0994 -45.0994 z"
       id="path5002" />
    <path
       style="fill:#00ffff;stroke-width:1.34625;stroke-miterlimit:10"
       d="m 2674.6634,2737.1746 -3.7022,-0.426 v -46.3562 -46.3562 h 47.7662 47.7663 l 0.8465,3.7021 c 0.4656,2.0363 2.5442,10.6691 4.619,19.1841 2.5687,10.542 4.0345,20.8513 4.5937,32.31 0.4517,9.2555 1.1739,21.5232 1.6049,27.2616 l 0.7837,10.4335 h -7.4324 c -4.6841,0 -7.6847,-0.6223 -8.1151,-1.6829 -0.5153,-1.27 -0.9589,-1.2962 -1.8086,-0.1066 -0.8055,1.1279 -12.8019,1.7023 -42.1728,2.0194 -22.5759,0.2438 -42.713,0.2515 -44.7492,0.017 z"
       id="path5004" />
    <path
       style="fill:#00ffff;stroke-width:1.34625;stroke-miterlimit:10"
       d="m 2878.553,2770.1153 c -2.4434,-0.8854 -4.9504,-2.4315 -5.571,-3.4357 -0.6207,-1.0042 -1.8074,-1.4062 -2.6372,-0.8934 -2.3978,1.4819 -32.6283,-8.9472 -31.8458,-10.9864 0.7227,-1.8833 -1.372,-2.3938 -2.4782,-0.604 -0.3784,0.6123 -9.5013,-1.8789 -20.2732,-5.5359 -14.4928,-4.9204 -19.5905,-7.2225 -19.6057,-8.8543 -0.016,-1.6875 -0.2828,-1.7917 -1.1374,-0.4441 -1.095,1.7264 -7.6192,1.0475 -8.8348,-0.9194 -0.9538,-1.5433 -3.9907,-48.5612 -3.1883,-49.3636 0.4236,-0.4236 23.8574,10.7764 52.0751,24.889 l 51.3048,25.6594 v 16.1515 c 0,17.5262 0.1637,17.2256 -7.8083,14.3369 z"
       id="path5005" />
    <path
       style="fill:#00ffff;stroke-width:1.34625;stroke-miterlimit:10"
       d="m 2833.5416,2708.1386 c -28.3331,-15.4636 -51.8583,-28.6479 -52.2782,-29.2985 -1.3468,-2.0866 -8.2354,-33.6582 -7.5036,-34.3901 1.228,-1.228 29.457,14.9669 30.0988,17.2676 0.3447,1.2354 1.5954,1.9651 2.8534,1.6647 1.2319,-0.2942 12.2358,5.1156 24.453,12.0218 16.4296,9.2873 22.1101,13.1477 21.8175,14.8269 -0.4399,2.5251 1.8952,3.1563 2.7037,0.7309 0.3024,-0.9072 9.7313,3.623 22.9587,11.0306 21.1259,11.831 22.4029,12.7724 21.7205,16.0116 -0.6641,3.1521 -0.5634,3.2434 1.1979,1.0855 1.0576,-1.2957 2.2411,-2.3559 2.63,-2.3559 0.6777,0 32.1169,17.3287 33.157,18.2756 0.2776,0.2527 -11.375,0.6362 -25.8946,0.8522 l -26.3993,0.3928 z"
       id="path5006" />
    <path
       style="fill:#00ffff;stroke-width:1.34625;stroke-miterlimit:10"
       d="m 3009.8308,2715.6391 c -20.63,-20.7458 -23.847,-24.5448 -23.847,-28.1611 0,-2.2992 -0.3677,-5.1386 -0.8171,-6.3098 -0.5363,-1.3974 -0.073,-2.1295 1.3462,-2.1295 1.1899,0 2.1634,-0.6058 2.1634,-1.3463 0,-0.7404 -0.8972,-1.3462 -1.9937,-1.3462 -2.5815,0 -1.7419,4.3454 -14.175,-73.3707 -5.9228,-37.0219 -11.1379,-69.0739 -11.5891,-71.2267 l -0.8205,-3.9142 57.0326,0.874 c 31.3679,0.4806 65.6655,0.8789 76.2167,0.8851 l 19.1841,0.011 v 105.0075 105.0076 h -39.4269 -39.4268 z"
       id="path5009" />
    <path
       style="fill:#00ffff;stroke-width:1.34625;stroke-miterlimit:10"
       d="M 2964.4438,2414.5004 V 2310.166 h 74.0438 74.0438 v 104.3344 104.3345 h -41.7338 c -36.1992,0 -41.7338,-0.2678 -41.7338,-2.0194 0,-1.1107 -0.6058,-2.0194 -1.3462,-2.0194 -0.7405,0 -1.3463,0.9087 -1.3463,2.0194 0,1.7365 -4.3379,2.0194 -30.9637,2.0194 h -30.9638 z"
       id="path5010" />
    <path
       style="fill:#00ffff;stroke-width:1.34625;stroke-miterlimit:10"
       d="m 2774.0916,2504.4811 c -8.6311,-9.3939 -15.2231,-17.4814 -14.6489,-17.9724 3.1432,-2.6875 16.526,-9.225 16.526,-8.0729 0,0.7468 0.6058,1.3578 1.3463,1.3578 0.7404,0 1.3462,-0.8593 1.3462,-1.9096 0,-1.0503 2.2054,-3.2726 4.9008,-4.9384 5.2766,-3.2611 5.0684,-3.343 9.4135,3.7023 0.8387,1.3599 1.981,2.0371 2.5383,1.5049 0.5574,-0.5322 0.023,-2.4798 -1.1883,-4.328 -3.2276,-4.9258 -2.8249,-5.8797 3.8504,-9.1229 5.9824,-2.9064 6.0767,-2.9101 8.1693,-0.319 2.0338,2.5183 2.0868,2.4796 1.3504,-0.9856 -0.7083,-3.3328 -0.012,-4.0235 9.1612,-9.0872 l 9.9278,-5.4803 h 32.4808 32.4809 v 28.9444 28.9444 h -6.0582 -6.0581 v 7.3503 7.3503 l -44.9228,0.071 -44.9227,0.071 z"
       id="path5011" />
    <path
       style="fill:#00ffff;stroke-width:1.34625;stroke-miterlimit:10"
       d="m 2757.1212,2452.1955 v -31.6369 h 33.6563 33.6562 v 13.212 13.212 l -8.928,4.9624 c -10.2407,5.6919 -10.6728,5.7828 -12.4441,2.6176 -1.7991,-3.2147 -3.4267,-1.229 -1.6752,2.0438 1.2261,2.2909 0.5922,3.0636 -5.0187,6.1174 l -6.4221,3.4954 -2.5192,-4.2647 c -1.4125,-2.3912 -2.7639,-3.5305 -3.0762,-2.5934 -0.3064,0.9192 0.3939,3.1228 1.5563,4.8968 2.0662,3.1533 1.9809,3.2997 -3.8114,6.537 l -5.9249,3.3115 -1.6103,-3.8876 c -0.8857,-2.1383 -2.1427,-3.8877 -2.7933,-3.8877 -1.619,0 -1.4178,1.4227 0.7567,5.3505 1.7918,3.2366 1.6279,3.4553 -5.7693,7.7002 -4.1874,2.403 -8.0678,4.3874 -8.6231,4.4098 -0.5553,0.022 -1.0097,-14.1959 -1.0097,-31.5961 z"
       id="path5012" />
    <path
       style="fill:#00ffff;stroke-width:1.34625;stroke-miterlimit:10"
       d="m 2448.8298,2466.3311 v -55.1963 h 109.0463 109.0463 v 49.8113 49.8113 h -4.7119 c -4.5997,0 -4.7118,0.1282 -4.7118,5.385 v 5.385 h -47.6983 -47.6983 l -0.5834,-3.0291 -0.5834,-3.0291 -0.1833,3.0291 -0.1834,3.0291 h -55.8694 -55.8694 z"
       id="path5013" />
    <path
       style="fill:#00ffff;stroke-width:1.34625;stroke-miterlimit:10"
       d="m 2448.8298,2269.7785 v -134.6251 h 109.0463 109.0463 v 25.4666 c 0,19.1136 -0.4198,25.636 -1.6828,26.1456 -1.3462,0.5432 -1.3462,0.7003 0,0.7853 1.2761,0.081 1.6828,5.6377 1.6828,22.9926 v 22.8862 h -6.0581 -6.0581 v 9.4238 9.4237 h 6.0581 6.0581 v 16.155 16.1551 h -6.0581 -6.0581 v 10.0968 10.0969 h 6.0581 6.0581 v 49.8113 49.8113 h -109.0463 -109.0463 z"
       id="path5014" />
    <path
       style="fill:#00ffff;stroke-width:1.34625;stroke-miterlimit:10"
       d="m 2758.4675,2324.9748 v -83.4676 h 63.2737 63.2738 v 30.9638 30.9638 h 6.7313 6.7312 v 26.8263 c 0,24.4168 -0.2116,26.8816 -2.3559,27.4419 -2.2438,0.5864 -2.2438,0.6231 0,0.7719 2.1532,0.1427 2.3559,2.2991 2.3559,25.0618 v 24.9056 h -70.005 -70.005 z"
       id="path5015" />
    <path
       style="fill:#00ffff;stroke-width:1.34625;stroke-miterlimit:10"
       d="m 2964.4438,2171.6144 c 0,-50.2899 0.3709,-64.6809 1.6828,-65.2932 1.3463,-0.6282 1.3463,-0.9423 0,-1.5706 -1.2893,-0.6017 -1.6828,-9.8875 -1.6828,-39.7144 v -38.9291 h 74.0438 74.0438 v 105.0076 105.0075 h -74.0438 -74.0438 z"
       id="path5016" />
    <path
       style="fill:#00ffff;stroke-width:1.34625;stroke-miterlimit:10"
       d="m 2964.4438,2288.4379 c 0,-10.1397 0.4145,-12.6191 2.3559,-14.0929 2.2438,-1.7032 2.2438,-1.7904 0,-1.8312 -2.0838,-0.038 -2.3559,-1.5977 -2.3559,-13.5053 v -13.4625 h 74.0438 74.0438 v 27.5981 27.5982 h -74.0438 -74.0438 z"
       id="path5017" />
    <path
       style="fill:#00ffff;stroke-width:1.34625;stroke-miterlimit:10"
       d="m 2758.4675,2130.4416 v -102.9882 h 70.005 70.005 v 36.2366 c 0,27.6729 -0.3977,36.4221 -1.6828,37.0219 -1.3462,0.6282 -1.3462,0.9423 0,1.5706 1.3123,0.6124 1.6828,15.1378 1.6828,65.9663 v 65.1809 h -70.005 -70.005 z"
       id="path5018" />
    <path
       style="fill:#00ffff;stroke-width:1.34625;stroke-miterlimit:10"
       d="m 2448.8298,2074.5722 v -53.8501 h 104.3344 104.3345 v 3.3657 c 0,2.6925 0.6731,3.3656 3.3656,3.3656 h 3.3656 v 23.4472 c 0,17.4981 -0.4269,23.6195 -1.6828,24.1262 -1.3462,0.5432 -1.3462,0.7003 0,0.7853 1.2851,0.081 1.6828,6.3109 1.6828,26.3582 v 26.2519 h -107.7 -107.7001 z"
       id="path5019" />
    <path
       style="fill:#00ffff;stroke-width:1.34625;stroke-miterlimit:10"
       d="m 2448.8298,1902.2521 v -110.3926 h 103.6613 103.6613 v 3.3657 c 0,2.842 0.6283,3.3656 4.0388,3.3656 h 4.0387 v 51.7185 c 0,40.0584 -0.3794,51.8955 -1.6828,52.5037 -1.3462,0.6283 -1.3462,0.9424 0,1.5706 1.3023,0.6078 1.6828,12.1761 1.6828,51.1576 v 50.3722 h -3.3656 c -2.6925,0 -3.3656,0.6731 -3.3656,3.3656 v 3.3656 h -104.3345 -104.3344 z"
       id="path5020" />
    <path
       style="fill:#00ffff;stroke-width:1.34625;stroke-miterlimit:10"
       d="m 2757.1212,1934.5621 c 0,-9.8725 0.374,-12.1163 2.0194,-12.1163 1.1106,0 2.0194,-0.6058 2.0194,-1.3462 0,-0.7404 -0.9088,-1.3463 -2.0194,-1.3463 -1.6454,0 -2.0194,-2.2437 -2.0194,-12.1162 v -12.1163 h 32.9831 32.9832 v 25.5788 25.5788 h -32.9832 -32.9831 z"
       id="path5021" />
    <path
       style="fill:#00ffff;stroke-width:1.34625;stroke-miterlimit:10"
       d="m 2755.775,1986.3927 v -31.6368 h 16.155 16.155 v 31.6368 31.6369 h -16.155 -16.155 z"
       id="path5022" />
    <path
       style="fill:#00ffff;stroke-width:1.34625;stroke-miterlimit:10"
       d="m 2794.8162,1987.739 v -32.9831 h 51.8307 51.8306 v 14.8087 c 0,13.9113 -0.1632,14.8088 -2.6925,14.8088 -1.4809,0 -2.6925,0.6058 -2.6925,1.3462 0,0.7405 1.2116,1.3463 2.6925,1.3463 2.4681,0 2.6925,0.8975 2.6925,10.77 v 10.77 h -6.0581 -6.0581 v 6.0581 6.0581 h -45.7726 -45.7725 z"
       id="path5023" />
    <path
       style="fill:#00ffff;stroke-width:1.34625;stroke-miterlimit:10"
       d="m 2829.8187,1915.0415 v -31.6369 h 34.3294 34.3294 v 31.6369 31.6369 h -34.3294 -34.3294 z"
       id="path5024" />
    <path
       style="fill:#00ffff;stroke-width:1.34625;stroke-miterlimit:10"
       d="m 2964.4438,1946.0052 v -73.3706 h 9.4238 c 8.5262,0 9.4237,0.2564 9.4237,2.6925 0,1.4808 0.6058,2.6925 1.3463,2.6925 0.7404,0 1.3462,-1.2117 1.3462,-2.6925 0,-2.4931 0.8975,-2.6925 12.1163,-2.6925 h 12.1162 v 73.3706 73.3707 h -22.8862 -22.8863 z"
       id="path5025" />
    <path
       style="fill:#00ffff;stroke-width:1.34625;stroke-miterlimit:10"
       d="m 2757.1212,1765.6077 c 0,-26.7007 0.088,-27.5982 2.6925,-27.5982 1.4809,0 2.6925,-0.6058 2.6925,-1.3462 0,-0.7405 -1.2116,-1.3463 -2.6925,-1.3463 -2.6004,0 -2.6925,-0.8975 -2.6925,-26.2519 v -26.2519 h 177.7051 177.7051 v 50.4844 50.4844 h -21.54 c -20.6425,0 -21.5401,-0.1122 -21.5401,-2.6925 0,-1.4808 -0.6058,-2.6925 -1.3462,-2.6925 -0.7404,0 -1.3463,1.2117 -1.3463,2.6925 0,2.6071 -0.8975,2.6925 -28.2712,2.6925 h -28.2713 v 4.7119 4.7119 h -51.1575 -51.1575 v -6.7313 -6.7312 h -10.0969 -10.0969 v 6.7312 6.7313 h -65.2931 -65.2932 z"
       id="path5027" />
    <path
       style="fill:#00ffff;stroke-width:1.34625;stroke-miterlimit:10"
       d="m 2903.8625,1663.9657 v -6.7312 h -4.7119 c -4.4874,0 -4.7118,0.2244 -4.7118,4.7119 v 4.7118 h -68.6588 -68.6588 v -26.925 c 0,-23.0358 0.2917,-26.925 2.0194,-26.925 1.1106,0 2.0194,-0.6058 2.0194,-1.3462 0,-0.7405 -0.9088,-1.3463 -2.0194,-1.3463 -1.7242,0 -2.0194,-3.7396 -2.0194,-25.5788 v -25.5787 h 63.9469 63.9469 v 6.0581 6.0581 h 9.4238 9.4237 v -4.0387 -4.0388 h 104.3344 104.3345 v 53.8501 53.85 h -104.3345 -104.3344 z"
       id="path5028" />
    <path
       style="fill:#00ffff;stroke-width:1.34625;stroke-miterlimit:10"
       d="m 2763.8525,1836.9589 v -39.7144 h 74.0437 74.0438 v 21.54 c 0,18.2492 -0.3085,21.5401 -2.0193,21.5401 -1.1107,0 -2.0194,0.6058 -2.0194,1.3462 0,0.7404 0.9087,1.3463 2.0194,1.3463 1.6872,0 2.0193,2.7673 2.0193,16.8281 v 16.8281 h -74.0438 -74.0437 z"
       id="path5029" />
    <path
       style="fill:#00ffff;stroke-width:1.34625;stroke-miterlimit:10"
       d="m 2903.8625,1408.1781 c 0,-145.8438 0.016,-146.7413 2.6925,-146.7413 1.4809,0 2.6925,-0.6058 2.6925,-1.3462 0,-0.7405 -1.2116,-1.3463 -2.6925,-1.3463 -2.4531,0 -2.6925,-0.8975 -2.6925,-10.0969 v -10.0969 h 103.4398 103.4397 l 0.8937,106.0173 c 0.4916,58.3095 0.8942,129.4925 0.8947,158.1844 l 10e-4,52.1672 h -104.3345 -104.3344 z"
       id="path5030" />
    <path
       style="fill:#00ffff;stroke-width:1.34625;stroke-miterlimit:10"
       d="m 2903.8625,1165.1799 v -65.2932 h 102.9882 102.9882 l 0.1036,17.8379 c 0.057,9.8108 0.3731,39.1927 0.7025,65.2931 l 0.5989,47.4553 h -103.6907 -103.6907 z"
       id="path5031" />
    <path
       style="fill:#00ffff;stroke-width:1.34625;stroke-miterlimit:10"
       d="m 2757.1212,1293.8455 c 0,-29.5454 0.195,-32.2622 2.3559,-32.8269 2.2438,-0.5864 2.2438,-0.6231 0,-0.7719 -2.2156,-0.1468 -2.3559,-4.9275 -2.3559,-80.2581 v -80.1019 h 63.2738 63.2738 v 9.4238 9.4237 h 6.0581 6.0581 v 70.0051 c 0,61.3292 -0.2502,70.005 -2.0194,70.005 -1.1106,0 -2.0193,0.6058 -2.0193,1.3463 0,0.7404 0.9087,1.3462 2.0193,1.3462 1.739,0 2.0194,4.4875 2.0194,32.31 v 32.31 h -69.3319 -69.3319 z"
       id="path5032" />
    <path
       style="fill:#00ffff;stroke-width:1.34625;stroke-miterlimit:10"
       d="m 2757.1212,1499.05 v -53.1769 h 3.3656 c 1.8511,0 3.3657,-0.6058 3.3657,-1.3462 0,-0.7405 -1.5146,-1.3463 -3.3657,-1.3463 h -3.3656 v -55.1962 -55.1963 h 64.62 64.6201 v 6.0581 c 0,6.0261 0.025,6.0581 4.7118,6.0581 h 4.7119 v 103.6613 103.6613 h -69.3319 -69.3319 z m 117.1238,-140.01 v -7.4044 h -7.4044 -7.4043 v 7.4044 7.4043 h 7.4043 7.4044 z"
       id="path5033" />
    <path
       style="fill:#00ffff;stroke-width:1.34625;stroke-miterlimit:10"
       d="m 2445.2489,1189.8675 c 0.4886,-17.8904 0.8884,-45.4549 0.8884,-61.2544 v -28.7264 h 103.6613 103.6613 v 9.4238 9.4237 h 5.385 5.385 v 25.4666 c 0,19.0569 -0.4235,25.6642 -1.6828,26.2519 -1.3462,0.6283 -1.3462,0.9424 0,1.5706 1.2569,0.5866 1.6828,7.0604 1.6828,25.5788 v 24.7934 h -109.9347 -109.9348 z"
       id="path5034" />
    <path
       style="fill:#00ffff;stroke-width:1.34625;stroke-miterlimit:10"
       d="m 2446.1373,1308.7726 c 0,-12.468 -0.3992,-35.4889 -0.8872,-51.1575 l -0.8872,-28.4883 h 109.9088 109.9087 v 48.465 c 0,48.1275 -0.024,48.465 -2.7938,48.465 -1.6573,0 -3.0752,1.0929 -3.4936,2.6925 -0.6965,2.6636 -1.8363,2.6925 -106.2277,2.6925 h -105.5237 z"
       id="path5035" />
    <path
       style="fill:#00ffff;stroke-width:1.34625;stroke-miterlimit:10"
       d="m 2448.3047,1537.0816 c -0.4428,-10.5512 -0.9756,-58.7133 -1.1841,-107.0269 l -0.3789,-87.8429 h 63.6447 63.6447 v 57.8888 57.8888 h 16.0429 c 11.5179,0 16.2643,0.4746 16.8281,1.6828 0.6282,1.3463 0.9424,1.3463 1.5706,0 0.5906,-1.2657 7.5988,-1.6828 28.2713,-1.6828 h 27.4859 v 23.4472 c 0,17.4981 -0.4269,23.6195 -1.6828,24.1262 -1.3462,0.5432 -1.3462,0.7003 0,0.7853 1.2717,0.08 1.6828,5.3685 1.6828,21.6463 v 21.54 h -4.0387 c -3.4105,0 -4.0388,0.5236 -4.0388,3.3657 v 3.3656 h -103.5213 -103.5214 z"
       id="path5036" />
    <path
       style="fill:#00ffff;stroke-width:1.34625;stroke-miterlimit:10"
       d="m 2580.7624,1398.7544 v -53.8501 h 41.7338 41.7337 v 53.8501 53.85 h -27.5981 c -26.7007,0 -27.5982,-0.088 -27.5982,-2.6925 0,-1.4809 -0.6058,-2.6925 -1.3462,-2.6925 -0.7404,0 -1.3463,1.2116 -1.3463,2.6925 0,2.5035 -0.8975,2.6925 -12.7893,2.6925 h -12.7894 z"
       id="path5037" />
    <path
       style="fill:#00ffff;stroke-width:1.34625;stroke-miterlimit:10"
       d="m 2448.8298,1612.8082 v -48.465 h 103.6613 c 91.2459,0 103.6613,0.2418 103.6613,2.0194 0,1.3429 1.343,2.0193 4.0095,2.0193 h 4.0096 v 46.4457 46.4456 H 2556.503 2448.8298 Z"
       id="path5038" />
    <path
       style="fill:#00ffff;stroke-width:1.34625;stroke-miterlimit:10"
       d="m 2448.8298,1727.2395 v -57.8888 h 107.6746 107.6746 v 55.1963 55.1963 h -4.0167 c -3.1192,0 -4.0167,0.6016 -4.0167,2.6925 0,2.6692 -0.8975,2.6925 -103.6613,2.6925 H 2448.823 Z"
       id="path5039" />
  </g>
</svg>
