<?xml version="1.0" encoding="UTF-8" standalone="no"?>
<svg
   version="1.1"
   viewBox="0 0 3455.09 3398.3"
   id="svg6733"
   sodipodi:docname="3.svg"
   inkscape:version="1.3.2 (091e20e, 2023-11-25)"
   xmlns:inkscape="http://www.inkscape.org/namespaces/inkscape"
   xmlns:sodipodi="http://sodipodi.sourceforge.net/DTD/sodipodi-0.dtd"
   xmlns="http://www.w3.org/2000/svg"
   xmlns:svg="http://www.w3.org/2000/svg">
  <defs
     id="defs6733" />
  <sodipodi:namedview
     id="namedview6733"
     pagecolor="#ffffff"
     bordercolor="#000000"
     borderopacity="0.25"
     inkscape:showpageshadow="2"
     inkscape:pageopacity="0.0"
     inkscape:pagecheckerboard="0"
     inkscape:deskcolor="#d1d1d1"
     inkscape:zoom="0.43487607"
     inkscape:cx="2231.6703"
     inkscape:cy="1099.1637"
     inkscape:window-width="1312"
     inkscape:window-height="449"
     inkscape:window-x="0"
     inkscape:window-y="25"
     inkscape:window-maximized="0"
     inkscape:current-layer="svg6733" />
  <g
     inkscape:groupmode="layer"
     id="layer1"
     inkscape:label="main"
     style="display:none">
    <path
       style="fill:#00ffff;stroke-width:0.623885;stroke-miterlimit:10"
       d="m 2640.9523,2696.5329 c -8.1915,8.6334 -17.3331,16.4532 -24.8981,25.6366 -0.4246,2.0996 -0.1465,1.305 -2.0857,1.3385 -6.6133,6.9489 -14.0613,13.3846 -20.1414,20.6766 14.8495,15.4439 30.5299,30.2975 45.6988,45.5143 4.3894,4.3404 8.7788,8.6808 13.1681,13.0212 0.6733,22.117 -2.5945,44.0905 -2.4955,66.2146 -0.051,1.418 -1.1337,5.0249 -0.6324,7.9607 0.1,8.9934 -1.0056,18.2072 -0.4752,27.1012 8.9276,0.593 18.0588,0.078 27.0634,0.2522 18.6972,-0.01 37.9773,0.01 56.8966,0 8.9033,-7.8117 17.3678,-16.4121 25.8388,-24.7982 1.3566,-1.0372 2.6124,-3.3212 2.442,-4.489 4.1179,-0.8451 6.5882,-5.1619 9.8079,-7.5914 13.5602,-13.393 27.6447,-26.3189 40.5379,-40.3515 0.4348,-2.6323 -3.758,-3.5353 -5.147,-5.3882 -53.9818,-41.544 -107.9773,-83.0802 -162.2942,-124.1837 -1.012,-0.328 -2.2063,-1.6888 -3.284,-0.9139 z"
       id="path2" />
    <path
       style="fill:#00ffff;stroke-width:0.623885;stroke-miterlimit:10"
       d="m 2699.6889,2647.3094 c -8.8492,8.894 -18.3096,17.3898 -26.7797,26.5305 2.5406,2.9029 -2.593,-0.5773 -4.0359,3.1557 -6.5987,6.3384 -13.903,12.1884 -19.4291,19.502 -0.1816,2.7896 4.166,3.5373 5.6057,5.5331 68.6907,52.7512 137.3366,105.5623 205.9998,158.35 0.2482,16.9724 -0.4921,33.9922 0.4886,50.9368 0.1377,1.4943 1.8661,1.5092 1.6816,3.1328 1.1994,2.2502 5.7404,-0.5878 4.7144,2.9001 0,81.6034 0,163.2068 0,244.8102 2.3589,2.3384 7.1056,0.3357 10.3587,1.0005 74.2423,0 148.4846,0 222.7269,0 2.3383,-2.3589 0.3357,-7.1056 1.0004,-10.3587 0.7198,-3.106 -1.5195,-9.171 1.2478,-10.2295 5.7204,-0.2383 11.6547,0.4776 17.2397,-0.3644 0.5357,-21.7598 0.075,-43.6935 0.2291,-65.5201 0,-47.6232 0,-95.2464 0,-142.8696 -2.3589,-2.3383 -7.1055,-0.3357 -10.3587,-1.0004 -5.0735,0 -10.1471,0 -15.2206,0 0,-5.5719 0,-11.1439 0,-16.7158 8.4219,-0.2472 17.0648,0.4913 25.3502,-0.3643 0.5357,-21.7598 0.075,-43.6936 0.2291,-65.5201 0,-47.2073 0,-94.4146 0,-141.6219 -2.3589,-2.3383 -7.1055,-0.3356 -10.3587,-1.0004 -117.3143,0 -234.6286,0 -351.943,0 -19.1078,-20.0868 -38.2155,-40.1738 -57.3231,-60.2609 -0.5455,-0.118 -0.8925,-0.6208 -1.4232,-0.026 z"
       id="path3" />
    <path
       style="fill:#00ffff;stroke-width:0.623885;stroke-miterlimit:10"
       d="m 2814.8773,2828.8696 c -5.5645,3.2423 -9.7438,8.6119 -14.5924,12.8426 -11.9987,11.6916 -23.9118,23.4711 -35.874,35.2002 -1.3903,2.4357 -4.8357,4.3912 -6.8661,6.8884 -7.2051,7.2634 -15.096,14.0565 -21.8741,21.6129 0,83.7107 0,167.4213 0,251.132 2.3589,2.3383 7.1056,0.3356 10.3587,1.0004 9.6923,0.1893 19.4468,-0.4026 29.0801,0.4314 2.4478,2.0803 6.4181,0.7896 9.4263,1.3032 25.7658,0.076 51.5594,0.5195 77.3096,-0.3906 2.5989,-0.5343 0.2829,-3.1533 -1.4574,-2.6125 -2.7054,-0.3641 -6.7804,1.0288 -5.4261,-3.2279 0,-4.1161 0,-8.2323 0,-12.3485 2.6979,-0.6229 9.0616,1.9201 8.1105,-2.8721 0,-69.6671 0,-139.3343 0,-209.0014 -1.7332,-2.8245 -8.6821,1.4877 -6.8577,-4.1198 0.3189,-3.8595 -0.6315,-8.2613 0.809,-11.7417 2.4272,-1.4933 1.0409,-5.3179 1.5748,-7.7059 0.1988,-14.2998 0.068,-28.6023 0.1067,-42.9032 -6.4703,-6.1279 -14.2886,-11.1512 -21.273,-16.857 -7.5183,-5.481 -14.6411,-11.7889 -22.5122,-16.6329 z"
       id="path4" />
    <path
       style="fill:#00ffff;stroke-width:0.623885;stroke-miterlimit:10"
       d="m 2649.1798,2905.7318 c -0.5357,21.7598 -0.075,43.6935 -0.2291,65.5201 0,60.5168 0,121.0336 0,181.5505 2.3589,2.3383 7.1056,0.3356 10.3587,1.0004 24.7474,0 49.4949,0 74.2423,0 2.3383,-2.3589 0.3357,-7.1055 1.0004,-10.3587 0,-79.0254 0,-158.0508 0,-237.0763 -2.3589,-2.3383 -7.1055,-0.3356 -10.3587,-1.0004 -24.8864,-0.014 -49.4433,0.043 -74.2423,0 l -0.5641,0.2665 z"
       id="path5" />
    <path
       style="fill:#00ffff;stroke-width:0.623885;stroke-miterlimit:10"
       d="m 2539.3761,2927.5677 c -0.5357,21.7599 -0.075,43.6936 -0.2291,65.5201 0,56.1497 0,112.2993 0,168.449 2.3589,2.3383 7.1055,0.3356 10.3587,1.0004 30.5754,-0.058 61.1485,-0.5135 91.722,-0.8286 1.5563,-1.4097 2.0667,-7.6541 -0.6348,-8.035 -2.8711,-0.9547 -9.7456,2.094 -9.6057,-1.8716 0,-4.5321 0,-9.0642 0,-13.5963 3.6425,-0.2308 7.493,0.4663 11.0009,-0.3644 0.5357,-21.7598 0.075,-43.6935 0.2291,-65.5201 0,-48.0391 0,-96.0783 0,-144.1174 -2.3589,-2.3383 -7.1056,-0.3356 -10.3587,-1.0004 -30.5481,0.041 -61.0321,-0.02 -91.7111,0 l -0.5641,0.2665 z"
       id="path6" />
    <path
       style="fill:#00ffff;stroke-width:0.623885;stroke-miterlimit:10"
       d="m 2539.3761,2824.0028 c -0.5352,21.656 -0.077,43.4855 -0.2291,65.2082 0.18,10.8776 -0.3585,21.9164 0.2665,32.6942 5.5053,1.0423 11.7848,0.1279 17.5788,0.4363 26.1385,0.01 51.9215,-0.037 77.9856,0 2.6985,-1.8662 -0.4482,-7.6405 1.6243,-9.3583 4.193,1.0022 6.9521,-0.8556 5.6157,-5.3676 -0.1642,-12.4416 0.8227,-24.9927 0.5719,-37.3509 0.9796,-1.4299 0.6549,-6.0197 0.6751,-8.8166 -0.1797,-12.4374 0.3579,-25.0356 -0.2664,-37.3733 -5.5054,-1.0423 -11.7849,-0.1279 -17.5789,-0.4363 -28.4907,0 -56.9815,0 -85.4722,0 l -0.5641,0.2665 z"
       id="path7" />
    <path
       style="fill:#00ffff;stroke-width:0.623885;stroke-miterlimit:10"
       d="m 2362.1928,2687.9959 c -0.5357,21.7599 -0.075,43.6936 -0.2291,65.5201 0,134.8632 0,269.7263 0,404.5894 2.3589,2.3383 7.1055,0.3357 10.3587,1.0004 53.0302,0 106.0604,0 159.0906,0 2.3383,-2.3589 0.3357,-7.1055 1.0004,-10.3587 0,-112.4857 0,-224.9714 0,-337.4571 24.3042,-0.9788 48.5128,-3.7831 72.7716,-5.5687 12.4526,-1.2624 25.0669,-1.5389 37.4318,-3.3327 2.0716,-1.9939 -1.6814,-4.1913 -2.7502,-5.7148 -30.5916,-29.413 -61.9664,-58.0042 -92.8942,-87.0637 -2.2888,0.6001 -0.9286,-0.3151 -2.2129,-1.7169 -7.0156,-6.9275 -14.1117,-13.9774 -21.6203,-20.2616 -53.3917,0 -106.7834,0 -160.1751,0 l -0.5641,0.2665 z"
       id="path8" />
    <path
       style="fill:#00ffff;stroke-width:0.623885;stroke-miterlimit:10"
       d="m 2148.8241,2687.9959 c -0.5374,11.9854 -0.073,24.1456 -0.2291,36.1975 0.6077,1.8653 -0.4175,6.1996 0,9.3583 -0.034,37.3871 0.06,75.0578 -0.033,112.2584 -0.9075,31.1509 -1.2779,62.3392 -0.6084,93.4979 0.5898,11.5133 -0.6625,23.2389 -0.379,34.9475 -0.3559,64.9219 -0.1866,129.8453 -0.2277,194.7679 2.3589,2.3383 7.1055,0.3356 10.3586,1.0004 66.1318,0 132.2636,0 198.3954,0 2.3384,-2.3589 0.3357,-7.1055 1.0005,-10.3587 0,-157.011 0,-314.0221 0,-471.0331 -2.3589,-2.3383 -7.1056,-0.3357 -10.3587,-1.0004 -65.7159,0 -131.4318,0 -197.1477,0 l -0.5641,0.2665 z"
       id="path9" />
    <path
       style="fill:#00ffff;stroke-width:0.623885;stroke-miterlimit:10"
       d="m 1979.571,2687.9959 c -0.092,9.3476 0.2061,18.9302 1.104,28.2881 0.9881,1.4315 -0.7908,3.7831 0.1579,6.0879 0.7883,9.9696 0.2399,20.1301 0.8271,30.039 5.3047,0.9712 11.3797,-0.094 16.9716,0.1123 47.8215,-0.7375 95.6517,-0.4267 143.4772,-0.5023 2.3383,-2.3589 0.3357,-7.1055 1.0004,-10.3587 -0.236,-5.4304 0.4765,-11.0736 -0.3643,-16.3684 0.6038,-1.7301 0.3001,-6.8142 0.3643,-9.8347 -0.2364,-5.6384 0.4772,-11.4898 -0.3643,-16.9924 -3.5382,-0.5555 -7.2597,-0.061 -10.8656,-0.2291 -0.6066,-3.3493 1.2346,-8.0711 -0.9513,-10.5883 -50.1891,-0.041 -100.3915,-0.01 -150.5857,-0.018 l -0.5641,0.2665 z"
       id="path10" />
    <path
       style="fill:#00ffff;stroke-width:0.623885;stroke-miterlimit:10"
       d="m 2047.7548,2758.4949 c -0.5357,21.7599 -0.075,43.6936 -0.2291,65.5201 0.1774,15.1414 -0.355,30.442 0.2664,45.4839 5.5054,1.0423 11.7849,0.1278 17.5789,0.4363 25.3075,0 50.6151,0 75.9226,0 2.2851,-1.9806 0.7043,-6.2749 1.4375,-9.1577 0.6716,-9.5057 -0.032,-18.8579 0.7261,-28.2424 0.4221,-24.4653 0.2218,-48.9362 0.2759,-73.4041 -2.3589,-2.3383 -7.1055,-0.3357 -10.3587,-1.0004 -28.2827,0 -56.5655,0 -84.8483,0 l -0.5641,0.2665 z"
       id="path11" />
    <path
       style="fill:#00ffff;stroke-width:0.623885;stroke-miterlimit:10"
       d="m 1981.623,2758.4949 c -0.4021,13.4497 -0.3553,27.0244 -1.0492,40.5282 0.4788,11.2008 0.05,22.9422 0.1962,34.3502 1.0196,3.5056 6.8098,0.7523 9.7348,1.6243 16.3892,-0.1774 32.9376,0.355 49.2271,-0.2665 1.0423,-5.5053 0.1279,-11.7848 0.4363,-17.5788 0,-19.3404 0,-38.6809 0,-58.0213 -2.3589,-2.3383 -7.1055,-0.3357 -10.3587,-1.0004 -15.9728,0.1791 -32.1061,-0.357 -47.9793,0.2665 z"
       id="path12" />
    <path
       style="fill:#00ffff;stroke-width:0.623885;stroke-miterlimit:10"
       d="m 1980.9991,2841.4716 c -0.5353,21.6559 -0.076,43.4855 -0.2291,65.2082 0.2462,9.6914 -0.4903,19.6032 0.3643,29.1581 -0.6038,1.73 -0.3,6.8141 -0.3643,9.8347 0.2435,7.0924 -0.4903,14.4041 0.3643,21.3595 19.8882,0.5356 39.9504,0.075 59.9052,0.2291 2.2072,-1.7889 0.3835,-5.7804 0.8995,-8.4357 -0.6698,-38.9046 -1.8187,-77.8058 -1.7708,-116.719 -2.3609,-2.3361 -7.1052,-0.3349 -10.3587,-0.9992 -16.1812,0.1774 -32.5216,-0.355 -48.6032,0.2664 z"
       id="path13" />
    <path
       style="fill:#00ffff;stroke-width:0.623885;stroke-miterlimit:10"
       d="m 2045.8831,2873.2898 c -0.5202,12.2207 -0.211,24.622 0.5873,36.8823 2.7177,2.1317 7.4746,0.3572 10.9802,0.9395 27.5955,0 55.191,0 82.7866,0 2.2221,-1.7746 0.4653,-5.7453 1.0188,-8.4322 -0.026,-9.7405 0.864,-19.6255 0.5553,-29.2933 -5.0684,-1.0994 -10.9698,-0.136 -16.3487,-0.4607 -26.2694,0 -52.5388,0 -78.8082,0 l -0.5641,0.2665 z"
       id="path14" />
    <path
       style="fill:#00ffff;stroke-width:0.623885;stroke-miterlimit:10"
       d="m 2046.3059,2915.09 c -0.1752,16.9881 0.8233,34.113 0.5959,51.1708 2.3575,2.3384 7.1058,0.3356 10.3587,1.0004 27.4509,0 54.9019,0 82.3528,0 2.3383,-2.3589 0.3356,-7.1055 1.0004,-10.3587 0.1952,-9.9992 -0.6177,-19.9037 0.6924,-29.9141 -0.6939,-3.4973 -6.6089,-0.8242 -9.4097,-1.6567 -2.9357,-0.6878 -0.4351,-6.8119 -1.2649,-9.6056 -2.3589,-2.3383 -7.1055,-0.3356 -10.3586,-1.0004 -24.3986,0 -48.7971,0 -73.1956,0 l -0.5642,0.2665 z"
       id="path15" />
    <path
       style="fill:#00ffff;stroke-width:0.623885;stroke-miterlimit:10"
       d="m 1980.9991,2972.4875 c -0.5396,9.6973 -0.073,19.5705 -0.2291,29.3347 0.6077,1.8653 -0.4175,6.1996 0,9.3583 0.2397,8.1331 -0.4815,16.4818 0.3643,24.479 21.7599,0.5357 43.6936,0.075 65.5201,0.229 32.0261,0 64.0522,0 96.0783,0 2.3383,-2.3589 0.3357,-7.1055 1.0004,-10.3586 0,-17.4688 0,-34.9376 0,-52.4064 -2.3589,-2.3383 -7.1055,-0.3356 -10.3587,-1.0004 -50.5346,0 -101.0693,0 -151.604,0 l -0.5641,0.2665 z"
       id="path16" />
    <path
       style="fill:#00ffff;stroke-width:0.623885;stroke-miterlimit:10"
       d="m 1805.0635,2948.7798 c -0.5368,13.6492 -0.074,27.4729 -0.229,41.1886 0.6077,1.8653 -0.4175,6.1996 0,9.3583 0,56.5656 0,113.1311 0,169.6967 2.3589,2.3383 7.1055,0.3356 10.3586,1.0004 28.4908,0 56.9815,0 85.4723,0 2.3383,-2.3589 0.3356,-7.1055 1.0004,-10.3587 0,-42.5066 0,-85.0132 0,-127.5199 3.8465,-0.2481 7.915,0.4936 11.6247,-0.3643 0.5357,-21.6559 0.075,-43.4856 0.2291,-65.2082 -0.2485,-5.9475 0.4937,-12.1173 -0.3643,-17.9281 -21.656,-0.5349 -43.4854,-0.077 -65.2082,-0.2291 -14.2052,0.1791 -28.5709,-0.3573 -42.6764,0.2665 z"
       id="path17" />
    <path
       style="fill:#00ffff;stroke-width:0.623885;stroke-miterlimit:10"
       d="m 1792.5858,2686.7482 c -0.536,16.5607 -0.074,33.2956 -0.229,49.9229 2.3589,2.3384 7.1055,0.3357 10.3586,1.0005 36.6013,0 73.2025,0 109.8038,0 2.3383,-2.359 0.3356,-7.1056 1.0004,-10.3587 -0.1793,-13.4773 0.3575,-27.1152 -0.2665,-40.4928 -5.5053,-1.0423 -11.7848,-0.1279 -17.5788,-0.4363 -34.1057,0 -68.2114,0 -102.3171,0 l -0.5642,0.2665 z"
       id="path18" />
    <path
       style="fill:#00ffff;stroke-width:0.623885;stroke-miterlimit:10"
       d="m 1241.0716,2686.7482 c -0.5533,3.9545 -0.063,8.0912 -0.2291,12.1133 -5.51,0.2491 -11.2425,-0.4941 -16.6158,0.3644 -0.5357,21.7598 -0.075,43.6935 -0.2291,65.5201 0,48.455 0,96.9101 0,145.3651 2.3589,2.3384 7.1055,0.3357 10.3587,1.0005 3.8468,-0.021 8.9156,-1.2641 7.1101,4.3672 0,3.7002 0,7.4005 0,11.1007 -12.3122,0.1782 -24.7839,-0.3543 -36.9968,0.2665 -1.0423,5.5053 -0.1279,11.7848 -0.4363,17.5788 0.136,9.3443 -0.134,18.5762 -0.8797,27.8208 -0.6569,55.607 -0.252,111.2213 -0.3681,166.8313 2.3589,2.3383 7.1055,0.3357 10.3587,1.0004 9.4407,0 18.8815,0 28.3222,0 0.1782,11.8963 -0.3543,23.952 0.2664,35.749 5.5054,1.0424 11.7849,0.1279 17.5789,0.4363 63.8381,0 127.6762,0 191.5144,0 2.3423,-2.3543 0.3915,-7.1002 1.0812,-10.3498 0.081,-9.3397 0.1608,-18.6794 0.2409,-28.0191 4.5378,0 9.0755,0 13.6133,0 0.2878,12.6251 -0.1378,25.4169 0.5932,37.9388 5.5095,1.0285 11.7806,0.1254 17.5738,0.4301 64.04,0 128.08,0 192.12,0 2.3424,-2.3543 0.3916,-7.1002 1.0813,-10.3498 0.081,-9.3397 0.1607,-18.6794 0.2408,-28.0191 3.9139,0 7.8278,0 11.7417,0 0.2878,12.6251 -0.1378,25.4169 0.5932,37.9388 5.5095,1.0285 11.7806,0.1254 17.5738,0.4301 29.1086,0 58.2171,0 87.3256,0 2.3383,-2.3589 0.3357,-7.1055 1.0004,-10.3586 0,-58.0213 0,-116.0426 0,-174.0639 -0.6077,-1.8653 0.4175,-6.1996 0,-9.3583 0,-13.392 0,-26.784 0,-40.176 38.9713,0 77.9426,0 116.9139,0 2.3383,-2.3589 0.3356,-7.1055 1.0004,-10.3587 0,-62.5964 0,-125.1929 0,-187.7893 -2.3589,-2.3384 -7.1056,-0.3357 -10.3587,-1.0004 -38.9713,0 -77.9426,0 -116.9138,0 0,-18.5911 0,-37.1821 0,-55.7732 -2.3589,-2.3383 -7.1056,-0.3356 -10.3587,-1.0004 -27.035,0 -54.07,0 -81.1051,0 -2.3383,2.3589 -0.3356,7.1056 -1.0004,10.3587 0.5086,4.3128 -6.4463,1.1621 -9.2937,2.119 -5.0133,1.2091 -6.4972,-1.1112 -5.5503,-5.8623 0.4838,-3.7406 0.3671,-8.3007 -4.7438,-6.6154 -14.3095,0.1774 -28.7783,-0.3549 -42.9882,0.2665 -1.6514,-0.2509 -6.4686,-0.3531 -9.4181,-0.2665 -49.7028,0 -99.4056,0 -149.1085,0 -2.3383,2.3589 -0.3356,7.1056 -1.0004,10.3587 0.5086,4.3128 -6.4464,1.1621 -9.2937,2.119 -5.0133,1.2091 -6.4972,-1.1112 -5.5504,-5.8623 0.4838,-3.7406 0.3672,-8.3007 -4.7437,-6.6154 -48.663,0 -97.326,0 -145.989,0 -1.8653,0.6077 -6.1996,-0.4175 -9.3583,0 -18.3006,0 -36.6013,0 -54.9019,0 l -0.5641,0.2665 z m 222.2504,234.9694 c 3.4023,0.4235 9.5241,-1.8725 7.734,3.7433 0,3.9082 0,7.8164 0,11.7247 -5.156,0 -10.3119,0 -15.4679,0 0,-5.156 0,-10.312 0,-15.468 2.578,0 5.156,0 7.7339,0 z m 224.5986,0 c 3.4023,0.4235 9.5241,-1.8725 7.734,3.7433 0,3.9082 0,7.8164 0,11.7247 -5.156,0 -10.312,0 -15.468,0 0,-5.156 0,-10.312 0,-15.468 2.578,0 5.156,0 7.734,0 z"
       id="path19" />
    <path
       style="fill:#00ffff;stroke-width:0.623885;stroke-miterlimit:10"
       d="m 995.8251,2752.5266 c -5.37381,-0.3921 -10.32018,1.7116 -15.65785,1.2209 -4.93168,0.2411 -10.05893,-0.4499 -14.8528,0.3802 -0.53555,21.69 -0.0757,43.5538 -0.22908,65.3105 0,19.479 0,38.9579 0,58.4369 2.36282,2.335 7.10967,0.2883 10.36574,0.9319 66.54389,-0.5574 133.08989,-0.8581 199.63609,-0.7613 2.3383,-2.359 0.3357,-7.1056 1.0004,-10.3587 -0.021,-3.8468 -1.2641,-8.9156 4.3672,-7.1101 9.671,-0.2412 19.5585,0.4829 29.0935,-0.3644 0.5357,-21.7598 0.076,-43.6935 0.2291,-65.5201 -0.1773,-13.8936 0.3549,-27.9464 -0.2664,-41.7405 -5.5054,-1.0423 -11.7849,-0.1279 -17.5789,-0.4363 -60.9327,0 -121.8655,0 -182.7983,0 -1.8653,0.6077 -6.1995,-0.4175 -9.35824,0 -1.31685,0 -2.63364,0 -3.95046,0.011 z"
       id="path20" />
    <path
       style="fill:#00ffff;stroke-width:0.623885;stroke-miterlimit:10"
       d="m 791.25056,2753.5038 c -0.53565,21.753 -0.0756,43.6798 -0.22908,65.4994 0.17749,13.8863 -0.35509,27.9319 0.26646,41.7186 4.03425,1.1133 8.86309,0.3472 13.1885,0.7653 0.88784,2.5802 -1.56071,8.6904 2.5723,8.4521 45.48718,-0.1521 90.92699,1.4213 136.41735,1.2311 4.81552,1.5862 4.66616,-2.9183 4.27967,-6.2908 -1.74297,-5.5472 3.32041,-4.2881 7.11009,-4.3026 4.74677,1.3786 6.40387,-1.6986 5.36761,-5.9915 0,-33.2739 0,-66.5477 0,-99.8216 -2.35891,-2.3383 -7.10554,-0.3357 -10.35869,-1.0004 -35.38125,0.1889 -70.77701,-0.4007 -106.14939,0.3607 -1.9147,-0.5651 -3.86824,2.4496 -3.54429,-0.5483 -5.50535,-1.0423 -11.78482,-0.1279 -17.57884,-0.4363 -10.41556,0.2408 -21.06427,-0.4828 -31.34169,0.3643 z"
       id="path21" />
    <path
       style="fill:#00ffff;stroke-width:0.623885;stroke-miterlimit:10"
       d="m 690.18121,2250.0287 c -0.5357,21.7599 -0.0755,43.6936 -0.22909,65.5201 0,84.2245 0,168.449 0,252.6734 0.004,26.9758 -0.003,54.5314 0,81.7289 2.35891,2.3384 7.10554,0.3357 10.35869,1.0005 29.11463,0 58.22925,0 87.34388,0 2.32576,-2.2605 0.35322,-6.8885 1.00042,-10.0468 0.11858,-3.7896 6.9048,-0.9116 9.91757,-1.8071 5.55621,-1.648 5.31277,2.5037 4.9265,6.7982 -1.45644,4.7293 1.97377,5.9352 5.99149,5.0557 48.66302,0 97.32604,0 145.98906,0 2.331,-2.2574 0.34084,-6.8956 1.00042,-10.0468 2.60946,-1.2987 7.62406,-0.1924 11.16534,-0.5593 5.55628,-1.6481 5.31191,2.5045 4.92649,6.7982 -1.54685,5.1667 4.13676,3.6909 7.23927,3.8079 69.04325,0 138.08655,0 207.12975,0 2.3383,-2.359 0.3357,-7.1056 1.0004,-10.3587 -0.6976,-4.4355 6.043,-0.7434 8.5054,-2.4834 0.5356,-21.7598 0.075,-43.6935 0.229,-65.5201 0,-28.4907 0,-56.9815 0,-85.4722 -2.2674,-2.3134 -6.8785,-0.371 -10.0467,-1.0004 -5.7306,1.8008 -4.2023,-3.6572 -4.3026,-7.4867 0.6862,-3.014 -2.1143,-9.5147 3.1194,-7.9813 3.6392,-0.2451 7.4986,0.4916 11.0009,-0.3643 0.5356,-21.7599 0.075,-43.6936 0.229,-65.5201 0,-47.6232 0,-95.2465 0,-142.8697 -2.2573,-2.331 -6.8955,-0.3408 -10.0467,-1.0004 -1.4637,-2.4774 0.1604,-7.4975 -0.8258,-10.7936 -5.5053,-1.0423 -11.7848,-0.1279 -17.5788,-0.4363 -63.4283,0 -126.8566,0 -190.28491,0 -2.331,2.2573 -0.34083,6.8955 -1.00041,10.0467 -2.50486,1.2994 -7.4178,0.1907 -10.8534,0.5593 -3.38087,-0.4449 -8.5242,0.8727 -10.8534,-0.6239 -0.61802,-3.142 1.27243,-7.7287 -1.00042,-9.9821 -49.07894,0 -98.15789,0 -147.23683,0 -2.331,2.2573 -0.34084,6.8955 -1.00042,10.0467 -2.51726,1.287 -7.39839,0.2101 -10.8534,0.5593 -3.79463,-0.01 -8.91138,1.3029 -7.11009,-4.3026 0.60043,-3.7391 0.16557,-7.9136 -4.74372,-6.3034 -30.77832,0 -61.55664,0 -92.33497,0 l -0.56411,0.2665 z m 105.89593,221.8679 c 3.87908,0.051 9.2172,-1.3577 7.42204,4.3672 -0.73132,3.1769 1.53137,9.3478 -1.24777,10.4769 -4.5321,0 -9.0642,0 -13.5963,0 0,-4.9481 0,-9.8961 0,-14.8441 2.47401,0 4.94802,0 7.42203,0 z m 168.44893,0 c 3.46308,0.4666 9.7833,-1.9238 8.04591,3.7433 0,3.9082 0,7.8164 0,11.7246 -5.36394,0 -10.72789,0 -16.09183,0 0,-5.1559 0,-10.3119 0,-15.4679 2.68197,0 5.36394,0 8.04592,0 z"
       id="path22" />
    <path
       style="fill:#00ffff;stroke-width:0.623885;stroke-miterlimit:10"
       d="m 1204.2624,2481.49 c -0.5357,21.7599 -0.076,43.6936 -0.2291,65.5201 0,28.2828 0,56.5656 0,84.8484 2.3589,2.3383 7.1055,0.3356 10.3587,1.0004 12.386,-0.098 24.8843,0.057 37.4331,0 2.3383,-2.3589 0.3356,-7.1055 1.0004,-10.3587 0,-46.7914 0,-93.5827 0,-140.3741 -2.3589,-2.3383 -7.1056,-0.3357 -10.3587,-1.0004 -12.6454,0.1794 -25.4516,-0.3577 -37.9972,0.2665 z"
       id="path23" />
    <path
       style="fill:#00ffff;stroke-width:0.623885;stroke-miterlimit:10"
       d="m 1258.5404,2464.0213 c -0.5357,21.7598 -0.076,43.6935 -0.2291,65.5201 0,34.1057 0,68.2114 0,102.3171 2.3589,2.3383 7.1055,0.3356 10.3587,1.0004 61.5985,0.013 123.253,-0.021 184.6699,0 3.2786,-0.5967 7.9612,1.2368 10.3587,-1.0004 0,-49.9108 0,-99.8216 0,-149.7324 -2.512,-2.0434 -7.5168,0.322 -5.615,-5.3676 -0.2235,-4.2679 0.4663,-8.7407 -0.3643,-12.8725 -21.7599,-0.5357 -43.6936,-0.075 -65.5201,-0.2291 -44.2959,0 -88.5917,0 -132.8875,0 l -0.5641,0.2665 z"
       id="path24" />
    <path
       style="fill:#00ffff;stroke-width:0.623885;stroke-miterlimit:10"
       d="m 1470.0373,2457.1585 c -0.2584,2.0329 -1.2082,6.7719 2.2385,6.6203 3.8484,-0.3067 1.047,6.0006 1.8997,8.6771 -0.7838,3.1245 2.2359,10.0523 -3.0549,8.6698 -2.9434,1.5609 -0.5298,6.7667 -1.3123,9.7348 0,46.9993 0,93.9987 0,140.998 2.3589,2.3383 7.1055,0.3356 10.3586,1.0004 9.9072,-0.3005 19.9957,0.6215 29.8052,-0.7214 0.5804,-1.3545 1.3764,0.9867 2.5113,0.3047 21.4502,0.7584 42.9255,0.273 64.3857,0.4167 2.3383,-2.3589 0.3357,-7.1055 1.0004,-10.3587 0,-54.9019 0,-109.8037 0,-164.7056 -2.3589,-2.3383 -7.1055,-0.3357 -10.3587,-1.0004 -32.234,0 -64.4681,0 -96.7021,0 l -0.5642,0.2664 z m 40.4356,174.2053 c -0.034,0.1169 0.017,-0.073 0,0 z"
       id="path25" />
    <path
       style="fill:#00ffff;stroke-width:0.623885;stroke-miterlimit:10"
       d="m 1583.5844,2448.4241 c -0.5357,21.7599 -0.075,43.6936 -0.2291,65.5201 0,39.3048 0,78.6095 0,117.9143 2.3589,2.3383 7.1055,0.3356 10.3587,1.0004 11.8136,-0.1795 23.7879,0.358 35.5017,-0.2665 1.6513,0.2509 6.4685,0.3532 9.418,0.2665 17.4688,0 34.9376,0 52.4063,0 2.3384,-2.3589 0.3357,-7.1055 1.0005,-10.3587 0,-46.9993 0,-93.9987 0,-140.998 -2.512,-2.0434 -7.5169,0.322 -5.615,-5.3676 -0.2409,-9.2551 0.4826,-18.7265 -0.3644,-27.8457 -21.7598,-0.5357 -43.6935,-0.075 -65.5201,-0.2291 -12.2299,0.1773 -24.619,-0.3548 -36.7494,0.2665 z"
       id="path26" />
    <path
       style="fill:#00ffff;stroke-width:0.623885;stroke-miterlimit:10"
       d="m 1702.7464,2448.4241 c -0.5388,10.6118 -0.073,21.399 -0.2291,32.0777 -4.2441,-1.0856 -6.9233,0.8954 -5.6149,5.3676 0,48.663 0,97.3261 0,145.9891 2.3589,2.3383 7.1055,0.3356 10.3586,1.0004 6.5183,-0.3819 13.3257,0.7612 19.6914,-0.7579 1.5328,-0.053 3.9009,0.811 5.7795,0.5434 24.9882,0.4204 49.9836,0.1236 74.9746,0.2145 2.3383,-2.3589 0.3357,-7.1055 1.0004,-10.3587 0,-57.8133 0,-115.6267 0,-173.44 -2.3589,-2.3383 -7.1055,-0.3357 -10.3587,-1.0004 -31.6101,0 -63.2203,0 -94.8305,0 l -0.5641,0.2665 z"
       id="path27" />
    <path
       style="fill:#00ffff;stroke-width:0.623885;stroke-miterlimit:10"
       d="m 1815.0457,2448.4241 c -0.5357,21.7599 -0.075,43.6936 -0.2291,65.5201 0,39.3048 0,78.6095 0,117.9143 2.3589,2.3383 7.1055,0.3356 10.3587,1.0004 31.4263,-0.037 63.2071,0.025 94.8305,0 2.3383,-2.3589 0.3357,-7.1055 1.0004,-10.3587 0,-46.9993 0,-93.9987 0,-140.998 -2.5119,-2.0434 -7.5168,0.322 -5.615,-5.3676 -0.2409,-9.2551 0.4826,-18.7265 -0.3643,-27.8457 -21.7598,-0.5357 -43.6935,-0.075 -65.5201,-0.2291 -11.3981,0.1772 -22.9553,-0.3547 -34.2539,0.2665 z"
       id="path28" />
    <path
       style="fill:#00ffff;stroke-width:0.623885;stroke-miterlimit:10"
       d="m 1931.7122,2448.4241 c -0.5389,10.6118 -0.073,21.399 -0.2291,32.0777 -4.2441,-1.0856 -6.9234,0.8954 -5.615,5.3676 0,48.663 0,97.3261 0,145.9891 2.3589,2.3383 7.1056,0.3356 10.3587,1.0004 7.5222,-0.3419 15.2509,0.6939 22.6621,-0.6812 0.8743,-1.5762 1.3737,0.4775 2.8977,0.2328 26.8134,0.9319 53.6707,0.2217 80.5006,0.4484 2.3384,-2.3589 0.3357,-7.1055 1.0005,-10.3587 0,-57.8133 0,-115.6267 0,-173.44 -2.359,-2.3383 -7.1056,-0.3357 -10.3587,-1.0004 -33.4819,0 -66.9637,0 -100.4455,0 l -0.5641,0.2665 z"
       id="path29" />
    <path
       style="fill:#00ffff;stroke-width:0.623885;stroke-miterlimit:10"
       d="m 2048.3786,2448.4241 c -0.5357,21.7599 -0.075,43.6936 -0.229,65.5201 0,39.3048 0,78.6095 0,117.9143 2.3589,2.3383 7.1055,0.3356 10.3586,1.0004 7.9327,-0.3375 16.0592,0.686 23.8868,-0.6739 0.8881,-1.6237 1.3701,0.5078 2.894,0.2681 19.7516,0.8353 39.5472,0.2038 59.3154,0.4058 2.3383,-2.3589 0.3356,-7.1055 1.0004,-10.3587 0,-47.8312 0,-95.6623 0,-143.4935 -3.6975,-0.8558 -4.4494,-2.7469 -3.7433,-7.2393 -0.2375,-7.8001 0.4803,-15.8146 -0.3644,-23.4785 -21.6559,-0.5354 -43.4854,-0.076 -65.2081,-0.2291 -9.2679,0.2461 -18.7824,-0.4902 -27.9104,0.3643 z"
       id="path30" />
    <path
       style="fill:#00ffff;stroke-width:0.623885;stroke-miterlimit:10"
       d="m 2156.3107,2465.8929 c -0.5532,3.9545 -0.063,8.0913 -0.229,12.1134 -4.2442,-1.0856 -6.9234,0.8953 -5.615,5.3676 0,49.4948 0,98.9897 0,148.4846 2.3589,2.3383 7.1055,0.3356 10.3587,1.0004 9.5886,-0.2406 19.3935,0.4827 28.8461,-0.3644 1.73,0.6039 6.8142,0.3001 9.8347,0.3644 18.9245,0 37.8491,0 56.7736,0 2.3383,-2.3589 0.3356,-7.1055 1.0004,-10.3587 0,-51.9904 0,-103.9808 0,-155.9712 -2.3589,-2.3383 -7.1056,-0.3357 -10.3587,-1.0004 -29.9465,0 -59.893,0 -89.8394,0 l -0.5642,0.2664 z"
       id="path31" />
    <path
       style="fill:#00ffff;stroke-width:0.623885;stroke-miterlimit:10"
       d="m 2264.8667,2465.8929 c -0.5357,21.7598 -0.075,43.6936 -0.2291,65.5201 0,23.0837 0,46.1675 0,69.2512 1.6902,2.1972 5.5796,0.5179 8.1785,0.9492 5.573,-0.5311 11.529,0.305 16.8683,-1.4597 0.7216,-1.7717 1.2594,0.9608 2.8319,0.5203 21.1752,0.7952 42.3937,0.1612 63.585,0.3668 2.3384,-2.3589 0.3357,-7.1056 1.0005,-10.3587 0,-41.3844 0,-82.7688 0,-124.1531 -2.3589,-2.3383 -7.1056,-0.3357 -10.3587,-1.0004 -27.035,0 -54.07,0 -81.1051,0 l -0.5641,0.2664 z"
       id="path32" />
    <path
       style="fill:#00ffff;stroke-width:0.623885;stroke-miterlimit:10"
       d="m 2362.1928,2478.9945 c -0.5354,21.6559 -0.076,43.4855 -0.2291,65.2081 0,18.6126 0,37.2252 0,55.8377 2.3589,2.3384 7.1055,0.3357 10.3587,1.0005 42.1479,0 84.2959,0 126.4439,0 2.6292,-2.5751 2.9833,-7.1931 4.7553,-10.5328 3.8631,-10.4846 8.1132,-21.0774 10.6298,-31.8731 -2.2947,-0.9369 1.0556,-1.4099 1.0089,-3.1097 3.6726,-10.2445 6.8546,-20.8342 9.4701,-31.3076 -2.7327,-1.6234 -6.9509,-0.1789 -10.2219,-0.6677 -32.2633,0 -64.5266,0 -96.7899,0 -0.1782,-14.8078 0.3545,-29.775 -0.2665,-44.4835 -5.5053,-1.0423 -11.7848,-0.1278 -17.5788,-0.4362 -12.4379,0.1772 -25.035,-0.3548 -37.3733,0.2664 z"
       id="path33" />
    <path
       style="fill:#00ffff;stroke-width:0.623885;stroke-miterlimit:10"
       d="m 2428.3246,2309.2978 c -0.5357,21.7598 -0.075,43.6935 -0.2291,65.5201 0.1773,13.0618 -0.3549,26.2828 0.2664,39.245 2.9224,1.2092 8.3372,-1.2522 6.5963,4.1796 0,33.3563 0,66.7126 0,100.0689 2.3589,2.3383 7.1055,0.3357 10.3587,1.0004 30.9507,0.076 61.8991,-0.3663 92.8455,-0.8261 15.6659,-12.524 30.8286,-25.9068 46.3015,-38.7601 0.8334,-10.0712 0.1163,-20.4858 0.3559,-30.6886 -0.029,-46.2445 0.017,-92.6832 0,-139.1031 -2.359,-2.3384 -7.1056,-0.3357 -10.3587,-1.0004 -48.4551,0 -96.9102,0 -145.3652,0 l -0.5641,0.2664 z"
       id="path34" />
    <path
       style="fill:#00ffff;stroke-width:0.623885;stroke-miterlimit:10"
       d="m 2663.5292,2425.9643 c -1.4093,2.681 1.8755,9.1966 -2.1008,8.9939 -4.7214,-1.4625 -5.839,2.0278 -4.991,5.9915 0.1808,9.9416 -0.3591,20.0449 0.2664,29.8867 2.9224,1.2092 8.3372,-1.2522 6.5963,4.1796 -0.4117,3.4965 0.8285,8.6449 -0.6239,11.1008 -3.7327,-0.6117 -7.8351,-0.1259 -6.2377,4.7437 0.01,31.7141 0.018,63.4283 0.027,95.1424 6.1065,7.3186 13.2563,13.9642 19.7608,21.0257 2.0452,0.1736 3.175,4.0078 5.5589,5.5906 28.173,29.0204 54.9398,59.3538 82.2736,89.1631 11.5451,0.7678 23.3925,0.1071 35.0533,0.3278 24.73,0 49.46,0 74.1899,0 2.0434,-2.5119 -0.3219,-7.5168 5.3676,-5.6149 3.7003,0 7.4005,0 11.1008,0 -1.0856,4.2441 0.8954,6.9233 5.3676,5.6149 62.1805,0 124.3611,0 186.5416,0 2.3383,-2.3589 0.3357,-7.1055 1.0004,-10.3587 0,-88.3837 0,-176.7674 0,-265.1511 -2.3589,-2.3383 -7.1055,-0.3356 -10.3587,-1.0004 -60.7248,0 -121.4496,0 -182.1744,0 -3.005,1.552 1.1621,8.3701 -2.2482,8.7344 -4.74,0 -9.4801,0 -14.2201,0 -0.7968,-2.6533 1.9904,-8.9224 -2.2482,-8.7344 -69.0433,0 -138.0865,0 -207.1298,0 l -0.5641,0.2665 z m 218.1952,46.5562 c 3.8791,0.051 9.2172,-1.3577 7.422,4.3672 -0.7313,3.1769 1.5314,9.3478 -1.2478,10.4768 -4.5321,0 -9.0642,0 -13.5963,0 0,-4.948 0,-9.896 0,-14.844 2.4741,0 4.9481,0 7.4221,0 z"
       id="path35" />
    <path
       style="fill:#00ffff;stroke-width:0.623885;stroke-miterlimit:10"
       d="m 3088.3948,2425.9643 c -0.5357,21.7598 -0.075,43.6935 -0.2291,65.5201 0,69.8751 0,139.7502 0,209.6253 2.3589,2.3383 7.1055,0.3357 10.3587,1.0004 10.1498,-0.1795 20.4607,0.3586 30.5106,-0.2665 1.0423,-5.5053 0.1279,-11.7848 0.4363,-17.5788 0,-85.8881 0,-171.7763 0,-257.6645 -2.3589,-2.3383 -7.1056,-0.3356 -10.3587,-1.0004 -10.1499,0.1795 -20.4607,-0.3585 -30.5106,0.2665 z"
       id="path36" />
    <path
       style="fill:#00ffff;stroke-width:0.623885;stroke-miterlimit:10"
       d="m 2898.7338,2215.7151 c -0.5357,21.7598 -0.075,43.6935 -0.2291,65.5201 0,45.9595 0,91.919 0,137.8785 2.3589,2.3383 7.1055,0.3357 10.3587,1.0004 74.0343,0 148.0687,0 222.103,0 2.3383,-2.3589 0.3357,-7.1055 1.0004,-10.3586 0,-64.4682 0,-128.9363 0,-193.4044 -2.3589,-2.3383 -7.1055,-0.3356 -10.3587,-1.0004 -72.8081,-0.01 -145.3505,0.017 -218.0477,0 -1.5836,0.1902 -3.3813,-0.4162 -4.8266,0.3644 z"
       id="path37" />
    <path
       style="fill:#00ffff;stroke-width:0.623885;stroke-miterlimit:10"
       d="m 2655.4187,2216.9628 c -0.5346,21.623 -0.078,43.4198 -0.2279,65.1095 0.1651,27.8073 -0.2514,55.6312 0.8213,83.4239 -0.6261,4.3046 0.5381,9.9201 0.2748,14.7292 0.3965,13.1318 -0.2259,26.4196 0.4166,39.4526 5.5047,1.042 11.7852,0.1278 17.5792,0.4361 72.5786,0 145.1572,0 217.7358,0 2.3383,-2.3589 0.3356,-7.1055 1.0004,-10.3586 0,-64.0522 0,-128.1044 0,-192.1566 -2.3589,-2.3383 -7.1055,-0.3357 -10.3587,-1.0004 -75.4901,0 -150.9801,0 -226.4702,0 l -0.5641,0.2665 z"
       id="path38" />
    <path
       style="fill:#00ffff;stroke-width:0.623885;stroke-miterlimit:10"
       d="m 2943.0296,2042.8989 c -0.5347,21.5519 -0.078,43.2777 -0.2273,64.8963 0.2309,17.9419 -0.4623,35.9351 0.6245,53.8454 0.8968,1.6394 -1.1093,3.3302 -0.7134,5.2937 -0.8809,12.498 -0.4047,25.0444 -0.5368,37.563 2.3589,2.3383 7.1056,0.3357 10.3587,1.0004 15.9217,-0.037 31.4639,-0.011 47.4153,0 2.3383,-2.3589 0.3356,-7.1055 1.0004,-10.3587 0,-50.5346 0,-101.0693 0,-151.604 -2.3589,-2.3383 -7.1055,-0.3356 -10.3587,-1.0004 -15.7653,0.1774 -31.6898,-0.355 -47.3555,0.2665 z"
       id="path39" />
    <path
       style="fill:#00ffff;stroke-width:0.623885;stroke-miterlimit:10"
       d="m 2720.9266,2109.0307 c -0.5357,21.7599 -0.075,43.6936 -0.2291,65.5201 0.1772,10.9823 -0.3547,22.1235 0.2665,33.0062 5.5053,1.0423 11.7848,0.1279 17.5788,0.4363 46.1675,0 92.335,0 138.5024,0 2.331,-2.2574 0.3409,-6.8956 1.0005,-10.0468 2.6087,-1.2994 7.6253,-0.191 11.1653,-0.5593 5.6842,-1.7352 2.8936,4.4298 3.9452,7.6742 5.5053,1.0423 11.7848,0.1279 17.5788,0.4363 9.1728,-0.2404 18.5616,0.4824 27.5984,-0.3643 0.5372,-13.857 0.074,-27.8887 0.2291,-41.8125 -0.01,-17.616 0.01,-35.8156 0,-53.6541 -2.3589,-2.3383 -7.1055,-0.3356 -10.3587,-1.0004 -68.8353,0 -137.6706,0 -206.5059,0 l -0.5641,0.2665 z"
       id="path40" />
    <path
       style="fill:#00ffff;stroke-width:0.623885;stroke-miterlimit:10"
       d="m 2810.1421,2042.8989 c -0.5355,20.3042 -0.075,40.7822 -0.2291,61.1529 2.3589,2.3384 7.1056,0.3357 10.3587,1.0005 39.0968,0 78.1936,0 117.2904,0 2.3383,-2.359 0.3356,-7.1056 1.0004,-10.3587 0,-17.0529 0,-34.1057 0,-51.1586 -2.3589,-2.3383 -7.1055,-0.3356 -10.3587,-1.0004 -39.2413,0 -78.0727,0.015 -117.2904,0 l -0.5641,0.2665 z"
       id="path41" />
    <path
       style="fill:#00ffff;stroke-width:0.623885;stroke-miterlimit:10"
       d="m 2720.9266,2042.8989 c -0.5356,19.4723 -0.075,39.1185 -0.2291,58.6574 2.3589,2.3383 7.1055,0.3357 10.3587,1.0004 23.7076,0 47.4152,0 71.1229,0 2.3383,-2.3589 0.3356,-7.1055 1.0004,-10.3587 -0.1791,-16.3888 0.3569,-32.938 -0.2665,-49.2271 -5.5053,-1.0423 -11.7848,-0.1279 -17.5788,-0.4363 -7.3003,0.244 -14.82,-0.4898 -21.9834,0.3643 -1.766,-0.4067 -6.8348,-0.438 -9.9176,-0.3643 -10.746,0.18 -21.6533,-0.3588 -32.2994,0.2665 z"
       id="path42" />
    <path
       style="fill:#00ffff;stroke-width:0.623885;stroke-miterlimit:10"
       d="m 2655.4187,2042.8989 c -0.5357,21.7599 -0.076,43.6936 -0.2291,65.5201 0,29.3226 0,58.6452 0,87.9678 2.2604,2.3258 6.8885,0.3532 10.0467,1.0004 3.7697,0.035 0.9174,6.6911 1.8071,9.6057 2.3589,2.3383 7.1055,0.3356 10.3587,1.0004 12.4379,-0.1773 25.035,0.3548 37.3733,-0.2665 1.0423,-5.5053 0.1279,-11.7848 0.4363,-17.5788 0,-48.871 0,-97.742 0,-146.613 -2.3589,-2.3383 -7.1055,-0.3356 -10.3587,-1.0004 -16.3368,0.037 -32.2959,0.01 -48.663,0 l -0.5641,0.2665 z"
       id="path43" />
    <path
       style="fill:#00ffff;stroke-width:0.623885;stroke-miterlimit:10"
       d="m 2428.9484,2209.4762 c -0.5209,20.2017 -0.047,40.574 -0.4719,60.8406 0.034,10.8779 -0.7467,21.8953 -0.3277,32.6801 5.2853,1.0761 11.379,0.1327 16.9658,0.4508 46.2349,0 92.4698,0 138.7047,0 2.3384,-2.3589 0.3357,-7.1056 1.0005,-10.3587 -0.2406,-9.5887 0.4826,-19.3935 -0.3644,-28.8462 0.6038,-1.73 0.3001,-6.8141 0.3644,-9.8347 -0.1793,-14.933 0.3571,-30.0266 -0.2665,-44.8599 -5.5054,-1.0423 -11.7848,-0.1279 -17.5789,-0.4363 -45.7515,0 -91.5031,0 -137.2546,0 l -0.5641,0.2664 z"
       id="path44" />
    <path
       style="fill:#00ffff;stroke-width:0.623885;stroke-miterlimit:10"
       d="m 2418.9663,2091.562 c -0.535,21.6559 -0.077,43.4854 -0.2291,65.2081 0.1796,12.1255 -0.3579,24.4118 0.2665,36.4375 5.5053,1.0423 11.7848,0.1279 17.5788,0.4363 12.5602,0 25.1203,0 37.6805,0 0.5919,3.1542 -1.2288,7.7088 1.0004,9.9822 36.1853,0 72.3706,0 108.5559,0 2.3384,-2.3589 0.3357,-7.1056 1.0005,-10.3587 -0.2489,-15.4706 0.5433,-31.0259 -0.6312,-46.4478 -1.2773,-0.816 0.9237,-1.8239 0.2741,-3.2498 0.6382,-17.1143 0.2422,-34.2491 0.3571,-51.3718 -2.359,-2.3383 -7.1056,-0.3356 -10.3587,-1.0004 -51.5745,0 -103.149,0 -154.7235,0 l -0.5641,0.2665 z"
       id="path45" />
    <path
       style="fill:#00ffff;stroke-width:0.623885;stroke-miterlimit:10"
       d="m 2412.7274,1981.7582 c -0.5508,22.3951 -0.024,44.9615 -0.3209,67.4234 0.1186,12.4413 -0.574,24.9721 -0.4814,37.3177 5.0688,1.0985 10.9703,0.1359 16.3495,0.4603 51.8482,0 103.6965,0 155.5447,0 2.3384,-2.3589 0.3357,-7.1055 1.0005,-10.3587 -0.1775,-15.7653 0.3549,-31.6898 -0.2665,-47.3555 0.2508,-1.6513 0.3531,-6.4685 0.2665,-9.418 -0.1797,-12.6454 0.3577,-25.4516 -0.2665,-37.9972 -5.5054,-1.0423 -11.7848,-0.1279 -17.5789,-0.4363 -51.1585,0 -102.3171,0 -153.4756,0 l -0.5642,0.2664 z"
       id="path46" />
    <path
       style="fill:#00ffff;stroke-width:0.623885;stroke-miterlimit:10"
       d="m 2412.7274,1860.7245 c -0.5351,21.7599 -0.077,43.6936 -0.228,65.5201 0.2233,15.972 -0.4586,31.9935 0.5534,47.9356 0.3011,3.0619 4.6622,1.5365 3.8834,-1.1308 0.6836,-2.4266 -1.3346,-7.3658 1.3063,-7.7474 4.5321,0 9.0642,0 13.5963,0 0.6066,3.3493 -1.2346,8.0712 0.9513,10.5884 50.3369,0.041 100.6872,0.01 151.0292,0.018 2.3384,-2.3589 0.3357,-7.1055 1.0005,-10.3587 -0.2404,-9.1728 0.4824,-18.5616 -0.3644,-27.5984 0.6038,-1.73 0.3001,-6.8141 0.3644,-9.8347 0,-22.2519 0,-44.5038 0,-66.7557 -2.359,-2.3383 -7.1056,-0.3356 -10.3587,-1.0004 -53.6541,0 -107.3082,0 -160.9623,0 l -0.5642,0.2665 z"
       id="path47" />
    <path
       style="fill:#00ffff;stroke-width:0.623885;stroke-miterlimit:10"
       d="m 2412.7274,1756.5358 c -0.5357,21.7598 -0.076,43.6935 -0.229,65.5201 0.1771,10.9822 -0.3547,22.1235 0.2664,33.0061 5.5054,1.0423 11.7848,0.1279 17.5789,0.4363 51.1585,0 102.3171,0 153.4756,0 2.3384,-2.3589 0.3357,-7.1055 1.0005,-10.3587 -0.2399,-8.341 0.4817,-16.8977 -0.3644,-25.1028 0.6038,-1.7301 0.3001,-6.8142 0.3644,-9.8347 0,-17.6768 0,-35.3535 0,-53.0303 -2.359,-2.3383 -7.1056,-0.3356 -10.3587,-1.0004 -53.6541,0 -107.3082,0 -160.9623,0 l -0.5642,0.2665 z"
       id="path48" />
    <path
       style="fill:#00ffff;stroke-width:0.623885;stroke-miterlimit:10"
       d="m 2652.2992,1866.3395 c -0.535,21.656 -0.077,43.4854 -0.229,65.2082 0.1788,16.2849 -0.3569,32.73 0.2664,48.9152 5.5054,1.0423 11.7848,0.1279 17.5789,0.4363 12.8538,-0.1773 25.8668,0.3548 38.6211,-0.2665 1.0423,-5.5053 0.1278,-11.7848 0.4362,-17.5788 0,-32.0261 0,-64.0522 0,-96.0783 -2.3589,-2.3383 -7.1055,-0.3357 -10.3586,-1.0004 -15.3494,0.1774 -30.858,-0.355 -46.1078,0.2664 z"
       id="path49" />
    <path
       style="fill:#00ffff;stroke-width:0.623885;stroke-miterlimit:10"
       d="m 2849.1715,1759.5004 c -65.3655,0.5413 -130.7339,0.3888 -196.1009,0.4143 -2.3384,2.3589 -0.3357,7.1056 -1.0004,10.3587 -0.023,30.6673 0.043,61.1861 0,91.7111 2.3589,2.3383 7.1055,0.3357 10.3586,1.0004 17.5513,0 35.1025,0 52.6537,0 0,39.3872 0,78.7744 0,118.1616 2.3589,2.3383 7.1056,0.3357 10.3587,1.0004 49.7028,0 99.4057,0 149.1085,0 2.3383,-2.3589 0.3357,-7.1055 1.0004,-10.3587 1.7639,-2.0403 7.3248,-0.2837 10.5415,-0.8712 4.6192,0.5609 1.7912,-5.8012 2.5601,-8.487 0,-67.4478 0,-134.8956 0,-202.3434 -2.3648,-2.3335 -7.1116,-0.2662 -10.3691,-0.8997 -9.7037,0.1045 -19.4074,0.209 -29.1111,0.3135 z"
       id="path50" />
    <path
       style="fill:#00ffff;stroke-width:0.623885;stroke-miterlimit:10"
       d="m 2898.7338,1759.6552 c -0.5357,21.7598 -0.075,43.6935 -0.2291,65.5201 0,48.663 0,97.326 0,145.9891 2.3589,2.3383 7.1055,0.3356 10.3587,1.0004 31.8181,0 63.6362,0 95.4544,0 2.331,-2.2574 0.3408,-6.8956 1.0004,-10.0468 2.63,-1.2997 7.669,-0.1904 11.2299,-0.5593 15.4315,-0.1789 31.0233,0.357 46.3551,-0.2664 1.6513,0.2508 6.4685,0.3531 9.418,0.2664 19.3819,0 38.7637,0 58.1456,0 2.3355,-2.3621 0.2942,-7.109 0.9405,-10.3646 -0.3076,-56.2332 -0.6592,-112.4839 -1.8919,-168.6927 -0.3019,-7.6359 0.4573,-15.4859 -0.4097,-22.9827 -20.9282,-0.5329 -42.0289,-0.075 -63.0233,-0.2278 -52.4518,10e-4 -105.4813,-8e-4 -158.1549,0 -3.0141,0.2434 -6.3273,-0.4883 -9.1937,0.3643 z"
       id="path51" />
    <path
       style="fill:#00ffff;stroke-width:0.623885;stroke-miterlimit:10"
       d="m 2663.5292,1521.955 c -0.9587,3.1339 0.751,8.0708 -0.853,10.2417 -3.3658,0.5731 -8.0486,-1.1869 -10.5884,0.9514 -0.041,70.5092 -0.01,141.0317 -0.018,211.546 2.2645,2.3185 6.8818,0.365 10.0467,1.0005 5.291,-1.3828 2.2685,5.5479 3.0548,8.6698 -1.1904,5.0238 5.0458,2.6772 7.8632,3.184 67.3796,0 134.7591,0 202.1387,0 2.3383,-2.3589 0.3356,-7.1056 1.0004,-10.3587 -0.4994,-4.3251 6.5027,-1.1488 9.3583,-2.119 3.1715,0.7367 9.3508,-1.5344 10.4769,1.2477 0.2269,3.6433 -0.4655,7.4928 0.3643,11.0009 21.7598,0.5357 43.6935,0.075 65.5201,0.2291 33.6849,-0.1828 67.387,0.4004 101.0608,-0.4948 1.6594,-0.334 2.6779,-0.5451 4.1991,0.1292 13.5546,0.749 27.1568,0.1853 40.7292,0.3656 2.3383,-2.3589 0.3356,-7.1056 1.0004,-10.3587 -0.5133,-4.3175 6.4542,-1.1543 9.2937,-2.119 3.6603,-0.2472 7.5419,0.4927 11.0654,-0.3644 1.0388,-32.1056 -1.7636,-64.3248 -1.6295,-96.4803 0.2131,-36.2392 -2.4154,-72.402 -1.8799,-108.6377 -0.2809,-2.8985 1.5324,-8.8308 -3.5008,-7.3916 -5.4894,0 -10.9789,0 -16.4684,0 -0.6066,-3.3493 1.2346,-8.0711 -0.9513,-10.5883 -69.8853,-0.041 -139.7839,-0.01 -209.6744,-0.018 -2.3383,2.3589 -0.3356,7.1055 -1.0004,10.3587 -1.6695,2.0307 -7.1014,0.2991 -10.2295,0.8712 -2.887,-0.9388 -9.9505,2.299 -8.9818,-2.4955 -0.7672,-2.6827 1.9723,-8.9033 -2.2481,-8.7344 -69.4592,0 -138.9184,0 -208.3776,0 l -0.5641,0.2665 z"
       id="path52" />
    <path
       style="fill:#00ffff;stroke-width:0.623885;stroke-miterlimit:10"
       d="m 2412.7274,1633.6304 c -0.5351,21.656 -0.076,43.4855 -0.229,65.2082 0,17.3648 0,34.7296 0,52.0944 1.4453,1.585 7.8103,2.0803 8.2396,-0.6239 0.9548,-2.871 -2.094,-9.7455 1.8717,-9.6056 4.5321,0 9.0642,0 13.5963,0 0.2308,3.6424 -0.4663,7.4929 0.3643,11.0008 21.7599,0.5357 43.6936,0.075 65.5201,0.2291 27.243,0 54.486,0 81.7289,0 2.3384,-2.3589 0.3357,-7.1055 1.0005,-10.3587 -0.037,-35.6799 0.021,-71.4664 0,-107.3082 -2.359,-2.3383 -7.1056,-0.3356 -10.3587,-1.0004 -53.6541,0 -107.3082,0 -160.9623,0 l -0.5642,0.2665 z"
       id="path53" />
    <path
       style="fill:#00ffff;stroke-width:0.623885;stroke-miterlimit:10"
       d="m 2429.5723,1527.57 c -0.3722,3.7152 0.817,8.1397 -4.5963,6.4984 -3.3813,0.5456 -8.0382,-1.1689 -10.5883,0.9513 -0.041,31.2045 -0.01,62.4223 -0.018,93.6318 2.3589,2.3384 7.1055,0.3357 10.3587,1.0005 53.0302,0 106.0604,0 159.0906,0 2.3384,-2.3589 0.3357,-7.1056 1.0005,-10.3587 -0.2396,-7.9252 0.4813,-16.0658 -0.3644,-23.8551 0.6038,-1.73 0.3001,-6.8141 0.3644,-9.8347 0,-19.1325 0,-38.265 0,-57.3974 -2.359,-2.3383 -7.1056,-0.3357 -10.3587,-1.0004 -48.0392,0 -96.0783,0 -144.1174,0 l -0.5642,0.2664 z"
       id="path54" />
    <path
       style="fill:#00ffff;stroke-width:0.623885;stroke-miterlimit:10"
       d="m 2885.6322,1280.5116 c -0.5418,7.4919 -0.07,15.1608 -0.2291,22.7194 -4.948,0 -9.896,0 -14.8441,0 -0.2391,-5.7202 0.4772,-11.6547 -0.3643,-17.2397 -21.7598,-0.5357 -43.6936,-0.075 -65.5201,-0.2291 -48.2471,0 -96.4942,0 -144.7413,0 -2.3383,2.3589 -0.3357,7.1055 -1.0004,10.3587 -0.9547,2.871 2.094,9.7455 -1.8717,9.6056 -4.7214,-1.4625 -5.839,2.0278 -4.991,5.9915 0,19.9643 0,39.9287 0,59.893 0.6755,2.0417 -0.453,6.6512 0,10.0504 0,43.6492 0,87.2984 0,130.9476 2.3589,2.3383 7.1055,0.3356 10.3586,1.0004 154.0996,0 308.1992,0 462.2988,0 2.3383,-2.3589 0.3356,-7.1056 1.0004,-10.3587 0,-66.3398 0,-132.6795 0,-199.0193 -2.3589,-2.3383 -7.1056,-0.3357 -10.3587,-1.0004 -5.0736,0 -10.1471,0 -15.2206,0 -0.2477,-7.5899 0.4919,-15.4013 -0.3644,-22.8547 -21.7598,-0.5357 -43.6935,-0.075 -65.5201,-0.2291 -49.2869,0 -98.5738,0 -147.8607,0 l -0.5641,0.2665 z"
       id="path55" />
    <path
       style="fill:#00ffff;stroke-width:0.623885;stroke-miterlimit:10"
       d="m 2414.5991,1415.8946 c -0.535,21.656 -0.077,43.4854 -0.2291,65.2082 0.1794,12.9573 -0.3576,26.0754 0.2665,38.933 5.5053,1.0423 11.7848,0.1279 17.5788,0.4363 3.0263,0.04 2.3776,5.2061 7.4866,3.1194 48.0392,0 96.0783,0 144.1174,0 2.3384,-2.3589 0.3357,-7.1055 1.0005,-10.3587 -0.2408,-10.0045 0.4829,-20.2254 -0.3644,-30.0939 0.6038,-1.73 0.3001,-6.8141 0.3644,-9.8347 0,-18.9245 0,-37.849 0,-56.7735 -2.359,-2.3383 -7.1056,-0.3357 -10.3587,-1.0004 -53.0303,0 -106.0605,0 -159.0907,0 l -0.5641,0.2664 z"
       id="path56" />
    <path
       style="fill:#00ffff;stroke-width:0.623885;stroke-miterlimit:10"
       d="m 2581.721,1307.8419 c -55.3112,0.6668 -110.9248,0.265 -166.3506,0.3802 -2.3383,2.3589 -0.3356,7.1055 -1.0004,10.3587 0,30.3623 0,60.7247 0,91.0871 2.3589,2.3384 7.1055,0.3357 10.3587,1.0005 53.0302,0 106.0604,0 159.0906,0 2.3384,-2.359 0.3357,-7.1056 1.0005,-10.3587 -0.2404,-9.1728 0.4824,-18.5616 -0.3644,-27.5984 0.6038,-1.73 0.3001,-6.8142 0.3644,-9.8347 0,-18.1447 0,-36.2893 0,-54.434 -0.2876,-1.6296 -2.0975,-0.7133 -3.0988,-0.6007 z"
       id="path57" />
    <path
       style="fill:#00ffff;stroke-width:0.623885;stroke-miterlimit:10"
       d="m 2710.3205,1031.5815 c -0.5357,21.7598 -0.075,43.6936 -0.229,65.5201 0,24.1236 0,48.2471 0,72.3707 0.6077,1.8652 -0.4175,6.1995 0,9.3582 0,29.9465 0,59.893 0,89.8395 2.3589,2.3383 7.1055,0.3356 10.3586,1.0004 36.6013,0 73.2025,0 109.8038,0 2.331,-2.2574 0.3408,-6.8956 1.0004,-10.0468 0.6122,-4.5412 -5.559,-1.8412 -8.1751,-2.5601 -4.847,0.9172 -7.4784,-0.3811 -6.1743,-5.615 0,-4.1161 0,-8.2323 0,-12.3485 4.6781,-0.2492 9.579,0.4946 14.1203,-0.3643 0.5357,-21.7599 0.075,-43.6936 0.2291,-65.5201 0,-46.9994 0,-93.9987 0,-140.998 -2.3589,-2.3383 -7.1055,-0.3357 -10.3587,-1.0004 -36.6012,0 -73.2025,0 -109.8037,0 l -0.5642,0.2664 z"
       id="path58" />
    <path
       style="fill:#00ffff;stroke-width:0.623885;stroke-miterlimit:10"
       d="m 2711.5683,846.28769 c -0.5382,21.91614 -0.073,44.00501 -0.2385,65.98801 -0.1816,21.46196 0.2309,42.95004 -0.807,64.37103 0.8335,4.50118 -0.5211,9.91343 -0.2633,14.8025 -0.02,10.07777 -0.6163,20.36607 0.1963,30.30977 21.7598,0.5357 43.6935,0.076 65.5201,0.2291 13.4777,-0.1774 27.1146,0.3548 40.4927,-0.2665 1.0528,-3.71 0.1209,-8.2107 0.4363,-12.2112 4.2158,1.1128 6.6985,-1.0029 5.5105,-5.3539 0.7067,-49.91029 1.105,-99.82418 1.518,-149.73759 -1.3106,-3.08408 -8.3858,1.47861 -7.6523,-2.88059 1.0352,-4.21974 -0.8777,-6.93432 -5.3677,-5.61497 -32.8579,0 -65.7158,0 -98.5738,0 l -0.5641,0.26646 z"
       id="path59" />
    <path
       style="fill:#00ffff;stroke-width:0.623885;stroke-miterlimit:10"
       d="m 2578.6711,751.10625 c -103.2818,0.48348 -206.561,1.4505 -309.843,1.85825 -1.8358,0.6625 -6.2155,-0.45203 -9.4289,0 -21.4201,0 -42.8401,0 -64.2602,0 -2.3383,2.35891 -0.3356,7.10553 -1.0004,10.35868 0,28.69871 0,57.39741 0,86.09612 2.3589,2.33831 7.1056,0.33566 10.3587,1.00041 2.0201,1.68014 0.3177,7.08282 0.8713,10.22952 0.3359,4.0362 0.7251,8.12565 -4.6146,6.48621 -3.7406,-0.4838 -8.3007,-0.36714 -6.6154,4.74372 0,49.07895 0,98.15789 0,147.23684 2.2646,2.3185 6.8819,0.3649 10.0468,1.0004 5.6595,-1.7407 1.2164,5.6089 4.0061,7.4689 7.1634,0.041 14.3401,0.01 21.5086,0.018 0,78.692 0,157.3839 0,236.0759 2.3589,2.3383 7.1055,0.3356 10.3587,1.0004 58.8531,0 117.7062,0 176.5594,0 2.3383,-2.3589 0.3356,-7.1055 1.0004,-10.3587 0.8956,-2.9185 -2.225,-9.9272 2.4951,-8.9509 4.8462,0.089 9.6924,0.1762 14.5387,0.264 0.1056,17.663 0.2121,35.3259 0.3192,52.9888 2.3689,2.3269 7.1042,0.3317 10.3587,0.9943 49.703,0.098 99.4051,-0.2879 149.1048,-0.8286 2.32,-2.3762 0.3293,-7.103 0.9907,-10.3586 -0.2458,-9.3113 0.4919,-18.8432 -0.3643,-28.0176 -3.5383,-0.5555 -7.2597,-0.061 -10.8656,-0.2291 0,-4.948 0,-9.896 0,-14.844 3.6424,-0.2308 7.4929,0.4663 11.0008,-0.3644 0.5357,-21.7598 0.075,-43.6935 0.2291,-65.5201 0,-45.1277 0,-90.2553 0,-135.383 -2.2364,-2.3291 -6.8522,-0.3425 -9.9822,-1.0004 0,-6.1958 0,-12.3916 0,-18.5874 3.1542,-0.5919 7.7088,1.2288 9.9822,-1.0004 0,-52.19838 0,-104.39675 0,-156.59512 -2.2364,-2.32908 -6.8522,-0.34248 -9.9822,-1.00041 0,-5.15599 0,-10.31197 0,-15.46796 3.1542,-0.59191 7.7088,1.22877 9.9822,-1.00041 0,-32.44201 0,-64.88403 0,-97.32605 -2.3596,-2.33782 -7.1063,-0.33022 -10.3599,-0.99244 -2.1316,0.002 -4.2632,0.004 -6.3948,0.005 z m -153.9424,103.68066 c 3.0715,0.75427 9.8743,-2.2228 8.3579,3.11942 0,4.11618 0,8.23236 0,12.34853 -5.572,0 -11.1439,0 -16.7158,0 0,-5.15598 0,-10.31197 0,-15.46795 2.786,0 5.5719,0 8.3579,0 z m 0.6239,170.32059 c 3.4022,0.4235 9.524,-1.8726 7.734,3.7433 0,3.9082 0,7.8164 0,11.7246 -5.156,0 -10.312,0 -15.468,0 0,-5.1559 0,-10.3119 0,-15.4679 2.578,0 5.156,0 7.734,0 z"
       id="path60" />
    <path
       style="fill:#00ffff;stroke-width:0.623885;stroke-miterlimit:10"
       d="m 2188.7528,1123.2926 c -0.5357,21.6559 -0.076,43.4856 -0.2291,65.2081 0,20.2763 0,40.5526 0,60.8288 2.267,2.314 6.8805,0.3678 10.0467,1.0004 5.2315,-1.3232 6.4316,1.3849 5.5504,6.1743 0.6362,2.707 -1.9403,9.1201 2.8721,8.1751 5.0147,-0.2349 10.2414,0.4749 15.1206,-0.3644 0.5357,-21.7598 0.075,-43.6935 0.2291,-65.5201 0,-24.9553 0,-49.9107 0,-74.8661 -2.3589,-2.3384 -7.1055,-0.3357 -10.3587,-1.0004 -7.7093,0.2435 -15.6619,-0.4898 -23.2311,0.3643 z"
       id="path61" />
    <path
       style="fill:#00ffff;stroke-width:0.623885;stroke-miterlimit:10"
       d="m 2188.7528,1033.4532 c -0.5357,21.6558 -0.076,43.4855 -0.2291,65.2081 0.2482,6.3636 -0.4933,12.9491 0.3643,19.176 10.7375,0.5381 21.6501,0.072 32.4542,0.229 2.3383,-2.3589 0.3357,-7.1055 1.0004,-10.3586 0,-24.5395 0,-49.079 0,-73.6185 -2.3589,-2.3383 -7.1055,-0.3356 -10.3587,-1.0004 -7.7093,0.2435 -15.6619,-0.4897 -23.2311,0.3644 z"
       id="path62" />
    <path
       style="fill:#00ffff;stroke-width:0.623885;stroke-miterlimit:10"
       d="m 1996.5962,753.32884 c -0.5357,21.75984 -0.075,43.69355 -0.2291,65.5201 0,29.53055 0,59.06111 0,88.59166 2.3589,2.33831 7.1056,0.33565 10.3587,1.00041 46.6659,0 93.3317,0 139.9976,0 0,37.30758 0,74.61517 0,111.92279 2.3589,2.3383 7.1055,0.3356 10.3587,1.0004 9.3798,-0.2446 18.9791,0.4898 28.2222,-0.3644 0.5357,-21.7598 0.076,-43.69351 0.2291,-65.52007 0,-67.17161 0,-134.34321 0,-201.51482 -2.3589,-2.33832 -7.1055,-0.33566 -10.3587,-1.00041 -46.3754,0 -92.7509,0 -139.1263,0 -1.8653,0.60771 -6.1996,-0.41749 -9.3583,0 -9.9965,0.24539 -20.237,-0.48952 -30.0939,0.36434 z m 147.3843,39.69346 c 3.0715,0.75428 9.8743,-2.22279 8.3578,3.11942 0,4.32414 0,8.64828 0,12.97242 -5.5719,0 -11.1438,0 -16.7157,0 0,-5.36395 0,-10.72789 0,-16.09184 2.786,0 5.5719,0 8.3579,0 z"
       id="path63" />
    <path
       style="fill:#00ffff;stroke-width:0.623885;stroke-miterlimit:10"
       d="m 1832.5145,808.23071 c -0.5357,21.75984 -0.075,43.69355 -0.2291,65.5201 0,54.69391 0,109.38782 0,164.08169 2.3589,2.3384 7.1055,0.3357 10.3587,1.0005 24.8536,-0.2415 49.7599,0.5968 74.5762,-0.9883 2.057,0.5602 4.6705,-2.1735 1.8765,-3.1718 -2.6408,-0.5955 -5.3913,-0.221 -8.0727,-0.3363 0,-5.156 0,-10.312 0,-15.468 2.7933,-0.8216 8.4704,1.805 9.3582,-1.6243 0,-69.45914 0,-138.91833 0,-208.37752 -2.3589,-2.33832 -7.1055,-0.33566 -10.3587,-1.00041 -4.8985,0.41999 -10.2551,-0.83802 -14.9037,0.90171 -6.5073,-1.52 -13.9808,-0.53493 -20.81,-0.8906 -13.8443,0.14896 -27.8441,-0.35755 -41.5882,0.25536 z"
       id="path64" />
    <path
       style="fill:#00ffff;stroke-width:0.623885;stroke-miterlimit:10"
       d="m 1825.0279,753.95272 c -0.5364,15.31292 -0.074,30.80016 -0.2291,46.17967 2.3589,2.33832 7.1055,0.33566 10.3587,1.00041 9.1727,-0.24038 18.5616,0.48242 27.5983,-0.36434 0.1825,-5.33091 0.7481,-11.01857 -0.2863,-16.31727 -0.913,-0.96448 0.9932,-2.42489 0.3984,-3.84932 0.02,-8.90347 0.5251,-18.01547 -0.2473,-26.7844 -12.1932,-0.53791 -24.5614,-0.0739 -36.8214,-0.22908 l -0.5641,0.26646 z"
       id="path65" />
    <path
       style="fill:#00ffff;stroke-width:0.623885;stroke-miterlimit:10"
       d="m 1573.6022,807.60683 c -0.5357,21.75983 -0.076,43.69355 -0.229,65.5201 0,54.90187 0,109.80374 0,164.70557 2.3589,2.3384 7.1055,0.3357 10.3586,1.0005 80.4812,0 160.9623,0 241.4435,0 2.3383,-2.359 0.3357,-7.1056 1.0004,-10.3587 0,-73.20253 0,-146.40502 0,-219.60752 -2.3589,-2.33832 -7.1055,-0.33566 -10.3587,-1.00041 -10.6366,0.0505 -21.4299,-0.0123 -31.968,-0.31316 -0.9857,0.80872 -0.5502,1.7452 -1.6755,0.54834 -11.6492,-1.35653 -23.5062,-0.4955 -35.2324,-0.82234 -57.5225,-0.0713 -115.045,-0.0219 -172.5675,-0.0367 l -0.5642,0.26646 z"
       id="path66" />
    <path
       style="fill:#00ffff;stroke-width:0.623885;stroke-miterlimit:10"
       d="m 1571.7306,756.44826 c -0.2942,7.68841 -0.5558,15.61125 0.184,23.32867 0.2705,1.19437 1.6491,1.19522 0.2217,2.02641 -1.3558,5.94762 -0.2652,12.25776 -0.6348,18.32905 2.3589,2.33832 7.1055,0.33566 10.3587,1.00041 34.7296,0 69.4592,0 104.1888,0 2.331,-2.25735 0.3408,-6.89553 1.0004,-10.04674 2.6102,-1.29794 7.6229,-0.19349 11.1653,-0.5593 4.8032,-0.89499 7.4805,0.33592 6.1743,5.55038 -1.4565,4.72932 1.9738,5.9352 5.9915,5.05566 9.5872,-0.24682 19.3952,0.49053 28.8461,-0.36434 0.5366,-14.48103 0.074,-29.1365 0.2291,-43.68413 -2.3589,-2.33831 -7.1055,-0.33565 -10.3587,-1.00041 -52.1984,0 -104.3967,0 -156.5951,0 l -0.5641,0.26647 z"
       id="path67" />
    <path
       style="fill:#00ffff;stroke-width:0.623885;stroke-miterlimit:10"
       d="m 1476.2762,807.60683 c -0.5357,21.75983 -0.075,43.69355 -0.2291,65.5201 0,54.90187 0,109.80374 0,164.70557 2.3589,2.3384 7.1055,0.3357 10.3587,1.0005 26.4111,0 52.8222,0 79.2334,0 2.3383,-2.359 0.3356,-7.1056 1.0004,-10.3587 0,-73.41049 0,-146.82094 0,-220.2314 -2.3589,-2.33832 -7.1055,-0.33566 -10.3587,-1.00041 -26.3189,0.0489 -52.7515,-0.0285 -79.2334,0 l -0.5641,0.26646 z"
       id="path68" />
    <path
       style="fill:#00ffff;stroke-width:0.623885;stroke-miterlimit:10"
       d="m 1434.4759,753.95272 c -0.5364,14.89698 -0.074,29.96833 -0.2291,44.9319 2.3589,2.33832 7.1055,0.33566 10.3587,1.00041 6.0531,-0.2417 12.3244,0.48958 18.2401,-0.36434 1.4092,-2.68106 -1.8755,-9.19661 2.1007,-8.99393 5.156,0 10.312,0 15.468,0 0.8217,2.79333 -1.805,8.47043 1.6243,9.35827 8.341,-0.23987 16.8977,0.48173 25.1028,-0.36434 0.359,-6.7445 0.4296,-13.82894 -0.037,-20.54062 0.2508,-1.65134 0.3531,-6.46856 0.2664,-9.41804 -0.241,-5.22138 0.4896,-10.66067 -0.3643,-15.74456 -21.7599,-0.5357 -43.6936,-0.0755 -65.5201,-0.22908 -2.295,0.20919 -4.8597,-0.43948 -7.0102,0.36433 z"
       id="path69" />
    <path
       style="fill:#00ffff;stroke-width:0.623885;stroke-miterlimit:10"
       d="m 1355.8664,807.60683 c -0.5357,21.75983 -0.076,43.69355 -0.2291,65.5201 0,54.90187 0,109.80374 0,164.70557 2.3589,2.3384 7.1056,0.3357 10.3587,1.0005 34.1057,0 68.2114,0 102.3171,0 2.3383,-2.359 0.3357,-7.1056 1.0004,-10.3587 0,-73.41049 0,-146.82094 0,-220.2314 -2.3589,-2.33832 -7.1055,-0.33566 -10.3586,-1.00041 -17.2853,0.2562 -34.6259,-0.54045 -51.8788,0.52031 -1.6372,0.90887 -3.4205,-0.78705 -5.3961,-0.3315 -15.0099,-0.3665 -30.0288,-0.10954 -45.0423,-0.18881 l -0.5641,0.26646 z"
       id="path70" />
    <path
       style="fill:#00ffff;stroke-width:0.623885;stroke-miterlimit:10"
       d="m 1317.2123,806.75751 c -23.1378,-0.32389 -46.522,-0.0461 -69.7544,-0.13891 -2.3383,2.35891 -0.3357,7.10553 -1.0004,10.35869 0,73.61841 0,147.23683 0,220.85521 2.3589,2.3384 7.1055,0.3357 10.3586,1.0005 30.5704,0 61.1408,0 91.7111,0 2.3383,-2.359 0.3357,-7.1056 1.0004,-10.3587 0,-73.41049 0,-146.82094 0,-220.2314 -1.7575,-2.21828 -5.7048,-0.46968 -8.3748,-1.02095 -7.9295,0.10586 -16.1082,-0.97947 -23.9405,-0.46444 z"
       id="path71" />
    <path
       style="fill:#00ffff;stroke-width:0.623885;stroke-miterlimit:10"
       d="m 1344.0126,755.82438 c -0.5371,14.27298 -0.074,28.72049 -0.2291,43.06024 2.3589,2.33832 7.1055,0.33566 10.3587,1.00041 5.2214,-0.24083 10.6606,0.4892 15.7446,-0.36434 0.1959,-5.76502 0.741,-11.87134 -0.3364,-17.6089 -1.0378,-0.84788 -0.6463,-0.86538 0.057,-1.84485 1.1408,-7.77022 0.1806,-15.76149 0.5081,-23.60649 -2.3589,-2.33832 -7.1055,-0.33566 -10.3586,-1.00041 -5.2113,0.2411 -10.6754,-0.4895 -15.7446,0.36434 z"
       id="path72" />
    <path
       style="fill:#00ffff;stroke-width:0.623885;stroke-miterlimit:10"
       d="m 1249.806,754.57661 c -0.537,14.68892 -0.075,29.55232 -0.2291,44.30801 2.3589,2.33832 7.1055,0.33566 10.3587,1.00041 8.9639,-0.24445 18.1473,0.48988 26.9745,-0.36434 0.2393,-6.11072 0.6441,-12.51329 -0.2157,-18.62515 -0.4741,-1.04342 -1.7577,-0.89429 -0.273,-1.6572 1.5461,-5.48933 0.3048,-11.49667 0.7177,-17.16293 -0.3862,-2.96453 1.6976,-9.29192 -3.4959,-7.86314 -11.1894,0.18072 -22.5402,-0.35818 -33.63,0.26646 z"
       id="path73" />
    <path
       style="fill:#00ffff;stroke-width:0.623885;stroke-miterlimit:10"
       d="m 1188.0414,754.57661 c -0.5395,9.07352 -0.071,18.32295 -0.2291,27.46312 1.6419,2.69646 7.2642,-0.45112 8.7362,1.62419 -0.098,5.26976 -0.1965,10.53951 -0.2955,15.80925 -3.9604,0.3596 -8.1653,-0.2411 -11.9732,0.71528 -0.4928,25.49769 -0.07,51.14848 -0.2108,76.70494 0,23.69991 0,47.39982 0,71.09973 2.3589,2.33831 7.1055,0.33565 10.3587,1.00041 15.5569,-0.17913 31.2743,0.35703 46.7316,-0.26647 1.0423,-5.50534 0.1278,-11.78482 0.4362,-17.57884 0,-43.46398 0,-86.92796 0,-130.39194 -2.2364,-2.32908 -6.8522,-0.34248 -9.9821,-1.00041 0,-5.57191 0,-11.14382 0,-16.71573 3.1541,-0.59191 7.7088,1.22877 9.9821,-1.00041 -0.2478,-9.1711 0.49,-18.56329 -0.3643,-27.59838 -11.4239,-0.59534 -23.0043,0.0196 -34.3258,-0.22908 -6.2486,0.24526 -12.758,-0.49191 -18.864,0.36434 z"
       id="path74" />
    <path
       style="fill:#00ffff;stroke-width:0.623885;stroke-miterlimit:10"
       d="m 1184.2981,957.3392 c -0.5391,9.48952 -0.072,19.15474 -0.2291,28.71089 0.035,8.46107 -0.026,17.51831 0,26.20321 3.3215,1.2078 5.5608,1.597 4.3672,6.5508 -0.5609,4.6192 5.8012,1.7912 8.487,2.5601 14.7255,-0.1774 29.6102,0.3549 44.2361,-0.2665 1.0423,-5.5053 0.1278,-11.7848 0.4362,-17.5788 -0.1774,-15.3494 0.355,-30.85797 -0.2664,-46.10774 -5.5054,-1.04231 -11.7848,-0.12789 -17.5789,-0.4363 -13.0617,0.17777 -26.2831,-0.35678 -39.2449,0.26647 z"
       id="path75" />
    <path
       style="fill:#00ffff;stroke-width:0.623885;stroke-miterlimit:10"
       d="m 1105.0647,924.89719 c -0.5357,21.75984 -0.075,43.69355 -0.2291,65.5201 0.2408,10.21251 -0.4831,20.64141 0.3643,30.71781 10.7375,0.5381 21.6502,0.072 32.4542,0.2291 1.8653,-0.6077 6.1996,0.4175 9.3583,0 9.9417,-0.1802 20.0448,0.3589 29.8867,-0.2665 1.0428,-5.4011 0.1275,-11.577 0.4363,-17.2669 -0.049,-25.99657 0.029,-52.13373 0,-78.29754 -2.3589,-2.33832 -7.1055,-0.33566 -10.3587,-1.00041 -20.3802,0 -40.7605,0 -61.1407,0 l -0.5641,0.26646 z"
       id="path76" />
    <path
       style="fill:#00ffff;stroke-width:0.623885;stroke-miterlimit:10"
       d="m 1025.1989,924.53894 c -24.1756,0.002 -48.35111,0.005 -72.52665,0.007 -7.45564,7.42671 -13.97763,16.09198 -21.0764,23.99241 -2.61072,0.791 -1.47123,5.04992 -3.1162,4.09704 -4.541,4.16799 -8.25142,9.60358 -12.75674,13.99208 -4.8033,2.66415 -0.0326,5.69751 2.25131,8.06541 11.70492,11.7252 23.0382,23.99683 34.9744,35.38242 7.7652,0.1367 15.5818,0.019 23.36667,0.059 0.2308,3.6425 -0.4663,7.493 0.36435,11.0009 14.48103,0.5365 29.13646,0.074 43.68416,0.2291 25.5197,0 51.6198,0 77.3617,0 2.3383,-2.3589 0.3356,-7.1056 1.0004,-10.3587 0,-28.49076 0,-56.98151 0,-85.47225 -2.3589,-2.3383 -7.1055,-0.3351 -10.3587,-0.99962 -21.0561,0.002 -42.1122,0.004 -63.1683,0.005 z"
       id="path77" />
    <path
       style="fill:#00ffff;stroke-width:0.623885;stroke-miterlimit:10"
       d="m 1091.3392,826.32337 c -0.5354,21.65591 -0.076,43.48549 -0.2291,65.20816 0.2466,8.85944 -0.4909,17.93963 0.3644,26.66255 21.6558,0.53565 43.4855,0.0757 65.2081,0.22909 6.7795,-0.24792 13.7808,0.49282 20.4237,-0.36435 0.5354,-21.6559 0.076,-43.48548 0.2291,-65.20815 -0.2466,-8.85944 0.4909,-17.93963 -0.3643,-26.66255 -16.7687,-0.53643 -33.7115,-0.075 -50.5469,-0.22909 -1.8653,0.60771 -6.1995,-0.41748 -9.3583,0 -8.5412,0.23991 -17.3249,-0.48169 -25.7267,0.36434 z"
       id="path78" />
    <path
       style="fill:#00ffff;stroke-width:0.623885;stroke-miterlimit:10"
       d="m 1091.3392,788.26639 c -0.5392,10.11338 -0.073,20.4023 -0.2291,30.58255 2.3589,2.33832 7.1056,0.33566 10.3587,1.00041 7.676,-0.3375 15.5318,0.67033 23.1142,-0.59099 1.0265,-1.02253 0.7888,-1.10411 1.8522,-0.0451 9.4537,1.29881 19.1483,0.31028 28.6877,0.63607 7.3014,-0.23899 14.8179,0.48053 21.9834,-0.36434 0.5392,-10.11337 0.073,-20.4023 0.2291,-30.58255 -2.3589,-2.33831 -7.1055,-0.33565 -10.3587,-1.0004 -14.5175,0.17737 -29.1942,-0.35493 -43.6122,0.26646 -1.6513,-0.25085 -6.4685,-0.35313 -9.418,-0.26646 -7.5027,0.23918 -15.2434,-0.48074 -22.6073,0.36433 z"
       id="path79" />
    <path
       style="fill:#00ffff;stroke-width:0.623885;stroke-miterlimit:10"
       d="m 911.20218,973.41155 c -4.7201,2.29129 -7.63469,7.28847 -11.45993,10.78109 -9.57359,10.61091 -19.6941,20.89566 -28.8635,31.76616 0,35.782 0,71.564 0,107.346 2.35891,2.3383 7.10553,0.3356 10.35868,1.0004 24.62193,0 49.24385,0 73.86578,0 0.32896,8.7676 -0.63822,17.6772 0.51544,26.3713 0.5803,1.0323 1.54296,0.8749 0.17912,1.6389 -1.51659,5.3862 -0.26645,11.2879 -0.69456,16.8449 -1.45644,4.7293 1.97378,5.9352 5.99149,5.0557 13.18403,0 26.36807,0 39.5521,0 0,21.5025 0,43.005 0,64.5075 2.3589,2.3383 7.1055,0.3356 10.3587,1.0004 58.2934,0 116.5869,0 174.8803,0 2.3181,-2.344 -10e-4,-7.021 0.5537,-10.2533 -0.6056,-67.9769 -0.2793,-136.0879 -0.3697,-204.1158 -2.3575,-2.3384 -7.1058,-0.3355 -10.3587,-1.0004 -12.2295,0.1794 -24.6197,-0.3578 -36.7494,0.2665 -1.6514,-0.2509 -6.4686,-0.3531 -9.4181,-0.2665 -52.9436,-0.01 -105.6393,0.023 -158.46674,0 -6.11335,0 -12.22669,0 -18.34002,0 -0.2222,-3.904 1.21765,-8.5982 -2.8483,-11.011 -12.72272,-13.2285 -25.10274,-26.90452 -38.03444,-39.86117 -0.20908,-0.0689 -0.43293,-0.0924 -0.65192,-0.0707 z"
       id="path80" />
    <path
       style="fill:#00ffff;stroke-width:0.623885;stroke-miterlimit:10"
       d="m 955.33229,1178.8183 c -0.31317,8.8666 -0.51114,17.9511 0.11576,26.8563 -0.0775,1.2559 2.17596,1.4256 0.45208,2.0679 -1.65336,4.8432 -0.37499,10.3215 -0.79692,15.3839 0.58034,3.4884 -1.19413,8.3011 0.95132,10.9648 4.2519,0.041 8.51711,0.01 12.77415,0.018 -1.0856,4.2441 0.89535,6.9234 5.3676,5.615 7.09353,-0.2388 14.40188,0.4802 21.35953,-0.3643 0.53557,-19.8883 0.075,-39.9504 0.22908,-59.9052 -2.35891,-2.3383 -7.10553,-0.3356 -10.35868,-1.0004 -9.99948,0.2406 -20.23266,-0.4826 -30.09392,0.3643 z"
       id="path81" />
    <path
       style="fill:#00ffff;stroke-width:0.623885;stroke-miterlimit:10"
       d="m 871.10783,1135.1464 c -0.5357,21.7598 -0.0755,43.6936 -0.22908,65.5201 0.1773,13.0618 -0.35484,26.2828 0.26646,39.245 5.50534,1.0423 11.78482,0.1279 17.57884,0.4363 10.42043,-0.241 21.05731,0.4831 31.34169,-0.3644 1.73002,0.6039 6.81415,0.3001 9.83471,0.3644 7.09246,-0.2436 14.40415,0.4903 21.35953,-0.3644 0.35516,-10.1992 0.43662,-20.5945 -0.0634,-30.8445 0.19025,-1.5307 -2.27577,-1.7754 -0.46548,-2.6515 1.4568,-7.1799 0.39284,-14.7312 0.75584,-22.0407 -0.28924,-10.536 0.60187,-21.1873 -0.58403,-31.6585 -0.64422,-1.1117 -1.39082,-0.952 -0.0585,-1.734 1.42755,-4.8728 0.23952,-10.234 0.64461,-15.2717 -2.35891,-2.3383 -7.10553,-0.3357 -10.35869,-1.0004 -23.08374,0 -46.16748,0 -69.25122,0 l -0.56412,0.2664 z"
       id="path82" />
    <path
       style="fill:#00ffff;stroke-width:0.623885;stroke-miterlimit:10"
       d="m 893.56769,1247.4457 c -0.53595,19.6802 -0.0753,39.5343 -0.22909,59.2812 2.35891,2.3384 7.10554,0.3357 10.35869,1.0004 13.89322,-0.1792 27.94702,0.3574 41.74052,-0.2664 1.05486,-3.2923 0.11967,-7.38 0.43629,-10.9635 4.24412,1.0856 6.92335,-0.8953 5.61496,-5.3676 -0.17718,-11.1902 0.35468,-22.5394 -0.26646,-33.63 -2.53701,-1.6001 -8.87328,1.7848 -7.22015,-3.5557 0.11456,-3.2709 0.94254,-8.5027 -4.11984,-6.8628 -6.25531,0.3833 -12.76102,-0.7401 -18.89079,0.6117 -0.93154,1.4833 -0.73209,0.4053 -1.94721,-0.1754 -8.1661,-0.9716 -16.48647,-0.1635 -24.7056,-0.4363 l -0.56411,0.2665 z"
       id="path83" />
    <path
       style="fill:#00ffff;stroke-width:0.623885;stroke-miterlimit:10"
       d="m 862.97296,1247.9307 c -42.37405,0.7978 -84.76748,0.4785 -127.13118,1.7839 -2.98645,1.5181 1.69663,8.7874 -3.46548,7.3489 -4.94803,0 -9.89605,0 -14.84408,0 -0.30761,-2.9187 1.54655,-8.9191 -3.49594,-7.4857 -10.43496,0.1892 -21.14699,-0.4448 -31.38312,1.2274 -0.21975,10.035 -0.49038,20.24 0.16206,30.2974 1.18454,1.3859 -0.43339,2.2986 -0.22786,3.976 -0.0304,6.8235 -0.53267,13.8593 0.24249,20.548 11.56937,0.5377 23.31375,0.073 34.94974,0.2291 2.69849,-1.8662 -0.4482,-7.6404 1.62429,-9.3583 5.15599,0 10.31197,0 15.46796,0 0.82168,2.7934 -1.80499,8.4704 1.62429,9.3583 49.70284,0 99.40566,0 149.10849,0 2.33832,-2.3589 0.33566,-7.1055 1.00042,-10.3587 0,-15.6536 0,-31.3072 0,-46.9607 -2.36799,-2.3307 -7.11461,-0.2228 -10.37432,-0.8371 -4.41925,0.077 -8.83851,0.1543 -13.25776,0.2315 z"
       id="path84" />
    <path
       style="fill:#00ffff;stroke-width:0.623885;stroke-miterlimit:10"
       d="m 961.57114,1306.7148 c 0.5412,4.6283 -1.09046,6.233 -5.84405,5.2506 -72.4531,0 -144.9062,0 -217.3593,0 -2.33832,2.3589 -0.33566,7.1055 -1.00041,10.3587 0,27.4509 0,54.9018 0,82.3528 2.35891,2.3383 7.10553,0.3356 10.35868,1.0004 78.6095,0 157.219,0 235.8285,0 2.33831,-2.3589 0.33565,-7.1056 1.00041,-10.3587 0,-29.3226 0,-58.6452 0,-87.9678 -2.35891,-2.3383 -7.10553,-0.3356 -10.35869,-1.0004 -4.17286,0.2321 -8.5924,-0.4711 -12.62514,0.3644 z"
       id="path85" />
    <path
       style="fill:#00ffff;stroke-width:0.623885;stroke-miterlimit:10"
       d="m 682.69459,1312.3297 c -0.53537,21.6559 -0.0762,43.4855 -0.22908,65.2082 0.2464,9.2754 -0.49063,18.7714 0.36434,27.9103 7.57671,0.3584 15.49228,0.4298 23.03616,-0.037 1.65134,0.2509 6.46856,0.3531 9.41804,0.2665 5.84617,-0.2369 11.90577,0.4777 17.61621,-0.3644 0.53537,-21.6559 0.0762,-43.4854 0.22909,-65.2081 -0.24641,-9.2754 0.49062,-18.7714 -0.36434,-27.9103 -16.35269,-0.5366 -32.87965,-0.075 -49.29909,-0.2291 l -0.56412,0.2664 z"
       id="path86" />
    <path
       style="fill:#00ffff;stroke-width:0.623885;stroke-miterlimit:10"
       d="m 567.27588,1309.8342 c -0.5357,21.7598 -0.0755,43.6935 -0.22908,65.5201 0.17738,14.7255 -0.35493,29.6101 0.26646,44.236 5.40111,1.0428 11.57692,0.1279 17.2669,0.4363 7.64056,-0.2975 15.62091,0.4285 23.33592,-0.2664 1.0423,-5.5054 0.12788,-11.7849 0.43629,-17.5789 0,-30.5703 0,-61.1407 0,-91.7111 -2.35891,-2.3383 -7.10554,-0.3356 -10.35869,-1.0004 -10.14986,0.1795 -20.46066,-0.3585 -30.51059,0.2665 z"
       id="path87" />
    <path
       style="fill:#00ffff;stroke-width:0.623885;stroke-miterlimit:10"
       d="m 249.71846,1249.9412 c -0.53572,18.6404 -0.0748,37.4548 -0.22908,56.1619 2.35891,2.3383 7.10553,0.3356 10.35868,1.0004 4.74678,1.3786 6.40387,-1.6986 5.36761,-5.9915 -1.81938,-5.6236 3.86652,-3.742 7.42203,-3.9907 3.58628,0.218 9.16708,-1.5586 7.42204,3.9907 -0.96533,4.2485 0.60149,7.4438 5.3676,5.9915 68.62734,0 137.25468,0 205.88202,0 2.69849,-1.8662 -0.44819,-7.6405 1.6243,-9.3583 4.94803,0 9.89604,0 14.84407,0 0.82168,2.7933 -1.80499,8.4704 1.6243,9.3583 32.64997,0 65.29995,0 97.94993,0 2.33831,-2.3589 0.33565,-7.1056 1.00041,-10.3587 -0.23765,-6.262 0.47871,-12.7379 -0.36434,-18.864 0.60383,-1.73 0.30007,-6.8142 0.36434,-9.8347 -0.23729,-6.0541 0.47823,-12.3218 -0.36434,-18.2401 -21.75984,-0.5357 -43.69355,-0.076 -65.5201,-0.2291 -97.32605,0 -194.65209,0 -291.97814,0 l -0.56412,0.2664 z"
       id="path88" />
    <path
       style="fill:#00ffff;stroke-width:0.623885;stroke-miterlimit:10"
       d="m 512.37401,1135.7703 c -0.53492,21.656 -0.0767,43.4854 -0.22908,65.2081 0.17912,14.2052 -0.35729,28.5709 0.26646,42.6764 5.50534,1.0423 11.78482,0.1279 17.57884,0.4363 25.37132,0 50.74264,0 76.11396,0 2.33831,-2.3589 0.33565,-7.1055 1.00041,-10.3587 0,-32.442 0,-64.884 0,-97.326 -2.35891,-2.3384 -7.10553,-0.3357 -10.35869,-1.0005 -27.99051,-0.018 -55.72261,0.042 -83.60057,0 l -0.56412,0.2665 z"
       id="path89" />
    <path
       style="fill:#00ffff;stroke-width:0.623885;stroke-miterlimit:10"
       d="m 442.80231,1137.2788 c -32.50269,0.093 -65.01321,-0.093 -97.50638,0.825 -1.91356,0.2494 -6.18122,-0.5703 -9.33391,-0.2023 -7.30144,0.239 -14.81787,-0.4805 -21.98341,0.3643 -0.53494,21.656 -0.0767,43.4854 -0.22908,65.2082 0.17929,13.3733 -0.35752,26.9072 0.26646,40.1808 5.50534,1.0423 11.78482,0.1279 17.57884,0.4363 58.02129,0 116.04259,0 174.06389,0 2.33831,-2.3589 0.33565,-7.1055 1.00041,-10.3587 0,-31.8181 0,-63.6363 0,-95.4544 -2.35891,-2.3383 -7.10553,-0.3355 -10.35869,-1.0002 -17.8327,3e-4 -35.66542,7e-4 -53.49813,10e-4 z"
       id="path90" />
    <path
       style="fill:#00ffff;stroke-width:0.623885;stroke-miterlimit:10"
       d="m 249.71846,1138.2658 c -0.53496,21.656 -0.0767,43.4854 -0.22908,65.2082 0.17939,12.9574 -0.35764,26.0754 0.26646,38.933 5.50535,1.0423 11.78482,0.1279 17.57884,0.4363 13.47762,-0.1778 27.11503,0.3568 40.49276,-0.2664 1.0423,-5.5054 0.12788,-11.7849 0.43629,-17.5789 0,-28.6987 0,-57.3974 0,-86.0961 -2.35891,-2.3383 -7.10554,-0.3357 -10.35869,-1.0004 -3.30937,-0.056 -8.54014,-0.031 -10.56908,0.2815 -12.13439,-0.6613 -24.58942,-0.091 -36.84617,-0.2815 l -0.56412,0.2665 z"
       id="path91" />
    <path
       style="fill:#00ffff;stroke-width:0.623885;stroke-miterlimit:10"
       d="m 258.45285,914.29115 c -0.5357,21.75983 -0.0755,43.69355 -0.22908,65.5201 0,49.91075 0,99.82155 0,149.73235 2.35891,2.3383 7.10553,0.3357 10.35868,1.0004 6.26194,-0.2376 12.73785,0.4787 18.86399,-0.3643 1.73003,0.6038 6.81416,0.3001 9.83472,0.3643 15.55733,-0.1774 31.27386,0.355 46.7316,-0.2664 1.65134,0.2508 6.46856,0.3531 9.41804,0.2664 60.56972,-0.1583 121.14582,0.363 181.71135,-0.3984 5.74139,-0.6612 11.42542,0.6488 17.26276,0.3304 15.40382,0.1264 30.80848,0.044 46.21266,0.068 2.33831,-2.3589 0.33565,-7.1055 1.00041,-10.3587 0,-68.4193 0,-136.8387 0,-205.25808 -2.35891,-2.33832 -7.10553,-0.33566 -10.35869,-1.00041 -4.59918,0.23342 -9.40917,-0.473 -13.87291,0.36434 -1.73002,-0.60384 -6.81415,-0.30007 -9.83471,-0.36434 -102.10917,0 -204.21833,0 -306.32749,0 l -0.56412,0.26646 z"
       id="path92" />
    <path
       style="fill:#00ffff;stroke-width:0.623885;stroke-miterlimit:10"
       d="m 514.24566,795.75301 c -0.53496,21.65599 -0.0766,43.4854 -0.22908,65.20816 0.17886,15.86895 -0.35693,31.89819 0.26646,47.66743 5.50535,1.0423 11.78482,0.12788 17.57884,0.43629 5.01479,-0.23486 10.24146,0.47495 15.12068,-0.36434 0.5949,-11.23019 -0.0227,-22.56399 0.22909,-33.70197 0,-26.20316 0,-52.40633 0,-78.6095 -2.35891,-2.33831 -7.10554,-0.33565 -10.35869,-1.00041 -7.50273,0.23919 -15.24336,-0.48073 -22.6073,0.36434 z"
       id="path93" />
    <path
       style="fill:#00ffff;stroke-width:0.623885;stroke-miterlimit:10"
       d="m 551.55691,796.45976 c -0.27119,33.87138 -0.003,67.92255 -0.10723,101.62256 0.58034,3.48849 -1.19414,8.30112 0.95131,10.96489 7.28014,-0.32716 14.77199,0.71089 21.95696,-0.53675 0.99572,-1.02783 0.7406,-1.05717 1.77661,-0.0353 8.51784,1.28759 17.3044,0.23711 25.91437,0.58977 2.707,-0.63622 9.12013,1.9403 8.17509,-2.87206 -0.17734,-13.68569 0.35488,-27.53053 -0.26646,-41.11664 -3.2923,-1.05486 -7.37999,-0.11967 -10.96347,-0.43629 -1.56512,-5.34783 2.28188,-5.28354 6.48621,-4.86191 5.13853,1.62998 5.26728,-2.83235 4.74372,-6.61538 -0.34594,-3.56549 1.41639,-8.23518 -2.69195,-10.16488 -9.95372,-8.30485 -19.18757,-17.55835 -29.67573,-25.17966 -1.1099,-0.69806 -2.35484,0.34793 -2.07759,-1.394 -4.20888,-5.68328 -10.49468,-9.56344 -15.60457,-14.41875 -2.65044,-1.99324 -4.91343,-4.77477 -7.94465,-6.07075 l -0.49174,0.38396 z"
       id="path94" />
    <path
       style="fill:#00ffff;stroke-width:0.623885;stroke-miterlimit:10"
       d="m 274.67386,678.46265 c -0.53441,21.65598 -0.0778,43.48541 -0.22802,65.20816 0.22294,15.87005 -0.45796,31.78958 0.55337,47.62971 0.21606,2.88641 4.47398,1.727 3.9005,-0.84931 -0.78258,-3.97249 1.13301,-5.06913 5.0325,-4.29164 3.49776,0.41045 8.64401,-0.82758 11.10077,0.62388 0.57301,3.36584 -1.18697,8.04858 0.95131,10.58836 49.29711,0.0412 98.60758,0.006 147.90982,0.0177 2.33832,-2.35891 0.33566,-7.10554 1.00041,-10.35869 -0.17916,-15.14101 0.35711,-30.4425 -0.26646,-45.48383 0.25085,-1.65134 0.35313,-6.46857 0.26646,-9.41804 0,-17.67674 0,-35.35348 0,-53.03022 -2.35891,-2.33832 -7.10553,-0.33566 -10.35868,-1.00041 -53.03022,0 -106.06044,0 -159.09065,0 l -0.56412,0.26647 z"
       id="path95" />
    <path
       style="fill:#00ffff;stroke-width:0.623885;stroke-miterlimit:10"
       d="m 264.06782,323.47214 c -0.5357,21.75984 -0.0755,43.69355 -0.22909,65.5201 0,93.79069 0,187.5814 0,281.37209 2.35891,2.33832 7.10553,0.33566 10.35869,1.00041 90.58638,0 181.17276,0 271.75915,0 7.82221,-7.70495 14.74497,-16.62252 22.22097,-24.79445 2.72037,-3.49083 6.36407,-6.47735 8.53217,-10.26983 0.90751,-0.7152 3.87927,-3.5443 5.32337,-5.43046 9.17212,-10.60392 18.81358,-20.95519 27.56706,-31.82595 0,-91.64528 0,-183.29056 0,-274.93584 -2.35891,-2.33832 -7.10553,-0.33566 -10.35869,-1.00041 -111.46744,0 -222.93487,0 -334.40231,0 l -0.56412,0.26646 z m 16.99233,5.37979 c 3.40227,0.42349 9.52407,-1.87255 7.73398,3.74331 0,4.11618 0,8.23235 0,12.34853 -5.15599,0 -10.31197,0 -15.46796,0 0,-5.36395 0,-10.72789 0,-16.09184 2.57799,0 5.15599,0 7.73398,0 z m 225.22245,0 c 3.40227,0.42349 9.52407,-1.87255 7.73398,3.74331 0,4.11618 0,8.23235 0,12.34853 -5.15599,0 -10.31197,0 -15.46796,0 0,-5.36395 0,-10.72789 0,-16.09184 2.578,0 5.15599,0 7.73398,0 z M 281.07721,555.94604 c 3.39351,0.4231 9.55861,-1.87185 7.65853,3.74259 -0.0784,4.01974 -0.15685,8.03949 -0.23527,12.05924 -4.94163,-0.0381 -10.1911,0.52812 -14.91719,-0.078 -0.40346,-5.23262 -0.20686,-10.46074 -0.25711,-15.72384 2.58368,0 5.16736,0 7.75104,0 z m 225.22245,0 c 3.39351,0.4231 9.55861,-1.87185 7.65854,3.74259 -0.0784,4.01974 -0.15686,8.03949 -0.23528,12.05924 -4.94163,-0.0381 -10.1911,0.52812 -14.91719,-0.078 -0.40346,-5.23262 -0.20686,-10.46074 -0.25711,-15.72384 2.58368,0 5.16736,0 7.75104,0 z"
       id="path96" />
    <path
       style="fill:#00ffff;stroke-width:0.623885;stroke-miterlimit:10"
       d="m 616.56279,323.47214 c -0.5357,21.75984 -0.0755,43.69355 -0.22908,65.5201 0,56.98149 0,113.96298 0,170.94446 2.3589,2.33832 7.10553,0.33566 10.35868,1.00042 12.43794,-0.17728 25.03497,0.35479 37.37333,-0.26647 1.65134,0.25085 6.46856,0.35313 9.41804,0.26647 17.01305,-0.17745 34.18533,0.35501 51.09879,-0.26647 1.04231,-5.50534 0.12788,-11.78482 0.4363,-17.57884 -0.23599,-5.43046 0.47648,-11.07365 -0.36435,-16.36845 0.60384,-1.73002 0.30007,-6.81416 0.36435,-9.83471 0,-64.26015 0,-128.5203 0,-192.78044 -2.35891,-2.33832 -7.10554,-0.33566 -10.35869,-1.00041 -32.44201,0 -64.88403,0 -97.32604,0 l -0.56412,0.26646 z"
       id="path97" />
    <path
       style="fill:#00ffff;stroke-width:0.623885;stroke-miterlimit:10"
       d="m 732.60538,323.47214 c -0.53557,19.88821 -0.0749,39.95033 -0.22908,59.90514 2.35891,2.33831 7.10553,0.33565 10.35868,1.0004 32.02609,0 64.05219,0 96.07828,0 2.33831,-2.3589 0.33565,-7.10553 1.00041,-10.35868 -0.24279,-6.88466 0.4899,-13.98812 -0.36434,-20.73564 0.60383,-1.73003 0.30007,-6.81416 0.36434,-9.83472 -0.24304,-6.67665 0.49024,-13.57228 -0.36434,-20.11176 -21.656,-0.53492 -43.48537,-0.0767 -65.20816,-0.22908 -13.78925,0.17921 -27.73906,-0.3574 -41.42858,0.26646 z"
       id="path98" />
    <path
       style="fill:#00ffff;stroke-width:0.623885;stroke-miterlimit:10"
       d="m 730.10984,389.60394 c -0.53552,21.65589 -0.0759,43.48551 -0.22908,65.20816 0.24709,8.02749 -0.49162,16.27609 0.36434,24.16701 10.71454,0.3784 21.61703,0.40052 32.38596,-0.067 1.43932,-0.33916 2.23742,-0.87504 3.6507,-0.15475 24.15445,0.94023 48.35846,0.2209 72.5315,0.45085 2.33831,-2.35891 0.33565,-7.10553 1.00041,-10.35868 0,-26.20317 0,-52.40633 0,-78.6095 -2.35891,-2.33832 -7.10553,-0.33566 -10.35869,-1.00041 -32.85794,0 -65.71587,0 -98.57381,0 l -0.56412,0.26646 z"
       id="path99" />
    <path
       style="fill:#00ffff;stroke-width:0.623885;stroke-miterlimit:10"
       d="m 730.10984,485.05833 c -0.53737,13.44108 -0.0743,27.05684 -0.22908,40.5647 0.6077,1.86529 -0.41749,6.19955 0,9.35828 0.18016,9.94175 -0.35893,20.04482 0.26646,29.8867 5.50534,1.04231 11.78482,0.12789 17.57884,0.4363 29.32259,0 58.64518,0 87.96777,0 2.33832,-2.35891 0.33566,-7.10553 1.00041,-10.35869 0,-23.08374 0,-46.16748 0,-69.25122 -2.3589,-2.33832 -7.10553,-0.33566 -10.35868,-1.00041 -31.9538,-0.0116 -63.59431,0.0339 -95.45439,0 l -0.56412,0.26646 z"
       id="path100" />
    <path
       style="fill:#00ffff;stroke-width:0.623885;stroke-miterlimit:10"
       d="m 730.10984,572.40222 c -0.53778,11.62662 -0.0732,23.42825 -0.22908,35.12155 7.69915,10.66654 16.42384,20.72051 24.63736,31.05533 1.64668,0.94683 3.49186,5.15222 5.8792,7.37997 7.71903,9.38831 14.97484,19.35699 22.98182,28.38415 17.38959,0.25719 34.88372,0.058 52.31348,0.14095 2.34078,-2.35686 0.33633,-7.10578 1.00162,-10.35869 -0.0129,-30.49729 -0.013,-60.58828 0,-91.08719 -2.3589,-2.33832 -7.10553,-0.33566 -10.35868,-1.00041 -31.81813,0 -63.63626,0 -95.45439,0 l -0.56412,0.26646 z"
       id="path101" />
    <path
       style="fill:#00ffff;stroke-width:0.623885;stroke-miterlimit:10"
       d="m 843.03301,323.47214 c -0.53907,9.48951 -0.0717,19.15474 -0.22908,28.71089 0.6077,1.86529 -0.41749,6.19955 0,9.35827 0,85.47224 0,170.94447 0,256.4167 0.009,16.99218 -0.007,34.56823 0,51.78245 2.35891,2.33831 7.10553,0.33565 10.35868,1.00041 35.97736,0 71.95472,0 107.93209,0 2.33831,-2.35891 0.33565,-7.10553 1.00041,-10.35869 -0.1791,-15.97287 0.35696,-32.10615 -0.26647,-47.97937 0.25085,-1.65134 0.35313,-6.46856 0.26647,-9.41804 -0.17978,-11.39756 0.35822,-22.95612 -0.26647,-34.2539 -3.2923,-1.05486 -7.37998,-0.11967 -10.96346,-0.43629 0,-5.15599 0,-10.31197 0,-15.46796 3.64242,-0.23079 7.49297,0.46631 11.00085,-0.36434 0.53569,-21.75984 0.0755,-43.69355 0.22908,-65.5201 0,-30.57036 0,-61.14072 0,-91.71108 -0.60771,-1.86529 0.41749,-6.19955 0,-9.35828 -0.17945,-14.51706 0.35727,-29.19476 -0.26647,-43.61217 -3.2923,-1.05486 -7.37998,-0.11967 -10.96346,-0.43629 0,-4.74007 0,-9.48013 0,-14.22019 2.09088,0.0758 7.03478,0.62417 6.11578,-2.92203 -2.51912,-2.32146 -6.76143,-0.87351 -9.90633,-1.44748 -34.42244,-0.25716 -68.84701,-0.0681 -103.27029,-0.12685 l -0.56412,0.26646 z"
       id="path102" />
    <path
       style="fill:#00ffff;stroke-width:0.623885;stroke-miterlimit:10"
       d="m 965.31445,323.47214 c -0.5356,21.65587 -0.0751,43.48566 -0.22908,65.20816 -0.0774,4.01306 0.50727,5.5071 0,9.04633 0,49.91079 0,99.82158 0,149.73238 2.35891,2.33831 7.10553,0.33565 10.35868,1.00041 28.07485,0 56.14965,0 84.22445,0 2.3383,-2.35891 0.3357,-7.10553 1.0004,-10.35869 0,-36.60125 0,-73.20249 0,-109.80374 -0.6077,-1.86529 0.4175,-6.19955 0,-9.35828 0,-18.9245 0,-37.84901 0,-56.77352 -0.6077,-1.86529 0.4175,-6.19955 0,-9.35828 -0.2407,-9.79659 0.4828,-19.80946 -0.3643,-29.47003 -21.7599,-0.5357 -43.6936,-0.0755 -65.52012,-0.22908 -9.78989,0.2405 -19.81921,-0.48251 -29.47003,0.36434 z"
       id="path103" />
    <path
       style="fill:#00ffff;stroke-width:0.623885;stroke-miterlimit:10"
       d="m 965.31445,551.19013 c -0.53557,19.88821 -0.0749,39.95034 -0.22908,59.90514 0.6077,1.86529 -0.41749,6.19954 0,9.35827 0.23742,6.04914 -0.47854,12.31213 0.36434,18.22548 15.50211,0.63395 31.18043,0.28914 46.74989,0.54834 0.2912,10.33984 -0.14,20.84995 0.5955,31.08525 5.5113,1.0241 11.7795,0.12479 17.5728,0.42825 10.829,-0.24113 21.8746,0.48352 32.5675,-0.36434 0.5352,-21.65595 0.076,-43.48547 0.2291,-65.20816 0,-17.78072 0,-35.56144 0,-53.34216 -2.3589,-2.33832 -7.1056,-0.33566 -10.3587,-1.00041 -28.9067,0 -57.81336,0 -86.72002,0 l -0.56412,0.26646 z"
       id="path104" />
    <path
       style="fill:#00ffff;stroke-width:0.623885;stroke-miterlimit:10"
       d="m 1067.6316,302.88394 c -0.5357,19.05634 -0.075,38.28666 -0.2291,57.40959 0.6077,1.86529 -0.4175,6.19955 0,9.35828 0.2437,6.26058 -0.491,12.74059 0.3643,18.86399 21.7599,0.5357 43.6936,0.0755 65.5201,0.22908 13.8937,-0.17735 27.9465,0.35489 41.7406,-0.26647 1.0423,-5.50534 0.1278,-11.78481 0.4362,-17.57883 0,-22.45986 0,-44.91972 0,-67.37957 -2.3589,-2.33832 -7.1055,-0.33566 -10.3586,-1.00041 -32.2341,0 -64.4681,0 -96.7022,0 l -0.5641,0.26646 z"
       id="path105" />
    <path
       style="fill:#00ffff;stroke-width:0.623885;stroke-miterlimit:10"
       d="m 1067.6316,394.59502 c -0.5389,10.52935 -0.073,21.2341 -0.2291,31.83031 0.6077,1.86529 -0.4175,6.19955 0,9.35828 0,19.75635 0,39.51271 0,59.26906 2.2674,2.31334 6.8785,0.37103 10.0467,1.00042 32.7103,-0.02 65.9576,0.0144 98.8858,0 2.3383,-2.35891 0.3356,-7.10554 1.0004,-10.35869 0,-30.15444 0,-60.30887 0,-90.46331 -2.3589,-2.33832 -7.1055,-0.33566 -10.3587,-1.00041 -32.8579,0 -65.7159,0 -98.5738,0 l -0.5641,0.26646 z"
       id="path106" />
    <path
       style="fill:#00ffff;stroke-width:0.623885;stroke-miterlimit:10"
       d="m 1067.6316,503.15099 c -0.5357,21.75984 -0.075,43.69355 -0.2291,65.5201 0,33.68979 0,67.37957 0,101.06936 2.3589,2.33831 7.1055,0.33565 10.3587,1.00041 32.8579,0 65.7159,0 98.5738,0 2.3383,-2.35891 0.3356,-7.10553 1.0004,-10.35869 -0.2442,-8.54803 0.49,-17.31552 -0.3643,-25.72672 -16.0192,-0.5366 -32.2128,-0.0748 -48.2987,-0.22908 -0.2477,-7.5899 0.4919,-15.40126 -0.3644,-22.85466 0.6039,-1.73002 0.3001,-6.81416 0.3644,-9.83472 0,-19.63084 0,-39.26169 0,-58.89254 16.0555,-0.17813 32.2705,0.35458 48.2267,-0.26646 1.0423,-5.50535 0.1279,-11.78482 0.4363,-17.57884 -0.244,-7.30031 0.4898,-14.81996 -0.3643,-21.98341 -21.7599,-0.53571 -43.6936,-0.0755 -65.5201,-0.22909 -14.486,-0.0253 -28.656,0.072 -43.0481,0 l -0.5641,0.26647 z"
       id="path107" />
    <path
       style="fill:#00ffff;stroke-width:0.623885;stroke-miterlimit:10"
       d="m 1132.5156,546.82294 c -0.5354,21.10838 -0.075,42.39062 -0.2291,63.56558 1.3524,1.52119 -0.8787,5.62328 0,8.90011 0.5969,3.25085 -1.2389,7.90723 1.0004,10.27583 14.517,-0.17971 29.1947,0.35674 43.6122,-0.26647 1.0423,-5.50534 0.1279,-11.78482 0.4363,-17.57884 0,-21.42005 0,-42.8401 0,-64.26014 -2.3589,-2.33832 -7.1055,-0.33566 -10.3587,-1.00041 -11.3976,0.17946 -22.9561,-0.35811 -34.2539,0.26646 z"
       id="path108" />
    <path
       style="fill:#00ffff;stroke-width:0.623885;stroke-miterlimit:10"
       d="m 1188.0414,305.37948 c -0.541,7.82549 -0.07,15.82763 -0.2291,23.71981 2.2661,2.32653 6.9012,0.35214 10.065,1.00041 3.7237,0.0205 0.8369,6.50771 1.5976,9.42713 1.6275,5.42934 -2.8738,4.78592 -6.7925,4.71952 -4.7163,-1.33607 -5.6583,2.25157 -4.8701,6.11133 0,68.19598 0,136.39196 0,204.58794 2.3589,2.33832 7.1055,0.33566 10.3587,1.00042 2.0395,1.76472 0.2883,7.32016 0.8712,10.54146 1.7467,5.55087 -3.3284,4.28003 -7.1101,4.3026 -5.3349,-1.64433 -4.1326,3.91075 -4.1198,7.23927 0,30.57036 0,61.14072 0,91.71108 2.3589,2.33831 7.1055,0.33565 10.3587,1.00041 5.2911,-0.35646 10.901,0.72681 16.0138,-0.78961 0.6281,-1.45333 1.6649,1.22708 3.1877,0.56418 8.9438,0.29187 18.0553,0.4634 26.9062,-0.041 1.0423,-5.50534 0.1279,-11.78482 0.4363,-17.57884 0,-27.45093 0,-54.90187 0,-82.3528 -2.3589,-2.33832 -7.1056,-0.33566 -10.3587,-1.00041 -2.0406,-1.7636 -0.2861,-7.32237 -0.8713,-10.54146 -1.4093,-5.21363 5.2979,-2.31057 8.3579,-3.05484 4.9629,0.85313 2.1479,-5.68089 2.8721,-8.48703 0,-67.37957 0,-134.75914 0,-202.13871 -2.2574,-2.331 -6.8956,-0.34084 -10.0468,-1.00041 -1.2937,-2.51052 -0.2019,-7.4065 -0.5593,-10.85341 -1.7405,-5.54478 2.7746,-4.83389 6.7982,-4.61455 5.1667,1.54685 3.6909,-4.13675 3.8079,-7.23926 -0.2437,-5.42874 0.4915,-11.07703 -0.3644,-16.36845 -18.4323,-0.53613 -37.0388,-0.0752 -55.5379,-0.22908 l -0.5641,0.26646 z"
       id="path109" />
    <path
       style="fill:#00ffff;stroke-width:0.623885;stroke-miterlimit:10"
       d="m 1254.797,325.34379 c -0.5357,21.75984 -0.075,43.69355 -0.229,65.5201 0,75.906 0,151.812 0,227.71799 2.3589,2.33832 7.1055,0.33566 10.3586,1.00042 44.6454,-0.15594 89.2986,0.33618 133.9391,-0.30951 1.5179,0.26575 3.567,-0.69644 4.6901,-0.54103 4.3328,1.88295 9.5235,0.63002 14.1603,1.12573 19.1509,0.21894 38.3032,0.24966 57.4549,0.34869 2.3476,-2.34947 0.3387,-7.10688 1.0053,-10.35868 -0.1773,-12.85386 0.3548,-25.86683 -0.2665,-38.6211 -3.2923,-1.05486 -7.38,-0.11967 -10.9635,-0.4363 0,-5.15598 0,-10.31196 0,-15.46795 3.6425,-0.23079 7.493,0.46631 11.0009,-0.36434 0.5357,-21.75984 0.075,-43.69355 0.2291,-65.5201 0,-48.03914 0,-96.07828 0,-144.11741 -2.2574,-2.331 -6.8956,-0.34084 -10.0468,-1.00041 -1.2937,-2.51052 -0.2019,-7.4065 -0.5593,-10.85341 -1.4608,-4.92796 1.8342,-5.07876 5.771,-4.62308 1.6908,0.26199 6.1724,-0.2821 4.3257,-2.85379 -8.2676,-1.40302 -16.8769,-0.52908 -25.2685,-0.89683 -64.9431,-0.21315 -129.8867,-0.0714 -194.83,-0.11333 l -0.5641,0.26647 z"
       id="path110" />
    <path
       style="fill:#00ffff;stroke-width:0.623885;stroke-miterlimit:10"
       d="m 1251.6776,626.05632 c -0.5365,14.48103 -0.074,29.1365 -0.2291,43.68413 2.3589,2.33831 7.1056,0.33566 10.3587,1.00041 34.3137,0 68.6274,0 102.941,0 2.3383,-2.35891 0.3357,-7.10553 1.0004,-10.35869 0.056,-3.30937 0.031,-8.54014 -0.2815,-10.56908 0.6665,-7.55777 0.087,-15.44017 0.2815,-23.1207 -2.3589,-2.33832 -7.1055,-0.33566 -10.3586,-1.00041 -34.3137,0 -68.6274,0 -102.9411,0 l -0.5641,0.26646 z"
       id="path111" />
    <path
       style="fill:#00ffff;stroke-width:0.623885;stroke-miterlimit:10"
       d="m 1436.3476,626.05632 c -0.2977,7.4774 -0.5456,15.19268 0.1437,22.69869 0.3369,1.27172 1.8838,1.16754 0.2706,2.01178 -1.4617,5.91263 -0.2133,12.28572 -0.6434,18.34977 1.0196,3.50556 6.8098,0.75227 9.7348,1.6243 45.5436,0 91.0872,0 136.6308,0 2.3383,-2.35891 0.3356,-7.10553 1.0004,-10.35869 -0.1795,-11.39763 0.3581,-22.9561 -0.2665,-34.2539 -5.5053,-1.0423 -11.7848,-0.12788 -17.5788,-0.43629 -42.8401,0 -85.6802,0 -128.5203,0 l -0.5641,0.26646 z"
       id="path112" />
    <path
       style="fill:#00ffff;stroke-width:0.623885;stroke-miterlimit:10"
       d="m 1483.7628,325.34379 c -0.5357,21.75984 -0.075,43.69355 -0.2291,65.5201 0,75.69804 0,151.39608 0,227.09411 2.3589,2.33831 7.1056,0.33566 10.3587,1.00041 43.256,0 86.5121,0 129.7681,0 1.8479,-0.69274 6.1848,0.49062 9.3346,0.12573 93.7965,0.47104 187.5965,0.33502 281.3945,0.49816 2.3408,-2.35686 0.3364,-7.10578 1.0016,-10.35869 0,-94.41458 0,-188.82917 0,-283.24375 -2.3589,-2.33831 -7.1055,-0.33565 -10.3586,-1.00041 -140.1662,0 -280.3323,0 -420.4985,0 l -0.5641,0.26647 z m 230.4962,11.75512 c 3.8676,0.1058 9.0784,-1.13151 7.4005,4.51976 -0.6818,3.06583 1.7561,9.18621 -1.0337,10.18784 -4.5373,0 -9.0747,0 -13.6121,0 0,-4.95331 0,-9.90661 0,-14.85992 2.4151,0.0508 4.8302,0.10154 7.2453,0.15232 z m -2.3188,225.08598 c 3.8791,0.0507 9.2172,-1.35772 7.422,4.36719 -0.7463,2.95396 1.5808,8.98125 -1.2478,9.85299 -4.5321,0 -9.0642,0 -13.5963,0 0,-4.74006 0,-9.48013 0,-14.22018 2.4741,0 4.9481,0 7.4221,0 z"
       id="path113" />
    <path
       style="fill:#00ffff;stroke-width:0.623885;stroke-miterlimit:10"
       d="m 1661.57,627.30409 c -0.3092,8.48015 -0.5204,17.1878 0.1316,25.70235 0.1615,1.28759 1.9963,1.30301 0.3168,2.05565 -1.5294,5.27565 -0.22,11.09746 -0.6775,16.55001 2.3589,2.33832 7.1056,0.33566 10.3587,1.00041 94.6226,0 189.2451,0 283.8676,0 2.3384,-2.35891 0.3357,-7.10553 1.0005,-10.35868 -0.1773,-11.6061 0.3547,-23.37127 -0.2665,-34.87779 -5.5054,-1.0423 -11.7848,-0.12789 -17.5789,-0.43629 -92.127,0 -184.254,0 -276.381,0 l -0.5641,0.26646 z"
       id="path114" />
    <path
       style="fill:#00ffff;stroke-width:0.623885;stroke-miterlimit:10"
       d="m 1922.388,324.48839 c -0.3636,3.32679 -0.5802,7.10045 0.1012,10.3733 3.7464,0.55413 7.6758,0.0602 11.4894,0.22909 0,4.74006 0,9.48012 0,14.22019 -3.8465,0.24808 -7.915,-0.49355 -11.6247,0.36434 -0.5357,21.75983 -0.076,43.69354 -0.2291,65.5201 0,48.66302 0,97.32604 0,145.98906 2.3589,2.33832 7.1055,0.33566 10.3587,1.00042 2.0318,1.66839 0.303,7.09755 0.8712,10.22951 1.7853,5.48549 -3.5933,3.80712 -7.1101,3.99067 -5.3349,-1.64434 -4.1325,3.91075 -4.1198,7.23926 0.1772,11.81406 -0.3547,23.78719 0.2665,35.50167 5.5053,1.04231 11.7848,0.12789 17.5788,0.4363 65.2786,-0.0733 130.5125,0.1692 195.9217,0.44898 9.1657,-0.1885 18.5407,0.60963 27.5729,-0.18457 0.5443,-21.13566 0.077,-42.44935 0.2327,-63.65332 0,-76.73784 0,-153.47568 0,-230.21353 -2.3589,-2.33831 -7.1055,-0.33565 -10.3586,-1.00041 -74.3971,-0.12807 -148.8743,0.31902 -223.222,-0.44042 -2.5252,0.11792 -5.3218,-0.78901 -7.7288,-0.0506 z m 229.703,9.9785 c 3.4023,0.4235 9.5241,-1.87254 7.734,3.74331 -0.4117,3.49651 0.8284,8.6449 -0.6239,11.10077 -4.948,0 -9.8961,0 -14.8441,0 0,-4.94803 0,-9.89605 0,-14.84408 2.578,0 5.156,0 7.734,0 z m -0.312,227.09411 c 3.8791,0.0507 9.2172,-1.35771 7.4221,4.36719 0,3.70026 0,7.40051 0,11.10076 -4.948,0 -9.8961,0 -14.8441,0 0,-5.15598 0,-10.31197 0,-15.46795 2.474,0 4.948,0 7.422,0 z"
       id="path115" />
    <path
       style="fill:#00ffff;stroke-width:0.623885;stroke-miterlimit:10"
       d="m 2033.4249,626.45843 c -0.5863,7.88877 -0.077,15.97721 -0.2486,23.94159 0.6077,1.86528 -0.4175,6.19954 0,9.35827 0.2398,4.59777 -0.4889,9.41274 0.3644,13.87291 21.7598,0.5357 43.6935,0.0755 65.5201,0.22908 15.1414,-0.17739 30.442,0.35495 45.4838,-0.26646 1.0423,-5.50535 0.1279,-11.78482 0.4363,-17.57884 -0.2406,-9.58866 0.4827,-19.39351 -0.3643,-28.84615 -22.4793,-0.54961 -45.1308,-0.032 -67.6769,-0.2989 -14.2574,-0.0661 -28.488,-0.19633 -42.7313,-0.75147 l -0.5723,0.24834 z"
       id="path116" />
    <path
       style="fill:#00ffff;stroke-width:0.687007;stroke-miterlimit:10"
       d="m 685.88509,1491.8957 c -0.51654,33.5673 -0.0738,67.2991 -0.2214,100.9297 0,130.0733 0,260.1466 0,390.2199 2.9316,2.291 8.1771,0.3637 11.99176,0.9996 7.78819,-0.2489 15.80358,0.5019 23.44948,-0.373 1.02674,-3.4051 -0.9045,-8.9905 0.9084,-11.3061 3.46647,-0.6454 8.41913,1.3112 10.99211,-0.9997 0,-69.1587 0,-138.3173 0,-207.476 -2.36463,-2.7472 -8.90097,0.5614 -10.99211,-1.6867 0,-5.2876 0,-10.5752 0,-15.8629 3.31384,-0.9033 9.68909,1.942 10.99211,-1.6866 0,-69.1587 0,-138.3174 0,-207.4761 -2.36463,-2.7472 -8.90097,0.5614 -10.99211,-1.6866 0,-5.2877 0,-10.5753 0,-15.8629 3.31384,-0.9033 9.68909,1.9419 10.99211,-1.6867 -0.24588,-8.7049 0.49361,-17.6337 -0.37302,-26.1975 -7.17247,-0.155 -14.65477,-0.7494 -21.81113,0.2885 -1.33901,0 -1.02466,3.5407 -1.29082,1.0305 -2.15765,-2.7908 -6.75509,-0.8828 -9.75093,-1.5371 -4.603,0.202 -9.4397,-0.4665 -13.89445,0.3697 z"
       id="path117" />
    <path
       style="fill:#00ffff;stroke-width:0.687007;stroke-miterlimit:10"
       d="m 737.4106,1410.1419 c -0.51569,13.1863 -0.0735,26.5367 -0.2214,39.786 3.06715,2.3166 5.60976,0.07 0.2214,1.4344 -0.51654,33.5673 -0.0738,67.2991 -0.2214,100.9297 0,24.7322 0,49.4645 0,74.1967 2.93161,2.2911 8.1771,0.3637 11.99176,0.9997 77.17377,0 154.34754,0 231.52131,0 2.29105,-2.9317 0.36374,-8.1771 0.99965,-11.9918 0,-68.2427 0,-136.4854 0,-204.728 -2.9316,-2.2911 -8.1771,-0.3638 -11.99176,-0.9997 -77.17377,0 -154.34754,0 -231.52131,0 l -0.61952,0.2969 z"
       id="path118" />
    <path
       style="fill:#00ffff;stroke-width:0.687007;stroke-miterlimit:10"
       d="m 567.03291,1635.4802 c -0.51605,33.4528 -0.0747,67.0699 -0.2214,100.5861 -0.006,32.3758 0.0335,64.2418 0,96.5245 2.9316,2.291 8.17709,0.3637 11.99176,0.9996 10.30771,-0.2467 20.83997,0.4947 31.00655,-0.373 0.51654,-33.5673 0.0738,-67.2991 0.2214,-100.9296 0,-32.0604 0,-64.1207 0,-96.181 -2.93161,-2.2911 -8.1771,-0.3637 -11.99176,-0.9997 -10.30028,0.2465 -20.85075,-0.4942 -31.00655,0.3731 z"
       id="path119" />
    <path
       style="fill:#00ffff;stroke-width:0.687007;stroke-miterlimit:10"
       d="m 567.03291,1493.2698 c -0.51655,33.5672 -0.0738,67.299 -0.2214,100.9296 0.24741,13.0556 -0.49567,26.3362 0.37302,39.2506 13.87314,0.5163 27.91064,0.074 41.84704,0.2214 2.29105,-2.9316 0.36374,-8.1771 0.99965,-11.9917 0,-42.5945 0,-85.1889 0,-127.7833 -2.68705,-2.2646 -7.65336,-0.3952 -11.22693,-0.9981 -3.10903,0.5961 -7.65104,-1.2027 -9.97233,1.5509 -0.15188,0.3317 -1.21493,-1.7839 -2.40453,-1.3512 -6.41137,-0.2073 -13.1227,-0.5687 -19.39452,0.1718 z"
       id="path120" />
    <path
       style="fill:#00ffff;stroke-width:0.687007;stroke-miterlimit:10"
       d="m 249.63574,1311.8999 c -0.51654,33.5673 -0.0738,67.2991 -0.22139,100.9297 0,35.4953 0,70.9907 0,106.486 2.9316,2.2911 8.17709,0.3638 11.99175,0.9997 99.387,0 198.77398,0 298.16097,0 2.29106,-2.9316 0.36375,-8.1771 0.99965,-11.9918 -0.0264,-58.1379 0.0129,-116.1822 0,-174.4997 -0.24478,-7.3311 0.49212,-14.8854 -0.37302,-22.0755 -33.56729,-0.5165 -67.29907,-0.074 -100.92963,-0.2214 -69.61669,0 -139.23338,0 -208.85008,0 l -0.61951,0.297 z"
       id="path121" />
    <path
       style="fill:#00ffff;stroke-width:0.687007;stroke-miterlimit:10"
       d="m 249.63574,1526.2461 c -0.51654,33.5673 -0.0738,67.299 -0.22139,100.9296 0,115.6462 0,231.2923 0,346.9385 2.9316,2.291 8.17709,0.3637 11.99175,0.9996 99.387,0 198.77398,0 298.16097,0 2.29106,-2.9316 0.36375,-8.1771 0.99965,-11.9917 0,-31.3734 0,-62.7467 0,-94.12 -5.90209,-2.4478 0.86528,0.8862 0,-4.122 -0.0159,-102.0138 0.009,-204.1689 0,-306.4051 -0.24682,-10.7657 0.49488,-21.756 -0.37302,-32.3805 -15.70515,-0.5164 -31.57468,-0.074 -47.34309,-0.2214 -2.29105,2.9316 -0.36374,8.1771 -0.99965,11.9917 1.40996,5.5526 -6.03747,2.2478 -9.30545,3.1224 -5.35156,1.1047 -7.92035,-0.5733 -6.55743,-6.183 -0.55454,-3.2872 2.06682,-10.4452 -3.74768,-8.9311 -69.15869,0 -138.31737,0 -207.47606,0 -2.29105,2.9316 -0.36375,8.1771 -0.99965,11.9917 1.42735,5.4555 -5.73452,2.3217 -8.96195,3.1224 -5.37194,1.2396 -7.47452,-0.7901 -6.21393,-6.183 -0.55453,-3.2872 2.06683,-10.4452 -3.74767,-8.9311 -5.02097,0.2567 -10.33448,-0.5088 -15.2054,0.373 z m 28.25853,226.9645 c 4.79835,-0.5515 9.01264,-0.519 7.24443,5.4961 -0.75778,3.3848 2.34784,10.633 -3.43503,8.9928 -3.31459,-0.8281 -10.01693,1.7317 -11.05384,-1.374 0,-4.3717 0,-8.7433 0,-13.1149 2.41482,0 4.82963,0 7.24444,0 z m 227.39926,0 c 4.79835,-0.5515 9.01265,-0.519 7.24444,5.4961 -0.75779,3.3848 2.34783,10.633 -3.43504,8.9928 -3.31459,-0.8281 -10.01693,1.7317 -11.05383,-1.374 0,-4.3717 0,-8.7433 0,-13.1149 2.41481,0 4.82962,0 7.24443,0 z"
       id="path122" />
    <path
       style="fill:#00ffff;stroke-width:0.687007;stroke-miterlimit:10"
       d="m 572.52896,1903.4128 c -0.51654,33.5673 -0.0738,67.2991 -0.2214,100.9297 0.19769,16.6722 -0.39555,33.5242 0.29694,50.084 11.17969,0.8856 22.95656,0.1277 34.36605,0.3801 5.48916,0.815 2.1547,-6.7454 3.06067,-9.9307 0,-46.9455 0,-93.891 0,-140.8364 -2.82534,-2.2738 -7.93389,-0.3904 -11.64826,-0.9997 -3.55624,-2.4261 -7.29857,3.1148 -6.21392,2.0141 -0.64385,-4.1895 -7.45261,-1.0349 -10.61775,-2.0141 -2.96142,0.2278 -6.21124,-0.4688 -9.02233,0.373 z"
       id="path123" />
    <path
       style="fill:#00ffff;stroke-width:0.687007;stroke-miterlimit:10"
       d="m 245.5137,1981.7316 c -0.51654,33.5673 -0.0738,67.2991 -0.2214,100.9296 0,40.3045 0,80.6088 0,120.9133 2.93161,2.291 8.1771,0.3637 11.99176,0.9996 8.59788,0 17.19575,0 25.79362,0 0.25399,12.0339 -0.50036,24.2969 0.37302,36.19 33.5673,0.5165 67.29907,0.074 100.92963,0.2214 38.24338,0 76.48676,0 114.73014,0 2.29105,-2.9316 0.36374,-8.1771 0.99965,-11.9918 -1.00367,-3.193 2.34166,-10.4856 -2.37366,-10.6177 -5.82735,1.5805 -6.71163,-1.7821 -5.87042,-6.8701 0.47099,-3.4426 -0.96775,-8.795 0.68701,-11.0538 5.74563,0 11.49126,0 17.23689,0 0.89883,3.0875 -1.93808,9.2301 1.68666,10.3051 16.21365,-0.2003 32.60868,0.3975 48.71,-0.297 0.88562,-11.1797 0.1277,-22.9565 0.38012,-34.366 0,-28.6253 0,-57.2506 0,-85.8759 -0.005,-28.6014 0.003,-57.9989 0,-86.9063 -0.2546,-7.2144 0.50563,-14.6595 -0.37302,-21.732 -16.16316,-0.5164 -32.49069,-0.074 -48.7171,-0.2214 -2.7653,2.1072 0.5863,8.4725 -1.68666,10.3051 -4.60062,0 -9.20124,0 -13.80186,0 -0.89883,-3.0875 1.93808,-9.2302 -1.68666,-10.3051 -69.15869,0 -138.31737,0 -207.47606,0 -2.7653,2.1072 0.5863,8.4725 -1.68666,10.3051 -4.60062,0 -9.20124,0 -13.80186,0 -0.89883,-3.0875 1.93808,-9.2302 -1.68665,-10.3051 -8.00838,0.2556 -16.27239,-0.5038 -24.13649,0.373 z"
       id="path124" />
    <path
       style="fill:#00ffff;stroke-width:0.687007;stroke-miterlimit:10"
       d="m 572.52896,2122.568 c -0.51652,28.5293 -0.0739,57.223 -0.2214,85.8155 2.9316,2.291 8.1771,0.3637 11.99176,0.9996 9.61994,-0.25 19.46756,0.5017 28.94553,-0.373 0.51652,-28.5292 0.0739,-57.2229 0.2214,-85.8155 -2.71259,-2.2679 -7.71032,-0.3916 -11.30877,-0.9972 -3.1229,0.027 -7.19533,-0.1951 -9.79925,0.8886 -5.44798,-1.88 -11.63661,-0.3782 -17.3335,-0.891 -0.8593,0.066 -1.75834,-0.2311 -2.49577,0.373 z"
       id="path125" />
    <path
       style="fill:#00ffff;stroke-width:0.687007;stroke-miterlimit:10"
       d="m 690.00713,2037.3792 c -0.51379,33.2239 -0.0798,66.6119 -0.2162,99.8991 0.27705,20.5972 -0.51087,41.2557 0.73682,61.8158 -0.40581,1.2128 2.56403,1.3294 0.51928,1.6585 -2.13921,3.4858 -0.70799,8.2231 -1.23406,12.1447 0.18298,10.4085 -0.50816,21.0362 0.34579,31.3018 33.45281,0.5164 67.07001,0.074 100.58612,0.2214 12.02409,-0.2517 24.27655,0.5014 36.1591,-0.373 0.51654,-33.5673 0.0738,-67.2991 0.2214,-100.9297 0,-35.0373 0,-70.0746 0,-105.112 -2.9316,-2.291 -8.1771,-0.3637 -11.99176,-0.9996 -41.44941,0 -82.89883,0 -124.34824,0 l -0.61952,0.2969 z m 39.93764,156.8898 c 4.79835,-0.5515 9.01264,-0.519 7.24443,5.4961 -0.65906,3.2545 2.22063,10.0478 -3.43503,8.3058 -3.31459,-0.8281 -10.01693,1.7317 -11.05383,-1.3741 0,-4.1426 0,-8.2852 0,-12.4278 2.41481,0 4.82962,0 7.24443,0 z"
       id="path126" />
    <path
       style="fill:#00ffff;stroke-width:0.687007;stroke-miterlimit:10"
       d="m 737.4106,1642.3502 c -0.51654,33.5673 -0.0738,67.2991 -0.2214,100.9297 0,79.9218 0,159.8436 0,239.7654 2.93161,2.291 8.1771,0.3637 11.99176,0.9996 39.17099,-0.1988 78.35667,0.4371 117.51842,-0.4388 1.40224,0.8271 3.71088,-1.4012 3.80001,-1.3324 1.96042,2.553 6.19443,1.0377 9.01934,1.6247 23.4213,0.28 46.84568,0.089 70.26823,0.1465 2.29105,-2.9316 0.36374,-8.1771 0.99965,-11.9918 4.99422,-0.8659 11.58247,-0.1377 17.20603,-0.3743 4.46593,-0.2565 9.16409,0.5088 13.48788,-0.373 0.51654,-33.5673 0.0738,-67.2991 0.2214,-100.9297 0,-36.1823 0,-72.3647 0,-108.547 -2.9316,-2.2911 -8.1771,-0.3638 -11.99176,-0.9997 -6.30785,0 -12.6157,0 -18.92355,0 0,-5.5166 0,-11.0333 0,-16.5499 10.20155,-0.2552 20.6331,0.5015 30.69391,-0.373 0.51654,-33.5673 0.0738,-67.2991 0.2214,-100.9296 -2.9316,-2.2911 -8.1771,-0.3638 -11.99176,-0.9997 -77.17377,0 -154.34754,0 -231.52131,0 l -0.61952,0.297 z"
       id="path127" />
  </g>
</svg>
