<?xml version="1.0" encoding="UTF-8" standalone="no"?>
<svg
   version="1.1"
   viewBox="0 0 3246.06 3223.05"
   id="svg7674"
   sodipodi:docname="4.svg"
   inkscape:version="1.3.2 (091e20e, 2023-11-25)"
   xmlns:inkscape="http://www.inkscape.org/namespaces/inkscape"
   xmlns:sodipodi="http://sodipodi.sourceforge.net/DTD/sodipodi-0.dtd"
   xmlns="http://www.w3.org/2000/svg"
   xmlns:svg="http://www.w3.org/2000/svg">
  <defs
     id="defs7674" />
  <sodipodi:namedview
     id="namedview7674"
     pagecolor="#ffffff"
     bordercolor="#000000"
     borderopacity="0.25"
     inkscape:showpageshadow="2"
     inkscape:pageopacity="0.0"
     inkscape:pagecheckerboard="0"
     inkscape:deskcolor="#d1d1d1"
     inkscape:zoom="0.26582048"
     inkscape:cx="1642.0857"
     inkscape:cy="944.24628"
     inkscape:window-width="1632"
     inkscape:window-height="939"
     inkscape:window-x="0"
     inkscape:window-y="25"
     inkscape:window-maximized="0"
     inkscape:current-layer="svg7674" />
  <g
     inkscape:groupmode="layer"
     id="layer1"
     inkscape:label="main"
     style="display:none">
    <path
       style="fill:#00ffff;stroke-width:0.534155;stroke-miterlimit:10"
       d="m 2578.0828,1107.4363 -0.015,-11.0837 -15.2084,-19.7346 -15.2084,-19.7345 v -91.50319 -91.50316 h 15.4905 15.4905 v 1.60246 c 0,1.06831 0.2671,1.60247 0.8012,1.60247 0.5342,0 0.8013,-0.53416 0.8013,-1.60247 v -1.60246 h 42.7323 42.7324 v 103.89309 103.89306 h -9.6148 -9.6148 v 18.4284 18.4283 h -34.1859 -34.1859 z"
       id="path7836" />
    <path
       style="fill:#00ffff;stroke-width:0.403621;stroke-miterlimit:10"
       d="m 2547.4533,834.08258 v -32.08786 h 1.8163 c 1.3454,0 1.8163,-0.15697 1.8163,-0.60543 0,-0.44847 -0.4709,-0.60543 -1.8163,-0.60543 h -1.8163 V 747.10228 693.4207 h 49.8472 49.8471 v 4.84345 c 0,2.95988 0.157,4.84345 0.4037,4.84345 0.2676,0 0.4036,25.09176 0.4036,74.46805 v 74.46806 h -1.0091 -1.009 v 7.06336 7.06337 h -32.8951 -32.8951 v -1.41267 c 0,-0.98663 -0.1826,-1.41268 -0.6055,-1.41268 -0.4228,0 -0.6054,0.42605 -0.6054,1.41268 v 1.41267 h -15.7412 -15.7412 z"
       id="path7837" />
    <path
       style="fill:#00ffff;stroke-width:0.403621;stroke-miterlimit:10"
       d="m 2094.5906,642.16084 v -52.06709 h 167.9063 167.9063 v 46.82002 46.82003 h -4.6416 -4.6417 v 5.24707 5.24707 h -76.6879 -76.688 v -4.84345 -4.84345 h -8.6779 -8.6778 v 4.84345 4.84345 h -77.8988 -77.8989 z"
       id="path7838" />
    <path
       style="fill:#00ffff;stroke-width:0.428162;stroke-miterlimit:10"
       d="m 2027.5623,914.55455 v -42.81622 h 15.4138 15.4139 v 42.81622 42.81623 h -15.4139 -15.4138 z"
       id="path7839" />
    <path
       style="fill:#00ffff;stroke-width:0.428162;stroke-miterlimit:10"
       d="m 2026.2875,1083.5716 c 0.01,-10.8914 0.2899,-28.5691 0.6326,-39.2839 0.3575,-11.1818 0.627,-32.8428 0.6326,-50.84426 l 0.01,-31.36288 h 15.4138 15.4139 v 70.64674 70.6468 h -16.0561 -16.0561 z"
       id="path7840" />
    <path
       style="fill:#00ffff;stroke-width:0.654;stroke-miterlimit:10"
       d="m 2267.746,1109.5115 v -29.757 h -8.829 -8.829 v 8.175 8.175 h -92.868 -92.868 V 976.74945 857.3944 h -12.3806 c -12.3411,0 -12.3812,-0.005 -12.5895,-1.47151 -0.2032,-1.43067 -0.4494,-1.47656 -8.8745,-1.65398 l -8.6655,-0.18248 v 1.65398 1.65399 h -17.331 -17.331 v -77.49904 -77.49904 h 221.7061 221.7061 v 37.27802 37.27802 h -2.289 c -1.2589,0 -2.289,0.2943 -2.289,0.654 0,0.3597 1.0301,0.654 2.289,0.654 h 2.289 v 37.27802 37.27801 h -4.905 -4.905 v 8.82901 8.829 h 4.905 4.905 v 103.98605 103.98605 h -4.905 -4.905 v 8.829 8.829 h 4.905 4.905 v 21.582 21.582 h -81.423 -81.4231 z m 0,-247.8661 v -8.82901 h -8.829 -8.829 v 8.82901 8.829 h 8.829 8.829 z"
       id="path7841" />
    <path
       style="fill:#00ffff;stroke-width:0.317124;stroke-miterlimit:10"
       d="m 1986.9421,641.38384 v -51.21557 h 31.2368 31.2367 v 1.10994 c 0,0.89852 0.1208,1.10993 0.6343,1.10993 0.5134,0 0.6342,-0.21141 0.6342,-1.10993 v -1.10994 h 18.3932 18.3932 v 51.21557 51.21558 h -24.1014 -24.1015 v -3.8055 -3.80549 h -8.7209 -8.7209 v 3.80549 3.8055 h -17.4418 -17.4419 z"
       id="path7842" />
    <path
       style="fill:#00ffff;stroke-width:0.317124;stroke-miterlimit:10"
       d="m 1830.2827,666.2781 v -76.10983 h 36.6279 36.6279 v 2.06131 c 0,1.84989 0.065,2.06131 0.6342,2.06131 0.5692,0 0.6343,-0.21142 0.6343,-2.06131 v -2.06131 h 37.5792 37.5792 v 17.6004 17.6004 h -5.074 -5.074 v 8.72092 8.72091 h 5.074 5.074 v 49.78852 49.78851 h -74.8413 -74.8414 z"
       id="path7843" />
    <path
       style="fill:#00ffff;stroke-width:0.425957;stroke-miterlimit:10"
       d="M 1675.9285,505.82415 V 495.3882 h 1.2779 c 0.9939,0 1.2779,-0.18931 1.2779,-0.85191 0,-0.6626 -0.284,-0.85192 -1.2779,-0.85192 h -1.2779 v -11.28786 -11.28787 h 178.4761 178.4761 v 22.57573 22.57574 h -178.4761 -178.4761 z"
       id="path7844" />
    <path
       style="fill:#00ffff;stroke-width:0.615918;stroke-miterlimit:10"
       d="m 1616.4771,505.66879 c 0,-10.06 0.048,-10.47061 1.2319,-10.47061 0.6775,0 1.2318,-0.27716 1.2318,-0.61592 0,-0.33875 -0.5543,-0.61592 -1.2318,-0.61592 -1.1962,0 -1.2319,-0.41061 -1.2319,-14.16611 v -14.16612 h -38.1869 -38.1869 V 304.26356 142.89301 h 241.7479 241.7478 v 132.11444 132.11444 h -16.3218 -16.3218 v -3.69551 -3.69551 h -8.9308 -8.9309 v 8.93081 8.93082 h 4.6194 4.6194 v 24.0208 24.02081 h -155.2114 -155.2113 v 14.16612 c 0,13.7555 -0.036,14.16611 -1.2319,14.16611 -0.6775,0 -1.2318,0.27717 -1.2318,0.61592 0,0.33876 0.5543,0.61592 1.2318,0.61592 1.1836,0 1.2319,0.41061 1.2319,10.47061 v 10.47061 h -13.2423 -13.2422 v -2.15572 c 0,-1.18564 -0.2772,-2.15571 -0.6159,-2.15571 -0.3388,0 -0.6159,0.97007 -0.6159,2.15571 v 2.15572 h -13.8582 -13.8582 z m 150.2841,-97.00711 v -8.93081 h -8.9308 -8.9309 v 8.93081 8.93082 h 8.9309 8.9308 z m 0,-226.65787 V 173.073 h -8.9308 -8.9309 v 8.93081 8.93081 h 8.9309 8.9308 z m 223.5783,0 V 173.073 h -8.9309 -8.9308 v 8.93081 8.93081 h 8.9308 8.9309 z"
       id="path7845" />
    <path
       style="fill:#00ffff;stroke-width:0.481472;stroke-miterlimit:10"
       d="m 1313.6958,440.78744 c 0,-16.20956 0.1667,-24.7958 0.4815,-24.7958 0.3031,0 0.4815,-3.20982 0.4815,-8.66649 v -8.6665 h -2.4074 -2.4074 V 293.6978 188.73695 h 2.4074 2.4074 v -8.90723 c 0,-7.59656 -0.1063,-8.90723 -0.7222,-8.90723 -0.6274,0 -0.7223,-2.08638 -0.7223,-15.88857 v -15.88857 h 110.4978 110.4978 v 16.12931 16.1293 h -5.7777 -5.7776 v 8.66649 8.6665 h 5.7776 5.7777 V 294.17927 399.6216 h -10.7188 -10.7187 l -7.009,7.10171 c -3.8549,3.90594 -9.5751,9.87345 -12.7115,13.26113 l -5.7026,6.15943 -1.8462,-1.80283 c -1.4294,-1.3957 -1.9759,-1.67319 -2.4203,-1.22878 -0.4445,0.44441 -0.1177,0.96469 1.4468,2.30389 l 2.021,1.72984 -5.9013,6.35557 c -3.2456,3.49557 -8.6871,9.56662 -12.0921,13.49122 l -6.1909,7.13565 0.074,5.7274 0.074,5.7274 h -74.4093 -74.4094 z"
       id="path7846" />
    <path
       style="fill:#00ffff;stroke-width:0.277028;stroke-miterlimit:10"
       d="m 1467.8341,505.43803 v -10.94262 h 1.6622 c 1.5883,0 1.6622,-0.0308 1.6622,-0.69257 0,-0.66179 -0.074,-0.69257 -1.6622,-0.69257 h -1.6622 v -18.00854 -18.00854 l 5.0206,-5.88515 c 2.7614,-3.23682 7.9037,-9.02362 11.4275,-12.85954 l 6.4068,-6.9744 2.0069,1.97948 c 1.9004,1.8743 2.0324,1.95409 2.4849,1.50161 0.4525,-0.45248 0.3718,-0.58465 -1.518,-2.48719 l -1.996,-2.00932 5.6057,-6.06699 c 3.6008,-3.89713 7.5378,-7.78494 11.0078,-10.87043 l 5.402,-4.80345 4.6402,-5.7e-4 4.6403,-5.8e-4 v 4.29394 4.29393 h 5.5405 5.5406 v 24.23997 24.23998 h -1.1081 -1.1081 v 25.34808 25.34808 h -15.5136 -15.5136 v -1.52365 c 0,-1.33897 -0.067,-1.52366 -0.5541,-1.52366 -0.4869,0 -0.554,0.18469 -0.554,1.52366 v 1.52365 h -15.9291 -15.9292 z"
       id="path7847" />
    <path
       style="fill:#00ffff;stroke-width:0.277028;stroke-miterlimit:10"
       d="m 1538.4763,493.52581 v -22.85483 h 37.1218 37.1218 v 11.63519 11.63519 h -0.9696 c -0.8495,0 -0.9696,0.0857 -0.9696,0.69257 0,0.60682 0.1201,0.69257 0.9696,0.69257 h 0.9696 v 10.52707 10.52707 h -37.1218 -37.1218 z"
       id="path7848" />
    <path
       style="fill:#00ffff;stroke-width:0.277028;stroke-miterlimit:10"
       d="m 1238.7318,506.96168 v -11.91221 h 1.6622 c 1.4774,0 1.6621,-0.0616 1.6621,-0.55406 0,-0.49249 -0.1847,-0.55405 -1.6621,-0.55405 h -1.6622 v -10.8041 -10.80411 h 112.4735 112.4734 v 10.38856 10.38856 h -1.5236 c -1.4406,0 -1.5237,0.0378 -1.5237,0.69257 0,0.6548 0.083,0.69257 1.5237,0.69257 h 1.5236 v 10.94262 10.94261 h -21.3312 -21.3311 v -8.03381 -8.03382 h -28.2569 -28.2569 v 9.28044 9.28045 h -62.8854 -62.8854 z"
       id="path7849" />
    <path
       style="fill:#00ffff;stroke-width:0.30523;stroke-miterlimit:10"
       d="M 1089.8229,493.55653 V 469.7486 h 72.1868 72.1868 v 12.05658 12.05658 h -2.1366 c -1.9331,0 -2.1366,0.0581 -2.1366,0.61046 0,0.55232 0.2035,0.61045 2.1366,0.61045 h 2.1366 v 11.14089 11.14089 h -13.5827 -13.5827 v -1.67877 c 0,-1.47527 -0.074,-1.67876 -0.6105,-1.67876 -0.5364,0 -0.6104,0.20349 -0.6104,1.67876 v 1.67877 h -57.9937 -57.9936 z"
       id="path7850" />
    <path
       style="fill:#00ffff;stroke-width:0.548146;stroke-miterlimit:10"
       d="M 1089.9876,302.85046 V 143.06601 h 106.0662 106.0661 v 13.70364 13.70364 h -2.4666 -2.4667 v 9.0444 9.04441 h 2.4667 2.4666 v 104.96988 104.96989 h -2.4666 -2.4667 v 8.77033 8.77033 h 5.7556 5.7555 v 23.29619 23.29619 h -109.3551 -109.355 z"
       id="path7851" />
    <path
       style="fill:#00ffff;stroke-width:0.548146;stroke-miterlimit:10"
       d="m 1023.662,468.66451 v -48.78496 h 5.7555 5.7555 v -9.0444 -9.04441 h -5.7555 -5.7555 V 297.369 192.94726 h 5.7555 5.7555 v -8.77033 -8.77033 h -5.7555 -5.7555 v -16.1703 -16.17029 h 28.2295 28.2295 v 16.17029 16.1703 h -4.9334 -4.9333 v 8.77033 8.77033 h 4.9333 4.9334 V 297.369 401.79074 h -4.9334 -4.9333 v 9.04441 9.0444 h 4.9333 4.9334 v 48.78496 48.78496 h -14.8 c -14.4345,0 -14.7999,-0.0271 -14.7999,-1.09629 0,-0.60905 -0.3654,-1.09629 -0.8222,-1.09629 -0.4568,0 -0.8222,0.48724 -0.8222,1.09629 0,1.06452 -0.3655,1.09629 -12.6074,1.09629 h -12.6073 z"
       id="path7852" />
    <path
       style="fill:#00ffff;stroke-width:0.548146;stroke-miterlimit:10"
       d="m 909.43462,142.4183 c -0.55812,14.47366 -0.0781,29.13256 -0.23874,43.67714 0.52131,2.70889 -0.27984,5.27356 0,8.49626 0.15481,14.94856 -0.30817,30.03314 0.23019,44.89726 3.47395,1.19032 7.90251,0.15521 11.73266,0.50247 30.87887,0 61.75774,0 92.63657,0 2.2604,-2.01472 0.3894,-6.32283 1,-9.22212 0,-29.23443 0,-58.46887 0,-87.7033 -2.0147,-2.26033 -6.3229,-0.38941 -9.2221,-0.99994 -31.79249,0 -63.58494,0 -95.37739,0 l -0.49746,0.23019 z"
       id="path7854" />
    <path
       style="fill:#00ffff;stroke-width:0.483048;stroke-miterlimit:10"
       d="m 909.55446,246.17632 c -0.5842,9.7899 -0.0827,19.77817 -0.25001,29.64426 -0.0845,7.19507 0.14911,14.26063 0,21.25412 0,15.45755 0,30.91509 0,46.37264 1.72253,2.18407 5.64777,0.44238 8.24578,1.00006 13.17483,-0.13236 26.46365,0.26481 39.56718,-0.19876 11.18103,0.45906 22.93753,0.0698 34.33921,0.19876 7.70033,-0.13211 15.51448,0.26449 23.14348,-0.1988 1.2911,-2.50553 0.1986,-6.09555 0.5599,-9.01308 0,-29.46595 0,-58.9319 0,-88.39784 -1.7226,-2.18407 -5.6478,-0.44239 -8.2458,-1.00006 -32.20325,0 -64.40647,0 -96.60969,0 l -0.44024,0.1988 z"
       id="path7855" />
    <path
       style="fill:#00ffff;stroke-width:0.483048;stroke-miterlimit:10"
       d="m 909.55446,350.0317 c -0.5842,9.78991 -0.0827,19.77818 -0.25001,29.64426 0,45.88959 0,91.77917 0,137.66876 1.72253,2.18407 5.64777,0.44239 8.24578,1.00006 32.20322,0 64.40644,0 96.60967,0 2.1841,-1.72252 0.4424,-5.64777 1.0001,-8.24578 0,-53.13531 0,-106.27063 0,-159.40594 -1.7226,-2.18407 -5.6478,-0.44239 -8.2458,-1.00006 -16.26266,0 -32.52528,0 -48.78791,0 -4.49026,0.10302 -9.7119,-0.0743 -14.49145,0 -11.24263,0.13233 -22.59927,-0.2648 -33.77057,0.1988 z"
       id="path7856" />
    <path
       style="fill:#00ffff;stroke-width:0.665088;stroke-miterlimit:10"
       d="m 810.90644,138.33449 c -42.51068,0.10421 -85.02156,0.14749 -127.532,0.33384 -2.26989,2.82865 -0.37221,7.93742 -0.99633,11.64165 0.32321,11.70042 -0.66087,23.52488 0.63521,35.15746 0.93165,1.75706 -0.65427,4.30511 -0.18836,6.479 -0.83243,66.14778 -0.27675,132.30782 -0.44685,198.46045 -0.005,42.19248 0.0248,83.92696 0,126.03426 0.38211,4.12327 6.77524,1.0563 9.64638,1.99786 70.05597,0 140.11196,0 210.16793,0 2.37583,-2.5473 0.30878,-7.52993 1.00024,-10.97656 0,-71.60785 0,-143.2157 0,-214.82355 -0.004,-27.60063 0.003,-55.92393 0,-83.80114 -0.0587,-23.20056 0.0283,-46.32051 0,-69.6836 -2.54871,-2.37447 -7.53145,-0.29521 -10.97914,-0.9805 -27.10236,0.0536 -54.20472,0.10722 -81.30708,0.16083 z m -15.12816,34.92364 c 4.10804,-0.008 9.56764,-1.36662 7.64591,4.65562 -0.7921,3.19668 1.6741,9.65169 -1.33017,10.63622 -4.65388,0 -9.30777,0 -13.96166,0 0,-5.09728 0,-10.19456 0,-15.29184 2.54864,0 5.09728,0 7.64592,0 z m 0,226.13006 c 4.10804,-0.008 9.56764,-1.36662 7.64591,4.65562 -0.77686,3.43362 1.6229,10.04388 -1.33017,11.3013 -4.65388,0 -9.30777,0 -13.96166,0 0,-5.31897 0,-10.63795 0,-15.95692 2.54864,0 5.09728,0 7.64592,0 z"
       id="path7857" />
    <path
       style="fill:#00ffff;stroke-width:0.665088;stroke-miterlimit:10"
       d="m 568.98313,138.02013 c -2.37583,2.54731 -0.30878,7.52994 -1.00023,10.97656 -0.003,8.41092 0.08,16.96545 -0.60144,25.22919 2.74043,1.6908 9.2407,-1.59412 9.91268,1.6926 0,4.87558 0,9.75117 0,14.62675 -2.96072,0.88118 -8.99892,-1.90533 -9.97633,1.66532 0.19367,13.03628 -0.38386,26.24694 0.28614,39.17552 7.46816,0.95193 15.60716,0.11941 23.3271,0.39984 28.15541,0 56.31082,0 84.46623,0 2.37583,-2.54731 0.30878,-7.52994 1.00023,-10.97656 -0.032,-27.10171 5.6e-4,-53.78049 0,-80.94593 -2.81062,-2.29506 -7.92549,-0.51517 -11.6202,-1.2046 -31.92636,-0.70713 -63.86201,-0.65516 -95.79418,-0.63869 z"
       id="path7858" />
    <path
       style="fill:#00ffff;stroke-width:0.665088;stroke-miterlimit:10"
       d="m 567.54124,237.47163 c -0.52417,14.09949 -0.0714,28.36707 -0.22343,42.53059 0.7069,1.83006 -0.48442,6.57001 0,9.97633 0.24525,11.75958 -0.49152,23.74121 0.37022,35.3614 27.06904,0.52223 54.30507,0.074 81.43826,0.22343 8.98707,-0.25104 18.2006,0.49944 27.04779,-0.37022 0.52231,-27.17988 0.0738,-54.52681 0.22343,-81.7708 1.01275,-4.50003 -0.59261,-7.87125 -5.65585,-6.32094 -34.1412,0 -68.28241,0 -102.42362,0 l -0.60039,0.28614 z"
       id="path7859" />
    <path
       style="fill:#00ffff;stroke-width:0.665088;stroke-miterlimit:10"
       d="m 567.54124,330.58401 c -0.52758,9.88667 -0.0699,19.94288 -0.22343,29.89391 0.7069,1.83005 -0.48442,6.57001 0,9.97632 0.24466,9.98615 -0.49074,20.1939 0.37022,30.0407 2.8807,1.44946 9.8019,-1.99693 9.60611,2.21869 0.88821,2.79061 -2.15733,9.49949 2.33041,9.31124 31.92424,0 63.84848,0 95.77273,0 2.37583,-2.54731 0.30878,-7.52994 1.00023,-10.97656 0,-23.27809 0,-46.55619 0,-69.83428 -2.54731,-2.37583 -7.52994,-0.30879 -10.97656,-1.00023 -32.36764,0 -64.73527,0 -97.10291,0 l -0.60039,0.28613 z"
       id="path7860" />
    <path
       style="fill:#00ffff;stroke-width:0.665088;stroke-miterlimit:10"
       d="m 567.54124,417.0455 c -0.52611,11.11232 -0.0704,22.39358 -0.22343,33.57008 8.91784,10.44166 18.46811,20.60157 28.09716,30.48993 3.05283,1.44085 2.73436,3.4229 5.83664,5.79116 10.27482,10.45231 20.03492,21.51481 30.27451,31.91386 14.52273,1.8161 29.23276,1.86498 43.85427,2.28884 2.40849,-2.51592 0.31919,-7.53466 1.01712,-10.97656 -0.0204,-30.96662 -0.008,-61.45173 0,-92.44729 -2.54731,-2.37583 -7.52994,-0.30878 -10.97656,-1.00023 -32.36764,0 -64.73527,0 -97.10291,0 l -0.60039,0.28614 z"
       id="path7861" />
    <path
       style="fill:#00ffff;stroke-width:0.665088;stroke-miterlimit:10"
       d="m 455.30497,142.36399 c -0.63433,30.72523 -0.31181,61.61797 -0.57807,92.40764 -0.25115,57.19667 -0.38812,114.39419 -0.86382,171.58959 2.53278,2.39085 7.53215,0.31362 10.97656,1.00803 17.2005,0 34.40101,0 51.60151,0 1.83006,-0.7069 6.57001,0.48442 9.97632,0 11.48449,-0.19333 23.14346,0.385 34.5199,-0.28614 0.95194,-7.46817 0.11942,-15.60715 0.39985,-23.3271 -0.24289,-7.32619 0.48835,-14.87265 -0.37022,-22.05963 -0.72155,0.0863 1.20168,-5.75354 0.37022,-8.62666 0,-23.69075 0,-47.38149 0,-71.07224 -1.67792,-1.61963 0.8504,-5.92476 0.0175,-9.2813 1.04304,-43.2325 0.40864,-86.48427 0.44881,-129.72477 -2.55168,-2.37069 -7.52932,-0.30725 -10.97656,-0.99763 -31.58174,0 -63.16348,0 -94.74522,0 l -0.60039,0.28614 z"
       id="path7862" />
    <path
       style="fill:#00ffff;stroke-width:0.665088;stroke-miterlimit:10"
       d="m 352.0526,409.72953 c -0.54706,3.78581 -0.056,7.75024 -0.22343,11.60138 -3.36592,0.60848 -8.15897,-1.25158 -10.64142,1.00023 0,31.25915 0,62.51831 0,93.77746 2.54731,2.37583 7.52994,0.30878 10.97656,1.00024 10.78945,-0.20093 21.73995,0.4013 32.42956,-0.29748 10.30823,-10.71562 21.28994,-21.01271 31.18211,-31.98758 0.10354,-1.20836 4.35829,-3.67318 5.96411,-6.00559 8.89716,-9.54128 18.12717,-18.95128 26.48013,-28.88458 -0.17447,-13.36946 0.41776,-26.91119 -0.23336,-40.17354 -7.46788,-0.954 -15.60778,-0.11976 -23.32791,-0.40075 -8.21281,0.24366 -16.64646,-0.48941 -24.71999,0.37021 -1.64598,-0.51723 -7.28713,-0.37316 -10.5297,-0.37021 -12.37137,0.19287 -24.91691,-0.38454 -37.18025,0.28614 z"
       id="path7863" />
    <path
       style="fill:#00ffff;stroke-width:0.665088;stroke-miterlimit:10"
       d="m 77.371085,142.36399 c -0.522315,27.17988 -0.07374,54.52681 -0.223428,81.7708 0,97.3246 0,194.64921 0,291.97381 2.547307,2.37583 7.529934,0.30878 10.976557,1.00024 82.692656,0 165.385316,0 248.077976,0 2.37583,-2.54731 0.30878,-7.52994 1.00023,-10.97656 0,-34.02949 0,-68.05898 0,-102.08847 20.50603,0 41.01205,0 61.51808,0 1.83006,-0.7069 6.57001,0.48441 9.97633,0 13.03703,-0.19035 26.24628,0.38097 39.17551,-0.28614 0.95194,-7.46817 0.11942,-15.60715 0.39985,-23.3271 0.0404,-79.14448 0.54334,-158.28782 0.88461,-237.43137 -2.5371,-2.38597 -7.53148,-0.31192 -10.97655,-1.00542 -120.01079,0 -240.02158,0 -360.032362,0 l -0.600389,0.28614 z m 42.012285,34.88467 c 4.10804,-0.008 9.56764,-1.36662 7.64592,4.65562 -0.77687,3.43362 1.62289,10.04388 -1.33018,11.3013 -4.65389,0 -9.30777,0 -13.96166,0 0,-5.31897 0,-10.63795 0,-15.95692 2.54864,0 5.09728,0 7.64592,0 z m 226.4626,1.33018 c 4.14172,0.0696 9.89112,-1.4684 7.97846,4.65561 -0.77687,3.43363 1.6229,10.04388 -1.33017,11.30131 -4.87559,0 -9.75117,0 -14.62675,0 0,-5.31897 0,-10.63795 0,-15.95692 2.65948,0 5.31897,0 7.97846,0 z m -226.4626,225.46497 c 4.10804,-0.008 9.56764,-1.36662 7.64592,4.65562 -0.79211,3.19668 1.67409,9.65169 -1.33018,10.63621 -4.65389,0 -9.30777,0 -13.96166,0 0,-5.09728 0,-10.19455 0,-15.29183 2.54864,0 5.09728,0 7.64592,0 z"
       id="path7864" />
    <path
       style="fill:#00ffff;stroke-width:0.665088;stroke-miterlimit:10"
       d="m 350.72242,635.85959 c -0.44021,19.91467 -0.25112,39.99724 -0.0618,59.97416 -0.10959,1.74776 0.35013,4.04795 0.85417,5.3396 -1.86811,4.90245 -0.52392,10.58595 -1.00448,15.75297 0.16698,12.60673 -0.38855,25.3858 0.2748,37.88432 7.46816,0.9517 15.60715,0.1199 23.3271,0.39948 7.12128,-0.40788 14.52958,0.78108 21.50366,-0.77904 0.89752,-0.67848 2.40847,1.08732 3.79263,0.57819 14.61793,0.41768 29.24972,0.10006 43.8729,0.20122 2.37583,-2.54731 0.30878,-7.52994 1.00024,-10.97656 -0.20145,-16.10446 0.40109,-32.37052 -0.29877,-48.37479 -20.35414,-20.02791 -40.70862,-40.05547 -61.06344,-60.08269 -10.35964,-0.67403 -20.9668,-0.0898 -31.42023,-0.28708 l -0.60039,0.28614 z"
       id="path7865" />
    <path
       style="fill:#00ffff;stroke-width:0.665088;stroke-miterlimit:10"
       d="m 77.371085,760.23112 c -0.522315,27.17988 -0.07374,54.52681 -0.223428,81.7708 0,43.00906 0,86.0181 0,129.02715 2.547307,2.37583 7.529934,0.30878 10.976557,1.00024 82.027566,0 164.055146,0 246.082706,0 2.37583,-2.54731 0.30879,-7.52994 1.00024,-10.97656 0,-34.47288 0,-68.94577 0,-103.41865 36.02475,0 72.04951,0 108.07426,0 2.37583,-2.54731 0.30878,-7.52994 1.00024,-10.97656 0,-28.5988 0,-57.1976 0,-85.7964 -2.54731,-2.37583 -7.52994,-0.30879 -10.97656,-1.00023 -118.00239,0.009 -236.56292,-0.007 -354.824668,0 -0.421364,-0.10472 -0.744882,0.22329 -1.109347,0.37021 z m 43.342465,97.40298 c 4.10804,-0.008 9.56764,-1.36662 7.64591,4.65562 -0.79211,3.19669 1.6741,9.65169 -1.33017,10.63621 -4.65389,0 -9.30778,0 -13.96166,0 0,-5.09727 0,-10.19455 0,-15.29183 2.54864,0 5.09728,0 7.64592,0 z"
       id="path7866" />
    <path
       style="fill:#00ffff;stroke-width:0.665088;stroke-miterlimit:10"
       d="m 339.41592,860.65947 c -0.52214,27.06906 -0.0742,54.30504 -0.22343,81.43826 0.2503,10.31741 -0.49842,20.86072 0.37021,31.03832 17.55698,0.42748 35.28186,0.27535 52.90051,0.0468 1.60396,0.19767 4.6835,-0.47261 4.60366,-1.87836 1.11848,3.023 5.5561,1.46659 8.01724,2.00105 12.9131,-0.0737 25.99281,0.40471 38.7977,-0.23217 0.95194,-7.46816 0.11942,-15.60715 0.39985,-23.3271 0,-29.48558 0,-58.97117 0,-88.45675 -2.54731,-2.37583 -7.52994,-0.30879 -10.97656,-1.00023 -31.03746,0 -62.07492,0 -93.11238,0 l -0.60039,0.28613 z"
       id="path7867" />
    <path
       style="fill:#00ffff;stroke-width:0.665088;stroke-miterlimit:10"
       d="m 349.39224,977.04994 c -0.58517,11.9778 0.0301,24.03576 -0.22342,35.87966 0,22.3914 0,44.7827 0,67.174 2.5473,2.3758 7.52993,0.3088 10.97655,1.0002 27.71202,0 55.42403,0 83.13605,0 2.37583,-2.5473 0.30878,-7.5299 1.00024,-10.9766 0,-30.8157 0,-61.6315 0,-92.44724 -2.54731,-2.37583 -7.52994,-0.30879 -10.97656,-1.00023 -11.98127,0.2453 -24.18463,-0.49161 -36.02649,0.37021 -1.64598,-0.51723 -7.28713,-0.37316 -10.5297,-0.37021 -12.37137,0.19287 -24.91692,-0.38454 -37.18025,0.28614 z"
       id="path7869" />
    <path
       style="fill:#00ffff;stroke-width:0.665088;stroke-miterlimit:10"
       d="m 227.68107,975.05468 c -0.52229,27.06902 -0.0738,54.30512 -0.22343,81.43822 0.25162,8.1002 -0.5003,16.4273 0.37021,24.3875 25.76104,0.4997 51.68725,0.1309 77.5126,0.1546 13.35897,-0.3019 26.92932,0.3512 40.14193,-1.1187 0.85342,-10.8238 0.12283,-22.227 0.36619,-33.2737 0.003,-23.836 -0.0383,-47.19259 0,-70.95791 -2.54731,-2.37583 -7.52994,-0.30878 -10.97656,-1.00023 -35.47138,0 -70.94276,0 -106.41414,0 l -0.60039,0.28614 z"
       id="path7870" />
    <path
       style="fill:#00ffff;stroke-width:0.665088;stroke-miterlimit:10"
       d="m 77.371085,975.05468 c -0.522302,27.03612 -0.07381,54.23932 -0.223428,81.33952 0.254283,7.6233 -0.50395,15.4755 0.370215,22.9585 27.401178,0.5631 54.969068,0.1634 82.434578,0.3553 20.61774,0.034 41.23549,0.067 61.85324,0.1007 2.37827,-2.5452 0.30962,-7.5303 1.00153,-10.9766 0,-31.0491 0,-62.0983 0,-93.14741 -2.54731,-2.37583 -7.52994,-0.30878 -10.97656,-1.00023 -44.56093,0 -89.12185,0 -133.682772,0 l -0.600389,0.28614 z"
       id="path7871" />
    <path
       style="fill:#00ffff;stroke-width:0.665088;stroke-miterlimit:10"
       d="m 77.371085,1085.4594 c -0.523036,19.5728 -0.07299,39.313 -0.223428,58.9499 2.616036,2.3017 7.538636,0.679 11.038909,1.4354 6.418819,0.037 13.046214,0.9659 19.336924,0.068 0.54706,-3.7859 0.056,-7.7503 0.22343,-11.6014 5.09728,0 10.19456,0 15.29184,0 0.23628,3.8883 -0.47662,7.9913 0.37021,11.7416 27.45598,0.5861 55.07912,0.2069 82.59952,0.426 42.28785,0.1095 84.57566,0.244 126.86306,0.4691 2.38597,-2.5371 0.31192,-7.5315 1.00543,-10.9766 -0.63527,-4.6241 6.61185,-1.3657 9.64118,-2.3252 5.41002,-1.4212 6.53321,1.4444 5.65065,6.3157 -0.49136,3.9508 -0.43906,8.7908 4.99077,6.9861 29.70728,0 59.41456,0 89.12184,0 2.37583,-2.5474 0.30878,-7.53 1.00024,-10.9766 -0.24507,-11.0945 0.49127,-22.411 -0.37022,-33.3661 -0.90266,0.3249 1.3082,-5.6425 0.37022,-8.6228 -0.83754,-2.6842 2.08081,-9.1713 -2.33041,-8.893 -30.59407,0 -61.18814,0 -91.7822,0 -2.3692,2.4377 -0.31391,7.3049 -1.00024,10.6415 -5.09727,0 -10.19455,0 -15.29183,0 -0.60848,-3.366 1.25158,-8.159 -1.00023,-10.6415 -69.61259,0 -139.22517,0 -208.83776,0 -3.07711,1.7221 1.27356,8.9044 -2.33041,9.3113 -4.65389,0 -9.30777,0 -13.96166,0 -0.87142,-2.7999 2.13258,-9.499 -2.33041,-9.3113 -9.31093,0.2521 -18.877635,-0.4983 -28.045425,0.3703 z"
       id="path7872" />
    <path
       style="fill:#00ffff;stroke-width:0.665088;stroke-miterlimit:10"
       d="m 72.715466,1149.9729 c -0.522315,27.1799 -0.07374,54.5268 -0.223428,81.7708 0,41.2355 0,82.471 0,123.7065 2.547307,2.3758 7.529935,0.3088 10.976557,1.0002 110.404675,0 220.809355,0 331.214025,0 2.37583,-2.5473 0.30878,-7.5299 1.00023,-10.9766 0,-40.5703 0,-81.1407 0,-121.7111 -2.5473,-2.3759 -7.52993,-0.3088 -10.97655,-1.0003 -10.4286,0.2489 -21.08227,-0.4977 -31.37087,0.3703 -1.64599,-0.5173 -7.28713,-0.3732 -10.5297,-0.3703 -10.5297,0 -21.0594,0 -31.5891,0 0,-24.0531 0,-48.1063 0,-72.1595 -2.54731,-2.3758 -7.52994,-0.3087 -10.97656,-1.0002 -82.24927,0 -164.49853,0 -246.747801,0 l -0.600389,0.2862 z"
       id="path7873" />
    <path
       style="fill:#00ffff;stroke-width:0.665088;stroke-miterlimit:10"
       d="m 421.88688,1223.1327 c -0.52167,27.0691 -0.0748,54.3049 -0.22343,81.4382 0.19207,16.9163 -0.38328,34.0062 0.28614,50.8146 5.6909,0.9603 12.06266,0.1134 18.00639,0.3998 5.43248,-0.3279 11.83322,0.554 17.40401,-0.3702 0.52168,-27.0691 0.0748,-54.3049 0.22343,-81.4383 -0.19207,-16.9163 0.38328,-34.0061 -0.28614,-50.8145 -5.24622,-0.9632 -11.17677,-0.1115 -16.67621,-0.3999 -5.86407,0.3197 -12.7346,-0.5467 -18.73419,0.3703 z"
       id="path7874" />
    <path
       style="fill:#00ffff;stroke-width:0.665088;stroke-miterlimit:10"
       d="m 338.08574,1149.9729 c -0.52276,22.3025 -0.0734,44.7723 -0.22343,67.1389 2.54731,2.3758 7.52994,0.3088 10.97656,1.0002 7.99114,-0.2435 16.20301,0.4892 24.0549,-0.3702 1.64598,0.5172 7.28713,0.3732 10.5297,0.3702 24.4798,0.034 48.87935,-0.059 73.15972,0 2.37583,-2.5473 0.30878,-7.5299 1.00023,-10.9765 -0.24749,-7.7686 0.49831,-15.7617 -0.37021,-23.3899 0.51723,-1.6459 0.37316,-7.2871 0.37021,-10.5297 -0.24331,-7.7694 0.48892,-15.7595 -0.37021,-23.3898 -27.06909,-0.5219 -54.305,-0.074 -81.43826,-0.2234 -12.4822,0.193 -25.13861,-0.3845 -37.5128,0.2862 z"
       id="path7875" />
    <path
       style="fill:#00ffff;stroke-width:0.665088;stroke-miterlimit:10"
       d="m 527.63594,1151.3031 c -0.38487,15.4116 -0.36429,30.9995 0.0286,46.4679 -0.81435,1.6451 2.36195,3.3673 1.31849,3.1643 -2.53869,2.2824 -0.9697,6.5842 -1.53092,9.6204 0.10952,13.4496 -0.40356,27.0697 0.24657,40.4109 7.46816,0.9519 15.60715,0.1194 23.3271,0.3998 6.88291,-0.2424 13.98571,0.4877 20.72945,-0.3702 0.52383,-16.5382 0.0726,-33.2442 0.22343,-49.8465 -0.0126,-16.07 0.009,-32.8694 0,-49.2166 -2.54731,-2.3758 -7.52994,-0.3088 -10.97656,-1.0002 -11.08981,0.2448 -22.41775,-0.4909 -33.36613,0.3702 z"
       id="path7876" />
    <path
       style="fill:#00ffff;stroke-width:0.665088;stroke-miterlimit:10"
       d="m 578.84774,1151.3031 c -0.52395,16.0948 -0.0725,32.3574 -0.22342,48.5164 0.012,16.5135 -0.009,33.756 0,50.5467 2.5473,2.3758 7.52993,0.3088 10.97655,1.0002 82.47097,0 164.94193,0 247.41289,0 2.37583,-2.5473 0.30878,-7.5299 1.00023,-10.9765 0,-29.4856 0,-58.9712 0,-88.4568 -2.54731,-2.3758 -7.52994,-0.3088 -10.97656,-1.0002 -82.47096,0 -164.94192,0 -247.41288,0 l -0.60039,0.2861 z"
       id="path7877" />
    <path
       style="fill:#00ffff;stroke-width:0.665088;stroke-miterlimit:10"
       d="m 527.63594,1087.4546 c -0.27619,8.6012 -0.55587,17.4319 0.16497,26.0606 -0.10451,1.5365 2.96415,1.4017 0.83526,1.7692 -2.26844,2.9648 -0.64939,7.415 -1.22034,10.8817 0.21853,6.1646 -0.47825,12.5387 0.36689,18.5628 10.55199,0.5262 21.27311,0.07 31.88917,0.2234 2.36976,-2.4383 0.31293,-7.3067 1.00023,-10.644 2.56772,-1.532 7.9654,-0.2339 11.63645,-0.6625 5.87946,-1.7798 2.99925,5.2 3.65539,8.6435 -0.59713,4.8707 6.15865,1.8231 8.98129,2.663 46.1128,0 92.2256,0 138.33839,0 2.37583,-2.5473 0.30878,-7.5299 1.00024,-10.9766 -0.19047,-15.4756 0.38112,-31.1236 -0.28615,-46.4915 -7.46816,-0.9519 -15.60715,-0.1194 -23.32709,-0.3998 -41.23548,0 -82.47097,0 -123.70645,0 -3.17225,1.6318 1.65366,9.2675 -2.99549,8.6462 -4.43219,0 -8.86438,0 -13.29658,0 -0.69839,-2.8409 2.08211,-9.6603 -2.99549,-8.6462 -9.9789,0.2515 -20.20365,-0.4979 -30.04069,0.3702 z"
       id="path7878" />
    <path
       style="fill:#00ffff;stroke-width:0.665088;stroke-miterlimit:10"
       d="m 730.4879,1087.4546 c -0.52331,18.7553 -0.073,37.678 -0.22343,56.4975 2.54731,2.3758 7.52994,0.3087 10.97656,1.0002 17.2923,0 34.5846,0 51.8769,0 2.37582,-2.5473 0.30878,-7.5299 1.00023,-10.9766 -0.19047,-15.4756 0.38113,-31.1236 -0.28614,-46.4915 -7.46816,-0.9519 -15.60716,-0.1194 -23.3271,-0.3998 -13.25878,0.1901 -26.69005,-0.3826 -39.84061,0.2861 z"
       id="path7879" />
    <path
       style="fill:#00ffff;stroke-width:0.665088;stroke-miterlimit:10"
       d="m 562.88562,1015.6251 c -0.52626,10.552 -0.0696,21.2731 -0.22343,31.8891 0.98157,2.091 4.4746,0.2607 1.0457,1.438 -2.47717,3.5904 -1.1094,8.6194 -1.66056,12.7625 0.12393,6.145 -0.50683,12.4969 0.31999,18.5006 27.17988,0.5223 54.52681,0.074 81.7708,0.2234 17.9143,-0.1905 36.00098,0.3812 53.80746,-0.2861 0.95194,-7.4682 0.11942,-15.6072 0.39985,-23.3271 -0.19015,-13.7022 0.38258,-27.5768 -0.28614,-41.1708 -7.46817,-0.9519 -15.60715,-0.1194 -23.3271,-0.3998 -37.02326,0 -74.04651,0 -111.06977,0 l -0.60038,0.2861 z"
       id="path7880" />
    <path
       style="fill:#00ffff;stroke-width:0.665088;stroke-miterlimit:10"
       d="m 800.19358,770.29578 c -3.62828,0.46107 -8.51116,-1.26356 -10.71727,2.68694 -5.46184,6.03916 -11.8473,11.50117 -16.79167,17.84766 -1.76692,-0.0825 -5.30139,4.32744 -7.53829,6.33212 -4.42792,4.74482 -9.81264,8.89452 -13.44187,14.24406 5.06893,7.17588 11.6064,13.49129 17.25571,20.31041 6.8422,7.44387 13.14933,15.61965 20.34257,22.59169 3.59233,0.44972 8.96385,-0.87973 11.46108,0.66509 0,4.87558 0,9.75116 0,14.62674 -5.09165,0 -10.18329,0 -15.27494,0 -0.44383,-4.22266 0.88799,-9.20919 -3.17782,-12.04493 -12.03468,-13.81793 -23.60042,-28.26277 -35.92802,-41.68909 -5.05109,3.50174 -9.23429,9.00237 -13.95572,13.25918 -2.45912,2.20752 -6.12405,6.31551 -7.29262,7.60883 -7.25719,6.57632 -14.08369,13.99841 -21.37709,20.46464 -0.22562,74.03468 -0.0322,148.16708 -0.0967,222.23938 2.5473,2.3758 7.52993,0.3088 10.97655,1.0002 28.26539,0 56.53079,0 84.79617,0 0.60849,3.3659 -1.25157,8.159 1.00024,10.6414 68.5041,0 137.00821,0 205.51231,0 2.3692,-2.4376 0.3139,-7.3048 1.0002,-10.6414 4.3335,-0.2385 8.8832,0.4795 13.0784,-0.3702 0.5223,-27.1799 0.074,-54.5268 0.2234,-81.7708 0,-42.12226 0,-84.24454 0,-126.3668 -1.7221,-3.07711 -8.9044,1.27356 -9.3112,-2.33041 -0.053,-31.83728 0.1287,-63.67758 -0.1689,-95.51293 -2.9252,-2.16379 -7.912,-0.4467 -11.62221,-1.09721 -66.31647,-0.88918 -132.63055,-2.33812 -198.95232,-2.69457 z"
       id="path7881" />
    <path
       style="fill:#00ffff;stroke-width:0.665088;stroke-miterlimit:10"
       d="m 1020.6652,786.83466 c -1.0015,22.5149 -1.1594,45.19815 -1.9498,67.77536 2.3097,2.41865 7.1566,0.33564 10.4102,1.02882 -0.081,3.41963 1.122,6.98534 6.0845,5.3207 9.9847,-0.25126 20.1957,0.49877 30.0407,-0.37021 -0.961,-5.1761 2.0187,-5.56657 6.5392,-4.95049 3.9507,0.49136 8.7907,0.43905 6.986,-4.99077 0,-21.06113 0,-42.12226 0,-63.1834 -2.5473,-2.37583 -7.5299,-0.30878 -10.9766,-1.00023 -15.6305,0.19293 -31.4352,-0.38417 -46.9578,0.28614 z"
       id="path7882" />
    <path
       style="fill:#00ffff;stroke-width:0.665088;stroke-miterlimit:10"
       d="m 1020.4664,593.29393 c -0.5263,11.21706 -0.071,22.60308 -0.2234,33.88444 2.4383,2.36975 7.3068,0.31292 10.644,1.00023 1.532,2.56772 0.2339,7.9654 0.6625,11.63645 1.7798,5.87946 -5.2,2.99924 -8.6435,3.65539 -4.8707,-0.59714 -1.823,6.15864 -2.663,8.98129 0,41.90057 0,83.80114 0,125.70171 2.5473,2.37582 7.53,0.30878 10.9766,1.00023 15.6969,-0.19244 31.5676,0.38358 47.1566,-0.28614 0.9519,-7.46817 0.1194,-15.60715 0.3998,-23.3271 0,-37.02326 0,-74.04651 0,-111.06976 -2.4377,-2.3692 -7.3048,-0.31391 -10.6414,-1.00023 0,-5.09728 0,-10.19456 0,-15.29184 3.3659,-0.60848 8.1589,1.25158 10.6414,-1.00023 -0.2451,-11.31622 0.4914,-22.85439 -0.3702,-34.03123 -12.1939,-0.58023 -24.4891,0.0238 -36.5448,-0.22342 -7.0974,0.24268 -14.4395,-0.48801 -21.3946,0.37021 z"
       id="path7883" />
    <path
       style="fill:#00ffff;stroke-width:0.665088;stroke-miterlimit:10"
       d="m 929.34933,632.53415 c -0.52231,27.17987 -0.0737,54.52681 -0.22342,81.7708 0.1905,16.58413 -0.38118,33.34061 0.28613,49.81693 7.46817,0.95193 15.60716,0.11942 23.3271,0.39984 20.17435,0 40.3487,0 60.52306,0 2.3758,-2.5473 0.3088,-7.52993 1.0002,-10.97656 0,-40.12699 0,-80.254 0,-120.381 -2.5473,-2.37583 -7.5299,-0.30878 -10.9765,-1.00023 -10.42864,0.24883 -21.0823,-0.49773 -31.37091,0.37022 -1.64598,-0.51724 -7.28713,-0.37317 -10.5297,-0.37022 -10.64308,0.24884 -21.53603,-0.49725 -32.03596,0.37022 z"
       id="path7884" />
    <path
       style="fill:#00ffff;stroke-width:0.665088;stroke-miterlimit:10"
       d="m 1083.6498,593.29393 c -0.5242,15.20795 -0.072,30.58387 -0.2234,45.85603 2.5473,2.37583 7.53,0.30878 10.9766,1.00023 10.2078,-0.24475 20.6373,0.49086 30.7058,-0.37022 0.1798,-6.98992 0.746,-14.29458 -0.3482,-21.26594 -0.7267,-1.01282 -1.3867,-0.84407 -0.139,-1.74585 1.5739,-6.54608 0.2592,-13.56037 0.7106,-20.26182 1.4342,-5.53387 -5.2108,-3.08758 -8.3162,-3.58264 -11.0898,0.24483 -22.4178,-0.49091 -33.3662,0.37021 z"
       id="path7886" />
    <path
       style="fill:#00ffff;stroke-width:0.665088;stroke-miterlimit:10"
       d="m 1132.2013,593.29393 c -0.3416,7.84821 -0.4472,16.03851 0.063,23.84341 -0.2089,1.55646 -0.4214,6.88859 -0.2861,10.04103 0.2489,8.21162 -0.499,16.64861 0.3702,24.71998 10.1014,0.29072 20.4177,0.53655 30.5538,-0.15068 1.4284,-1.27202 2.3415,0.32183 4.0957,0.19095 10.119,0.20934 20.4134,0.4555 30.4294,-0.10298 0.9369,-7.26639 0.1487,-15.19036 0.3882,-22.71135 -0.5796,-3.18446 1.1008,-7.59375 -1.4134,-10.09715 -1.8028,-0.10159 1.4894,-0.41914 1.1055,-1.89524 0.5286,-7.88934 0.4932,-16.00275 0.033,-23.80834 -7.4682,-0.95194 -15.6072,-0.11942 -23.3271,-0.39984 -13.6434,0.0993 -27.3945,-0.0563 -41.2355,0 l -0.6004,0.28614 z"
       id="path7887" />
    <path
       style="fill:#00ffff;stroke-width:0.665088;stroke-miterlimit:10"
       d="m 1083.6498,644.50574 c -0.5223,27.17987 -0.074,54.52681 -0.2234,81.7708 0,48.21805 0,96.43609 0,144.65413 -5.3753,-1.74245 -5.0208,3.27195 -4.6556,6.98603 0.2441,8.87779 -0.49,17.97676 0.3702,26.71525 27.1799,0.52231 54.5268,0.0737 81.7708,0.22343 44.3392,0 88.6785,0 133.0177,0 2.3758,-2.54731 0.3088,-7.52994 1.0002,-10.97656 0,-82.91436 0,-165.82871 0,-248.74307 -2.5473,-2.37582 -7.5299,-0.30878 -10.9765,-1.00023 -26.8253,0 -53.6505,0 -80.4757,0 -2.3759,2.54731 -0.3088,7.52994 -1.0003,10.97656 -1.7917,2.30881 -7.859,0.34199 -11.3065,0.99504 -22.0486,0.0429 -43.7106,-0.005 -65.8385,0 -0.2361,-3.89059 0.4763,-7.99562 -0.3702,-11.74817 -13.4343,-0.52497 -27.0369,-0.0718 -40.5354,-0.22343 l -0.6003,0.28614 z"
       id="path7888" />
    <path
       style="fill:#00ffff;stroke-width:0.665088;stroke-miterlimit:10"
       d="m 1203.5632,593.29393 c -0.8809,8.03657 -1.6033,16.3887 -0.6911,24.45629 0.1959,1.2467 3.2308,1.19041 0.6054,1.11194 -2.3759,2.54731 -0.3088,7.52994 -1.0003,10.97656 0.916,2.87607 -2.1931,9.76154 2.3304,9.64638 30.1507,0 60.3014,0 90.4521,0 2.3697,-2.43831 0.3129,-7.30674 1.0002,-10.64401 2.5677,-1.53193 7.9654,-0.23389 11.6365,-0.66249 5.8794,-1.77982 2.9992,5.20005 3.6553,8.64355 -0.5971,4.87069 6.1587,1.82302 8.9813,2.66295 3.4742,-0.0106 9.4554,1.25897 7.6511,-4.32567 -0.4035,-8.01309 0.8003,-16.26675 -0.7053,-24.15492 -0.6743,-0.97202 -1.7271,-0.57926 -0.2286,-1.19768 1.9745,-4.55634 0.3907,-10.0262 0.9339,-14.88525 -0.3821,-4.12327 -6.7752,-1.05631 -9.6463,-1.99786 -38.0659,0 -76.1319,0 -114.1978,0 l -0.6004,0.28614 z"
       id="path7889" />
    <path
       style="fill:#00ffff;stroke-width:0.665088;stroke-miterlimit:10"
       d="m 1333.058,593.29393 c -0.2807,5.45949 -0.5632,11.31942 0.1468,16.70385 -0.5172,1.64599 -0.3732,7.28713 -0.3702,10.5297 0.2462,6.21696 -0.4985,12.65798 0.3702,18.73419 14.3211,0.52458 28.8103,0.0721 43.1957,0.22343 1.83,-0.70689 6.57,0.48442 9.9763,0 10.8728,-0.24499 21.9675,0.49118 32.701,-0.37021 0.5239,-14.98633 0.072,-30.14058 0.2235,-45.19094 -2.5473,-2.37583 -7.53,-0.30879 -10.9766,-1.00023 -24.9506,0.0344 -49.4763,-2.7e-4 -74.4899,0 l -0.6004,0.28614 z"
       id="path7890" />
    <path
       style="fill:#00ffff;stroke-width:0.665088;stroke-miterlimit:10"
       d="m 1422.8449,593.29393 c -0.5238,14.98632 -0.072,30.14058 -0.2234,45.19094 2.5473,2.37583 7.5299,0.30878 10.9766,1.00023 6.218,-0.24144 12.6552,0.48639 18.7342,-0.37021 0.5807,-11.56828 -0.034,-23.08645 0.2234,-34.54953 -0.2476,-3.778 0.4993,-7.78086 -0.3702,-11.41822 -9.4432,-0.52808 -19.0562,-0.0695 -28.5638,-0.22342 l -0.6004,0.28614 z"
       id="path7891" />
    <path
       style="fill:#00ffff;stroke-width:0.665088;stroke-miterlimit:10"
       d="m 1300.4687,644.50574 c -0.5223,27.17987 -0.074,54.52681 -0.2235,81.7708 0,42.56566 0,85.13132 0,127.69697 2.0502,2.75684 8.1364,-0.52205 9.9764,1.66533 0,4.87558 0,9.75116 0,14.62674 -2.9608,0.88118 -8.999,-1.90533 -9.9764,1.66532 0.2514,10.87142 -0.4975,21.969 0.3703,32.70105 27.069,0.5221 54.305,0.0742 81.4382,0.22343 10.7609,-0.2501 21.7474,0.49812 32.3685,-0.37022 0.5223,-27.17987 0.074,-54.52681 0.2234,-81.7708 0,-59.19287 0,-118.38574 0,-177.57861 -2.5473,-2.37582 -7.5299,-0.30878 -10.9765,-1.00023 -8.6552,0.24815 -17.5353,-0.49821 -26.0502,0.37022 -1.646,-0.51723 -7.2871,-0.37317 -10.5297,-0.37022 -21.9479,0 -43.8958,0 -65.8437,0 l -0.6004,0.28614 z"
       id="path7892" />
    <path
       style="fill:#00ffff;stroke-width:0.665088;stroke-miterlimit:10"
       d="m 1419.5195,642.51047 c -0.5223,27.17988 -0.074,54.52681 -0.2234,81.7708 0,59.18378 0,118.36756 0,177.55133 2.8134,2.29027 7.9292,0.47794 11.6263,1.15046 32.8209,0.68113 65.6477,0.34244 98.4653,-0.33858 2.2447,-2.85057 0.3642,-7.9347 0.9833,-11.64165 -0.2477,-7.47492 0.5006,-15.17504 -0.3702,-22.50909 -2.8807,-1.44946 -9.8019,1.99693 -9.6061,-2.21869 0,-4.43219 0,-8.86438 0,-13.29657 2.9607,-0.88118 8.9989,1.90533 9.9763,-1.66532 0,-69.39089 0,-138.78178 0,-208.17267 -2.5473,-2.37583 -7.5299,-0.30878 -10.9765,-1.00023 -33.0064,0.0422 -65.9296,-0.0204 -99.0982,0 l -0.6004,0.28614 z"
       id="path7893" />
    <path
       style="fill:#00ffff;stroke-width:0.665088;stroke-miterlimit:10"
       d="m 1527.2638,593.29393 c -0.5267,10.75499 -0.07,21.67912 -0.2234,32.4984 2.16,2.7332 8.3995,-0.23667 10.3594,2.01703 0.3801,3.7883 -0.2722,7.8435 0.7263,11.4718 10.9817,0.47483 22.108,0.0676 33.1453,0.20394 2.3758,-2.54731 0.3087,-7.52993 1.0002,-10.97656 -0.073,-11.63994 0,-22.87314 0,-34.58459 -2.5473,-2.37583 -7.5299,-0.30879 -10.9766,-1.00023 -11.3104,0.24859 -22.8627,-0.49688 -34.0312,0.37021 z"
       id="path7894" />
    <path
       style="fill:#00ffff;stroke-width:0.665088;stroke-miterlimit:10"
       d="m 1535.91,642.51047 c -0.5224,27.17988 -0.074,54.52681 -0.2235,81.7708 0,59.63627 0,119.27252 0,178.90879 2.5473,2.37583 7.53,0.30878 10.9766,1.00023 32.811,0 65.622,0 98.4331,0 2.3758,-2.54731 0.3088,-7.52994 1.0002,-10.97656 0,-83.35774 0,-166.7155 0,-250.07324 -2.5473,-2.37583 -7.5299,-0.30878 -10.9766,-1.00023 -7.7385,0.36186 -15.6779,-0.71306 -23.3131,0.63261 -1.1156,1.05099 -2.8486,-0.95649 -4.4842,-0.3884 -23.5392,-0.50882 -47.0915,-0.12065 -70.6357,-0.24421 l -0.6004,0.28614 z"
       id="path7895" />
    <path
       style="fill:#00ffff;stroke-width:0.665088;stroke-miterlimit:10"
       d="m 1650.9703,593.95902 c -0.5244,14.76453 -0.072,29.69711 -0.2235,44.52585 2.5473,2.37583 7.53,0.30878 10.9766,1.00023 5.7748,-0.24062 11.7682,0.48529 17.404,-0.37021 0.5807,-11.13195 -0.037,-22.18544 0.2234,-33.21935 -0.2344,-4.00267 0.4769,-8.21917 -0.3702,-12.08331 -8.9997,-0.52866 -18.1694,-0.0691 -27.2335,-0.22342 l -0.6004,0.28613 z"
       id="path7896" />
    <path
       style="fill:#00ffff;stroke-width:0.665088;stroke-miterlimit:10"
       d="m 1650.9703,642.51047 c -0.5224,27.17988 -0.074,54.52681 -0.2235,81.7708 0,60.07966 0,120.15931 0,180.23896 2.5473,2.37583 7.53,0.30878 10.9766,1.00024 29.7073,0 59.4145,0 89.1218,0 2.3759,-2.54731 0.3088,-7.52994 1.0003,-10.97656 -0.2482,-8.65518 0.4982,-17.53524 -0.3703,-26.05017 -5.3913,1.06339 -5.4773,-2.32921 -4.9504,-6.87431 0.7343,-3.25446 -2.2672,-10.24478 3.3254,-8.64095 3.4511,0.0784 9.0814,1.08193 7.316,-4.32567 0,-68.50411 0,-137.00821 0,-205.51232 -2.5473,-2.37583 -7.53,-0.30878 -10.9766,-1.00023 -10.1347,0.34556 -20.4185,-0.69098 -30.4745,0.59364 -1.1253,1.1731 -2.5576,-0.84546 -4.1555,-0.34813 -19.9302,-0.514 -39.8763,-0.11947 -59.8125,-0.24551 l -0.6004,0.28614 z"
       id="path7897" />
    <path
       style="fill:#00ffff;stroke-width:0.667663;stroke-miterlimit:10"
       d="m 578.42078,1257.248 c -0.52614,10.3698 -0.07,20.9084 -0.22299,31.3423 0.006,23.0299 -0.005,46.7945 0,70.1047 2.55879,2.378 7.55648,0.3071 11.01514,1.0002 84.12559,0 168.25117,0 252.37676,0 2.37802,-2.5588 0.30714,-7.5565 1.00019,-11.0152 0,-30.2674 0,-60.5348 0,-90.8022 -2.55879,-2.378 -7.55648,-0.3071 -11.01514,-1.0002 -84.12559,0 -168.25117,0 -252.37676,0 l -0.60273,0.2872 z"
       id="path7898" />
    <path
       style="fill:#00ffff;stroke-width:0.667663;stroke-miterlimit:10"
       d="m 527.67836,1257.248 c -0.52659,9.9246 -0.0697,20.0182 -0.22299,30.007 4.91116,2.2782 -0.87325,-0.5866 0,4.006 0.25223,9.5772 -0.49899,19.3813 0.37035,28.819 14.59891,0.523 29.36524,0.072 44.02796,0.223 2.37803,-2.5588 0.30715,-7.5565 1.00019,-11.0151 -0.38363,-6.4771 0.64143,-13.3695 -1.38748,-19.5813 2.0307,-1.8739 0.15343,-6.3017 0.54118,-9.1673 -0.61066,-7.7953 -0.10242,-15.763 -0.85937,-23.4387 -14.15377,-0.5232 -28.47505,-0.071 -42.69264,-0.223 l -0.60273,0.2872 z"
       id="path7899" />
    <path
       style="fill:#00ffff;stroke-width:0.667663;stroke-miterlimit:10"
       d="m 527.67836,1326.0173 c -0.521,27.6187 -0.0742,55.4036 -0.22299,83.0863 0.19401,11.6402 -0.38638,23.4555 0.28721,34.9874 7.61181,0.9443 15.88585,0.1212 23.74737,0.3974 7.01778,-0.2526 14.26321,0.5018 21.14093,-0.3703 0.57606,-13.2958 -0.01,-26.9035 0.22299,-40.022 -0.24456,-9.579 0.49067,-19.3795 -0.37034,-28.8191 -4.02432,-0.5444 -8.22632,-0.055 -12.31526,-0.223 0,-5.1196 0,-10.2392 0,-15.3588 4.12357,-0.259 8.47822,0.5042 12.46261,-0.3704 0.52573,-10.815 0.0703,-21.7986 0.22299,-32.6777 -2.55878,-2.378 -7.55648,-0.3071 -11.01514,-1.0002 -11.35353,0.2487 -22.94888,-0.497 -34.16037,0.3704 z"
       id="path7900" />
    <path
       style="fill:#00ffff;stroke-width:0.667663;stroke-miterlimit:10"
       d="m 577.75311,1366.0771 c -0.52357,14.3762 -0.0719,28.92 -0.22298,43.3603 0.007,21.9166 -0.005,44.5689 0,66.7663 2.55878,2.378 7.55647,0.3072 11.01514,1.0002 84.34813,0 168.69628,0 253.04442,0 2.37802,-2.5588 0.30714,-7.5565 1.00019,-11.0151 0,-33.1606 0,-66.3213 0,-99.4819 -2.55879,-2.378 -7.55648,-0.3071 -11.01514,-1.0002 -9.13298,0.2485 -18.49097,-0.4983 -27.48374,0.3704 -1.4407,2.904 2.25539,10.0975 -2.89365,8.9769 -4.2294,0 -8.4588,0 -12.6882,0 -0.87613,-2.809 2.1415,-9.5352 -2.33552,-9.3473 -69.21444,0 -138.42887,0 -207.64331,0 l -0.60274,0.2872 z"
       id="path7901" />
    <path
       style="fill:#00ffff;stroke-width:0.667663;stroke-miterlimit:10"
       d="m 577.75311,1482.2505 c -0.52139,22.6112 -0.0729,45.3889 -0.22298,68.0639 4.8352,1.8265 -1.35422,0.1303 0.10772,5.3097 -0.20245,13.5443 -1.44012,27.3521 0.42149,40.7394 11.54209,0.8211 23.63602,0.1178 35.39029,0.3522 76.04669,0 152.09337,0 228.14006,0 2.37802,-2.5588 0.30714,-7.5565 1.00019,-11.0152 0,-34.2734 0,-68.5468 0,-102.8201 -2.55879,-2.3781 -7.55648,-0.3072 -11.01514,-1.0002 -84.34814,0 -168.69629,0 -253.04442,0 l -0.60274,0.2872 z"
       id="path7902" />
    <path
       style="fill:#00ffff;stroke-width:0.667663;stroke-miterlimit:10"
       d="m 527.67836,1449.535 c -0.52195,18.6051 -0.0724,37.377 -0.22299,56.0459 2.55879,2.378 7.55648,0.3072 11.01514,1.0002 3.79067,-0.2529 7.80949,0.5033 11.45982,-0.3703 0.1287,-6.0289 -0.12287,3.2835 4.5641,0.3703 6.01605,-0.2537 12.26053,0.5031 18.13645,-0.3703 0.52196,-18.6051 0.0724,-37.3771 0.22299,-56.0459 -2.55878,-2.3781 -7.55648,-0.3072 -11.01514,-1.0002 -11.35353,0.2486 -22.94888,-0.4971 -34.16037,0.3703 z"
       id="path7903" />
    <path
       style="fill:#00ffff;stroke-width:0.667663;stroke-miterlimit:10"
       d="m 527.67836,1512.2954 c -0.52119,24.8367 -0.0731,49.8399 -0.22299,74.7404 2.55879,2.3781 7.55648,0.3072 11.01514,1.0002 11.3584,-0.249 22.9419,0.4977 34.16037,-0.3703 0.52503,-11.7054 0.0708,-23.5789 0.22299,-35.3483 -3.67274,-2.7206 -4.26222,0.7053 -1.6e-4,-2.0026 -0.19065,-12.6425 0.38241,-25.4579 -0.28704,-37.9923 -6.83147,-0.9476 -14.3306,-0.1146 -21.41055,-0.3975 -2.27825,4.9112 0.58662,-0.8732 -4.00598,0 -6.45207,0.2547 -13.16329,-0.5025 -19.47178,0.3704 z"
       id="path7904" />
    <path
       style="fill:#00ffff;stroke-width:0.667663;stroke-miterlimit:10"
       d="m 77.673245,1362.7388 c -0.521282,27.5073 -0.0736,55.1812 -0.222989,82.7524 0,48.2943 0,96.5886 0,144.883 2.558788,2.378 7.55648,0.3071 11.015141,1.0002 7.13128,-0.2428 14.482713,0.4882 21.474763,-0.3704 0.83745,-3.5101 -1.66986,-9.5072 4.22897,-7.6416 3.54857,0.4583 8.93346,-0.9198 11.35289,0.6677 -1.56418,5.1087 3.75429,4.084 7.00916,4.0059 67.65655,0 135.31311,0 202.96967,0 0.8228,-3.9875 2.90819,-4.7386 7.67682,-4.0059 3.08316,0.8128 10.08227,-2.2903 8.68223,3.0057 2.55879,2.3781 7.55648,0.3072 11.01515,1.0002 18.91712,0 37.83426,0 56.75138,0 2.37803,-2.5588 0.30715,-7.5564 1.0002,-11.0151 0,-58.3093 0,-116.6185 0,-174.9278 -2.46028,-2.4127 -6.2964,-0.01 -0.39746,-1.29 0.94207,-7.6127 0.1253,-15.8843 0.39746,-23.7474 -0.2541,-4.7919 0.5043,-9.8127 -0.37035,-14.4643 -22.38853,-0.5217 -44.94374,-0.073 -67.39619,-0.223 -3.08149,1.7324 1.28052,8.9379 -2.33552,9.3473 -4.67451,0 -9.34902,0 -14.02353,0 -0.87613,-2.809 2.1415,-9.5352 -2.33552,-9.3473 -69.21444,0 -138.42887,0 -207.64331,0 -3.08149,1.7324 1.28051,8.9379 -2.33552,9.3473 -4.67451,0 -9.34902,0 -14.02354,0 -0.87612,-2.809 2.14151,-9.5352 -2.33551,-9.3473 -10.016753,0.2446 -20.280305,-0.4906 -30.154395,0.3704 z"
       id="path7905" />
    <path
       style="fill:#00ffff;stroke-width:0.667663;stroke-miterlimit:10"
       d="m 125.74501,1595.0856 c 1.1284,5.3508 -4.77334,3.1269 -8.22919,3.7673 -14.51138,0.7588 -29.240095,0.1897 -43.674086,0.8232 -0.946389,7.4998 -0.11861,15.6643 -0.397459,23.4136 10e-7,65.8761 0,131.7522 0,197.6283 2.558789,2.3781 7.55648,0.3072 11.015142,1.0002 8.687922,-0.2482 17.600773,0.4984 26.148413,-0.3703 0.54628,-3.8015 0.0557,-7.7811 0.22299,-11.6476 5.56473,0 11.12946,0 16.69419,0 0.23622,3.9061 -0.47662,8.0269 0.37034,11.7949 27.50737,0.5213 55.18119,0.074 82.75245,0.223 41.39512,0 82.79025,0 124.18538,0 2.37803,-2.5588 0.30715,-7.5565 1.0002,-11.0151 1.6976,-2.3093 7.64147,-0.3722 11.01774,-1.0028 5.16493,-1.2694 6.68167,1.1095 5.67644,6.0103 0.36424,3.0794 -1.73356,9.5548 3.67085,8.0106 8.34623,0 16.69245,0 25.03868,0 0.25251,11.2468 -0.49693,22.7201 0.37035,33.8279 11.92803,0.5242 24.02413,0.07 36.016,0.2229 2.37803,-2.5587 0.30715,-7.5564 1.0002,-11.0151 -0.2501,-20.1417 0.51956,-40.3266 -0.46033,-60.4431 0.29575,-1.1189 -1.59478,-2.165 -1.72132,-1.9899 2.78429,-0.9765 1.32561,-5.1616 1.89997,-7.3887 0.58888,-60.4031 0.13918,-120.8137 0.28168,-181.2197 -2.5588,-2.3781 -7.55649,-0.3072 -11.01515,-1.0002 -18.24946,0 -36.49893,0 -54.7484,0 -1.33901,3.231 -1.00831,6.1946 -6.3415,4.6736 -3.00866,-0.776 -9.22744,1.658 -10.01755,-1.3366 1.27771,-5.3377 -5.37315,-2.766 -8.34449,-3.337 -67.21145,0 -134.42289,0 -201.63434,0 l -0.60273,0.2872 z"
       id="path7906" />
    <path
       style="fill:#00ffff;stroke-width:0.667663;stroke-miterlimit:10"
       d="m 423.52287,1442.8584 c -0.52128,27.5073 -0.0736,55.1812 -0.22298,82.7524 0,75.8911 0,151.7822 0,227.6732 2.45949,2.354 7.31644,0.3401 10.68131,1.0002 8.29108,-0.321 16.63144,0.4418 24.97244,-0.2872 0.94639,-7.4997 0.11861,-15.6643 0.39746,-23.4135 0,-95.6984 0,-191.3969 0,-287.0953 -2.55879,-2.378 -7.55648,-0.3071 -11.01514,-1.0002 -8.18078,0.3838 -16.5842,-0.567 -24.81309,0.3704 z"
       id="path7907" />
    <path
       style="fill:#00ffff;stroke-width:0.667663;stroke-miterlimit:10"
       d="m 527.0107,1686.5555 c -0.52357,14.3763 -0.0719,28.9201 -0.22299,43.3603 2.55879,2.378 7.55648,0.3072 11.01514,1.0002 8.91139,-0.2442 18.04402,0.4902 26.81607,-0.3703 0.28516,-9.7099 0.55451,-19.6339 -0.1943,-29.3772 -0.44605,-1.5424 -2.14343,-1.9991 -1.54527,-3.9682 -0.27627,-3.5804 0.42765,-7.3525 -0.41077,-10.7921 -5.68498,-0.1524 -11.73092,-0.7791 -17.3762,0.3194 -1.21656,0.3669 -0.75621,2.9474 -1.15798,0.7251 -2.46482,-2.3999 -6.71043,-0.7203 -9.8037,-1.2675 -2.32127,0.2356 -4.95163,-0.4813 -7.12,0.3703 z"
       id="path7908" />
    <path
       style="fill:#00ffff;stroke-width:0.667663;stroke-miterlimit:10"
       d="m 532.352,1795.3846 c -0.5271,9.4795 -0.0693,19.1281 -0.22298,28.6717 2.55878,2.3781 7.55648,0.3072 11.01514,1.0002 7.13128,-0.2427 14.48271,0.4883 21.47476,-0.3703 0.52711,-9.4795 0.0693,-19.1281 0.22299,-28.6717 -2.10622,-2.2848 -6.51116,-0.4327 -9.53376,-0.9885 -2.12823,0.2664 -5.0469,-0.3817 -6.56318,1.3158 -2.1598,-2.1867 -6.11212,-0.8891 -8.93913,-1.3275 -2.4399,0.2167 -5.16267,-0.4525 -7.45384,0.3703 z"
       id="path7909" />
    <path
       style="fill:#00ffff;stroke-width:0.667663;stroke-miterlimit:10"
       d="m 570.40882,1718.6033 c -0.523,14.599 -0.0714,29.3653 -0.22299,44.028 0.0137,15.4609 -0.0102,31.6626 0,47.4041 2.44994,2.3715 7.33314,0.3122 10.68261,1.0002 0.60946,3.3791 -1.25291,8.1874 1.00019,10.6826 69.88211,0 139.7642,0 209.6463,0 3.09189,-1.481 -1.30139,-8.5265 2.33552,-8.6796 4.45196,0 8.90392,0 13.35587,0 0.80138,2.6493 -2.03238,9.0021 2.33552,8.6796 11.80435,-0.2453 23.83079,0.4917 35.4957,-0.3703 0.52129,-27.5074 0.0736,-55.1812 0.22299,-82.7525 -0.24222,-6.6863 0.48751,-13.5923 -0.37034,-20.1394 -27.50737,-0.5213 -55.18119,-0.074 -82.75245,-0.223 -63.65057,0 -127.30115,0 -190.95172,0 l -0.60273,0.2872 z"
       id="path7910" />
    <path
       style="fill:#00ffff;stroke-width:0.667663;stroke-miterlimit:10"
       d="m 711.89608,1602.7312 c -45.53528,0.146 -91.08611,-0.2179 -136.61137,0.5392 -5.46533,-1.3346 -5.65269,3.2493 -5.09888,7.3319 0.19206,12.3535 -0.38357,24.8807 0.28721,37.126 5.3531,0.6556 -2.62135,-0.2026 -0.28721,4.0709 0,20.2524 0,40.5049 0,60.7574 2.55879,2.378 7.55648,0.3071 11.01514,1.0002 86.79624,0 173.59248,0 260.38872,0 2.37802,-2.5588 0.30714,-7.5565 1.00019,-11.0152 0,-32.938 0,-65.8761 0,-98.8142 -2.55879,-2.378 -7.55648,-0.3069 -11.01514,-0.9999 -39.89289,0 -79.78578,0 -119.67866,0 z"
       id="path7911" />
    <path
       style="fill:#00ffff;stroke-width:0.534304;stroke-miterlimit:10"
       d="m 71.638472,1826.6694 c -0.561374,13.3102 -0.07902,26.8069 -0.240019,40.1886 0,73.1997 0,146.3993 0,219.5989 1.951494,2.2448 6.179501,0.3999 9.014292,0.9998 87.447745,0 174.895495,0 262.343245,0 2.24471,-1.9515 0.39986,-6.1795 0.99973,-9.0143 -0.15045,-8.694 0.30054,-17.5198 -0.22336,-26.132 -2.72386,-0.984 -6.68549,0.5312 -5.11968,-4.2545 0,-4.1422 0,-8.2845 0,-12.4267 5.74516,0 11.49032,0 17.23548,0 0.54482,2.6984 -1.16314,6.7253 0.99973,8.5489 20.30355,0 40.6071,0 60.91065,0 2.24471,-1.9515 0.39987,-6.1795 0.99973,-9.0143 0,-50.0465 0,-100.093 0,-150.1394 -0.40878,-2.1947 0.28358,-5.7064 0,-8.5489 -0.23032,-4.8548 0.46799,-9.913 -0.34959,-14.6391 -13.78053,-0.6427 -27.74915,-0.2619 -41.60162,-0.5134 -0.24142,-11.4815 0.1126,-23.0983 -0.50027,-34.4956 -3.19751,-1.199 -7.36484,-0.1595 -10.92465,-0.5076 -97.59465,0 -195.1893,0 -292.783954,0 l -0.48538,0.2233 z m 47.511308,208.9598 c 2.51637,0.8015 8.40332,-1.7677 8.35059,1.6029 0,4.8547 0,9.7093 0,14.564 -5.56706,0 -11.13412,0 -16.70117,0 0,-5.389 0,-10.778 0,-16.1669 2.78352,0 5.56705,0 8.35058,0 z"
       id="path7912" />
    <path
       style="fill:#00ffff;stroke-width:0.534304;stroke-miterlimit:10"
       d="m 423.74478,1912.158 c -0.56138,13.3102 -0.079,26.8069 -0.24002,40.1886 0,44.3473 0,88.6945 0,133.0417 1.95149,2.2447 6.1795,0.3999 9.01429,0.9998 9.05021,-0.1505 18.23214,0.3004 27.20058,-0.2234 1.21335,-3.1913 0.1627,-7.3682 0.51435,-10.9281 0,-54.1428 0,-108.2856 0,-162.4284 -1.95149,-2.2448 -6.1795,-0.3999 -9.01429,-0.9998 -3.21636,0.06 -7.44931,-0.1821 -10.03594,0.24 -5.61896,-0.4179 -11.55546,-0.3722 -17.16464,-0.017 z"
       id="path7913" />
    <path
       style="fill:#00ffff;stroke-width:0.534304;stroke-miterlimit:10"
       d="m 529.53696,1884.9085 c -0.56137,13.3102 -0.079,26.8069 -0.24002,40.1886 0.14872,13.6813 -0.29755,27.4928 0.22336,41.0925 -0.42218,3.369 -0.14687,8.349 -0.22336,12.3379 0,23.1532 0,46.3064 0,69.4596 1.9515,2.2447 6.1795,0.3998 9.01429,0.9997 8.69401,-0.1505 17.51977,0.3005 26.13197,-0.2234 1.21356,-3.2142 0.15933,-7.4155 0.51436,-10.997 5.03275,0 10.0655,0 15.09826,0 0.23565,3.634 -0.46916,7.4741 0.34959,10.9804 13.31019,0.5613 26.80689,0.079 40.18863,0.24 14.74983,-0.1488 29.63001,0.2976 44.29831,-0.2234 1.21335,-3.1913 0.1627,-7.3682 0.51435,-10.9281 0,-50.7589 0,-101.5178 0,-152.2766 -1.95149,-2.2448 -6.1795,-0.3999 -9.01429,-0.9998 -42.03191,0 -84.06382,0 -126.09574,0 l -0.48537,0.2234 z"
       id="path7914" />
    <path
       style="fill:#00ffff;stroke-width:0.78896;stroke-miterlimit:10"
       d="m 529.7882,2053.8356 c -0.49617,53.7834 -0.0709,107.7213 -0.21265,161.5642 0,63.1168 0,126.2336 0,189.3504 0.20579,5.3177 -0.14909,12.2051 0,18.1461 0,23.4058 0,46.8116 0,70.2174 3.44395,2.3531 9.28765,0.3201 13.62343,1.0001 27.08763,0 54.17526,0 81.26289,0 0.96193,-4.7603 1.49518,-7.9712 8.10071,-6.3117 5.55488,-0.8594 8.8236,-0.1171 7.81297,6.0208 27.79439,0.678 55.95444,0.098 83.88976,0.2909 23.01134,0 46.02267,0 69.034,0 0.96193,-4.7603 1.49518,-7.9712 8.10071,-6.3117 5.55489,-0.8594 8.82361,-0.1171 7.81298,6.0208 27.66271,0.6786 55.69169,0.097 83.49528,0.2909 42.60384,0 85.20768,0 127.81152,0 0.9619,-4.7603 1.4952,-7.9712 8.1007,-6.3117 5.5549,-0.8594 8.8236,-0.1171 7.813,6.0208 16.0915,0.6778 32.5491,0.096 48.781,0.2909 2.3531,-3.444 0.3202,-9.2877 1.0001,-13.6235 0,-49.9566 0,-99.9133 0,-149.87 -3.4455,-2.3493 -9.2895,-0.2973 -13.6265,-0.9669 -25.3054,0.011 -50.6136,0.2875 -75.91739,-0.082 -0.90608,-80.9218 -0.97349,-161.8509 -1.43769,-242.7762 -3.45319,-2.3438 -9.28621,-0.3176 -13.62343,-0.9955 -57.24738,0 -114.49474,0 -171.74212,0 -2.35088,3.3122 -0.32353,9.0235 -1.00007,13.229 -0.62452,3.9685 -8.48671,0.6993 -12.01777,1.7613 -5.31318,0.5183 -1.31096,-8.2788 -2.55025,-11.8344 -0.25305,-11.7347 0.50901,-23.7035 -0.38369,-35.2906 -53.915,-0.4958 -107.98425,-0.072 -161.9587,-0.2126 -33.79379,0 -67.58758,0 -101.38137,0 l -0.70924,0.3456 z m 102.95775,32.3858 c 6.16055,-1.3656 8.77523,0.8146 7.28401,7.1007 0.91044,5.5034 0.0509,9.2369 -6.31168,7.4674 -4.82449,0.2314 -10.40538,1.2193 -8.25634,-5.5228 0.35788,-4.2351 -2.08301,-11.269 4.73376,-9.0453 0.85008,0 1.70017,0 2.55025,0 z m 0,229.5874 c 6.16055,-1.3657 8.77523,0.8145 7.28401,7.1006 0.91044,5.5035 0.0509,9.237 -6.31168,7.4674 -4.82449,0.2315 -10.40538,1.2194 -8.25634,-5.5227 0.35788,-4.2351 -2.08301,-11.269 4.73376,-9.0453 0.85008,0 1.70017,0 2.55025,0 z m 168.83744,0 c 6.16056,-1.3657 8.77523,0.8145 7.28401,7.1006 0.91045,5.5035 0.0509,9.237 -6.31168,7.4674 -4.82448,0.2315 -10.40538,1.2194 -8.25634,-5.5227 0.35788,-4.2351 -2.083,-11.269 4.73376,-9.0453 0.85008,0 1.70017,0 2.55025,0 z"
       id="path7915" />
    <path
       style="fill:#00ffff;stroke-width:0.78896;stroke-miterlimit:10"
       d="m 1000.7973,2086.1829 c -0.4961,53.7835 -0.071,107.7214 -0.2126,161.5642 0,25.2468 0,50.4935 0,75.7402 3.4439,2.3531 9.2876,0.3201 13.6234,1.0001 5.6624,1.3985 8.8989,-1.0482 7.3118,-6.9173 0.6203,-3.9727 8.5092,-0.6768 12.0177,-1.7613 5.7101,0.5447 1.851,-7.831 2.9725,-11.2565 0,-67.0616 0,-134.1232 0,-201.1849 -3.4439,-2.353 -9.2876,-0.3201 -13.6234,-1 -4.5687,-0.1558 -1.055,-8.3941 -2.1558,-12.0178 1.9839,-6.7195 -5.8247,-4.0907 -9.6786,-4.5504 -3.3701,0.2657 -7.0412,-0.5273 -10.255,0.3837 z"
       id="path7916" />
    <path
       style="fill:#00ffff;stroke-width:0.78896;stroke-miterlimit:10"
       d="m 643.39845,2610.8413 c -0.49617,37.4783 -0.0709,75.111 -0.21265,112.6487 3.44395,2.3531 9.28765,0.3202 13.62343,1.0001 45.49669,0 90.99339,0 136.49008,0 1.01627,-4.63 1.35958,-7.9743 7.8896,-6.3117 6.74374,1.7081 3.37541,-6.7161 4.15591,-10.4676 0,-32.0843 0,-64.1687 0,-96.2531 -3.44394,-2.3531 -9.28764,-0.3201 -13.62343,-1.0001 -15.2227,0.2581 -30.68326,-0.5151 -45.75814,0.3837 -11.25485,-0.8929 -23.76746,-0.1296 -35.50474,-0.3837 -22.09088,0 -44.18176,0 -66.27264,0 l -0.70924,0.3456 z"
       id="path7917" />
    <path
       style="fill:#00ffff;stroke-width:0.78896;stroke-miterlimit:10"
       d="m 811.44693,2610.8413 c -0.49617,41.1601 -0.0709,82.4747 -0.21264,123.6942 3.44394,2.3531 9.28764,0.3201 13.62342,1 64.95771,0 129.91543,0 194.87309,0 2.3324,-3.3226 0.3525,-9.0074 1.0001,-13.2289 -1.9117,-6.7066 2.241,-7.3488 7.8896,-6.4951 9.8938,-0.2528 20.0215,0.5085 29.7678,-0.3837 0.4956,-17.6886 0.07,-35.5316 0.2127,-53.2794 -9.6519,-7.8825 -20.7609,-14.4715 -30.9687,-21.8605 -14.5619,-9.8903 -28.9162,-20.2069 -43.60806,-29.8303 -34.45385,0.2552 -68.93448,-0.5347 -103.37226,0.4608 -1.96825,-0.096 -2.7957,1.7977 -4.28381,0.1664 -17.88905,-1.3541 -35.93278,-0.2692 -53.87734,-0.6272 -3.64166,0.2426 -7.55463,-0.4937 -11.0439,0.3837 z"
       id="path7918" />
    <path
       style="fill:#00ffff;stroke-width:0.714814;stroke-miterlimit:10"
       d="m 1197.6715,2323.9202 c -32.4049,0 -64.8098,0.01 -97.2147,0.01 -2.309,3.0691 -0.3509,8.4806 -0.9997,12.4366 0,50.6341 0,101.2682 0,151.9023 3.0692,2.309 8.4806,0.3509 12.4367,0.9996 63.1419,0 126.2839,0 189.4258,0 2.309,-3.0691 0.3509,-8.4806 0.9996,-12.4366 -0.3397,-13.5095 0.7007,-27.1408 -0.6729,-40.5825 -0.1175,-1.2543 -2.7925,-1.0599 -0.4496,-1.7549 1.8146,-6.2952 0.6199,-13.2301 1.0759,-19.7523 0.087,-23.6218 0.03,-47.2439 0.047,-70.8658 -3.0965,-1.9282 -8.6351,0.4664 -6.4333,-6.0033 -0.2644,-4.5499 0.5231,-9.3394 -0.3756,-13.7449 -32.5355,-0.5049 -65.2431,-0.066 -97.8388,-0.208 z"
       id="path7919" />
    <path
       style="fill:#00ffff;stroke-width:0.714814;stroke-miterlimit:10"
       d="m 1310.5452,2288.9264 c -0.257,11.7648 -0.5663,23.7337 0.1759,35.5313 0.1081,2.2968 3.55,1.2342 2.4069,4.0935 0.1121,4.7741 0.035,9.5505 0.059,14.3256 -5.8202,-1.7766 -6.4941,2.7894 -5.7185,7.4329 0.2503,27.4309 -0.5393,54.8945 0.5166,82.3056 -0.34,1.217 1.1524,2.1261 1.5427,2.4725 -2.988,1.2939 -1.354,5.8691 -1.9573,8.4518 0,15.1024 -0.4704,30.3888 0.2075,45.3736 8.0846,0.8272 16.7036,0.1198 24.9938,0.3553 23.539,-0.01 47.961,0.01 71.8389,0 5.2554,0.4936 1.7965,-7.1292 2.7866,-10.2922 -0.3287,-14.1515 0.67,-28.4071 -0.5794,-42.5007 0.1726,-1.5909 -3.6461,-1.3158 -1.0903,-1.6852 2.4095,-3.0624 0.9021,-7.8023 1.5092,-11.4647 0.3267,-44.5905 0.085,-89.1837 0.1605,-133.7752 -3.0691,-2.309 -8.4806,-0.3509 -12.4366,-0.9996 -27.8778,0 -55.7555,0 -83.6333,0 l -0.6443,0.3095 z"
       id="path7920" />
    <path
       style="fill:#00ffff;stroke-width:0.714814;stroke-miterlimit:10"
       d="m 1414.1933,2288.9264 c -0.5082,38.7342 -0.073,77.6283 -0.2178,116.424 0.2481,9.7635 -0.4978,19.7533 0.3755,29.3744 7.973,1.0355 -2.178,-1.458 -0.3755,3.5071 0.2087,16.8697 -0.4146,33.9289 0.3095,50.6813 9.2763,0.8265 19.0868,0.1181 28.5678,0.3553 23.5388,-0.01 47.9608,0.01 71.8389,0 5.5914,-0.2585 11.4171,0.5123 16.8651,-0.3755 0.5082,-38.8389 0.073,-77.8378 0.2178,-116.7382 -0.2554,-9.8665 0.5077,-19.9649 -0.3755,-29.6885 -6.1153,1.0594 -5.2524,-3.8943 -5.1775,-8.446 0.3951,-3.6732 -2.2807,-10.3499 3.8177,-8.4443 3.78,-1.1641 0.7734,-7.7379 1.7353,-11.007 -0.2521,-8.5712 0.5063,-17.3725 -0.3755,-25.8003 -38.7342,-0.5082 -77.6283,-0.073 -116.424,-0.2178 l -0.6443,0.3095 z"
       id="path7921" />
    <path
       style="fill:#00ffff;stroke-width:0.714814;stroke-miterlimit:10"
       d="m 1537.1413,2288.9264 c -0.5072,11.8097 -0.072,23.7791 -0.2178,35.65 3.1367,2.1444 9.4474,-0.8065 7.1482,6.0033 -0.8476,3.4898 1.787,10.4616 -1.4296,11.5823 -5.8483,-1.805 -6.4754,2.8083 -5.7186,7.4329 0,27.4012 0,54.8024 0,82.2037 3.0692,2.309 8.4806,0.3508 12.4367,0.9996 34.0728,0 68.1456,0 102.2185,0 2.2685,-2.8499 0.4076,-7.9809 0.9943,-11.726 0.032,-2.8332 0.1158,-6.6383 -1.0404,-8.8696 1.6509,-8.5948 0.5805,-17.6105 0.9988,-26.3546 0.087,-32.0991 0.03,-64.1983 0.047,-96.2975 -3.0692,-2.309 -8.4806,-0.3509 -12.4367,-0.9996 -34.0728,0 -68.1456,0 -102.2184,0 l -0.6444,0.3095 z"
       id="path7922" />
    <path
       style="fill:#00ffff;stroke-width:0.714814;stroke-miterlimit:10"
       d="m 1069.6527,2555.5522 c -0.5081,38.7342 -0.073,77.6283 -0.2178,116.424 0,36.6938 0,73.3876 0,110.0814 2.9581,2.2921 8.2281,0.3777 12.0793,0.9996 6.1274,-2.0284 4.1162,4.0819 4.3615,7.9356 0.07,4.383 1.3907,10.0169 -5.0037,7.9355 -3.3416,-0.5433 -8.8805,1.1107 -10.8675,-0.7874 0.4936,-5.2554 -7.1291,-1.7965 -10.2922,-2.7866 -4.2851,0.2396 -8.7901,-0.4862 -12.9336,0.3755 -0.5082,38.7342 -0.073,77.6283 -0.2178,116.424 0,32.4049 0,64.8099 0,97.2148 3.0691,2.309 8.4806,0.3509 12.4366,0.9996 9.4359,0 18.8719,0 28.3078,0 0.2501,13.7187 -0.4988,27.6649 0.3755,41.2414 38.7342,0.5082 77.6283,0.073 116.424,0.2178 107.4605,0 214.9209,0 322.3813,0 2.309,-3.0691 0.3509,-8.4806 0.9997,-12.4366 -0.2436,-5.4756 0.4916,-11.1741 -0.3756,-16.5078 -6.0905,1.5039 -4.603,-3.8139 -4.6282,-8.0807 -0.1353,-149.8318 0.3336,-299.6669 -0.469,-449.4964 -1.0344,-3.02 1.4361,-9.1648 -2.1808,-10.1293 -37.966,0.2246 -75.951,-0.4735 -113.9054,0.4133 -1.7396,-0.6796 -3.5688,1.6454 -3.5294,2.0956 -0.6426,-3.3813 -5.5771,-1.7869 -7.9909,-2.3617 -26.5001,-0.2985 -53.0039,-0.079 -79.5054,-0.1472 -2.2922,2.9581 -0.3777,8.2281 -0.9997,12.0793 2.0285,6.1274 -4.0818,4.1162 -7.9355,4.3615 -4.383,0.07 -10.0169,1.3907 -7.9356,-5.0037 -0.6068,-3.6375 1.2953,-8.7065 -0.9996,-11.4371 -34.311,0.2273 -68.6438,-0.4774 -102.9416,0.4161 -1.7044,-0.665 -3.3027,1.7502 -3.2767,2.0928 -0.861,-3.4664 -6.0446,-1.6432 -8.6239,-2.326 -37.2494,-0.3743 -74.5029,-0.096 -111.7539,-0.1829 l -0.6444,0.3095 z m 435.7464,146.731 c 4.383,-0.07 10.0169,-1.3907 7.9356,5.0037 -0.867,3.2321 1.8478,10.0459 -1.4297,10.8674 -4.8138,0 -9.6276,0 -14.4414,0 0,-5.2904 0,-10.5807 0,-15.8711 2.6451,0 5.2903,0 7.9355,0 z m -199.4332,79.3444 c 4.383,-0.07 10.0169,-1.3907 7.9355,5.0037 -0.8669,3.2321 1.8479,10.0459 -1.4296,10.8674 -4.8138,0 -9.6276,0 -14.4415,0 0,-5.2904 0,-10.5807 0,-15.8711 2.6452,0 5.2904,0 7.9356,0 z m 0,228.0258 c 4.383,-0.07 10.0169,-1.3907 7.9355,5.0037 -0.8669,3.2321 1.8479,10.0459 -1.4296,10.8674 -4.8138,0 -9.6276,0 -14.4415,0 0,-5.2904 0,-10.5807 0,-15.8711 2.6452,0 5.2904,0 7.9356,0 z"
       id="path7923" />
    <path
       style="fill:#00ffff;stroke-width:0.714814;stroke-miterlimit:10"
       d="m 1537.8561,2561.2707 c -0.8691,1.7061 0.5374,4.7195 -0.6254,6.0354 -4.9822,-1.4413 -5.1197,2.9445 -4.596,6.7405 0,133.432 0,266.8641 0,400.2961 3.0691,2.309 8.4806,0.3509 12.4366,0.9996 66.0012,0 132.0024,0 198.0036,0 2.309,-3.0691 0.3509,-8.4806 0.9996,-12.4366 0,-21.1113 0,-42.2225 0,-63.3337 3.9465,-0.2635 8.13,0.5135 11.9341,-0.3756 0.3275,-18.3184 0.4451,-36.8117 -0.099,-55.1803 0.045,-1.7185 -1.5131,-2.5407 -0.1884,-3.9147 1.1244,-15.2406 0.1996,-30.6066 0.5054,-45.8919 -3.0692,-2.309 -8.4806,-0.3509 -12.4367,-0.9997 -21.9145,0.059 -43.4365,-0.017 -65.4781,0 0,-77.105 0,-154.21 0,-231.315 -3.0691,-2.309 -8.4806,-0.3509 -12.4367,-0.9996 -42.4123,0 -84.8246,0 -127.2369,0 l -0.6444,0.3095 z"
       id="path7924" />
    <path
       style="fill:#00ffff;stroke-width:0.714814;stroke-miterlimit:10"
       d="m 1684.3931,2561.2707 c -0.5082,38.7342 -0.073,77.6283 -0.2178,116.424 0,36.6938 0,73.3876 0,110.0814 3.0691,2.309 8.4806,0.3509 12.4367,0.9997 17.3249,-0.05 34.087,-0.01 51.4666,0 2.7801,-2.4975 -0.607,-9.255 1.7144,-11.4371 5.3576,1.4188 7.7582,-1.4977 6.4334,-6.7181 0,-68.1457 0,-136.2913 0,-204.4369 -1.1777,-2.4911 -5.6352,0.1573 -7.1384,-1.4925 1.4853,-5.8167 -5.5319,-3.2892 -8.8724,-3.796 -18.5382,0.206 -37.2642,-0.4124 -55.685,0.3095 z"
       id="path7925" />
    <path
       style="fill:#00ffff;stroke-width:0.714814;stroke-miterlimit:10"
       d="m 1619.6661,2983.3602 c -29.1779,0.2123 -58.4062,-0.2722 -87.5537,0.5968 -4.6877,0.6308 -1.3243,7.3446 -2.337,10.5792 0.2527,4.4609 -0.5124,9.1535 0.3756,13.4698 4.5668,0.5057 9.2924,0.074 13.9207,0.2178 0,5.2903 0,10.5807 0,15.8711 -3.4395,0.9386 -10.0611,-2.003 -11.437,1.7144 0.2563,9.7616 -0.5063,19.7552 0.3755,29.3744 38.7342,0.5082 77.6283,0.073 116.424,0.2178 33.8346,0 67.6691,0 101.5037,0 2.3089,-3.0691 0.3508,-8.4806 0.9996,-12.4366 -0.2501,-7.1421 0.5057,-14.5132 -0.3756,-21.5115 -6.2328,1.4016 -3.248,-5.644 -3.9133,-9.5104 -0.2507,-9.4297 0.5051,-19.0885 -0.3756,-28.3747 -38.4661,-0.5055 -77.0921,-0.078 -115.6198,-0.2136 -3.9957,0 -7.9914,0 -11.9871,0.01 z"
       id="path7926" />
    <path
       style="fill:#00ffff;stroke-width:0.714814;stroke-miterlimit:10"
       d="m 1827.356,2844.3372 c -0.1188,8.2061 -0.83,16.7336 0.3993,24.911 1.0888,1.2132 -1.148,2.9523 -0.4775,4.7245 -0.039,8.4336 -0.5719,17.0896 0.2359,25.3815 38.6151,0.508 77.39,0.073 116.0666,0.2178 13.8914,-0.2086 27.9725,0.4157 41.7462,-0.3095 0.623,-8.9234 0.5219,-18.3837 0.01,-27.4943 -0.6266,-1.4778 -0.8328,-1.9749 -0.01,-3.4023 0.5402,-8.0137 0.6335,-16.2926 -0.018,-24.1865 -38.615,-0.508 -77.39,-0.073 -116.0666,-0.2177 -13.8913,0.2086 -27.9724,-0.4158 -41.7461,0.3095 z"
       id="path7927" />
    <path
       style="fill:#00ffff;stroke-width:0.714814;stroke-miterlimit:10"
       d="m 1888.1152,2780.7187 c -0.5077,18.9578 -0.072,38.0753 -0.2178,57.0944 3.0691,2.309 8.4806,0.3509 12.4367,0.9997 28.116,0 56.232,0 84.3481,0 2.302,-2.8323 0.3559,-8.0055 0.9996,-11.7247 -0.571,-3.6788 1.0811,-8.4223 -1.3347,-11.5361 -2.1603,-0.3417 1.2819,-0.4689 0.8851,-1.7717 0.769,-7.3812 0.5958,-15.0534 0.1401,-22.3596 -2.7717,-1.7413 -9.792,1.7236 -10.4127,-1.7849 -0.77,-3.1012 2.2756,-10.2972 -3.1441,-9.2926 -27.6395,0 -55.279,0 -82.9185,0 l -0.6443,0.3095 z"
       id="path7928" />
    <path
       style="fill:#00ffff;stroke-width:0.714814;stroke-miterlimit:10"
       d="m 1824.4967,2764.278 c -0.2325,12.3039 -0.6294,24.8238 0.2653,37.1536 1.2862,1.4709 -0.389,2.4003 -0.2276,4.2009 -0.2896,10.9561 -0.616,22.142 0.1201,32.9625 18.9577,0.5076 38.0753,0.072 57.0944,0.2178 2.309,-3.0692 0.3509,-8.4806 0.9996,-12.4367 0,-20.4913 0,-40.9827 0,-61.474 -3.0691,-2.309 -8.4806,-0.3509 -12.4366,-0.9997 -15.202,0.2082 -30.5934,-0.4152 -45.6777,0.3096 z"
       id="path7929" />
    <path
       style="fill:#00ffff;stroke-width:0.714814;stroke-miterlimit:10"
       d="m 1824.4967,2676.3558 c -0.2749,13.1532 -0.5514,26.5014 0.2122,39.6918 -0.257,1.1553 1.3263,1.7925 1.6293,2.1067 -3.1096,1.227 -1.3547,5.9873 -1.9978,8.5541 0.1234,10.8213 -0.5346,21.8645 0.3141,32.5422 19.9108,0.5076 39.9814,0.072 59.9536,0.2178 2.309,-3.0692 0.3509,-8.4806 0.9997,-12.4367 0,-23.3506 0,-46.7012 0,-70.0518 -3.0692,-2.309 -8.4806,-0.3509 -12.4367,-0.9996 -16.1551,0.2081 -32.4994,-0.4151 -48.5369,0.3095 z"
       id="path7930" />
    <path
       style="fill:#00ffff;stroke-width:0.714814;stroke-miterlimit:10"
       d="m 1890.9745,2737.8299 c -0.5073,11.8096 -0.072,23.779 -0.2178,35.6499 3.0691,2.309 8.4806,0.3509 12.4366,0.9997 27.4012,0 54.8025,0 82.2037,0 2.309,-3.0692 0.3508,-8.4806 0.9996,-12.4367 -0.2507,-8.095 0.5056,-16.4193 -0.3756,-24.3707 -31.3478,-0.5079 -62.8555,-0.072 -94.2647,-0.2178 l -0.6443,0.3095 z"
       id="path7931" />
    <path
       style="fill:#00ffff;stroke-width:0.714814;stroke-miterlimit:10"
       d="m 1890.9745,2622.0299 c -0.5082,36.828 -0.073,73.816 -0.2178,110.7055 3.0691,2.309 8.4806,0.3509 12.4366,0.9996 27.4012,0 54.8025,0 82.2037,0 2.309,-3.0691 0.3508,-8.4806 0.9996,-12.4366 0,-32.8815 0,-65.7629 0,-98.6444 -3.0691,-2.309 -8.4806,-0.3509 -12.4367,-0.9996 -11.4304,0.2522 -23.0907,-0.5049 -34.3781,0.3755 -1.0354,7.973 1.4581,-2.178 -3.507,-0.3755 -14.9635,0.2092 -30.1168,-0.4151 -44.9628,0.3095 z"
       id="path7932" />
    <path
       style="fill:#00ffff;stroke-width:0.714814;stroke-miterlimit:10"
       d="m 1890.9745,2553.4078 c -0.5078,20.8638 -0.072,41.8876 -0.2178,62.8129 3.0691,2.309 8.4806,0.3508 12.4366,0.9996 11.907,-0.2523 24.0438,0.5047 35.8077,-0.3756 1.0453,-6.2796 -1.0976,0.354 2.0775,0.3756 14.9634,-0.2092 30.1167,0.4149 44.9628,-0.3095 0.8285,-14.1604 0.1186,-28.8556 0.3553,-43.2216 -1.0358,-3.1922 2.4161,-10.6124 -2.4293,-10.6496 -3.5964,-0.5026 -10.2827,2.0847 -8.2929,-4.0041 1.8107,-5.9176 -2.592,-6.8829 -7.433,-6.0033 -9.2854,0.2549 -18.8023,-0.5072 -27.9447,0.3756 -0.6091,4.9988 0.118,4.2725 -0.7386,-0.1578 -15.8601,-0.508 -31.8802,-0.073 -47.8018,-0.2178 l -0.6443,0.3095 z"
       id="path7933" />
    <path
       style="fill:#00ffff;stroke-width:0.714814;stroke-miterlimit:10"
       d="m 1824.4967,2553.4078 c -0.3962,23.8464 -0.3211,47.8545 0.029,71.7592 -0.1051,1.9294 0.1654,5.1449 1.7731,5.7814 -3.0292,1.2551 -1.3359,5.8809 -1.9587,8.4186 0.116,10.6293 -0.526,21.4754 0.3141,31.9614 19.9108,0.5077 39.9814,0.072 59.9536,0.2178 2.309,-3.0691 0.3509,-8.4806 0.9997,-12.4367 0,-35.0259 0,-70.0518 0,-105.0777 -3.0692,-2.309 -8.4806,-0.3509 -12.4367,-0.9996 -16.1551,0.2081 -32.4994,-0.415 -48.5369,0.3095 z"
       id="path7934" />
    <path
       style="fill:#00ffff;stroke-width:0.714814;stroke-miterlimit:10"
       d="m 1658.6598,2286.0672 c -0.4764,35.1539 -0.147,70.4667 -0.1366,105.6821 0.3713,6.7771 -0.5265,13.8048 0.9575,20.4393 -1.1048,3.8596 -0.8384,9.2431 -0.9616,13.647 -0.1451,20.8107 -0.049,41.6223 -0.077,62.4333 3.0691,2.309 8.4806,0.3509 12.4366,0.9996 27.5513,-0.037 54.5771,8e-4 82.2037,0 2.309,-3.0691 0.3509,-8.4806 0.9996,-12.4366 0,-45.2716 0,-90.5432 0,-135.8148 -3.0965,-1.9281 -8.6351,0.4665 -6.4333,-6.0033 0.8475,-3.4897 -1.787,-10.4616 1.4296,-11.5822 5.6773,1.8106 5.4153,-3.3933 5.0037,-7.433 -0.2482,-10.0017 0.4979,-20.2298 -0.3755,-30.0892 -31.3478,-0.5079 -62.8555,-0.072 -94.2648,-0.2178 l -0.6443,0.3095 z"
       id="path7935" />
    <path
       style="fill:#00ffff;stroke-width:0.714814;stroke-miterlimit:10"
       d="m 1759.4486,2286.0672 c -0.5078,12.0478 -0.073,24.2554 -0.2178,36.3648 4.8991,0.3724 4.7072,3.9389 4.2889,8.8625 -0.4989,3.8964 2.0585,10.2357 -3.9336,9.0325 -0.8284,14.0413 -0.1189,28.6172 -0.3553,42.8642 0,35.0259 0,70.0518 0,105.0777 3.0691,2.309 8.4806,0.3509 12.4367,0.9996 13.7723,-0.2082 27.7341,0.4157 41.3887,-0.3095 0.7304,-0.7818 0.1699,-7.762 0.5005,-3.89 -1.7802,6.1135 5.323,3.8182 8.8626,4.1995 14.7259,-0.2059 29.6395,0.4122 44.248,-0.3095 0.8284,-14.0413 0.1189,-28.6172 0.3553,-42.8642 0,-53.1345 0,-106.269 0,-159.4036 -3.0691,-2.309 -8.4806,-0.3508 -12.4367,-0.9996 -31.4518,0 -62.9036,0 -94.3555,0 l -0.6443,0.3095 z"
       id="path7936" />
    <path
       style="fill:#00ffff;stroke-width:0.714814;stroke-miterlimit:10"
       d="m 1872.3893,2288.9264 c -0.5082,38.7342 -0.073,77.6283 -0.2178,116.424 0,27.6395 0,55.279 0,82.9185 3.0691,2.309 8.4806,0.3509 12.4366,0.9996 31.3728,-0.031 62.2018,0 93.6407,0 2.309,-3.0691 0.3509,-8.4806 0.9997,-12.4366 0,-45.6942 0,-91.3883 0,-137.0824 -3.0585,-2.1399 -8.5954,-0.7392 -6.4334,-6.8285 -0.2097,-14.6473 0.4159,-29.4849 -0.3095,-44.0148 -14.0413,-0.8284 -28.6172,-0.1189 -42.8642,-0.3553 -19.0147,0.2061 -38.2173,-0.4124 -57.1146,0.3095 z"
       id="path7937" />
    <path
       style="fill:#00ffff;stroke-width:0.714814;stroke-miterlimit:10"
       d="m 1991.7633,2325.382 c -0.5053,4.3286 -0.073,8.8162 -0.2178,13.2059 -5.8202,-1.7766 -6.4942,2.7894 -5.7185,7.4329 0,47.4161 0,94.8321 0,142.2481 3.0691,2.309 8.4806,0.3509 12.4366,0.9996 31.367,-0.032 62.2012,0 93.6407,0 2.309,-3.0691 0.3509,-8.4806 0.9996,-12.4366 0,-50.2753 0,-100.5506 0,-150.8259 -3.0691,-2.309 -8.4806,-0.3508 -12.4366,-0.9996 -29.3074,0 -58.6148,0 -87.9222,0 l -0.6443,0.3095 z"
       id="path7938" />
    <path
       style="fill:#00ffff;stroke-width:0.714814;stroke-miterlimit:10"
       d="m 2220.5039,2553.4078 c -1.2985,3.2899 2.3446,10.7645 -3.7919,8.917 -5.4019,-1.4707 -7.727,1.5341 -6.4333,6.7181 0,67.9074 0,135.8148 0,203.7221 2.4974,2.7801 9.255,-0.607 11.437,1.7145 0,5.0521 0,10.1042 0,15.1563 -3.4394,0.9386 -10.0611,-2.0031 -11.437,1.7144 0,69.0987 0,138.1974 0,207.2962 2.4974,2.78 9.255,-0.607 11.437,1.7144 0,5.2904 0,10.5807 0,15.8711 -5.6149,-1.75 -5.4589,3.351 -5.0037,7.433 0.255,8.8088 -0.5076,17.8493 0.3756,26.5151 13.954,0.508 28.0678,0.073 42.0833,0.2178 2.309,-3.0691 0.3509,-8.4806 0.9996,-12.4366 -0.2501,-7.1421 0.5057,-14.5132 -0.3756,-21.5115 -6.0905,1.5039 -4.6029,-3.8139 -4.6281,-8.0807 0.4368,-3.9006 -2.0519,-10.7265 4.2889,-8.723 3.7034,0.038 9.7255,1.2787 7.863,-4.5737 -0.1813,-60.7229 0.389,-121.4535 -0.3533,-182.1716 0.1281,-1.8602 -0.456,-4.4893 -0.7846,-5.8595 2.3246,-3.3927 0.544,-8.2307 1.1379,-12.1169 1.9314,-6.0356 -3.5349,-5.6854 -7.7904,-5.2885 -6.1274,2.0284 -4.1162,-4.0819 -4.3615,-7.9356 -0.07,-4.383 -1.3907,-10.0169 5.0037,-7.9356 4.2388,0.6229 8.9489,0.3217 7.1482,-5.2885 -10e-5,-68.3839 0,-136.7678 0,-205.1517 -2.9498,-2.3066 -8.2456,-0.3467 -12.0793,-0.9996 -1.056,-2.703 2.1738,-9.588 -2.5018,-9.2926 -10.7089,0.2483 -21.6706,-0.4979 -32.2337,0.3756 z"
       id="path7939" />
    <path
       style="fill:#00ffff;stroke-width:0.714814;stroke-miterlimit:10"
       d="m 1991.7633,2553.4078 c -0.5082,38.7341 -0.073,77.6283 -0.2178,116.424 0.2091,47.0321 -0.4544,94.0793 0.5115,141.1018 -0.9148,1.8753 1.5171,4.5764 1.8731,4.4355 -3.4386,0.798 -1.7229,5.8468 -2.3135,8.3515 0.1722,15.2423 -0.7307,30.588 0.6423,45.7691 -1.1184,25.0898 -0.5154,50.6884 -0.7135,75.963 -0.2495,23.9225 0.5229,47.9459 -0.5919,71.8054 -0.9016,0.7033 -2.3729,1.7221 -2.069,3.4288 -0.1942,9.8005 -0.5767,19.8305 0.1773,29.4931 38.7342,0.5082 77.6283,0.073 116.424,0.2178 32.4049,0 64.8098,0 97.2147,0 2.309,-3.0691 0.3509,-8.4806 0.9997,-12.4366 0,-161.3098 0,-322.6196 0,-483.9294 -3.0692,-2.309 -8.4806,-0.3509 -12.4367,-0.9996 -66.2395,0 -132.4789,0 -198.7184,0 l -0.6443,0.3095 z"
       id="path7940" />
    <path
       style="fill:#00ffff;stroke-width:0.714814;stroke-miterlimit:10"
       d="m 2275.5446,2859.3483 c -0.508,38.6151 -0.073,77.39 -0.2178,116.0666 0,13.8439 0,27.6879 0,41.5318 -5.8202,-1.7765 -6.4941,2.7895 -5.7185,7.433 0.2475,8.5722 -0.4969,17.3704 0.3755,25.8003 38.6151,0.508 77.39,0.073 116.0666,0.2178 34.6685,0 69.337,0 104.0055,0 2.309,-3.0691 0.3509,-8.4806 0.9997,-12.4366 -0.2504,-7.6186 0.5056,-15.4662 -0.3756,-22.9411 -5.9888,1.3774 -3.4076,-5.0639 -3.9133,-8.8682 -1.7684,-6.0814 2.1041,-6.5221 7.1481,-5.7911 4.3704,-0.2714 9.2095,-1.0114 7.2934,5.0037 -0.9614,3.0427 2.4317,10.44 -2.5745,9.4378 -6.3457,-1.9208 -4.3351,5.0645 -4.5737,8.8626 0.2539,8.809 -0.5071,17.8492 0.3756,26.5151 38.615,0.5081 77.39,0.073 116.0666,0.2178 35.145,0 70.29,0 105.4351,0 2.309,-3.0691 0.3509,-8.4806 0.9996,-12.4366 -0.247,-7.8576 0.4962,-15.9406 -0.3756,-23.6559 -5.9888,1.3774 -3.4076,-5.0639 -3.9133,-8.8682 -1.5726,-5.6716 1.576,-6.622 6.5059,-5.7911 5.2554,0.4935 1.7965,-7.1292 2.7867,-10.2922 -0.2492,-13.8138 0.4992,-27.8549 -0.3756,-41.5263 -38.7341,-0.5081 -77.6283,-0.073 -116.424,-0.2178 -62.9744,0 -125.9488,0 -188.9232,0 -30.3149,-29.4269 -60.6298,-58.8539 -90.9447,-88.2809 -10.8036,-0.7581 -21.8786,-0.05 -32.5059,-0.356 -5.6955,0.2542 -11.6784,-0.5102 -17.2226,0.3755 z"
       id="path7941" />
    <path
       style="fill:#00ffff;stroke-width:0.714814;stroke-miterlimit:10"
       d="m 2933.5424,2776.3614 c -46.5818,56.3728 -93.1421,112.764 -139.763,169.1039 -22.1248,0 -44.2496,0 -66.3744,0 -2.3071,3.0699 -0.3368,8.4814 -0.9792,12.438 0.051,28.5926 0.1023,57.1852 0.1541,85.7778 3.0713,2.3063 8.4803,0.35 12.4367,0.9982 65.4562,0 130.9125,0 196.3687,0 2.309,-3.0691 0.3509,-8.4806 0.9996,-12.4367 0,-11.8186 0,-23.6372 0,-35.4559 17.9667,-0.2066 36.1212,0.412 53.9706,-0.3095 0.8284,-14.0413 0.1189,-28.6172 0.3553,-42.8641 0,-57.4235 0,-114.8469 0,-172.2703 -3.0691,-2.309 -8.4806,-0.3509 -12.4366,-0.9996 -8.095,0.2507 -16.4193,-0.5056 -24.3707,0.3755 0.8465,5.4349 -1.1852,7.2288 -6.6512,6.0578 -3.5239,-0.8375 -10.3693,1.7767 -11.6148,-1.4286 -0.8734,-2.1702 1.4301,-9.9566 -2.0951,-8.9865 z"
       id="path7942" />
    <path
       style="fill:#00ffff;stroke-width:0.714814;stroke-miterlimit:10"
       d="m 2869.5554,2331.8153 c -0.3259,16.479 -0.4482,33.1349 0.1019,49.6628 0.1468,1.7692 1.4414,2.4671 0.2317,4.0334 -1.138,21.5248 -0.2328,43.1368 -0.5079,64.6935 0.1633,7.7655 -0.3045,15.6426 0.2496,23.339 20.8289,24.7419 41.6581,49.4835 62.4877,74.2248 4.1663,0.6249 -0.616,-9.1488 5.7115,-6.3188 4.3322,0 8.6643,0 12.9965,0 -1.7766,5.8202 2.7894,6.4941 7.433,5.7185 10.7151,-0.2546 21.6613,0.5061 32.2336,-0.3756 0.5079,-38.6151 0.073,-77.3899 0.2178,-116.0666 0,-32.7623 0,-65.5246 0,-98.2869 -3.0691,-2.309 -8.4806,-0.3509 -12.4366,-0.9997 -35.979,0 -71.958,0 -107.937,0 l -0.6443,0.3095 z"
       id="path7943" />
    <path
       style="fill:#00ffff;stroke-width:0.714814;stroke-miterlimit:10"
       d="m 2417.5316,2389.6161 c -29.4262,27.7074 -58.8527,55.4144 -88.2796,83.1209 -0.736,17.2676 -0.1025,34.8182 -0.3141,52.1941 0,108.9673 0,217.9346 0,326.9019 14.5327,16.1111 30.0981,31.5558 45.027,47.4112 14.2019,14.5554 27.9676,29.7409 42.4411,43.9039 124.7449,0.064 249.5142,0.01 374.2685,0.028 9.2274,-9.8025 17.4719,-20.8754 26.3079,-31.177 39.2593,-47.1526 77.7802,-94.9319 117.7565,-141.4814 3.1315,-1.9533 7.6725,-0.4593 11.2939,-0.8281 6.6289,-2.7514 2.6717,5.6789 7.3094,5.5051 12.354,-0.2554 24.9393,0.5051 37.1508,-0.3756 0.508,-38.615 0.073,-77.39 0.2178,-116.0666 0,-34.6685 0,-69.337 0,-104.0055 -3.0691,-2.309 -8.4806,-0.3508 -12.4366,-0.9996 -9.048,0.2514 -18.3255,-0.5054 -27.23,0.3756 1.5038,6.0908 -3.8139,4.6023 -8.0808,4.6268 -3.166,-0.7248 -8.2717,1.5965 -10.1386,-2.0356 -46.8181,-55.9361 -94.2724,-111.3371 -141.4271,-166.9916 -14.1567,-0.8258 -28.6507,-0.1161 -42.9364,-0.3546 -110.0814,-0.01 -220.1628,-0.015 -330.2442,-0.024 l -0.6644,0.2638 z m 78.6003,153.2635 c 4.383,-0.07 10.0168,-1.3907 7.9355,5.0037 -0.8669,3.2321 1.8479,10.0459 -1.4296,10.8674 -4.8138,0 -9.6277,0 -14.4415,0 0,-5.2904 0,-10.5807 0,-15.8711 2.6452,0 5.2904,0 7.9356,0 z m 226.2387,0 c 4.4232,0.01 10.3554,-1.491 8.293,5.0037 -0.8669,3.2321 1.8478,10.0459 -1.4297,10.8674 -5.0521,0 -10.1042,0 -15.1563,0 0,-5.2904 0,-10.5807 0,-15.8711 2.7644,0 5.5287,0 8.293,0 z m 0,223.0221 c 4.4232,0.01 10.3554,-1.491 8.293,5.0037 -0.8669,3.2321 1.8478,10.0459 -1.4297,10.8674 -5.0521,0 -10.1042,0 -15.1563,0 0,-5.2904 0,-10.5807 0,-15.8711 2.7644,0 5.5287,0 8.293,0 z m -226.2387,3.5741 c 4.383,-0.07 10.0168,-1.3908 7.9355,5.0037 -0.8669,3.2321 1.8479,10.0459 -1.4296,10.8674 -4.8138,0 -9.6277,0 -14.4415,0 0,-5.2904 0,-10.5808 0,-15.8711 2.6452,0 5.2904,0 7.9356,0 z"
       id="path7944" />
    <path
       style="fill:#00ffff;stroke-width:0.714814;stroke-miterlimit:10"
       d="m 2504.2852,2271.0561 c -1.5736,3.2578 2.2845,11.1792 -2.3622,11.0614 -4.2446,-0.361 -9.8323,-0.7868 -7.863,5.2886 0.2559,9.5234 -0.5072,19.2789 0.3756,28.6595 3.4677,1.3652 11.3513,-2.4584 9.6318,3.7919 -1.4707,5.4019 1.5341,7.727 6.7181,6.4333 67.1926,0 134.3852,0 201.5777,0 3.301,-1.9735 -1.9203,-10.5736 3.1441,-10.0074 4.3373,0 8.6745,0 13.0118,0 0.8977,3.2196 -2.4447,10.9234 3.1441,10.0074 14.36,-0.3181 28.8128,0.6426 43.122,-0.5277 1.3628,-1.5398 2.5705,0.3022 4.4229,0.057 39.893,0.957 79.8169,0.2445 119.7217,0.4705 13.8138,-0.2492 27.8548,0.4993 41.5262,-0.3755 1.3652,-3.4678 -2.4584,-11.3513 3.7919,-9.6319 3.4793,0.858 10.4687,-1.7942 11.5822,1.4297 0.1674,3.7628 -1.6206,10.498 4.5737,8.5777 11.6681,-0.2549 23.5674,0.5054 35.0929,-0.3755 0.5076,-18.0047 0.072,-36.1691 0.2178,-54.2352 -3.0691,-2.309 -8.4806,-0.3508 -12.4366,-0.9996 -9.048,0.2514 -18.3255,-0.5054 -27.23,0.3756 -1.5736,3.2578 2.2845,11.1792 -2.3622,11.0614 -4.3373,0 -8.6746,0 -13.0119,0 -0.9386,-3.4394 2.003,-10.061 -1.7144,-11.437 -69.8136,0 -139.6271,0 -209.4406,0 -2.7801,2.4974 0.607,9.255 -1.7145,11.437 -4.8138,0 -9.6276,0 -14.4415,0 -0.9386,-3.4394 2.0031,-10.061 -1.7144,-11.437 -68.8605,0 -137.7209,0 -206.5814,0 l -0.6443,0.3095 z"
       id="path7945" />
    <path
       style="fill:#00ffff;stroke-width:0.714814;stroke-miterlimit:10"
       d="m 2956.7627,2052.3229 c 1.468,6.2984 -3.2345,5.6567 -8.0807,5.3429 -43.6582,0.2083 -87.3307,-0.4432 -130.98,0.3987 -1.9603,-0.4845 -3.5182,1.6999 -4.9925,0.3161 -16.576,-1.3426 -33.2976,-0.3997 -49.9267,-0.7134 -22.9604,0.2455 -45.9664,-0.5282 -68.8987,0.638 -1.091,-0.4514 -1.6762,1.4374 -1.9671,1.3808 -1.5704,-2.9062 -6.154,-1.2387 -8.8971,-1.8695 -43.8045,-0.3261 -86.9927,-0.046 -130.7751,-0.1507 -19.9648,0.036 -39.3335,0.014 -59.3296,0 -2.309,3.0691 -0.3509,8.4806 -0.9996,12.4367 0,65.2864 0,130.5727 0,195.8591 3.0691,2.309 8.4806,0.3509 12.4366,0.9996 163.4542,0 326.9085,0 490.3627,0 2.309,-3.0691 0.3509,-8.4806 0.9996,-12.4366 0,-67.1926 0,-134.3851 0,-201.5777 -3.0691,-2.309 -8.4806,-0.3508 -12.4366,-0.9996 -8.8013,0.2475 -17.8604,-0.4968 -26.5152,0.3756 z"
       id="path7946" />
    <path
       style="fill:#00ffff;stroke-width:0.714814;stroke-miterlimit:10"
       d="m 2789.4961,1887.9156 c -0.5081,38.7341 -0.073,77.6283 -0.2177,116.424 0.2059,15.4407 -0.4122,31.0691 0.3095,46.3924 7.4537,0.5474 15.4805,0.6642 23.0992,-0.094 1.4419,-1.3937 2.6873,0.7506 4.6016,0.3058 6.9585,0.068 14.1307,0.5521 20.9489,-0.2318 0.5081,-38.7341 0.073,-77.6283 0.2177,-116.424 -0.2059,-15.4407 0.4122,-31.0691 -0.3095,-46.3924 -8.8159,-0.9099 -18.4213,0.01 -27.1382,-0.3553 -7.1274,0.258 -14.5325,-0.5098 -21.5115,0.3756 z"
       id="path7947" />
    <path
       style="fill:#00ffff;stroke-width:0.714814;stroke-miterlimit:10"
       d="m 2710.1517,1886.4859 c -0.5076,19.9108 -0.072,39.9815 -0.2177,59.9537 3.0691,2.309 8.4806,0.3509 12.4366,0.9996 20.4914,0 40.9827,0 61.474,0 2.309,-3.0691 0.3509,-8.4806 0.9997,-12.4366 -0.2081,-16.1551 0.415,-32.4995 -0.3095,-48.5369 -10.9672,-0.7184 -22.4577,-0.3591 -33.6261,-0.1054 -2.1024,-0.1553 -3.6058,1.3412 -5.5007,0.2317 -11.4602,-0.9129 -22.9885,-0.2875 -34.4744,-0.4816 l -0.6444,0.3095 z"
       id="path7948" />
    <path
       style="fill:#00ffff;stroke-width:0.714814;stroke-miterlimit:10"
       d="m 2669.4073,1950.8192 c -0.5079,34.2071 -0.072,68.574 -0.2178,102.8425 2.9553,2.2968 8.235,0.366 12.0793,0.9997 3.1922,-1.0358 10.6124,2.4161 10.6496,-2.4293 -0.1411,-2.5419 0.3497,5.5599 4.0041,2.4293 7.1402,-0.2582 14.5141,0.51 21.5114,-0.3756 0.5053,-4.3286 0.073,-8.8162 0.2178,-13.2059 5.0521,0 10.1042,0 15.1563,0 0.264,4.4229 -0.5136,9.0831 0.3756,13.3637 16.8132,0.508 33.7863,0.073 50.661,0.2178 2.309,-3.0692 0.3509,-8.4806 0.9997,-12.4367 0,-30.2605 0,-60.5209 0,-90.7814 -3.0692,-2.309 -8.4806,-0.3509 -12.4367,-0.9996 -34.0728,0 -68.1456,0 -102.2184,0 l -0.6444,0.3095 z"
       id="path7949" />
    <path
       style="fill:#00ffff;stroke-width:0.714814;stroke-miterlimit:10"
       d="m 2562.9,1950.8192 c -0.5079,34.2071 -0.072,68.574 -0.2178,102.8425 3.0691,2.309 8.4806,0.3509 12.4366,0.9997 12.757,-0.349 25.6416,0.7018 38.3292,-0.6129 1.3278,-1.3413 2.9001,1.0561 4.825,0.4216 14.9174,0.3953 29.8462,0.097 44.768,0.1913 2.309,-3.0692 0.3509,-8.4806 0.9996,-12.4367 0,-30.2605 0,-60.5209 0,-90.7814 -3.0691,-2.309 -8.4806,-0.3509 -12.4366,-0.9996 -29.3074,0 -58.6148,0 -87.9222,0 l -0.6443,0.3095 z"
       id="path7950" />
    <path
       style="fill:#00ffff;stroke-width:0.714814;stroke-miterlimit:10"
       d="m 2620.0851,1886.4859 c -0.5076,19.9108 -0.072,39.9815 -0.2178,59.9537 3.0692,2.309 8.4806,0.3509 12.4367,0.9996 23.5889,0 47.1777,0 70.7666,0 2.309,-3.0691 0.3509,-8.4806 0.9996,-12.4366 -0.2081,-16.1551 0.4151,-32.4995 -0.3095,-48.5369 -13.5187,-0.8021 -27.5652,-0.1779 -41.2906,-0.3007 -5.2273,0.4242 -10.8594,-0.5397 -15.8782,0.9548 -0.5396,1.181 -1.4286,-1.3459 -2.5982,-0.6534 -7.9107,-0.4192 -16.1296,-0.7122 -23.9086,0.019 z"
       id="path7951" />
    <path
       style="fill:#00ffff;stroke-width:0.714814;stroke-miterlimit:10"
       d="m 2492.1334,1886.4859 c -0.5077,19.9108 -0.072,39.9815 -0.2178,59.9537 3.0691,2.309 8.4806,0.3509 12.4366,0.9996 36.4556,0 72.9111,0 109.3666,0 2.309,-3.0691 0.3509,-8.4806 0.9996,-12.4366 -0.2081,-16.1551 0.4151,-32.4995 -0.3095,-48.5369 -9.3525,-0.6955 -19.2236,-0.3768 -28.7773,-0.1529 -1.664,-0.3496 -3.1324,1.381 -3.0547,2.439 -0.5252,-3.564 -5.6878,-1.9072 -8.1473,-2.4934 -27.1697,-0.3014 -54.3432,-0.078 -81.5144,-0.148 l -0.6443,0.3095 z"
       id="path7952" />
    <path
       style="fill:#00ffff;stroke-width:0.714814;stroke-miterlimit:10"
       d="m 2492.1334,1950.8192 c -0.5082,29.6799 -0.073,59.5197 -0.2178,89.2611 2.9497,2.3066 8.2456,0.3467 12.0792,0.9996 1.1242,2.8833 -2.2701,10.143 2.5019,10.0074 5.8023,-0.5513 12.1553,1.0703 17.6804,-0.9396 1.6981,0.5667 4.7373,1.0083 6.9835,0.8768 8.6951,-0.1051 17.6033,0.5203 26.1549,-0.3128 0.5081,-33.0156 0.073,-66.1912 0.2178,-99.2684 -3.0691,-2.309 -8.4806,-0.3509 -12.4367,-0.9996 -17.5847,0.208 -35.3586,-0.4148 -52.8257,0.3095 z"
       id="path7953" />
    <path
       style="fill:#00ffff;stroke-width:0.714814;stroke-miterlimit:10"
       d="m 2956.0479,1827.8711 c 1.1022,5.477 -5.5365,2.4581 -8.8682,3.1986 -4.2577,-0.4197 -9.7496,-0.7522 -7.7903,5.2885 -0.3085,1.7156 0.3004,4.168 0.9451,5.1921 -2.0716,4.6122 -0.354,10.2353 -0.9451,15.1801 -1.3202,4.4878 5.4816,2.23 6.7586,2.8802 -3.5846,-0.1449 -8.48,-0.6781 -6.7586,4.6253 0.5939,4.1182 -1.1524,9.0832 1.061,12.7773 -0.1,1.3252 -0.9628,4.0123 -0.7382,5.8994 -0.68,52.6221 -0.156,105.2559 -0.3228,157.8825 3.0691,2.309 8.4806,0.3509 12.4366,0.9996 6.3261,-2.1585 3.6258,3.6032 5.7185,6.4333 10.4766,-0.2558 21.1847,0.5054 31.5189,-0.3755 0.5081,-38.7342 0.073,-77.6283 0.2178,-116.424 0,-34.3111 0,-68.6222 0,-102.9333 -3.0691,-2.309 -8.4806,-0.3509 -12.4367,-0.9996 -6.8928,0.246 -14.0512,-0.4948 -20.7966,0.3755 z"
       id="path7954" />
    <path
       style="fill:#00ffff;stroke-width:0.714814;stroke-miterlimit:10"
       d="m 2279.1187,2049.4636 c 1.3154,5.9266 -2.6644,5.806 -7.4386,5.343 -5.421,-1.5308 -7.6165,1.6023 -6.3607,6.7181 0,31.6901 0,63.3802 0,95.0703 3.0691,2.309 8.4806,0.3509 12.4367,0.9996 50.7448,0 101.4896,0 152.2345,0 2.309,-3.0691 0.3513,-8.4806 1.0002,-12.4366 0,-31.6901 0,-63.3802 0,-95.0703 -3.0691,-2.309 -8.4806,-0.3509 -12.4367,-0.9996 -46.219,0 -92.4381,0 -138.6572,0 l -0.6443,0.3095 z"
       id="path7955" />
    <path
       style="fill:#00ffff;stroke-width:0.714814;stroke-miterlimit:10"
       d="m 2229.7965,1821.4378 c -0.5082,38.7342 -0.073,77.6283 -0.2178,116.424 0,34.7877 0,69.5753 0,104.3629 3.0691,2.309 8.4806,0.3509 12.4366,0.9996 7.1421,-0.25 14.5132,0.5058 21.5115,-0.3755 -1.388,-6.1234 2.9586,-5.7428 7.7959,-5.343 4.9635,-0.4722 9.0363,-0.668 7.8877,5.3632 14.0413,0.8284 28.6172,0.1189 42.8641,0.3553 35.979,0 71.958,0 107.937,0 2.309,-3.0691 0.3509,-8.4806 0.9996,-12.4366 0.026,-40.0947 -0.042,-80.2716 0,-120.0888 0,-29.5457 0,-59.0914 0,-88.637 -3.0691,-2.309 -8.4806,-0.3509 -12.4366,-0.9996 -46.2247,0 -92.4493,0 -138.674,0 -0.3739,4.5412 -4.2818,3.7108 -8.5778,3.574 -4.368,0.2078 -8.0641,0.8325 -8.5777,-3.574 -10.9453,0.2551 -22.1491,-0.5045 -32.9485,0.3755 z"
       id="path7956" />
    <path
       style="fill:#00ffff;stroke-width:0.714814;stroke-miterlimit:10"
       d="m 2229.7965,1592.6972 c -0.5081,38.6151 -0.073,77.39 -0.2178,116.0666 0,35.145 0,70.2901 0,105.4351 3.0691,2.309 8.4806,0.3509 12.4366,0.9996 7.1421,-0.25 14.5132,0.5058 21.5115,-0.3755 -1.388,-6.1234 2.9586,-5.7428 7.7959,-5.343 4.9635,-0.4722 9.0363,-0.668 7.8877,5.3633 14.0413,0.8283 28.6172,0.1189 42.8641,0.3552 35.979,0 71.958,0 107.937,0 2.309,-3.0691 0.3509,-8.4806 0.9996,-12.4366 0.026,-40.3305 -0.041,-80.7519 0,-120.8036 0,-29.5457 0,-59.0914 0,-88.637 -3.0691,-2.309 -8.4806,-0.3509 -12.4366,-0.9996 -46.4629,0 -92.9259,0 -139.3888,0 -0.4329,4.7409 -3.6675,4.7905 -8.5778,4.2888 -4.8862,0.4956 -8.2023,0.4814 -8.5778,-4.2888 -10.7088,0.2482 -21.6705,-0.4979 -32.2336,0.3755 z"
       id="path7957" />
    <path
       style="fill:#00ffff;stroke-width:0.714814;stroke-miterlimit:10"
       d="m 2495.7074,1679.9046 c -0.5081,38.615 -0.072,77.39 -0.2178,116.0666 0.2578,6.3063 -0.5111,12.8464 0.3756,19.0096 2.9239,1.5668 10.3774,-2.1431 10.3467,2.0774 0.1547,4.8828 7.6979,1.3658 11.007,2.4292 32.1666,0 64.3333,0 96.4999,0 2.309,-3.0691 0.3509,-8.4806 0.9996,-12.4366 -0.033,-41.859 0.022,-84.3507 0,-126.5222 -3.0691,-2.309 -8.4806,-0.3508 -12.4366,-0.9996 -35.2642,0 -70.5284,0 -105.7925,0 l -0.6444,0.3095 z"
       id="path7958" />
    <path
       style="fill:#00ffff;stroke-width:0.714814;stroke-miterlimit:10"
       d="m 2495.7074,1606.9935 c -0.5077,22.2935 -0.072,44.7469 -0.2178,67.1018 3.0692,2.309 8.4806,0.3509 12.4367,0.9996 37.0754,0 74.1508,0 111.2262,0 -0.022,46.4065 0.034,92.9898 0,139.104 -2.0015,6.2506 3.872,5.587 8.1478,5.2885 12.2775,-0.3776 24.7246,0.7801 36.9093,-0.7874 14.2485,1.5014 29.109,0.4564 43.5673,0.7874 3.7966,-0.6718 9.1192,1.3453 12.0193,-0.9996 -1.4853,-5.8225 6.2912,-2.3833 9.7226,-3.2893 6.761,-2.7572 3.5892,4.7209 8.5777,4.2889 32.8815,0 65.7629,0 98.6444,0 0.3418,-4.6728 4.5468,-3.6331 8.8626,-3.574 15.8223,-0.2063 31.8324,0.4122 47.5373,-0.3096 0.8284,-14.0412 0.1189,-28.6172 0.3553,-42.8641 0,-55.0407 0,-110.0814 0,-165.1221 -3.0692,-2.309 -8.4806,-0.3509 -12.4367,-0.9997 -128.19,0 -256.3801,0 -384.5701,0 l -0.6444,0.3096 z"
       id="path7959" />
    <path
       style="fill:#00ffff;stroke-width:0.714814;stroke-miterlimit:10"
       d="m 2900.2924,1606.9935 c -0.5082,38.7342 -0.073,77.6283 -0.2178,116.424 0,30.4987 0,60.9975 0,91.4962 3.0691,2.309 8.4806,0.3509 12.4366,0.9997 25.2568,0 50.5136,0 75.7704,0 2.309,-3.0692 0.3508,-8.4806 0.9996,-12.4367 0,-65.2864 0,-130.5728 0,-195.8591 -3.0691,-2.309 -8.4806,-0.3509 -12.4367,-0.9997 -25.2567,0 -50.5135,0 -75.7703,0 l -0.6443,0.3096 z"
       id="path7960" />
    <path
       style="fill:#00ffff;stroke-width:0.714814;stroke-miterlimit:10"
       d="m 2731.5962,1094.4716 c -0.5077,17.6714 -0.072,35.5027 -0.2178,53.2355 -4.8138,0 -9.6277,0 -14.4415,0 -0.2458,-5.6184 0.492,-11.4609 -0.3756,-16.9377 -38.6151,-0.5079 -77.3899,-0.073 -116.0665,-0.2178 -30.8562,0 -61.7124,0 -92.5685,0 -2.289,2.9597 -0.3783,8.2278 -0.9996,12.0792 0.5466,4.7648 0.6022,9.0386 -5.4337,7.2207 -5.9177,-1.8107 -6.8829,2.592 -6.0034,7.433 -0.026,39.8575 0.042,79.7932 0,119.374 0,27.6395 0,55.279 0,82.9185 1.7181,3.2998 10.1063,-1.9165 9.2926,3.144 0,4.0991 0,8.1981 0,12.2971 -3.0709,0.7972 -10.3144,-2.2903 -9.2926,3.144 0,68.6222 0,137.2444 0,205.8666 2.2283,2.8009 8.811,-0.6351 10.7223,1.7144 0.6284,3.8631 -1.2825,9.176 0.9996,12.1519 69.8135,0 139.6271,0 209.4406,0 2.309,-3.0692 0.3509,-8.4806 0.9996,-12.4367 4.1922,-1.0033 10.2517,-0.1392 15.1563,-0.43 0.2411,4.1899 -0.4858,8.6002 0.3756,12.6489 38.6151,0.5078 77.3899,0.073 116.0666,0.2178 30.8561,0 61.7123,0 92.5684,0 2.309,-3.0692 0.3509,-8.4806 0.9997,-12.4367 4.1921,-1.0033 10.2516,-0.1392 15.1562,-0.43 0.01,3.6758 -1.3035,9.7423 4.5737,7.863 10.4783,-0.2485 21.1831,0.4981 31.5189,-0.3756 0.5081,-38.7342 0.073,-77.6283 0.2178,-116.424 0,-108.4135 0,-216.827 0,-325.2405 -3.0691,-2.309 -8.4806,-0.3509 -12.4367,-0.9997 -12.7717,0 -25.5434,0 -38.3151,0 -0.2067,-18.4431 0.412,-37.0743 -0.3095,-55.4002 -14.0413,-0.8284 -28.6173,-0.1189 -42.8642,-0.3553 -55.9938,0 -111.9876,0 -167.9814,0 l -0.6443,0.3095 z m -7.4386,266.105 c 4.9884,-0.6753 9.0243,-0.3981 7.2208,5.7185 -0.697,3.402 2.3253,10.5234 -3.5741,8.723 -3.2071,-0.8919 -10.0628,1.8647 -10.8674,-1.4297 0,-4.3372 0,-8.6745 0,-13.0118 2.4069,0 4.8138,0 7.2207,0 z m 226.9536,0 c 4.993,-0.5608 9.423,-0.5586 7.5782,5.7185 -0.697,3.402 2.3253,10.5234 -3.5741,8.723 -3.4793,-0.858 -10.4688,1.7942 -11.5822,-1.4297 0,-4.3372 0,-8.6745 0,-13.0118 2.526,0 5.0521,0 7.5781,0 z"
       id="path7961" />
    <path
       style="fill:#00ffff;stroke-width:0.714814;stroke-miterlimit:10"
       d="m 2229.7965,1373.2492 c -0.5082,38.7342 -0.073,77.6283 -0.2178,116.424 0,31.9284 0,63.8567 0,95.7851 3.0691,2.309 8.4806,0.3509 12.4366,0.9996 6.9047,-0.246 14.0342,0.4949 20.7967,-0.3755 -1.4462,-5.9373 3.5398,-4.6873 7.7959,-4.6282 4.4275,-0.1645 8.975,-1.0964 7.8877,4.6485 14.0413,0.8283 28.6172,0.1188 42.8641,0.3552 36.2173,0 72.4346,0 108.6518,0 2.309,-3.0691 0.3509,-8.4806 0.9996,-12.4366 0.027,-38.4338 -0.043,-76.9243 0,-115.0851 0,-28.3543 0,-56.7086 0,-85.0629 -3.0691,-2.309 -8.4806,-0.3509 -12.4366,-0.9997 -62.6654,0 -125.3308,0 -187.9962,0 l -0.6443,0.3095 z"
       id="path7962" />
    <path
       style="fill:#00ffff;stroke-width:0.714814;stroke-miterlimit:10"
       d="m 2261.2483,1149.5123 c -0.5078,38.6151 -0.073,77.3899 -0.2178,116.0666 0,30.3796 0,60.7592 0,91.1388 3.0691,2.309 8.4806,0.3509 12.4367,0.9996 6.3837,-2.0464 4.5491,4.1255 4.7189,8.293 1.4739,3.7568 8.1862,0.749 11.7218,1.7144 46.7012,0 93.4024,0 140.1036,0 2.309,-3.0691 0.3509,-8.4806 0.9996,-12.4366 -0.2162,-30.966 0.4582,-61.9531 -0.4146,-92.9063 0.6634,-1.7073 -1.7394,-3.3327 -2.0942,-3.3047 3.3197,-0.6677 1.7388,-5.5101 2.326,-7.9076 0.3763,-33.6756 0.094,-67.3558 0.1828,-101.0331 -3.0691,-2.309 -8.4806,-0.3509 -12.4366,-0.9997 -52.1815,0 -104.3629,0 -156.5444,0 l -0.6443,0.3095 z"
       id="path7963" />
  </g>
</svg>
