<svg width="55" height="55" viewBox="0 0 55 55" fill="none" xmlns="http://www.w3.org/2000/svg">
<rect x="0.133333" y="0.133333" width="54.7333" height="54.7333" rx="27.3667" stroke="#F8F8F8" stroke-width="0.266667"/>
<path d="M21.6402 35.6134C23.0467 35.6134 24.1868 34.4732 24.1868 33.0667C24.1868 31.6602 23.0467 30.52 21.6402 30.52C20.2337 30.52 19.0935 31.6602 19.0935 33.0667C19.0935 34.4732 20.2337 35.6134 21.6402 35.6134Z" stroke="white" stroke-width="1.33333" stroke-miterlimit="10"/>
<path d="M34.3604 35.6134C35.7669 35.6134 36.9071 34.4732 36.9071 33.0667C36.9071 31.6602 35.7669 30.52 34.3604 30.52C32.9539 30.52 31.8137 31.6602 31.8137 33.0667C31.8137 34.4732 32.9539 35.6134 34.3604 35.6134Z" stroke="white" stroke-width="1.33333" stroke-miterlimit="10"/>
<path d="M31.8134 33.0659H24.1868" stroke="white" stroke-width="1.33333" stroke-miterlimit="10"/>
<path d="M19.0936 33.066H14.0002V25.426H16.5469L18.1336 21.426C18.4213 20.7233 18.9129 20.1229 19.5451 19.7023C20.1773 19.2817 20.9209 19.06 21.6802 19.066H29.9869C30.558 19.0642 31.1221 19.1916 31.637 19.4387C32.152 19.6857 32.6043 20.0461 32.9602 20.4927L36.9602 25.426H38.2936C39.3049 25.426 40.2749 25.8278 40.99 26.5429C41.7052 27.2581 42.1069 28.228 42.1069 29.2394V33.066H36.9069" stroke="white" stroke-width="1.33333" stroke-miterlimit="10"/>
<path d="M29.28 22.8799V25.4265H36.9067" stroke="white" stroke-width="1.33333" stroke-miterlimit="10"/>
</svg>
