<svg width="88" height="82" viewBox="0 0 88 82" fill="none" xmlns="http://www.w3.org/2000/svg">
<ellipse cx="44.1513" cy="41" rx="41.6279" ry="41" fill="#EBF2FF"/>
<path d="M41.8793 13.2043C40.618 12.5488 40.044 13.0947 39.5851 12.5488C39.1263 12.003 40.8464 10.5846 37.4105 9.16622C37.4105 9.16622 37.1822 6.11235 32.4764 6.00277C27.7705 5.89318 29.0296 9.06904 27.7662 9.82372C26.5027 10.5784 26.1591 9.38745 24.8979 10.1504C23.6366 10.9134 24.2085 12.4413 23.1756 12.6605C22.1427 12.8797 20.7661 11.6784 19.5027 12.4413C18.2393 13.2043 18.2414 13.8618 17.6673 13.8618C17.0932 13.8618 15.9451 13.4234 15.2579 13.8618C14.5707 14.3001 13.7661 14.8439 13.7661 14.8439H42.8013C42.8013 14.8439 43.1449 13.8618 41.8793 13.2043Z" fill="#5E6783"/>
<path opacity="0.5" d="M41.8793 13.2043C40.618 12.5488 40.044 13.0947 39.5851 12.5488C39.1263 12.003 40.8464 10.5846 37.4105 9.16622C37.4105 9.16622 37.1822 6.11235 32.4764 6.00277C27.7705 5.89318 29.0296 9.06904 27.7662 9.82372C26.5027 10.5784 26.1591 9.38745 24.8979 10.1504C23.6366 10.9134 24.2085 12.4413 23.1756 12.6605C22.1427 12.8797 20.7661 11.6784 19.5027 12.4413C18.2393 13.2043 18.2414 13.8618 17.6673 13.8618C17.0932 13.8618 15.9451 13.4234 15.2579 13.8618C14.5707 14.3001 13.7661 14.8439 13.7661 14.8439H42.8013C42.8013 14.8439 43.1449 13.8618 41.8793 13.2043Z" fill="white"/>
<path d="M65.7153 17.8172C64.9041 17.4037 64.5345 17.7469 64.2409 17.4037C63.9473 17.0605 65.052 16.1404 62.8404 15.2306C62.8404 15.2306 62.6926 13.2664 59.6699 13.1961C56.6472 13.1258 57.4583 15.1603 56.6472 15.6504C55.8361 16.1404 55.6143 15.3692 54.8031 15.8571C53.992 16.3451 54.3682 17.3293 53.6963 17.4699C53.0243 17.6105 52.1479 16.8372 51.339 17.3293C50.53 17.8214 50.5279 18.239 50.1582 18.239C49.7885 18.239 49.0513 17.9599 48.6099 18.239C48.1684 18.5182 47.6509 18.8717 47.6509 18.8717H66.3046C66.3046 18.8717 66.5264 18.237 65.7153 17.8172Z" fill="white"/>
<g clip-path="url(#clip0_2956_10919)">
<path d="M54.3147 35.3135C47.9517 27.0267 44.4165 15.4277 44.4165 15.4277C44.4165 15.4277 40.8817 27.0267 34.5175 35.3135C34.5175 35.3135 37.4334 37.0734 39.0248 36.1414C39.0248 36.1414 37.4334 43.2881 30.2754 52.7132C36.6384 54.7829 41.4109 51.3649 41.4109 51.3649V61.6188H43.7105H45.1232H47.4223V51.3649C47.4223 51.3649 52.1957 54.7828 58.5586 52.7132C51.3992 43.288 49.8091 36.1414 49.8091 36.1414C51.3991 37.0734 54.3147 35.3135 54.3147 35.3135Z" fill="#5E6783"/>
<path d="M34.0153 44.1111C31.9169 40.1998 31.3506 37.6563 31.3506 37.6563C32.3096 38.2186 33.9023 37.4973 34.5288 37.1777C34.6952 37.0858 34.7931 37.0269 34.7931 37.0269C34.212 36.2629 33.6608 35.4655 33.1322 34.6515C29.3199 28.6925 27.229 21.8262 27.229 21.8262C27.229 21.8262 24.5262 30.69 19.6569 37.0268C19.6569 37.0268 21.8839 38.3702 23.1068 37.6563C23.1068 37.6563 21.8839 43.1203 16.4185 50.3307C21.2803 51.9086 24.9265 49.2979 24.9265 49.2979V57.1372H29.524V49.2979C29.524 49.2979 29.8559 49.5332 30.4444 49.8184C31.9095 47.7537 33.0797 45.8316 34.0153 44.1111Z" fill="#5E6783"/>
<path d="M65.7301 37.6561C66.9465 38.37 69.1726 37.0265 69.1726 37.0265C64.3104 30.6898 61.6088 21.8259 61.6088 21.8259C61.6088 21.8259 59.517 28.6923 55.697 34.6512C55.1758 35.4651 54.6248 36.2627 54.043 37.0266C54.043 37.0266 54.1421 37.0857 54.3085 37.1775C54.9347 37.4971 56.5277 38.2184 57.4867 37.6561C57.4867 37.6561 56.9204 40.2076 54.8134 44.1191C55.7503 45.8313 56.9277 47.7616 58.3925 49.8182C58.981 49.5329 59.3138 49.2976 59.3138 49.2976V57.137H63.9039V49.2976C63.9039 49.2976 67.5564 51.9083 72.4185 50.3305C66.9465 43.12 65.7301 37.6561 65.7301 37.6561Z" fill="#5E6783"/>
</g>
<defs>
<clipPath id="clip0_2956_10919">
<rect width="56" height="56" fill="white" transform="translate(16.4185 10.5234)"/>
</clipPath>
</defs>
</svg>
