<svg width="32" height="30" viewBox="0 0 32 30" fill="none" xmlns="http://www.w3.org/2000/svg">
<mask id="mask0_337_19261" style="mask-type:luminance" maskUnits="userSpaceOnUse" x="0" y="0" width="32" height="30">
<path d="M0 0.625H31.4881V29.375H0V0.625Z" fill="white"/>
</mask>
<g mask="url(#mask0_337_19261)">
<path d="M6.18336 0.64502L6.18238 0.64624C6.03712 0.644531 5.89137 0.652588 5.74537 0.671631C5.16138 0.746337 4.57131 0.991211 4.11768 1.45238C3.66407 1.91381 3.37524 2.59057 3.37524 3.40719V12.1559C3.37305 12.1869 3.37305 12.2182 3.37524 12.2492V14.1745H2.24949C1.06343 14.1745 0.000244141 15.0005 0.000244141 16.1416C0.000244141 17.0974 0.749494 17.8261 1.68943 18.0393C1.68723 18.0627 1.68528 18.0861 1.68528 18.1096V20.4301C1.68528 22.7163 2.12034 24.9153 3.27559 26.5903C4.43084 28.2651 6.34178 29.3546 9.00728 29.3546H21.4273C24.5762 29.3546 26.7129 28.6225 28.0398 27.2086C29.3667 25.7948 29.7993 23.8041 29.7993 21.4845C29.8725 20.6676 28.6057 20.6676 28.6792 21.4845C28.6792 23.6635 28.2697 25.3244 27.2219 26.4408C26.1738 27.5575 24.4043 28.2299 21.4275 28.2299H9.00684C6.63403 28.2299 5.16628 27.3508 4.20091 25.9511C3.23559 24.5514 2.81053 22.5705 2.81053 20.4301V18.1095H19.6799V21.4889C19.6799 22.4135 20.4485 23.1693 21.3735 23.1693H24.7353C25.6602 23.1693 26.429 22.4137 26.429 21.4889V18.1095H28.6792V19.7943C28.606 20.6112 29.8728 20.6112 29.7993 19.7943V18.1095C29.7996 18.0863 29.7984 18.0636 29.7952 18.0402C30.7366 17.8278 31.4888 17.0986 31.4888 16.1412C31.4888 15.0004 30.4246 14.1742 29.2386 14.1742H26.4283V13.6053C26.4283 12.6808 25.6597 11.924 24.7346 11.924H21.3728C20.448 11.924 19.6792 12.6808 19.6792 13.6053V14.1742L4.49982 14.1744V12.7677H5.05988V13.0499C5.04279 13.817 6.20194 13.817 6.18437 13.0499V11.3597C6.18853 11.0431 5.92876 10.7862 5.61211 10.7918C5.30328 10.7982 5.05669 11.0509 5.05963 11.3597V11.6419H4.49957V3.40756C4.49957 2.84189 4.67096 2.49375 4.919 2.24131C5.16704 1.98887 5.51446 1.83189 5.88556 1.78452C6.25641 1.73692 6.638 1.80357 6.89825 1.93809C7.01153 1.99644 7.09527 2.06114 7.1607 2.13145C6.25495 2.59922 5.62432 3.53382 5.62432 4.61557C5.62555 4.94126 5.9024 5.19809 6.22735 5.17466C6.2315 5.17514 6.23809 5.17514 6.24224 5.17588H10.6463C10.6993 5.18003 10.7525 5.17563 10.8045 5.16513C10.8087 5.16465 10.8109 5.16416 10.8152 5.16294C10.8301 5.15879 10.8448 5.15439 10.8592 5.15024C10.8633 5.14902 10.8655 5.14804 10.8699 5.14609C10.8741 5.14438 10.8785 5.14194 10.8848 5.13974C11.15 5.04429 11.3035 4.76719 11.244 4.49181C11.179 3.00524 9.94515 1.80774 8.44121 1.80774C8.38921 1.80774 8.33794 1.81189 8.28618 1.81629C8.10405 1.42933 7.78325 1.12854 7.41974 0.941039C7.04498 0.747927 6.61968 0.650514 6.18412 0.645626L6.18336 0.64502ZM8.42605 5.73096C8.1155 5.73511 7.86672 5.98926 7.87038 6.29981V7.98899C7.85329 8.75606 9.01245 8.75606 8.99488 7.98899V6.29981C8.99903 5.98413 8.74172 5.72729 8.42605 5.73096ZM10.1119 5.73096C9.80253 5.7373 9.55571 5.99048 9.55937 6.29981V6.86426C9.54228 7.63132 10.7014 7.63132 10.6839 6.86426V6.29981C10.688 5.98267 10.4287 5.72534 10.1116 5.73096H10.1119ZM6.73686 6.85671C6.42802 6.86305 6.18144 7.11574 6.18437 7.42458V9.11476C6.18437 9.86526 7.31012 9.86526 7.31012 9.11476V7.42458C7.31427 7.10744 7.05375 6.8506 6.73686 6.85671ZM10.1119 7.98121C9.80253 7.98755 9.55571 8.24072 9.55937 8.55006V10.2349C9.54228 11.0019 10.7014 11.0019 10.6839 10.2349V8.55006C10.688 8.23316 10.4287 7.97559 10.1116 7.98121H10.1119ZM8.42605 9.10252C8.407 9.10252 8.38723 9.1035 8.3677 9.10667C8.0801 9.14012 7.86501 9.38621 7.87014 9.67552V10.2356C7.85305 11.0026 9.0122 11.0026 8.99464 10.2356V9.67552C9.00099 9.35863 8.74269 9.09959 8.42579 9.10326L8.42605 9.10252ZM20.8042 20.9194H25.3037V21.4882C25.3037 21.8027 25.0627 22.0439 24.7348 22.0439H21.373C21.0451 22.0439 20.8042 21.8025 20.8042 21.4882L20.8042 20.9194Z" fill="#313952"/>
</g>
</svg>
