<svg width="33" height="32" viewBox="0 0 33 32" fill="none" xmlns="http://www.w3.org/2000/svg">
<path d="M11.8215 19.3334L7.15479 29.3334M11.1548 8.00002C11.1548 8.00002 12.4881 6.58535 12.4881 5.33335C12.4881 3.55602 11.1548 2.66669 11.1548 2.66669M16.4881 8.00002C16.4881 8.00002 17.8215 6.58535 17.8215 5.33335C17.8215 3.55602 16.4881 2.66669 16.4881 2.66669M21.8215 8.00002C21.8215 8.00002 23.1548 6.58535 23.1548 5.33335C23.1548 3.55602 21.8215 2.66669 21.8215 2.66669" stroke="#313952" stroke-width="1.5" stroke-linecap="round" stroke-linejoin="round"/>
<path d="M22.488 23.3333H10.488" stroke="#313952" stroke-width="1.5" stroke-linejoin="round"/>
<path d="M21.1548 19.3333L23.9548 25.3333M25.1548 29.3333C25.6852 29.3333 26.1939 29.1226 26.569 28.7476C26.9441 28.3725 27.1548 27.8638 27.1548 27.3333C27.1548 26.8029 26.9441 26.2942 26.569 25.9191C26.1939 25.5441 25.6852 25.3333 25.1548 25.3333C24.6244 25.3333 24.1156 25.5441 23.7406 25.9191C23.3655 26.2942 23.1548 26.8029 23.1548 27.3333C23.1548 27.8638 23.3655 28.3725 23.7406 28.7476C24.1156 29.1226 24.6244 29.3333 25.1548 29.3333Z" stroke="#313952" stroke-width="1.5" stroke-linecap="round" stroke-linejoin="round"/>
<path d="M16.4882 20C18.8252 20.0003 21.0773 19.1237 22.7993 17.5437C24.5213 15.9637 25.5878 13.7951 25.7882 11.4667C25.795 11.3627 25.7802 11.2584 25.7445 11.1604C25.7089 11.0625 25.6532 10.973 25.5811 10.8977C25.509 10.8225 25.422 10.7631 25.3256 10.7233C25.2293 10.6835 25.1257 10.6642 25.0215 10.6667H7.95483C7.85062 10.6642 7.74704 10.6835 7.65069 10.7233C7.55435 10.7631 7.46734 10.8225 7.39522 10.8977C7.32309 10.973 7.26744 11.0625 7.23179 11.1604C7.19614 11.2584 7.18128 11.3627 7.18816 11.4667C7.38848 13.7951 8.45504 15.9637 10.177 17.5437C11.899 19.1237 14.1511 20.0003 16.4882 20Z" stroke="#313952" stroke-width="1.5"/>
</svg>
