<svg width="24" height="18" viewBox="0 0 24 18" fill="none" xmlns="http://www.w3.org/2000/svg">
<path d="M22.5029 7.5H21.4903L18.8862 1.64072C18.7682 1.3757 18.576 1.15055 18.3327 0.992477C18.0894 0.834405 17.8056 0.750186 17.5155 0.75H6.49036C6.20024 0.750186 5.91639 0.834416 5.67313 0.992506C5.42987 1.1506 5.23762 1.37577 5.11963 1.64081L2.51552 7.5H1.50293C1.30402 7.5 1.11325 7.57902 0.9726 7.71967C0.831947 7.86032 0.75293 8.05109 0.75293 8.25C0.75293 8.44891 0.831947 8.63968 0.9726 8.78033C1.11325 8.92098 1.30402 9 1.50293 9H2.25293V16.5C2.25338 16.8977 2.41157 17.279 2.69277 17.5602C2.97398 17.8414 3.35524 17.9995 3.75293 18H6.00293C6.40061 17.9995 6.78188 17.8414 7.06309 17.5602C7.34429 17.279 7.50247 16.8977 7.50293 16.5V15H16.5029V16.5C16.5034 16.8977 16.6616 17.279 16.9428 17.5602C17.224 17.8414 17.6052 17.9995 18.0029 18H20.2529C20.6506 17.9995 21.0319 17.8414 21.3131 17.5602C21.5943 17.279 21.7525 16.8977 21.7529 16.5V9H22.5029C22.7018 9 22.8926 8.92098 23.0333 8.78033C23.1739 8.63968 23.2529 8.44891 23.2529 8.25C23.2529 8.05109 23.1739 7.86032 23.0333 7.71967C22.8926 7.57902 22.7018 7.5 22.5029 7.5ZM7.50293 12H6.00293C5.80402 12 5.61325 11.921 5.4726 11.7803C5.33195 11.6397 5.25293 11.4489 5.25293 11.25C5.25293 11.0511 5.33195 10.8603 5.4726 10.7197C5.61325 10.579 5.80402 10.5 6.00293 10.5H7.50293C7.70184 10.5 7.89261 10.579 8.03326 10.7197C8.17391 10.8603 8.25293 11.0511 8.25293 11.25C8.25293 11.4489 8.17391 11.6397 8.03326 11.7803C7.89261 11.921 7.70184 12 7.50293 12ZM16.5029 12C16.304 12 16.1133 11.921 15.9726 11.7803C15.8319 11.6397 15.7529 11.4489 15.7529 11.25C15.7529 11.0511 15.8319 10.8603 15.9726 10.7197C16.1133 10.579 16.304 10.5 16.5029 10.5H18.0029C18.2018 10.5 18.3926 10.579 18.5333 10.7197C18.6739 10.8603 18.7529 11.0511 18.7529 11.25C18.7529 11.4489 18.6739 11.6397 18.5333 11.7803C18.3926 11.921 18.2018 12 18.0029 12H16.5029Z" fill="#FD6746"/>
</svg>
