<svg width="32" height="32" viewBox="0 0 32 32" fill="none" xmlns="http://www.w3.org/2000/svg">
<path d="M15.5832 0C14.756 0 14.0853 0.909214 14.0853 2.03067C14.0853 2.62736 14.2753 3.16388 14.5777 3.53539C13.4186 3.81372 12.3289 4.4983 11.3335 5.50132C11.6089 5.63224 11.9135 5.7493 12.2435 5.84566C13.3764 6.17633 14.7699 6.30223 16.1438 6.24744C17.5177 6.19274 18.8764 5.95725 19.9389 5.59787C20.0212 5.57006 20.101 5.54044 20.1796 5.50999C19.0993 4.41835 17.9074 3.70304 16.6364 3.47449C16.7775 3.2859 16.8895 3.06114 16.9659 2.8133C17.0423 2.56547 17.0815 2.29952 17.0813 2.03094C17.0813 0.909579 16.4106 0.000273352 15.5833 0.000273352L15.5832 0ZM10.2496 6.76691C9.94502 7.17443 9.65201 7.61368 9.37111 8.08082C11.1375 8.94263 13.3297 9.5292 15.7526 9.5292C18.2057 9.5292 20.4159 9.02796 22.1686 8.14345C21.892 7.67941 21.6041 7.2418 21.3043 6.83556C20.979 6.99082 20.6237 7.12456 20.2436 7.25311C19.064 7.65197 17.6354 7.89311 16.1815 7.951C14.7274 8.00889 13.2517 7.88372 11.9784 7.51221C11.3484 7.3285 10.7613 7.09347 10.2495 6.76691H10.2496ZM3.43588 6.93101C2.60624 6.91397 1.75365 7.29049 1.12524 8.19031C0.496829 9.09014 0.116151 10.4382 0.0277431 12.25C-0.0711606 14.2595 0.0965048 15.7428 0.496695 16.8826C0.89675 18.0224 1.53263 18.7638 2.19959 19.273C2.85995 19.7768 3.54145 20.1081 4.18459 20.4771C4.09107 19.8526 4.03132 19.1931 4.00656 18.4998C3.56816 18.2669 3.15848 18.0502 2.81568 17.7887C2.29109 17.3883 1.90772 16.9359 1.632 16.1504C1.35615 15.365 1.19299 14.1896 1.28281 12.3642C1.35837 10.8167 1.66806 9.89068 2.03771 9.36136C2.40735 8.83204 2.85874 8.62327 3.41698 8.63475C4.11368 8.64934 4.94225 9.09843 5.63948 9.74973C5.85462 9.24782 6.08649 8.75942 6.33437 8.28604C5.4772 7.47674 4.45742 6.95226 3.43588 6.93101ZM29.5331 7.534C28.7414 7.51321 27.9569 7.9685 27.3541 9.34066H27.3542C26.591 11.078 28.0454 15.7903 26.2431 16.473C26.2407 16.4414 26.2388 16.4097 26.2363 16.3782L26.23 16.4628C25.0699 16.3023 24.3472 16.7042 23.8551 17.344C23.363 17.984 23.0901 18.9361 23.0427 19.9683C22.9952 21.0005 23.183 22.0877 23.5322 22.8823C23.7607 23.4022 24.0389 23.7863 24.3656 24.0124L24.344 24.1589C26.2721 24.3931 29.8614 23.8629 30.1389 18.9043C30.3455 15.216 28.0552 8.7375 31.1862 10.7208C30.944 9.684 31.2547 8.96651 32 8.79785C31.3373 8.19268 30.4305 7.55761 29.5332 7.534H29.5331ZM7.5675 8.9026C6.13602 11.4974 5.25046 14.4668 5.25046 17.7744C5.25046 21.7281 6.35778 24.1135 8.21084 25.6775C10.0639 27.2415 12.7389 27.8997 15.7506 27.8997C18.7621 27.8997 21.4465 27.2426 23.3113 25.6775C23.4187 25.5872 23.5243 25.4934 23.6282 25.396C23.1414 24.9973 22.7425 24.416 22.4518 23.7541C21.9534 22.62 21.7247 21.2324 21.7877 19.8621C21.8508 18.4921 22.2157 17.1143 22.9845 16.1147C23.6572 15.2401 24.6305 14.712 25.83 14.7274C25.8958 14.7283 25.9629 14.7323 26.0301 14.7365C25.6592 12.5879 24.9188 10.5907 23.9568 8.91692C21.8188 10.4318 18.9685 11.233 15.7528 11.233C12.5201 11.233 9.68397 10.2612 7.56757 8.90251L7.5675 8.9026ZM22.7861 27.9667C20.7868 29.1591 18.3529 29.6034 15.7507 29.6034C13.1624 29.6034 10.7461 29.1647 8.7608 27.9863C9.10448 29.0654 9.6693 29.8531 10.4161 30.4693C11.7062 31.5339 13.6047 32 15.7559 32C17.9072 32 19.8147 31.5339 21.1134 30.4682C21.8694 29.848 22.4405 29.0549 22.7862 27.9667L22.7861 27.9667Z" fill="#313952"/>
</svg>
