<svg width="202" height="189" viewBox="0 0 202 189" fill="none" xmlns="http://www.w3.org/2000/svg">
<g filter="url(#filter0_d_883_59953)">
<path d="M100.945 180.226C154.486 180.226 197.889 177.565 197.889 174.283C197.889 171 154.486 168.339 100.945 168.339C47.4036 168.339 4 171 4 174.283C4 177.565 47.4036 180.226 100.945 180.226Z" fill="#F5F5F5"/>
<path d="M41.1243 57.7255C40.6843 58.7756 40.1993 59.9098 39.7744 61.0177C39.3494 62.1257 38.9094 63.2651 38.5244 64.3993C37.7344 66.6103 37.101 68.8795 36.6294 71.1885L36.4844 72.0287L36.4344 72.3437C36.4344 72.433 36.4344 72.5485 36.4044 72.6535C36.3854 73.1648 36.3954 73.6767 36.4344 74.1867C36.5294 75.2947 36.6994 76.4813 36.9344 77.668C37.3544 80.0466 37.8894 82.4988 38.4344 84.9141L35.8694 85.9643C34.6737 83.6753 33.6554 81.289 32.8244 78.8284C32.3865 77.5478 32.0324 76.2373 31.7644 74.9061C31.6142 74.1696 31.5206 73.4215 31.4844 72.6693C31.4844 72.4592 31.4844 72.2597 31.4844 72.0339C31.4844 71.8081 31.4844 71.5561 31.5194 71.4091L31.6194 70.3589C31.7688 69.0064 31.9975 67.6649 32.3044 66.342C32.5844 65.0293 32.9444 63.7534 33.3044 62.4932C33.6644 61.233 34.1144 59.9938 34.5894 58.7756C34.8244 58.1665 35.0894 57.5627 35.3194 56.9589C35.5494 56.355 35.8194 55.7774 36.1394 55.1316L41.1243 57.7255Z" fill="#E4897B"/>
<path d="M38.2994 84.2053L40.2493 86.2059L35.9944 88.3062C35.9944 88.3062 34.9644 86.4107 35.6794 84.6989L38.2994 84.2053Z" fill="#E4897B"/>
<path d="M41.825 89.183L38.23 90.7267L36 88.2851L40.25 86.2058L41.825 89.183Z" fill="#E4897B"/>
<path opacity="0.4" d="M114.65 87.0303C107.575 86.1961 100.895 83.1779 95.4535 78.3573C90.0121 73.5367 86.0539 67.1301 84.0792 59.9474C82.1045 52.7647 82.202 45.1284 84.3593 38.0039C86.5166 30.8794 90.637 24.5865 96.1994 19.9208C101.762 15.2551 108.517 12.426 115.61 11.7913C122.703 11.1566 129.816 12.7447 136.05 16.3548C142.284 19.9649 147.359 25.435 150.633 32.0735C153.907 38.712 155.234 46.2209 154.444 53.6509C153.92 58.5874 152.475 63.367 150.191 67.7166C147.907 72.0662 144.829 75.9005 141.133 79.0004C137.438 82.1002 133.197 84.405 128.652 85.7828C124.108 87.1606 119.35 87.5845 114.65 87.0303Z" fill="#FAFAFA"/>
<path opacity="0.4" d="M140.839 19.673L86.0888 65.6122C85.8588 65.0871 85.6338 64.562 85.4238 64.037C84.0513 60.6083 83.1733 56.9839 82.8188 53.2833L130.109 13.603C133.991 14.9631 137.621 17.0165 140.839 19.673Z" fill="#FAFAFA"/>
<path opacity="0.4" d="M153.474 39.7994L101.999 82.9873C97.1086 80.3102 92.8708 76.4869 89.6138 71.8136L145.819 24.6509C149.442 29.0179 152.061 34.2008 153.474 39.7994Z" fill="#FAFAFA"/>
<path d="M78.14 35.0107L77.665 34.8427C78.4877 32.2934 79.5217 29.8248 80.755 27.4653L81.19 27.7173C79.9729 30.0505 78.9524 32.4909 78.14 35.0107ZM84.21 22.7553L83.805 22.4455C87.9141 16.6108 93.2919 11.8922 99.49 8.6832L99.715 9.15577C93.5872 12.3316 88.2712 16.9998 84.21 22.7711V22.7553ZM139.005 9.87513C137.371 8.95479 135.681 8.14964 133.945 7.46501L134.125 6.97144C135.878 7.67213 137.585 8.49302 139.235 9.42881L139.005 9.87513Z" fill="#719FFF"/>
<path opacity="0.3" d="M78.14 35.0107L77.665 34.8427C78.4877 32.2934 79.5217 29.8248 80.755 27.4653L81.19 27.7173C79.9729 30.0505 78.9524 32.4909 78.14 35.0107ZM84.21 22.7553L83.805 22.4455C87.9141 16.6108 93.2919 11.8922 99.49 8.6832L99.715 9.15577C93.5872 12.3316 88.2712 16.9998 84.21 22.7711V22.7553ZM139.005 9.87513C137.371 8.95479 135.681 8.14964 133.945 7.46501L134.125 6.97144C135.878 7.67213 137.585 8.49302 139.235 9.42881L139.005 9.87513Z" fill="black"/>
<path d="M155.879 30.1483C151.249 20.0643 143.102 12.2381 133.126 8.29193C123.15 4.3458 112.111 4.58248 102.296 8.95292C92.4819 13.3233 84.6455 21.4923 80.4114 31.7664C76.1774 42.0404 75.8705 53.6315 79.5543 64.1368C76.2143 65.3655 72.9143 66.6834 69.6343 68.0434C64.9044 70.0142 60.2177 72.0725 55.5744 74.2183C50.9344 76.3764 46.3144 78.5765 41.7394 80.8763C39.4444 82.0052 37.1794 83.1972 34.8945 84.3523C33.7058 84.8887 32.6288 85.6648 31.7245 86.6364C31.2351 87.1745 30.8041 87.768 30.4395 88.406C29.9945 89.1605 29.6576 89.9796 29.4395 90.8371C29.0632 92.3823 29.2259 94.0178 29.8981 95.4479C30.5703 96.8781 31.7077 98.0084 33.1045 98.6345C33.8801 98.9762 34.6985 99.199 35.5344 99.2961C36.2405 99.3801 36.9534 99.3801 37.6594 99.2961C38.9426 99.1326 40.1826 98.7062 41.3094 98.0412C43.5744 96.8388 45.8544 95.6783 48.1044 94.4444C52.6044 92.0343 57.1044 89.5191 61.5494 86.9672C65.9944 84.4154 70.4443 81.7427 74.7843 79.0018C77.7843 77.0957 80.8143 75.1477 83.7843 73.1104C89.4874 82.5653 98.4357 89.3536 108.775 92.0687C119.114 94.7838 130.052 93.2176 139.321 87.6945C148.591 82.1714 155.482 73.1149 158.566 62.4016C161.651 51.6884 160.692 40.1396 155.889 30.1483H155.879ZM133.149 80.3092C127.338 83.3212 120.808 84.4562 114.383 83.5706C107.958 82.6851 101.928 79.8187 97.0539 75.334C92.1802 70.8493 88.6822 64.9477 87.0023 58.3754C85.3223 51.8031 85.5358 44.8552 87.6157 38.4102C89.6957 31.9653 93.5487 26.3128 98.6875 22.1674C103.826 18.022 110.02 15.5699 116.486 15.1211C122.952 14.6724 129.399 16.2471 135.013 19.6463C140.627 23.0454 145.155 28.1163 148.024 34.2177C149.93 38.2697 151.057 42.6763 151.34 47.1857C151.624 51.6951 151.059 56.2191 149.678 60.4992C148.297 64.7794 146.126 68.7318 143.29 72.1309C140.454 75.5299 137.008 78.3089 133.149 80.3092Z" fill="#719FFF"/>
<path opacity="0.3" d="M155.879 30.1483C151.249 20.0643 143.102 12.2381 133.126 8.29193C123.15 4.3458 112.111 4.58248 102.296 8.95292C92.4819 13.3233 84.6455 21.4923 80.4114 31.7664C76.1774 42.0404 75.8705 53.6315 79.5543 64.1368C76.2143 65.3655 72.9143 66.6834 69.6343 68.0434C64.9044 70.0142 60.2177 72.0725 55.5744 74.2183C50.9344 76.3764 46.3144 78.5765 41.7394 80.8763C39.4444 82.0052 37.1794 83.1972 34.8945 84.3523C33.7058 84.8887 32.6288 85.6648 31.7245 86.6364C31.2351 87.1745 30.8041 87.768 30.4395 88.406C29.9945 89.1605 29.6576 89.9796 29.4395 90.8371C29.0632 92.3823 29.2259 94.0178 29.8981 95.4479C30.5703 96.8781 31.7077 98.0084 33.1045 98.6345C33.8801 98.9762 34.6985 99.199 35.5344 99.2961C36.2405 99.3801 36.9534 99.3801 37.6594 99.2961C38.9426 99.1326 40.1826 98.7062 41.3094 98.0412C43.5744 96.8388 45.8544 95.6783 48.1044 94.4444C52.6044 92.0343 57.1044 89.5191 61.5494 86.9672C65.9944 84.4154 70.4443 81.7427 74.7843 79.0018C77.7843 77.0957 80.8143 75.1477 83.7843 73.1104C89.4874 82.5653 98.4357 89.3536 108.775 92.0687C119.114 94.7838 130.052 93.2176 139.321 87.6945C148.591 82.1714 155.482 73.1149 158.566 62.4016C161.651 51.6884 160.692 40.1396 155.889 30.1483H155.879ZM133.149 80.3092C127.338 83.3212 120.808 84.4562 114.383 83.5706C107.958 82.6851 101.928 79.8187 97.0539 75.334C92.1802 70.8493 88.6822 64.9477 87.0023 58.3754C85.3223 51.8031 85.5358 44.8552 87.6157 38.4102C89.6957 31.9653 93.5487 26.3128 98.6875 22.1674C103.826 18.022 110.02 15.5699 116.486 15.1211C122.952 14.6724 129.399 16.2471 135.013 19.6463C140.627 23.0454 145.155 28.1163 148.024 34.2177C149.93 38.2697 151.057 42.6763 151.34 47.1857C151.624 51.6951 151.059 56.2191 149.678 60.4992C148.297 64.7794 146.126 68.7318 143.29 72.1309C140.454 75.5299 137.008 78.3089 133.149 80.3092Z" fill="black"/>
<path d="M54.9443 38.9749C54.9443 39.2847 55.0993 39.5368 55.2943 39.5368C55.4893 39.5368 55.6443 39.2847 55.6443 38.9749C55.6443 38.6651 55.4893 38.4131 55.2943 38.4131C55.0993 38.4131 54.9443 38.6861 54.9443 38.9749Z" fill="#263238"/>
<path d="M55.085 39.5366C55.4389 40.4876 55.9149 41.3833 56.5 42.1988C56.2977 42.3507 56.0662 42.4544 55.8218 42.5024C55.5774 42.5505 55.3259 42.5419 55.085 42.4771V39.5366Z" fill="#DE5753"/>
<path d="M53.9097 37.2473C53.8819 37.2474 53.8543 37.2408 53.8292 37.228C53.8041 37.2153 53.7821 37.1968 53.7647 37.1738C53.7387 37.1337 53.7283 37.0847 53.7358 37.0368C53.7432 36.9889 53.7679 36.9458 53.8047 36.9165C54.0249 36.7412 54.2823 36.6243 54.5547 36.5758C54.8272 36.5274 55.1068 36.5488 55.3697 36.6383C55.3934 36.645 55.4153 36.6569 55.4343 36.6731C55.4533 36.6894 55.4688 36.7096 55.4799 36.7325C55.4909 36.7555 55.4973 36.7806 55.4985 36.8062C55.4998 36.8319 55.4959 36.8576 55.4871 36.8815C55.4783 36.9055 55.4648 36.9273 55.4475 36.9455C55.4302 36.9637 55.4095 36.9778 55.3866 36.9871C55.3638 36.9963 55.3394 37.0004 55.3149 36.9991C55.2905 36.9978 55.2666 36.9912 55.2447 36.9796C55.0359 36.9123 54.8147 36.8986 54.5998 36.9398C54.3849 36.9809 54.1826 37.0755 54.0097 37.2158C53.9801 37.2365 53.9453 37.2474 53.9097 37.2473Z" fill="#263238"/>
<path d="M44.8446 41.3115C45.3446 44.1312 45.8946 49.3032 44.0146 51.1883C44.0146 51.1883 44.7496 54.05 49.7446 54.05C55.2446 54.05 52.3646 51.1883 52.3646 51.1883C49.3646 50.4322 49.4496 48.1008 49.9696 45.906L44.8446 41.3115Z" fill="#E4897B"/>
<path d="M41.7693 52.6744C42.3643 51.703 41.3643 49.3454 41.3643 49.3454C41.3643 49.3454 50.2042 47.0088 53.8192 50.5951C54.5692 51.3355 53.7392 52.4276 53.7392 52.4276L41.7693 52.6744Z" fill="#719FFF"/>
<path opacity="0.1" d="M41.7693 52.6744C42.3643 51.703 41.3643 49.3454 41.3643 49.3454C41.3643 49.3454 50.2042 47.0088 53.8192 50.5951C54.5692 51.3355 53.7392 52.4276 53.7392 52.4276L41.7693 52.6744Z" fill="black"/>
<path d="M27.1447 159.806C26.6797 159.806 25.9347 158.992 25.7147 158.688C25.7052 158.673 25.7002 158.656 25.7002 158.638C25.7002 158.62 25.7052 158.603 25.7147 158.588C25.7228 158.573 25.7345 158.561 25.7485 158.553C25.7626 158.545 25.7786 158.54 25.7947 158.541C25.8497 158.541 27.0747 158.656 27.4097 159.113C27.4461 159.161 27.4721 159.217 27.486 159.277C27.4998 159.337 27.501 159.399 27.4897 159.46C27.4853 159.538 27.458 159.613 27.4114 159.674C27.3649 159.735 27.3014 159.779 27.2297 159.801L27.1447 159.806ZM25.9847 158.756C26.3497 159.197 26.9347 159.696 27.1847 159.633C27.1847 159.633 27.2847 159.607 27.3147 159.439C27.3213 159.404 27.3202 159.367 27.3115 159.333C27.3029 159.298 27.2869 159.266 27.2647 159.239C26.8943 158.945 26.4486 158.773 25.9847 158.746V158.756Z" fill="#719FFF"/>
<path d="M26.0401 158.746C25.9504 158.755 25.8599 158.755 25.7701 158.746C25.7543 158.744 25.7393 158.738 25.7268 158.728C25.7143 158.718 25.7051 158.704 25.7001 158.688C25.6931 158.673 25.6895 158.657 25.6895 158.641C25.6895 158.624 25.6931 158.608 25.7001 158.593C25.7351 158.562 26.4701 157.758 27.0251 157.758C27.0916 157.757 27.1575 157.77 27.2187 157.797C27.2799 157.824 27.3349 157.865 27.3801 157.916C27.4299 157.96 27.464 158.02 27.4767 158.087C27.4894 158.154 27.4801 158.223 27.4501 158.284C27.3051 158.578 26.5401 158.746 26.0401 158.746ZM25.9751 158.562C26.4751 158.562 27.2001 158.399 27.3201 158.168C27.3201 158.168 27.3551 158.1 27.2751 158.016C27.246 157.983 27.2104 157.956 27.1706 157.939C27.1309 157.922 27.0881 157.914 27.0451 157.916C26.6353 158.015 26.2627 158.24 25.9751 158.562Z" fill="#719FFF"/>
<path d="M60.1395 171.726C59.7605 171.723 59.3825 171.686 59.0095 171.616C58.991 171.612 58.9743 171.601 58.9624 171.586C58.9505 171.571 58.9442 171.551 58.9445 171.532C58.9417 171.513 58.944 171.495 58.9511 171.478C58.9582 171.461 58.9698 171.447 58.9845 171.437C59.0395 171.406 60.3195 170.634 60.9345 170.812C60.9915 170.826 61.0453 170.851 61.0926 170.887C61.1399 170.924 61.1797 170.969 61.2095 171.022C61.2487 171.081 61.2697 171.15 61.2697 171.222C61.2697 171.293 61.2487 171.363 61.2095 171.421C61.0645 171.658 60.6095 171.726 60.1395 171.726ZM59.2945 171.479C59.9745 171.584 60.9045 171.579 61.0745 171.327C61.0995 171.295 61.1195 171.237 61.0745 171.127C61.0363 171.062 60.9753 171.015 60.9045 170.996C60.5145 170.891 59.7395 171.237 59.2945 171.479Z" fill="#719FFF"/>
<path d="M59.0293 171.621C59.013 171.626 58.9957 171.626 58.9793 171.621C58.9655 171.611 58.9547 171.598 58.9484 171.582C58.9421 171.566 58.9407 171.548 58.9443 171.531C58.9782 170.985 59.178 170.464 59.5143 170.045C59.5824 169.984 59.6622 169.938 59.7485 169.912C59.8348 169.886 59.9255 169.879 60.0143 169.893C60.2543 169.893 60.3243 170.045 60.3393 170.145C60.4043 170.581 59.5293 171.416 59.0843 171.626L59.0293 171.621ZM59.9243 170.045C59.8143 170.045 59.7077 170.086 59.6243 170.161C59.3416 170.493 59.1665 170.91 59.1243 171.353C59.5743 171.064 60.1743 170.413 60.1243 170.15C60.1243 170.15 60.1243 170.061 59.9543 170.045H59.9243Z" fill="#719FFF"/>
<path d="M54.9893 171.526H58.6642L59.0292 162.594H55.3543L54.9893 171.526Z" fill="#E4897B"/>
<path d="M22.2646 156.194L25.3346 158.305L32.1146 152.293L29.0396 150.177L22.2646 156.194Z" fill="#E4897B"/>
<path d="M25.8397 158.105L22.6497 155.359C22.5934 155.31 22.5227 155.283 22.4497 155.283C22.3768 155.283 22.3061 155.31 22.2497 155.359L19.6197 157.527C19.5562 157.58 19.5049 157.648 19.4696 157.725C19.4343 157.801 19.416 157.886 19.416 157.971C19.416 158.056 19.4343 158.14 19.4696 158.217C19.5049 158.294 19.5562 158.362 19.6197 158.415C20.7497 159.355 21.3447 159.754 22.7497 160.961C23.6147 161.702 25.7497 163.97 26.9547 164.994C28.1597 166.018 29.2647 164.915 28.8647 164.385C27.0697 161.996 26.3647 159.953 26.1597 158.688C26.1243 158.459 26.0105 158.252 25.8397 158.105Z" fill="#263238"/>
<path d="M58.6396 171.08H54.6396C54.5666 171.08 54.4959 171.106 54.4388 171.154C54.3816 171.201 54.3414 171.268 54.3246 171.342L53.5996 174.771C53.5814 174.854 53.5814 174.941 53.5997 175.024C53.6179 175.107 53.654 175.184 53.705 175.251C53.7561 175.317 53.8209 175.37 53.8944 175.406C53.968 175.442 54.0484 175.46 54.1296 175.459C55.5746 175.433 57.6646 175.343 59.4846 175.343C61.6096 175.343 63.4496 175.464 65.9395 175.464C67.4395 175.464 67.8695 173.863 67.2345 173.721C64.3646 173.059 62.0146 172.991 59.5346 171.379C59.2685 171.194 58.9586 171.09 58.6396 171.08Z" fill="#263238"/>
<path d="M36.7744 52.3382C33.5894 53.9134 31.7744 64.4675 31.7744 64.4675L39.5594 67.7283C40.6989 64.8062 41.62 61.7954 42.3144 58.7232C43.3844 53.8609 40.0344 50.7104 36.7744 52.3382Z" fill="#263238"/>
<path d="M40.9048 58.2876C38.9798 60.3354 38.0998 64.347 37.7148 66.9566L39.5798 67.739C40.687 64.8999 41.5895 61.9775 42.2798 58.9964C42.1148 57.8833 41.7048 57.4369 40.9048 58.2876Z" fill="#203048"/>
<path d="M58.0144 52.2646C58.0144 52.2646 61.9244 56.9063 58.2344 85.6072H38.5895C38.4545 82.4567 40.3494 66.9931 37.4395 52.0703C39.6105 51.6282 41.8069 51.337 44.0144 51.1987C46.7953 51.0253 49.5835 51.0253 52.3644 51.1987C54.2711 51.4002 56.1601 51.7565 58.0144 52.2646Z" fill="#263238"/>
<path d="M59.8097 63.4069L56.4997 57.4158C55.8607 60.2111 55.5998 63.0871 55.7247 65.9588C55.8147 68.0171 57.6097 75.6413 59.2247 76.7545C59.6532 72.32 59.8485 67.864 59.8097 63.4069Z" fill="#203048"/>
<path d="M60.2696 56.3655C60.7696 58.9174 61.2696 61.5323 61.8046 64.0947C62.3395 66.657 62.8945 69.2299 63.5395 71.7136C63.7045 72.3279 63.8595 72.958 64.0395 73.5461L64.1745 73.9977L64.2395 74.2234V74.1972C64.2045 74.1499 64.1645 74.1447 64.1945 74.1972C64.4 74.4329 64.6628 74.6053 64.9545 74.696C65.4272 74.8807 65.914 75.023 66.4095 75.1213C68.7735 75.5148 71.167 75.6783 73.5595 75.6097L74.0345 78.4661C73.3645 78.6919 72.7395 78.8547 72.0795 79.0174C71.4195 79.1802 70.7695 79.3167 70.1045 79.4217C68.7287 79.6623 67.3337 79.7608 65.9395 79.7158C65.1646 79.6939 64.3939 79.5883 63.6395 79.4007C62.6804 79.1804 61.7791 78.7412 60.9996 78.1143C60.4904 77.6826 60.0702 77.1466 59.7646 76.5391C59.6846 76.3815 59.6146 76.203 59.5496 76.0507L59.4596 75.8039L59.2746 75.2789C59.0196 74.612 58.8096 73.9557 58.5796 73.2993C57.7346 70.6739 57.0296 68.0223 56.4096 65.3759C55.7896 62.7295 55.2546 60.0883 54.8096 57.3736L60.2696 56.3655Z" fill="#E4897B"/>
<path d="M53.1096 55.0792C52.0746 58.6024 56.2695 69.1093 56.2695 69.1093L64.6245 66.904C64.6245 66.904 64.3045 61.4431 62.3995 57.1112C59.5295 50.5792 54.3496 50.8523 53.1096 55.0792Z" fill="#263238"/>
<path d="M73.4896 75.6098L77.6496 75.4995L75.6496 80.0467C75.6496 80.0467 73.9546 80.283 72.5646 77.8834L71.0996 76.0456L72.7846 75.6938C73.0166 75.6425 73.2526 75.6144 73.4896 75.6098Z" fill="#E4897B"/>
<path d="M80.2744 76.3449L77.8944 80.115L75.6494 80.0467L77.6494 75.4995L80.2744 76.3449Z" fill="#E4897B"/>
<path d="M59.03 162.594L58.84 167.199H55.165L55.355 162.594H59.03Z" fill="#CE6F64"/>
<path d="M29.0399 150.177L32.1149 152.293L28.6149 155.391L25.5449 153.28L29.0399 150.177Z" fill="#CE6F64"/>
<path d="M45.0749 38.3081C45.2949 42.1255 45.2399 44.3781 47.0749 46.3366C49.8349 49.2928 54.3299 47.5443 55.1999 43.7112C55.9849 40.2772 55.4949 34.6063 51.9349 33.0836C51.1494 32.7506 50.2962 32.6327 49.4554 32.7409C48.6146 32.8491 47.8138 33.1798 47.1281 33.702C46.4423 34.2243 45.8942 34.9209 45.535 35.7266C45.1759 36.5323 45.0176 37.4206 45.0749 38.3081Z" fill="#E4897B"/>
<path d="M40.7943 37.6359C41.6993 41.1171 43.8293 45.1288 46.5843 45.386C50.0043 45.7011 51.5493 41.9888 51.9993 38.1557C54.0493 36.6802 52.9743 35.0577 55.0293 34.8529C57.6693 34.5904 56.8243 29.5181 53.3493 28.7043C53.3493 28.7043 54.5143 30.9884 52.0693 29.8332C49.7441 28.6727 47.1608 28.2024 44.5993 28.4732C44.5993 28.4732 47.7193 30.1115 44.6693 30.8413C41.6193 31.5712 40.7093 33.5455 42.1143 34.7374C42.1143 34.7427 40.1993 35.3465 40.7943 37.6359Z" fill="#263238"/>
<path d="M49.9149 38.9435C49.9821 39.8924 50.3459 40.7913 50.9499 41.5006C51.7499 42.43 52.5849 41.8524 52.7249 40.7235C52.8549 39.7101 52.5899 38.0036 51.6099 37.489C50.6299 36.9744 49.8499 37.7988 49.9149 38.9435Z" fill="#E4897B"/>
<path d="M51.2648 85.6073C51.2648 85.6073 54.8448 112.833 52.0248 123.744C47.5549 141.019 30.4649 155.6 30.4649 155.6L24.6699 151.61C24.6699 151.61 39.2249 139.297 41.0049 124.831C42.6049 111.846 38.5899 96.1404 38.5899 85.6021L51.2648 85.6073Z" fill="#719FFF"/>
<path opacity="0.1" d="M51.2648 85.6073C51.2648 85.6073 54.8448 112.833 52.0248 123.744C47.5549 141.019 30.4649 155.6 30.4649 155.6L24.6699 151.61C24.6699 151.61 39.2249 139.297 41.0049 124.831C42.6049 111.846 38.5899 96.1404 38.5899 85.6021L51.2648 85.6073Z" fill="black"/>
<path d="M52.7444 101.171C51.7913 100.024 50.7421 98.9697 49.6094 98.0203C50.2194 106.857 50.7194 119.948 50.1644 129.247C50.9106 127.464 51.5322 125.627 52.0244 123.749C53.3994 118.42 53.2544 109.215 52.7444 101.171Z" fill="#719FFF"/>
<path opacity="0.3" d="M52.7444 101.171C51.7913 100.024 50.7421 98.9697 49.6094 98.0203C50.2194 106.857 50.7194 119.948 50.1644 129.247C50.9106 127.464 51.5322 125.627 52.0244 123.749C53.3994 118.42 53.2544 109.215 52.7444 101.171Z" fill="black"/>
<path d="M32.7996 154.24C32.8246 154.24 30.5546 155.816 30.5546 155.816L24.2246 151.457L26.2246 149.719L32.7996 154.24Z" fill="#719FFF"/>
<path opacity="0.3" d="M32.7996 154.24C32.8246 154.24 30.5546 155.816 30.5546 155.816L24.2246 151.457L26.2246 149.719L32.7996 154.24Z" fill="black"/>
<path d="M58.2343 85.6072C58.2343 85.6072 63.7643 110.233 64.1543 122C64.5943 135.19 60.2093 166.307 60.2093 166.307H53.9843C53.9843 166.307 53.2193 134.949 52.9443 122.935C52.6393 109.834 45.3193 85.6072 45.3193 85.6072H58.2343Z" fill="#719FFF"/>
<path opacity="0.1" d="M58.2343 85.6072C58.2343 85.6072 63.7643 110.233 64.1543 122C64.5943 135.19 60.2093 166.307 60.2093 166.307H53.9843C53.9843 166.307 53.2193 134.949 52.9443 122.935C52.6393 109.834 45.3193 85.6072 45.3193 85.6072H58.2343Z" fill="black"/>
<path d="M61.4043 163.708C61.4343 163.708 61.0543 166.417 61.0543 166.417H53.4843L53.2793 163.997L61.4043 163.708Z" fill="#719FFF"/>
<path opacity="0.3" d="M61.4043 163.708C61.4343 163.708 61.0543 166.417 61.0543 166.417H53.4843L53.2793 163.997L61.4043 163.708Z" fill="black"/>
<path d="M153.945 61.9419C154.37 62.362 154.705 62.719 155.055 63.1181C155.405 63.5171 155.735 63.9057 156.055 64.31C156.705 65.1134 157.315 65.9588 157.905 66.8094C159.084 68.5157 160.132 70.3171 161.04 72.1967L161.225 72.58C161.316 72.7656 161.391 72.9588 161.45 73.1576C161.571 73.5418 161.645 73.9406 161.67 74.3443C161.703 75.0562 161.609 75.7683 161.395 76.4446C161.03 77.5679 160.487 78.6188 159.79 79.5531C158.534 81.2476 157.052 82.7436 155.39 83.9953L154.145 82.4935C154.73 81.7742 155.34 81.0023 155.885 80.2304C156.44 79.4826 156.941 78.6928 157.385 77.8676C157.8 77.1475 158.107 76.3648 158.295 75.5467C158.36 75.2541 158.372 74.9513 158.33 74.6541C158.312 74.5541 158.282 74.457 158.24 74.3653C158.221 74.325 158.2 74.2864 158.175 74.2498L158.015 73.9662C157.051 72.315 156.004 70.7183 154.88 69.1828C154.325 68.4109 153.73 67.6705 153.13 66.9407C152.835 66.5731 152.53 66.216 152.225 65.859C151.92 65.5019 151.59 65.1449 151.325 64.8666L153.945 61.9419Z" fill="#E4897B"/>
<path d="M154.625 82.0525L150.89 81.4119L152.845 84.8459C152.845 84.8459 155.25 84.7566 155.935 83.2707L154.625 82.0525Z" fill="#E4897B"/>
<path d="M148.13 82.9976L149.91 85.7858L152.845 84.8459L150.89 81.4119L148.13 82.9976Z" fill="#E4897B"/>
<path d="M154.445 171.678C154.191 171.701 153.937 171.629 153.73 171.474C153.667 171.411 153.621 171.333 153.595 171.247C153.57 171.16 153.566 171.068 153.585 170.98C153.588 170.924 153.607 170.869 153.637 170.823C153.668 170.777 153.711 170.74 153.76 170.717C154.195 170.513 155.335 171.279 155.465 171.369C155.48 171.378 155.491 171.393 155.497 171.41C155.504 171.427 155.505 171.445 155.5 171.463C155.498 171.481 155.491 171.498 155.479 171.511C155.467 171.524 155.452 171.533 155.435 171.537C155.111 171.623 154.779 171.671 154.445 171.678ZM153.945 170.865C153.908 170.859 153.871 170.859 153.835 170.865C153.813 170.875 153.794 170.892 153.781 170.914C153.768 170.935 153.76 170.96 153.76 170.985C153.747 171.044 153.748 171.105 153.764 171.163C153.779 171.221 153.809 171.274 153.85 171.316C154.04 171.495 154.53 171.521 155.185 171.384C154.81 171.124 154.388 170.947 153.945 170.865Z" fill="#719FFF"/>
<path d="M155.445 171.531H155.4C155.045 171.316 154.36 170.481 154.445 170.024C154.461 169.952 154.499 169.888 154.553 169.841C154.607 169.793 154.674 169.766 154.745 169.762C154.812 169.752 154.881 169.758 154.946 169.78C155.011 169.801 155.07 169.838 155.12 169.888C155.53 170.266 155.535 171.4 155.535 171.463C155.534 171.479 155.529 171.495 155.521 171.508C155.514 171.522 155.503 171.534 155.49 171.542L155.445 171.531ZM154.805 169.956H154.765C154.655 169.956 154.63 170.019 154.62 170.066C154.57 170.334 154.995 170.975 155.35 171.274C155.358 170.834 155.238 170.401 155.005 170.035C154.975 170.006 154.939 169.983 154.9 169.97C154.862 169.956 154.82 169.952 154.78 169.956H154.805Z" fill="#719FFF"/>
<path d="M137.405 171.678C137.086 171.71 136.766 171.625 136.5 171.437C136.44 171.381 136.394 171.311 136.365 171.232C136.337 171.154 136.326 171.069 136.335 170.985C136.338 170.934 136.354 170.885 136.38 170.842C136.406 170.799 136.442 170.763 136.485 170.738C136.95 170.465 138.44 171.264 138.61 171.363C138.626 171.374 138.638 171.389 138.646 171.407C138.654 171.424 138.657 171.444 138.655 171.463C138.652 171.481 138.644 171.498 138.631 171.512C138.619 171.525 138.603 171.534 138.585 171.537C138.197 171.623 137.802 171.671 137.405 171.678ZM136.74 170.865C136.683 170.861 136.626 170.873 136.575 170.901C136.557 170.91 136.542 170.924 136.531 170.942C136.521 170.96 136.515 170.98 136.515 171.001C136.508 171.056 136.513 171.111 136.53 171.164C136.547 171.216 136.577 171.263 136.615 171.3C136.845 171.516 137.46 171.552 138.29 171.405C137.806 171.135 137.282 170.952 136.74 170.865Z" fill="#719FFF"/>
<path d="M138.571 171.531H138.531C138.086 171.321 137.201 170.481 137.271 170.024C137.271 169.919 137.361 169.788 137.606 169.762C137.695 169.752 137.786 169.761 137.872 169.789C137.958 169.817 138.037 169.863 138.106 169.925C138.576 170.334 138.666 171.395 138.666 171.442C138.667 171.458 138.665 171.474 138.659 171.489C138.653 171.504 138.643 171.517 138.631 171.526C138.612 171.535 138.591 171.536 138.571 171.531ZM137.676 169.956H137.621C137.461 169.956 137.451 170.04 137.446 170.061C137.406 170.329 138.006 170.996 138.446 171.285C138.402 170.836 138.227 170.412 137.946 170.072C137.87 170.004 137.775 169.963 137.676 169.956Z" fill="#719FFF"/>
<path d="M144.48 49.8704C144.335 52.2437 143.945 57.064 145.68 58.3977C145.68 58.3977 145.365 60.8288 141.27 61.3959C136.77 62.0102 138.825 59.3428 138.825 59.3428C141.21 58.3872 140.905 56.4811 140.255 54.7379L144.48 49.8704Z" fill="#E4897B"/>
<path d="M135.165 45.6748C135.14 45.6749 135.115 45.6693 135.093 45.6584C135.071 45.6475 135.051 45.6316 135.035 45.6118C134.892 45.4337 134.711 45.2934 134.507 45.2022C134.303 45.111 134.081 45.0714 133.86 45.0868C133.836 45.0912 133.812 45.0907 133.789 45.0851C133.766 45.0795 133.744 45.069 133.725 45.0543C133.706 45.0395 133.69 45.0208 133.677 44.9993C133.665 44.9778 133.658 44.954 133.655 44.9292C133.649 44.8798 133.662 44.8301 133.691 44.7908C133.72 44.7515 133.763 44.7257 133.81 44.7192C134.092 44.6941 134.376 44.7412 134.637 44.8564C134.898 44.9716 135.129 45.1516 135.31 45.3808C135.331 45.4082 135.345 45.4414 135.35 45.4767C135.354 45.512 135.349 45.5479 135.335 45.5803C135.321 45.6126 135.298 45.6402 135.27 45.6597C135.242 45.6792 135.208 45.6899 135.175 45.6906L135.165 45.6748Z" fill="#263238"/>
<path d="M134.385 48.0012C134.208 48.7543 133.934 49.4786 133.57 50.154C133.737 50.2484 133.922 50.3029 134.111 50.3138C134.3 50.3247 134.49 50.2917 134.665 50.2171L134.385 48.0012Z" fill="#DE5753"/>
<path d="M134.585 47.4234C134.625 47.7385 134.5 48.0115 134.305 48.043C134.11 48.0745 133.915 47.833 133.88 47.5179C133.845 47.2029 133.965 46.9298 134.16 46.9036C134.355 46.8773 134.55 47.0874 134.585 47.4234Z" fill="#263238"/>
<path d="M134.25 46.9089L133.505 46.7881C133.505 46.7881 133.945 47.3289 134.25 46.9089Z" fill="#263238"/>
<path d="M142.69 171.448H138.94L138.69 162.337H142.44L142.69 171.448Z" fill="#E4897B"/>
<path d="M159.715 171.448H155.965L154.76 162.337H158.51L159.715 171.448Z" fill="#E4897B"/>
<path d="M155.735 171.006H159.945C160.017 171.006 160.086 171.032 160.141 171.082C160.195 171.131 160.23 171.199 160.24 171.274L160.74 174.776C160.749 174.865 160.74 174.954 160.714 175.039C160.688 175.123 160.646 175.201 160.589 175.267C160.532 175.333 160.463 175.385 160.386 175.421C160.308 175.457 160.224 175.475 160.14 175.475C158.675 175.449 157.965 175.359 156.115 175.359C154.975 175.359 153.31 175.48 151.74 175.48C150.17 175.48 150.085 173.847 150.74 173.7C153.675 173.038 154.14 172.125 155.125 171.248C155.297 171.098 155.512 171.013 155.735 171.006Z" fill="#263238"/>
<path d="M138.815 171.006H143.02C143.092 171.006 143.162 171.032 143.217 171.081C143.272 171.131 143.309 171.199 143.32 171.274L143.82 174.776C143.829 174.865 143.82 174.954 143.794 175.039C143.768 175.123 143.725 175.201 143.669 175.267C143.612 175.333 143.543 175.385 143.465 175.421C143.388 175.457 143.304 175.475 143.22 175.475C141.755 175.449 141.045 175.359 139.195 175.359C138.055 175.359 135.695 175.48 134.125 175.48C132.555 175.48 132.47 173.847 133.125 173.7C136.06 173.038 137.215 172.125 138.205 171.248C138.377 171.098 138.591 171.013 138.815 171.006Z" fill="#263238"/>
<path d="M138.69 162.337L138.82 167.037H142.57L142.44 162.337H138.69Z" fill="#CE6F64"/>
<path d="M158.51 162.337H154.76L155.385 167.037H159.13L158.51 162.337Z" fill="#CE6F64"/>
<path d="M144.53 44.9556C144.785 48.8516 144.97 50.4951 143.36 52.7372C140.935 56.103 136.325 55.5832 134.965 51.8446C133.741 48.4788 133.53 42.6767 136.94 40.6394C137.691 40.1879 138.538 39.9452 139.403 39.9342C140.267 39.9233 141.12 40.1445 141.881 40.5768C142.641 41.0092 143.283 41.6384 143.747 42.4047C144.211 43.171 144.481 44.0491 144.53 44.9556Z" fill="#E4897B"/>
<path d="M146.69 48.5734C148.77 49.7916 150.315 46.7882 150.315 46.7882C150.315 46.7882 146.585 47.2135 146.92 44.8821C147.36 41.7894 145.25 38.0298 139.96 38.5129C139.665 38.5392 139.385 38.5759 139.11 38.6232C138.556 38.3475 137.93 38.2763 137.333 38.4212C136.736 38.5661 136.202 38.9185 135.82 39.4213C134.32 39.5526 132.295 41.4324 133.67 43.916C133.766 43.6306 133.916 43.3682 134.11 43.1441C134.225 44.5986 135.435 46.9089 136.945 47.0612C137.27 49.0513 136.01 51.3564 136.445 53.4357C137.09 56.4339 141.905 57.1112 141.905 57.1112C141.739 56.7368 141.677 56.3207 141.727 55.911C141.776 55.5012 141.935 55.1146 142.185 54.7956C145.455 56.3709 147.61 54.8324 147.61 54.8324C145.38 53.9608 146.055 52.4065 146.055 52.4065C146.825 52.7655 147.697 52.7971 148.489 52.4945C149.281 52.1919 149.93 51.5788 150.3 50.784C149.559 50.821 148.824 50.6319 148.183 50.2396C147.543 49.8473 147.024 49.2686 146.69 48.5734Z" fill="#263238"/>
<path d="M138.25 47.6597C138.259 48.0337 138.197 48.4057 138.068 48.7545C137.94 49.1032 137.746 49.4218 137.5 49.6918C136.84 50.4112 136.03 49.9071 135.81 48.9882C135.615 48.1586 135.725 46.7881 136.585 46.4101C136.774 46.332 136.979 46.3048 137.181 46.331C137.383 46.3572 137.575 46.436 137.741 46.5601C137.906 46.6843 138.039 46.85 138.128 47.042C138.217 47.2341 138.259 47.4464 138.25 47.6597Z" fill="#E4897B"/>
<path d="M141.365 83.9584C141.365 83.9584 142.315 109.876 144.575 125.093C146.395 137.391 154.48 166.123 154.48 166.123H159.59C159.59 166.123 155.375 138.372 154.45 126.217C152.11 95.4524 158.185 88.8469 152.45 82.4409L141.365 83.9584Z" fill="#263238"/>
<path d="M145.635 92.155C145.635 92.155 143.325 91.7349 141.975 96.3556C142.475 105.109 143.33 116.723 144.575 125.093C144.85 126.957 145.27 129.205 145.785 131.667C144.81 116.881 145.635 92.155 145.635 92.155Z" fill="#161F33"/>
<path d="M137.38 84.5045C137.38 84.5045 133.17 113.179 133.415 125.177C133.67 137.658 138.025 166.133 138.025 166.133H143.09C143.09 166.133 142.29 138.399 142.735 126.143C143.235 112.78 148.43 82.9976 148.43 82.9976L137.38 84.5045Z" fill="#263238"/>
<path d="M160.33 166.375H153.535L153.005 163.981L160.28 164.033L160.33 166.375Z" fill="#719FFF"/>
<path opacity="0.2" d="M160.33 166.375H153.535L153.005 163.981L160.28 164.033L160.33 166.375Z" fill="black"/>
<path d="M152.195 58.4028C154.15 58.6023 157.12 64.436 157.12 64.436L152.185 68.4108C152.185 68.4108 148.1 64.646 148.585 62.5299C149.09 60.3298 150.32 58.219 152.195 58.4028Z" fill="#719FFF"/>
<path opacity="0.1" d="M152.195 58.4028C154.15 58.6023 157.12 64.436 157.12 64.436L152.185 68.4108C152.185 68.4108 148.1 64.646 148.585 62.5299C149.09 60.3298 150.32 58.219 152.195 58.4028Z" fill="black"/>
<path d="M150.72 60.9129C150.222 60.7719 149.706 60.7117 149.19 60.7344C148.928 61.3085 148.725 61.9105 148.585 62.5302C148.085 64.6305 152.185 68.4111 152.185 68.4111L152.55 68.117L150.72 60.9129Z" fill="#719FFF"/>
<path opacity="0.3" d="M150.72 60.9129C150.222 60.7719 149.706 60.7117 149.19 60.7344C148.928 61.3085 148.725 61.9105 148.585 62.5302C148.085 64.6305 152.185 68.4111 152.185 68.4111L152.55 68.117L150.72 60.9129Z" fill="black"/>
<path d="M135.705 66.5154C134.28 70.3013 132.78 74.1501 131.585 77.9464C131.505 78.188 131.44 78.419 131.37 78.6553L131.2 79.2381C131.154 79.4097 131.154 79.5916 131.2 79.7632C131.482 80.4197 131.93 80.9825 132.495 81.3909C133.99 82.5173 135.619 83.4335 137.34 84.1161L136.89 86.0484C134.773 85.7552 132.725 85.0538 130.85 83.9796C129.696 83.3323 128.757 82.3326 128.155 81.1126C127.81 80.3329 127.69 79.4639 127.81 78.6133C127.821 78.5091 127.838 78.4057 127.86 78.3035L127.91 78.0829L127.995 77.6839C128.055 77.4161 128.115 77.1588 128.18 76.8963C128.68 74.7959 129.32 72.8006 129.995 70.8211C130.67 68.8415 131.375 66.8882 132.17 64.9402L135.705 66.5154Z" fill="#E4897B"/>
<path d="M132.67 61.2017C132.67 61.2017 130.98 62.0996 137.38 84.5048L152.47 82.436C151.41 76.0195 150.91 72.0446 152.195 58.4031C150.031 58.2403 147.858 58.2403 145.695 58.4031C143.391 58.5437 141.1 58.8596 138.84 59.3482C135.945 60.0256 132.67 61.2017 132.67 61.2017Z" fill="#719FFF"/>
<path opacity="0.1" d="M132.67 61.2017C132.67 61.2017 130.98 62.0996 137.38 84.5048L152.47 82.436C151.41 76.0195 150.91 72.0446 152.195 58.4031C150.031 58.2403 147.858 58.2403 145.695 58.4031C143.391 58.5437 141.1 58.8596 138.84 59.3482C135.945 60.0256 132.67 61.2017 132.67 61.2017Z" fill="black"/>
<path d="M152.58 81.4749L153.445 82.7928C153.51 82.8978 153.4 83.0238 153.23 83.0501L137.405 85.2239C137.27 85.2239 137.145 85.1872 137.125 85.0979L136.815 83.6959C136.79 83.6014 136.9 83.5017 137.05 83.4807L152.33 81.3803C152.376 81.3726 152.423 81.3773 152.467 81.3938C152.51 81.4103 152.549 81.4382 152.58 81.4749Z" fill="#719FFF"/>
<path opacity="0.2" d="M152.58 81.4749L153.445 82.7928C153.51 82.8978 153.4 83.0238 153.23 83.0501L137.405 85.2239C137.27 85.2239 137.145 85.1872 137.125 85.0979L136.815 83.6959C136.79 83.6014 136.9 83.5017 137.05 83.4807L152.33 81.3803C152.376 81.3726 152.423 81.3773 152.467 81.3938C152.51 81.4103 152.549 81.4382 152.58 81.4749Z" fill="black"/>
<path d="M150.75 83.549L151.16 83.4912C151.24 83.4912 151.295 83.4282 151.285 83.3757L150.865 81.5589C150.849 81.5279 150.823 81.5036 150.792 81.4902C150.761 81.4768 150.727 81.4751 150.695 81.4854L150.285 81.5379C150.2 81.5379 150.145 81.6009 150.16 81.6587L150.58 83.4702C150.59 83.5279 150.67 83.5595 150.75 83.549Z" fill="#263238"/>
<path d="M140.83 84.8933L141.24 84.8356C141.32 84.8356 141.38 84.7725 141.365 84.72L140.945 82.9033C140.928 82.8726 140.903 82.8484 140.872 82.8342C140.841 82.82 140.807 82.8166 140.775 82.8245L140.365 82.8823C140.285 82.8823 140.225 82.9453 140.24 82.9978L140.66 84.8146C140.67 84.8933 140.75 84.9248 140.83 84.8933Z" fill="#263238"/>
<path d="M133.375 68.8049C133.79 70.8318 134.375 73.3994 135.23 76.6496L135.415 68.4111L133.375 68.8049Z" fill="#719FFF"/>
<path opacity="0.3" d="M133.375 68.8049C133.79 70.8318 134.375 73.3994 135.23 76.6496L135.415 68.4111L133.375 68.8049Z" fill="black"/>
<path d="M132.67 61.2016C130.795 61.9945 129.17 68.7313 129.17 68.7313L135.62 72.0288C135.62 72.0288 138.735 63.7903 137.34 62.1835C135.945 60.5768 134.83 60.2932 132.67 61.2016Z" fill="#719FFF"/>
<path opacity="0.1" d="M132.67 61.2016C130.795 61.9945 129.17 68.7313 129.17 68.7313L135.62 72.0288C135.62 72.0288 138.735 63.7903 137.34 62.1835C135.945 60.5768 134.83 60.2932 132.67 61.2016Z" fill="black"/>
<path d="M143.955 166.375H137.16L136.63 163.981L144.195 164.033L143.955 166.375Z" fill="#719FFF"/>
<path opacity="0.2" d="M143.955 166.375H137.16L136.63 163.981L144.195 164.033L143.955 166.375Z" fill="black"/>
<path d="M137.445 83.465L136.9 83.2287C136.766 83.1715 136.62 83.1525 136.477 83.1737C136.334 83.1949 136.199 83.2555 136.085 83.3493C135.971 83.4431 135.883 83.5669 135.83 83.708C135.776 83.8491 135.759 84.0026 135.78 84.1529L136.175 86.8885C136.194 87.0254 136.242 87.1562 136.315 87.2715C136.388 87.3867 136.484 87.4834 136.597 87.5548C136.71 87.6261 136.837 87.6702 136.968 87.684C137.099 87.6977 137.231 87.6807 137.355 87.6341C137.554 87.5585 137.739 87.4504 137.905 87.3138C138.086 87.1564 138.229 86.9565 138.323 86.7303C138.417 86.5041 138.459 86.2579 138.445 86.0116L138.39 84.8775C138.381 84.571 138.286 84.2741 138.119 84.0232C137.951 83.7723 137.717 83.5783 137.445 83.465Z" fill="#E4897B"/>
</g>
<defs>
<filter id="filter0_d_883_59953" x="0" y="5.49463" width="201.89" height="182.732" filterUnits="userSpaceOnUse" color-interpolation-filters="sRGB">
<feFlood flood-opacity="0" result="BackgroundImageFix"/>
<feColorMatrix in="SourceAlpha" type="matrix" values="0 0 0 0 0 0 0 0 0 0 0 0 0 0 0 0 0 0 127 0" result="hardAlpha"/>
<feOffset dy="4"/>
<feGaussianBlur stdDeviation="2"/>
<feComposite in2="hardAlpha" operator="out"/>
<feColorMatrix type="matrix" values="0 0 0 0 0 0 0 0 0 0 0 0 0 0 0 0 0 0 0.1 0"/>
<feBlend mode="normal" in2="BackgroundImageFix" result="effect1_dropShadow_883_59953"/>
<feBlend mode="normal" in="SourceGraphic" in2="effect1_dropShadow_883_59953" result="shape"/>
</filter>
</defs>
</svg>
