<svg width="19" height="19" viewBox="0 0 19 19" fill="none" xmlns="http://www.w3.org/2000/svg">
<path d="M10.0571 13.3633H10.6113C11.5217 13.3633 12.2659 12.6191 12.2659 11.7087V11.1545H10.0571V13.3633Z" fill="#7D7F88"/>
<path d="M6.73999 11.7087C6.73999 12.6191 7.48416 13.3633 8.39457 13.3633H8.94874V11.1545H6.73999V11.7087Z" fill="#7D7F88"/>
<path d="M6.73999 9.50004V10.0542H8.94874V7.84546H8.39457C7.48416 7.84546 6.73999 8.58963 6.73999 9.50004Z" fill="#7D7F88"/>
<path d="M15.8599 5.39925L11.3078 2.20883C10.0649 1.338 8.16493 1.3855 6.96951 2.31175L3.00326 5.40717C2.20368 6.02467 1.58618 7.29133 1.58618 8.28883V13.7513C1.58618 15.7701 3.22493 17.4167 5.23576 17.4167H13.762C15.7728 17.4167 17.4116 15.778 17.4116 13.7592V8.39175C17.4195 7.323 16.7308 6.00883 15.8599 5.39925ZM13.3662 11.7088C13.3662 13.2288 12.1233 14.4717 10.6033 14.4717H8.39451C6.87451 14.4717 5.6316 13.2367 5.6316 11.7088V9.50008C5.6316 7.98008 6.87451 6.73717 8.39451 6.73717H10.6033C12.1233 6.73717 13.3662 7.97217 13.3662 9.50008V11.7088Z" fill="#7D7F88"/>
<path d="M10.6113 7.84546H10.0571V10.0542H12.2659V9.50004C12.2659 8.58963 11.5217 7.84546 10.6113 7.84546Z" fill="#7D7F88"/>
</svg>
