<svg width="33" height="32" viewBox="0 0 33 32" fill="none" xmlns="http://www.w3.org/2000/svg">
<path d="M19.488 14H24.488" stroke="#313952" stroke-width="2" stroke-linecap="round" stroke-linejoin="round"/>
<path d="M19.488 18H24.488" stroke="#313952" stroke-width="2" stroke-linecap="round" stroke-linejoin="round"/>
<path d="M12.0005 18C13.6573 18 15.0005 16.6569 15.0005 15C15.0005 13.3431 13.6573 12 12.0005 12C10.3436 12 9.00049 13.3431 9.00049 15C9.00049 16.6569 10.3436 18 12.0005 18Z" stroke="#313952" stroke-width="2" stroke-linecap="round" stroke-linejoin="round"/>
<path d="M8.12671 20.9999C8.34865 20.1413 8.84957 19.3807 9.55076 18.8377C10.252 18.2947 11.1137 18 12.0005 18C12.8874 18 13.7491 18.2946 14.4504 18.8375C15.1516 19.3805 15.6526 20.141 15.8746 20.9997" stroke="#313952" stroke-width="2" stroke-linecap="round" stroke-linejoin="round"/>
<path d="M27.488 6H5.48804C4.93575 6 4.48804 6.44772 4.48804 7V25C4.48804 25.5523 4.93575 26 5.48804 26H27.488C28.0403 26 28.488 25.5523 28.488 25V7C28.488 6.44772 28.0403 6 27.488 6Z" stroke="#313952" stroke-width="2" stroke-linecap="round" stroke-linejoin="round"/>
</svg>
