<svg width="24" height="24" viewBox="0 0 24 24" fill="none" xmlns="http://www.w3.org/2000/svg">
<path d="M4.13281 15.912V19.5926C5.13705 20.9714 6.40303 22.0823 7.83876 22.8447C9.27449 23.6071 10.8439 24.0017 12.4329 24C16.1405 24 19.4091 21.8918 21.3332 18.6883V13.5293C20.6747 18.3706 16.9405 22.08 12.4329 22.08C8.69959 22.08 5.49701 19.536 4.13281 15.912ZM19.747 6.12097V4.46785C19.7444 4.10326 19.7978 3.74088 19.9047 3.39649C17.9061 1.21493 15.2242 -0.00418131 12.4329 1.31771e-05C9.93505 -0.00413777 7.51496 0.972528 5.59391 2.76001L5.59819 2.81857L5.59905 2.84449V5.43649C6.44346 4.3322 7.49166 3.44599 8.67144 2.83892C9.85121 2.23185 11.1345 1.91835 12.4329 1.92001C15.446 1.92001 18.1127 3.57697 19.747 6.12097Z" fill="#313952"/>
<path d="M19.2926 11.9996C19.2926 14.0365 18.5699 15.9899 17.2835 17.4302C15.9971 18.8705 14.2523 19.6796 12.433 19.6796C10.6137 19.6796 8.86897 18.8705 7.58255 17.4302C6.29612 15.9899 5.57342 14.0365 5.57342 11.9996C5.57342 9.96274 6.29612 8.0093 7.58255 6.56902C8.86897 5.12874 10.6137 4.3196 12.433 4.3196C14.2523 4.3196 15.9971 5.12874 17.2835 6.56902C18.5699 8.0093 19.2926 9.96274 19.2926 11.9996ZM12.433 18.7196C13.2212 18.7196 14.0017 18.5458 14.7299 18.2081C15.4581 17.8704 16.1198 17.3754 16.6772 16.7514C17.2345 16.1273 17.6766 15.3865 17.9783 14.5712C18.2799 13.7559 18.4352 12.8821 18.4352 11.9996C18.4352 11.1171 18.2799 10.2433 17.9783 9.42797C17.6766 8.61266 17.2345 7.87185 16.6772 7.24785C16.1198 6.62384 15.4581 6.12884 14.7299 5.79113C14.0017 5.45342 13.2212 5.2796 12.433 5.2796C10.8411 5.2796 9.31448 5.9876 8.18886 7.24785C7.06324 8.50809 6.43087 10.2173 6.43087 11.9996C6.43087 13.7819 7.06324 15.4911 8.18886 16.7514C9.31448 18.0116 10.8411 18.7196 12.433 18.7196ZM24 3.782C24 2.91801 23.3741 2.21721 22.6024 2.21721C21.4877 2.21721 20.5959 3.2252 20.6045 4.4636V9.7916C20.6045 10.9945 21.227 12.0716 22.1908 12.5593V20.8316C22.1908 21.3308 22.5509 21.734 22.9968 21.734H23.194C23.6399 21.734 24 21.3308 24 20.8316V3.782ZM4.13291 2.21721C3.97827 2.21721 3.82996 2.28598 3.72062 2.40841C3.61127 2.53083 3.54984 2.69687 3.54984 2.87001V5.4524C3.54984 5.6444 3.41265 5.7884 3.24973 5.7884C3.07824 5.7884 2.94963 5.6348 2.94963 5.4524V2.89881C2.94963 2.54361 2.70096 2.22681 2.38371 2.21721C2.0493 2.20761 1.77492 2.50521 1.77492 2.87001V5.4524C1.77492 5.6444 1.63773 5.7884 1.47481 5.7884C1.30332 5.7884 1.17471 5.6348 1.17471 5.4524V2.89881C1.17471 2.54361 0.926045 2.22681 0.608789 2.21721C0.274384 2.20761 0 2.50521 0 2.87001V7.2668C0 8.13272 0.374705 8.90552 0.950911 9.38744C1.46624 9.71288 1.46624 11.2028 1.46624 11.2028V20.822C1.46624 21.3212 1.82637 21.7244 2.27224 21.7244H2.46945C2.91533 21.7244 3.27546 21.3212 3.27546 20.822V11.2028C3.27546 11.2028 3.27546 9.77144 3.79078 9.38744C4.08575 9.1412 4.32531 8.82127 4.4904 8.45312C4.65548 8.08496 4.74153 7.67875 4.74169 7.2668V2.87001C4.73301 2.69507 4.66532 2.53035 4.5523 2.40917C4.43929 2.28798 4.28938 2.21937 4.13291 2.21721Z" fill="#313952"/>
</svg>
