<svg width="14" height="17" viewBox="0 0 14 17" fill="none" xmlns="http://www.w3.org/2000/svg">
<path d="M13.4678 5.8375C12.6803 2.3725 9.65775 0.8125 7.00276 0.8125C7.00276 0.8125 7.00276 0.8125 6.99526 0.8125C4.34776 0.8125 1.31776 2.365 0.530257 5.83C-0.347243 9.7 2.02276 12.9775 4.16776 15.04C4.96276 15.805 5.98276 16.1875 7.00276 16.1875C8.02276 16.1875 9.04276 15.805 9.83026 15.04C11.9753 12.9775 14.3453 9.7075 13.4678 5.8375ZM7.00276 9.595C5.69776 9.595 4.64026 8.5375 4.64026 7.2325C4.64026 5.9275 5.69776 4.87 7.00276 4.87C8.30775 4.87 9.36525 5.9275 9.36525 7.2325C9.36525 8.5375 8.30775 9.595 7.00276 9.595Z" fill="#7D7F88"/>
</svg>
