<svg width="22" height="24" viewBox="0 0 22 24" fill="none" xmlns="http://www.w3.org/2000/svg">
<rect y="13.1472" width="9" height="9" rx="3" fill="#313952"/>
<rect y="13.1472" width="9" height="9" rx="3" fill="#313952"/>
<rect y="13.1472" width="9" height="9" rx="3" fill="#313952"/>
<rect y="13.1472" width="9" height="9" rx="3" fill="#313952"/>
<rect x="11" y="13.1472" width="9" height="9" rx="3" fill="#313952"/>
<rect x="11" y="13.1472" width="9" height="9" rx="3" fill="#313952"/>
<rect x="11" y="13.1472" width="9" height="9" rx="3" fill="#313952"/>
<rect x="11" y="13.1472" width="9" height="9" rx="3" fill="#313952"/>
<rect x="9.35303" y="5" width="9" height="9" rx="3" transform="rotate(-30 9.35303 5)" fill="#313952"/>
<rect x="9.35303" y="5" width="9" height="9" rx="3" transform="rotate(-30 9.35303 5)" fill="#313952"/>
<rect x="9.35303" y="5" width="9" height="9" rx="3" transform="rotate(-30 9.35303 5)" fill="#313952"/>
<rect x="9.35303" y="5" width="9" height="9" rx="3" transform="rotate(-30 9.35303 5)" fill="#313952"/>
<rect y="2.14722" width="9" height="9" rx="3" fill="#313952"/>
<rect y="2.14722" width="9" height="9" rx="3" fill="#313952"/>
<rect y="2.14722" width="9" height="9" rx="3" fill="#313952"/>
<rect y="2.14722" width="9" height="9" rx="3" fill="#313952"/>
</svg>
