<svg width="22" height="22" viewBox="0 0 22 22" fill="none" xmlns="http://www.w3.org/2000/svg">
<path d="M7.79165 17.4166H7.33331C3.66665 17.4166 1.83331 16.4999 1.83331 11.9166V7.33325C1.83331 3.66659 3.66665 1.83325 7.33331 1.83325H14.6666C18.3333 1.83325 20.1666 3.66659 20.1666 7.33325V11.9166C20.1666 15.5833 18.3333 17.4166 14.6666 17.4166H14.2083C13.9241 17.4166 13.6491 17.5541 13.475 17.7833L12.1 19.6166C11.495 20.4233 10.505 20.4233 9.89998 19.6166L8.52498 17.7833C8.37831 17.5816 8.03915 17.4166 7.79165 17.4166Z" stroke="#7D7F88" stroke-width="1.375" stroke-miterlimit="10" stroke-linecap="round" stroke-linejoin="round"/>
<path d="M6.41669 7.33325H15.5834" stroke="#7D7F88" stroke-width="1.375" stroke-linecap="round" stroke-linejoin="round"/>
<path d="M6.41669 11.9167H11.9167" stroke="#7D7F88" stroke-width="1.375" stroke-linecap="round" stroke-linejoin="round"/>
</svg>
