<svg width="256" height="233" viewBox="0 0 256 233" fill="none" xmlns="http://www.w3.org/2000/svg">
<g clip-path="url(#clip0_3497_15325)">
<path d="M220.261 21.4244L6.59277 83.79L12.2522 103.249L225.92 40.8836L220.261 21.4244Z" fill="#3F3D56"/>
<path d="M32.12 173.173L0.627099 64.8889C0.39362 64.0861 0.488055 63.2232 0.889618 62.4902C1.29118 61.7571 1.96698 61.2139 2.76835 60.98L211.256 0.126169C212.058 -0.106944 212.919 -0.0120181 213.65 0.390121C214.382 0.79226 214.924 1.46875 215.158 2.2711L243.059 98.2028L242.195 98.4548L214.295 2.52314C214.127 1.95027 213.74 1.46733 213.217 1.18013C212.695 0.892936 212.08 0.824888 211.508 0.990909L3.01988 61.8447C2.44747 62.0118 1.96476 62.3998 1.67793 62.9235C1.3911 63.4471 1.32364 64.0634 1.49041 64.6369L32.9833 172.921L32.12 173.173Z" fill="#3F3D56"/>
<path d="M196.914 98.6493C196.281 98.6487 195.666 98.4428 195.16 98.0626C194.654 97.6824 194.284 97.1482 194.107 96.54L188.824 78.3782C188.608 77.6327 188.697 76.8319 189.069 76.1515C189.442 75.471 190.069 74.9665 190.813 74.7485L208.942 69.4569C209.686 69.2406 210.486 69.3289 211.165 69.7024C211.844 70.0758 212.348 70.704 212.565 71.449L217.847 89.6108C218.063 90.3563 217.975 91.1571 217.602 91.8375C217.23 92.518 216.603 93.0225 215.859 93.2405L197.73 98.5321C197.465 98.6098 197.19 98.6492 196.914 98.6493Z" fill="#D8EBFF"/>
<path d="M31.6334 65.2244C31.5791 65.0378 31.5146 64.8544 31.44 64.6749C30.9331 63.4424 29.9894 62.4411 28.7903 61.8633C27.5912 61.2854 26.2212 61.1719 24.9436 61.5446C23.666 61.9172 22.571 62.7497 21.8689 63.882C21.1667 65.0143 20.9071 66.3667 21.1398 67.6792C21.1725 67.8707 21.216 68.0601 21.2702 68.2467C21.5985 69.3694 22.281 70.3553 23.2155 71.0568C24.15 71.7583 25.2862 72.1377 26.454 72.1382C26.9638 72.1393 27.4712 72.0665 27.9602 71.922C29.3328 71.5202 30.4903 70.5895 31.1789 69.334C31.8675 68.0784 32.031 66.6005 31.6334 65.2244ZM27.7084 71.0572C26.5637 71.39 25.334 71.2545 24.2889 70.6804C23.2438 70.1062 22.4687 69.1403 22.1334 67.9945C22.0808 67.8078 22.0387 67.6183 22.0074 67.4269C21.8388 66.3456 22.0691 65.2397 22.6553 64.3161C23.2415 63.3925 24.1434 62.7144 25.1924 62.4086C26.2414 62.1028 27.3657 62.1903 28.355 62.6547C29.3444 63.119 30.131 63.9285 30.5678 64.9317C30.6492 65.1078 30.7169 65.29 30.7702 65.4767C31.102 66.6234 30.9659 67.8552 30.3918 68.9016C29.8178 69.9479 28.8526 70.7232 27.7084 71.0572Z" fill="#6C63FF"/>
<path d="M18.4002 69.0839C18.1125 68.094 18.1401 67.0389 18.4793 66.0655C18.8184 65.0921 19.4522 64.2489 20.2923 63.6533C19.5052 63.6149 18.7204 63.7655 18.0031 64.0924C17.2859 64.4194 16.657 64.9133 16.1689 65.5331C15.6808 66.1528 15.3476 66.8805 15.1971 67.6553C15.0465 68.4302 15.083 69.2299 15.3034 69.9878C15.5238 70.7458 15.9218 71.4399 16.4643 72.0125C17.0067 72.5851 17.6779 73.0196 18.4219 73.2797C19.1659 73.5398 19.9612 73.6181 20.7415 73.508C21.5218 73.3978 22.2646 73.1025 22.9079 72.6466C21.8799 72.5963 20.8932 72.2261 20.0853 71.5875C19.2773 70.9489 18.6883 70.0737 18.4002 69.0839Z" fill="#6C63FF"/>
<path d="M158.164 91.4064C158.069 91.0618 157.906 90.7394 157.686 90.4577C157.466 90.176 157.192 89.9406 156.881 89.7649C156.57 89.5892 156.228 89.4766 155.873 89.4337C155.519 89.3908 155.159 89.4183 154.815 89.5147L124.966 97.8788L121.751 98.7796H141.938L145.153 97.8788L156.281 94.762C156.974 94.5667 157.562 94.1037 157.916 93.4746C158.269 92.8455 158.358 92.1016 158.164 91.4064Z" fill="#CCCCCC"/>
<path d="M137.047 85.1589C136.852 84.4637 136.39 83.8744 135.762 83.5205C135.134 83.1666 134.391 83.0771 133.697 83.2717L88.908 95.82C88.2822 95.9976 87.7403 96.3934 87.38 96.936C87.0197 97.4786 86.8648 98.1323 86.9432 98.7792H98.5384L101.757 97.8784L135.163 88.5189C135.857 88.323 136.445 87.8592 136.799 87.2293C137.152 86.5993 137.241 85.8547 137.047 85.1589Z" fill="#CCCCCC"/>
<path d="M252.353 97.8779H35.1955C34.3611 97.8789 33.5612 98.2113 32.9712 98.8024C32.3812 99.3935 32.0493 100.195 32.0483 101.031V229.847C32.0492 230.683 32.3811 231.485 32.9711 232.076C33.5611 232.667 34.3611 232.999 35.1955 233H252.353C253.187 232.999 253.987 232.667 254.577 232.076C255.167 231.485 255.499 230.683 255.5 229.847V101.031C255.499 100.195 255.167 99.3935 254.577 98.8025C253.987 98.2114 253.187 97.8789 252.353 97.8779ZM254.601 229.847C254.6 230.444 254.364 231.017 253.942 231.439C253.521 231.862 252.949 232.099 252.353 232.099H35.1955C34.5994 232.099 34.0277 231.862 33.6062 231.439C33.1847 231.017 32.9478 230.444 32.9475 229.847V101.031C32.9478 100.434 33.1847 99.8609 33.6062 99.4386C34.0278 99.0163 34.5994 98.779 35.1955 98.7787H252.353C252.949 98.779 253.52 99.0163 253.942 99.4386C254.364 99.8609 254.6 100.434 254.601 101.031V229.847Z" fill="#3F3D56"/>
<path d="M56.3254 115.445C55.2583 115.445 54.2152 115.128 53.328 114.534C52.4407 113.94 51.7492 113.096 51.3409 112.108C50.9325 111.12 50.8257 110.034 51.0338 108.985C51.242 107.937 51.7559 106.974 52.5104 106.218C53.2649 105.462 54.2263 104.947 55.2728 104.739C56.3194 104.53 57.4042 104.637 58.39 105.046C59.3759 105.455 60.2185 106.148 60.8113 107.037C61.4042 107.926 61.7206 108.971 61.7206 110.04C61.7189 111.473 61.15 112.846 60.1386 113.86C59.1271 114.873 57.7558 115.443 56.3254 115.445ZM56.3254 105.536C55.4362 105.536 54.5669 105.8 53.8275 106.295C53.0882 106.79 52.5119 107.493 52.1716 108.316C51.8313 109.139 51.7423 110.045 51.9158 110.918C52.0893 111.792 52.5175 112.595 53.1462 113.225C53.775 113.854 54.5761 114.283 55.4483 114.457C56.3204 114.631 57.2244 114.542 58.0459 114.201C58.8675 113.86 59.5696 113.283 60.0637 112.542C60.5577 111.801 60.8214 110.93 60.8214 110.04C60.82 108.846 60.3459 107.701 59.5031 106.856C58.6602 106.012 57.5174 105.537 56.3254 105.536Z" fill="#6C63FF"/>
<path d="M47.9395 110.039C47.9396 109.008 48.2608 108.003 48.8582 107.164C49.4556 106.324 50.2995 105.692 51.2724 105.356C50.5274 105.098 49.7319 105.023 48.952 105.136C48.1721 105.249 47.4304 105.547 46.7887 106.005C46.1471 106.463 45.624 107.068 45.2631 107.77C44.9022 108.472 44.7139 109.25 44.7139 110.039C44.7139 110.829 44.9022 111.607 45.2631 112.309C45.624 113.01 46.1471 113.616 46.7887 114.074C47.4304 114.532 48.1721 114.83 48.952 114.943C49.7319 115.056 50.5274 114.98 51.2724 114.723C50.2995 114.387 49.4556 113.755 48.8582 112.915C48.2608 112.076 47.9396 111.07 47.9395 110.039Z" fill="#6C63FF"/>
<path d="M78.1953 173.897C77.1225 173.896 76.094 173.469 75.3354 172.709C74.5769 171.949 74.1502 170.918 74.1489 169.844V157.683C74.1489 156.607 74.5752 155.576 75.3341 154.816C76.0929 154.056 77.1222 153.629 78.1953 153.629C79.2685 153.629 80.2977 154.056 81.0566 154.816C81.8154 155.576 82.2417 156.607 82.2417 157.683V169.844C82.2405 170.918 81.8138 171.949 81.0552 172.709C80.2966 173.469 79.2681 173.896 78.1953 173.897Z" fill="#D8EBFF"/>
<path d="M88.9858 173.897C87.913 173.896 86.8845 173.469 86.126 172.709C85.3674 171.949 84.9407 170.918 84.9395 169.844V157.683C84.9395 156.607 85.3658 155.576 86.1246 154.816C86.8835 154.056 87.9127 153.629 88.9858 153.629C90.059 153.629 91.0882 154.056 91.8471 154.816C92.6059 155.576 93.0322 156.607 93.0322 157.683V169.844C93.031 170.918 92.6043 171.949 91.8457 172.709C91.0872 173.469 90.0586 173.896 88.9858 173.897Z" fill="#D8EBFF"/>
<path d="M99.7764 173.897C98.7036 173.896 97.6751 173.469 96.9165 172.709C96.1579 171.949 95.7312 170.918 95.73 169.844V157.683C95.73 156.607 96.1563 155.576 96.9151 154.816C97.674 154.056 98.7032 153.629 99.7764 153.629C100.85 153.629 101.879 154.056 102.638 154.816C103.396 155.576 103.823 156.607 103.823 157.683V169.844C103.822 170.918 103.395 171.949 102.636 172.709C101.878 173.469 100.849 173.896 99.7764 173.897Z" fill="#D8EBFF"/>
<path d="M116.412 173.897C115.339 173.896 114.31 173.469 113.552 172.709C112.793 171.949 112.366 170.918 112.365 169.844V157.683C112.365 156.607 112.792 155.576 113.55 154.816C114.309 154.056 115.338 153.629 116.412 153.629C117.485 153.629 118.514 154.056 119.273 154.816C120.032 155.576 120.458 156.607 120.458 157.683V169.844C120.457 170.918 120.03 171.949 119.272 172.709C118.513 173.469 117.484 173.896 116.412 173.897Z" fill="#D8EBFF"/>
<path d="M127.202 173.897C126.129 173.896 125.101 173.469 124.342 172.709C123.584 171.949 123.157 170.918 123.156 169.844V157.683C123.156 156.607 123.582 155.576 124.341 154.816C125.1 154.056 126.129 153.629 127.202 153.629C128.275 153.629 129.305 154.056 130.063 154.816C130.822 155.576 131.249 156.607 131.249 157.683V169.844C131.247 170.918 130.821 171.949 130.062 172.709C129.303 173.469 128.275 173.896 127.202 173.897Z" fill="#D8EBFF"/>
<path d="M137.992 173.897C136.919 173.896 135.891 173.469 135.132 172.709C134.374 171.949 133.947 170.918 133.946 169.844V157.683C133.946 156.607 134.372 155.576 135.131 154.816C135.89 154.056 136.919 153.629 137.992 153.629C139.065 153.629 140.095 154.056 140.853 154.816C141.612 155.576 142.039 156.607 142.039 157.683V169.844C142.037 170.918 141.611 171.949 140.852 172.709C140.094 173.469 139.065 173.896 137.992 173.897Z" fill="#D8EBFF"/>
<path d="M154.627 173.897C153.555 173.896 152.526 173.469 151.768 172.709C151.009 171.949 150.582 170.918 150.581 169.844V157.683C150.581 156.607 151.007 155.576 151.766 154.816C152.525 154.056 153.554 153.629 154.627 153.629C155.701 153.629 156.73 154.056 157.489 154.816C158.248 155.576 158.674 156.607 158.674 157.683V169.844C158.673 170.918 158.246 171.949 157.487 172.709C156.729 173.469 155.7 173.896 154.627 173.897Z" fill="#D8EBFF"/>
<path d="M165.418 173.897C164.345 173.896 163.317 173.469 162.558 172.709C161.8 171.949 161.373 170.918 161.372 169.844V157.683C161.372 156.607 161.798 155.576 162.557 154.816C163.316 154.056 164.345 153.629 165.418 153.629C166.491 153.629 167.52 154.056 168.279 154.816C169.038 155.576 169.464 156.607 169.464 157.683V169.844C169.463 170.918 169.036 171.949 168.278 172.709C167.519 173.469 166.491 173.896 165.418 173.897Z" fill="#D8EBFF"/>
<path d="M176.209 173.897C175.136 173.896 174.107 173.469 173.349 172.709C172.59 171.949 172.163 170.918 172.162 169.844V157.683C172.162 156.607 172.588 155.576 173.347 154.816C174.106 154.056 175.135 153.629 176.209 153.629C177.282 153.629 178.311 154.056 179.07 154.816C179.829 155.576 180.255 156.607 180.255 157.683V169.844C180.254 170.918 179.827 171.949 179.068 172.709C178.31 173.469 177.281 173.896 176.209 173.897Z" fill="#D8EBFF"/>
<path d="M192.844 173.897C191.771 173.896 190.742 173.469 189.984 172.709C189.225 171.949 188.799 170.918 188.797 169.844V157.683C188.797 156.607 189.224 155.576 189.983 154.816C190.741 154.056 191.771 153.629 192.844 153.629C193.917 153.629 194.946 154.056 195.705 154.816C196.464 155.576 196.89 156.607 196.89 157.683V169.844C196.889 170.918 196.462 171.949 195.704 172.709C194.945 173.469 193.917 173.896 192.844 173.897Z" fill="#D8EBFF"/>
<path d="M203.634 173.897C202.561 173.896 201.533 173.469 200.774 172.709C200.016 171.949 199.589 170.918 199.588 169.844V157.683C199.588 156.607 200.014 155.576 200.773 154.816C201.532 154.056 202.561 153.629 203.634 153.629C204.707 153.629 205.737 154.056 206.496 154.816C207.254 155.576 207.681 156.607 207.681 157.683V169.844C207.679 170.918 207.253 171.949 206.494 172.709C205.736 173.469 204.707 173.896 203.634 173.897Z" fill="#D8EBFF"/>
<path d="M214.424 173.897C213.352 173.896 212.323 173.469 211.564 172.709C210.806 171.949 210.379 170.918 210.378 169.844V157.683C210.378 156.607 210.804 155.576 211.563 154.816C212.322 154.056 213.351 153.629 214.424 153.629C215.498 153.629 216.527 154.056 217.286 154.816C218.044 155.576 218.471 156.607 218.471 157.683V169.844C218.47 170.918 218.043 171.949 217.284 172.709C216.526 173.469 215.497 173.896 214.424 173.897Z" fill="#D8EBFF"/>
<path d="M105.629 219.014H47.4328C46.7117 219.014 46.0201 218.727 45.5102 218.216C45.0003 217.705 44.7139 217.013 44.7139 216.29C44.7139 215.568 45.0003 214.875 45.5102 214.364C46.0201 213.853 46.7117 213.566 47.4328 213.566H105.629C106.35 213.566 107.042 213.853 107.552 214.364C108.062 214.875 108.348 215.568 108.348 216.29C108.348 217.013 108.062 217.705 107.552 218.216C107.042 218.727 106.35 219.014 105.629 219.014Z" fill="#E6E6E6"/>
<path d="M86.971 207.303H66.0915C65.3704 207.303 64.6788 207.016 64.1689 206.505C63.659 205.994 63.3726 205.302 63.3726 204.579C63.3726 203.857 63.659 203.164 64.1689 202.653C64.6788 202.142 65.3704 201.855 66.0915 201.855H86.971C87.6921 201.855 88.3837 202.142 88.8936 202.653C89.4035 203.164 89.6899 203.857 89.6899 204.579C89.6899 205.302 89.4035 205.994 88.8936 206.505C88.3837 207.016 87.6921 207.303 86.971 207.303Z" fill="#E6E6E6"/>
<path d="M254.439 124.804H32.7861V125.705H254.439V124.804Z" fill="#3F3D56"/>
<path d="M51.3333 138C79.1316 138 101.667 115.465 101.667 87.6663C101.667 59.868 79.1316 37.333 51.3333 37.333C23.535 37.333 1 59.868 1 87.6663C1 115.465 23.535 138 51.3333 138Z" fill="#3F3D56"/>
<path d="M51.3331 133.833C76.8302 133.833 97.4997 113.164 97.4997 87.6666C97.4997 62.1695 76.8302 41.5 51.3331 41.5C25.836 41.5 5.1665 62.1695 5.1665 87.6666C5.1665 113.164 25.836 133.833 51.3331 133.833Z" fill="white"/>
<path d="M51.1667 93.9993C54.5724 93.9993 57.3333 91.2384 57.3333 87.8327C57.3333 84.4269 54.5724 81.666 51.1667 81.666C47.7609 81.666 45 84.4269 45 87.8327C45 91.2384 47.7609 93.9993 51.1667 93.9993Z" fill="#3F3D56"/>
<path d="M52.5002 43.833H49.8335V48.833H52.5002V43.833Z" fill="#3F3D56"/>
<path d="M12.1665 89.1667V86.5H7.16651V89.1667H12.1665Z" fill="#3F3D56"/>
<path d="M49.3887 90.5097L51.6676 85.2988L80.2232 101.114L49.3887 90.5097Z" fill="#3F3D56"/>
<path d="M57.8335 25.166H44.8335V40.166H57.8335V25.166Z" fill="#3F3D56"/>
<path d="M51.3335 29.3333C59.6177 29.3333 66.3335 27.4678 66.3335 25.1667C66.3335 22.8655 59.6177 21 51.3335 21C43.0492 21 36.3335 22.8655 36.3335 25.1667C36.3335 27.4678 43.0492 29.3333 51.3335 29.3333Z" fill="#3F3D56"/>
</g>
<defs>
<clipPath id="clip0_3497_15325">
<rect width="255" height="233" fill="white" transform="translate(0.5)"/>
</clipPath>
</defs>
</svg>
