<svg width="33" height="32" viewBox="0 0 33 32" fill="none" xmlns="http://www.w3.org/2000/svg">
<path d="M16.4739 9C18.4069 9 19.9739 7.433 19.9739 5.5C19.9739 3.567 18.4069 2 16.4739 2C14.5409 2 12.9739 3.567 12.9739 5.5C12.9739 7.433 14.5409 9 16.4739 9Z" stroke="#313952" stroke-width="2" stroke-linecap="round" stroke-linejoin="round"/>
<path d="M19.7269 16.8394L24.0702 20.2175C24.3515 20.4988 24.733 20.6569 25.1308 20.6569C25.5287 20.6569 25.9102 20.4988 26.1915 20.2175C26.4728 19.9362 26.6308 19.5547 26.6308 19.1569C26.6308 18.759 26.4728 18.3775 26.1915 18.0962L21.2418 11.7322C21.0099 11.4997 20.7343 11.3154 20.4309 11.1897C20.1276 11.064 19.8024 10.9996 19.474 11H13.474C13.1456 10.9996 12.8204 11.064 12.517 11.1897C12.2137 11.3154 11.9381 11.4997 11.7062 11.7322L6.75648 18.0962C6.61719 18.2355 6.5067 18.4008 6.43132 18.5828C6.35594 18.7648 6.31714 18.9599 6.31714 19.1569C6.31714 19.3538 6.35594 19.5489 6.43132 19.7309C6.5067 19.9129 6.61719 20.0782 6.75648 20.2175C6.89577 20.3568 7.06113 20.4673 7.24311 20.5427C7.4251 20.6181 7.62016 20.6569 7.81714 20.6569C8.01412 20.6569 8.20918 20.6181 8.39116 20.5427C8.57315 20.4673 8.73851 20.3568 8.8778 20.2175L13.2211 16.8394L9.75442 27.7886C9.58629 28.1492 9.56828 28.5617 9.70435 28.9356C9.84041 29.3094 10.1194 29.6139 10.48 29.782C10.8405 29.9501 11.2531 29.9681 11.6269 29.8321C12.0007 29.696 12.3052 29.417 12.4733 29.0565L16.474 22.7601L20.4746 29.0565C20.6433 29.4162 20.9478 29.6943 21.3212 29.8298C21.6947 29.9653 22.1067 29.9471 22.4667 29.7792C22.8268 29.6113 23.1055 29.3074 23.2418 28.9342C23.3781 28.561 23.3607 28.149 23.1936 27.7886L19.7269 16.8394Z" stroke="#313952" stroke-width="2" stroke-linecap="round" stroke-linejoin="round"/>
</svg>
