<svg width="92" height="92" viewBox="0 0 92 92" fill="none" xmlns="http://www.w3.org/2000/svg">
<mask id="mask0_1857_8631" style="mask-type:alpha" maskUnits="userSpaceOnUse" x="0" y="0" width="92" height="92">
<rect width="92" height="92" fill="#D9D9D9"/>
</mask>
<g mask="url(#mask0_1857_8631)">
<path d="M5.94175 47.9165L1.91675 43.8915L13.1292 32.5832H3.83341V26.8332H23.0001V45.9998H17.2501V36.704L5.94175 47.9165ZM26.8334 22.9998V3.83317H32.5834V13.2248L43.7959 1.9165L47.9167 6.03734L36.6084 17.2498H46.0001V22.9998H26.8334ZM56.8292 88.1665C55.2959 88.1665 53.8265 87.879 52.4209 87.304C51.0154 86.729 49.7695 85.8984 48.6834 84.8123L29.1334 65.1665L32.0084 62.1957C33.0306 61.1734 34.2286 60.4866 35.6022 60.1353C36.9758 59.7839 38.3334 59.7998 39.6751 60.1832L46.0001 62.004V30.6665C46.0001 29.5804 46.3674 28.67 47.1022 27.9353C47.8369 27.2005 48.7473 26.8332 49.8334 26.8332C50.9195 26.8332 51.8299 27.2005 52.5647 27.9353C53.2994 28.67 53.6667 29.5804 53.6667 30.6665V72.1623L44.3709 69.5748L54.1459 79.3498C54.4654 79.6693 54.8647 79.9408 55.3438 80.1644C55.823 80.388 56.3181 80.4998 56.8292 80.4998H72.8334C74.9417 80.4998 76.7466 79.7491 78.248 78.2478C79.7494 76.7464 80.5001 74.9415 80.5001 72.8332V57.4998C80.5001 56.4137 80.8674 55.5033 81.6022 54.7686C82.3369 54.0339 83.2473 53.6665 84.3334 53.6665C85.4195 53.6665 86.3299 54.0339 87.0647 54.7686C87.7994 55.5033 88.1667 56.4137 88.1667 57.4998V72.8332C88.1667 77.0498 86.6654 80.6596 83.6626 83.6623C80.6598 86.6651 77.0501 88.1665 72.8334 88.1665H56.8292ZM57.5001 61.3332V45.9998C57.5001 44.9137 57.8674 44.0033 58.6022 43.2686C59.3369 42.5339 60.2473 42.1665 61.3334 42.1665C62.4195 42.1665 63.3299 42.5339 64.0647 43.2686C64.7994 44.0033 65.1667 44.9137 65.1667 45.9998V61.3332H57.5001ZM69.0001 61.3332V49.8332C69.0001 48.7471 69.3674 47.8366 70.1022 47.1019C70.8369 46.3672 71.7473 45.9998 72.8334 45.9998C73.9195 45.9998 74.8299 46.3672 75.5647 47.1019C76.2994 47.8366 76.6667 48.7471 76.6667 49.8332V61.3332H69.0001Z" fill="#313952"/>
</g>
</svg>
