<svg width="25" height="24" viewBox="0 0 25 24" fill="none" xmlns="http://www.w3.org/2000/svg">
<g clip-path="url(#clip0_3638_6612)">
<path d="M23.5 3.99959V9.99959M23.5 9.99959H17.5M23.5 9.99959L18.86 5.63959C17.7853 4.5643 16.4556 3.77879 14.9952 3.35636C13.5348 2.93393 11.9911 2.88834 10.5083 3.22385C9.02547 3.55935 7.6518 4.26502 6.51547 5.27501C5.37913 6.28499 4.51717 7.56637 4.01 8.99959M1.5 19.9996V13.9996M1.5 13.9996H7.5M1.5 13.9996L6.14 18.3596C7.21475 19.4349 8.54437 20.2204 10.0048 20.6428C11.4652 21.0652 13.0089 21.1108 14.4917 20.7753C15.9745 20.4398 17.3482 19.7342 18.4845 18.7242C19.6209 17.7142 20.4828 16.4328 20.99 14.9996" stroke="#234A6E" stroke-width="2.5" stroke-linecap="round" stroke-linejoin="round"/>
</g>
<defs>
<clipPath id="clip0_3638_6612">
<rect width="24" height="24" fill="white" transform="translate(0.5)"/>
</clipPath>
</defs>
</svg>
