<svg width="202" height="146" viewBox="0 0 202 146" fill="none" xmlns="http://www.w3.org/2000/svg">
<g filter="url(#filter0_d_883_75286)">
<path d="M36.358 87.4626C30.4911 93.2051 29.4962 102.091 30.7399 109.875C30.7742 110.051 31.0487 110.004 31.0487 109.836C31.0487 108.065 30.9929 106.311 30.9972 104.561C31.0315 104.48 31.0572 104.403 31.0916 104.325C32.6226 103.21 34.0421 101.958 34.8999 100.243C35.882 98.3128 36.2679 96.1428 37.0142 94.1271C37.0871 93.9341 36.8812 93.9899 36.744 94.0928C33.1758 96.7217 32.0265 99.5565 31.0144 103.339C31.0345 101.36 31.2428 99.3866 31.6362 97.4465C32.4082 93.8569 33.9306 90.2931 36.5124 87.6298C36.5346 87.6093 36.5477 87.5809 36.5489 87.5507C36.5501 87.5206 36.5393 87.4912 36.5188 87.469C36.4984 87.4468 36.4699 87.4337 36.4397 87.4325C36.4096 87.4313 36.3802 87.4421 36.358 87.4626Z" fill="#A6A6A6"/>
<path d="M37.4729 88.1315C38.4807 88.1658 39.1155 89.7784 39.9003 90.2501C39.9829 90.3172 40.0787 90.3662 40.1815 90.3938C40.2843 90.4215 40.3918 90.4272 40.497 90.4106C40.6021 90.394 40.7026 90.3555 40.7919 90.2976C40.8812 90.2396 40.9573 90.1635 41.0153 90.0743C41.7959 88.985 40.7237 87.6426 39.7287 86.8921C40.4492 87.188 41.0453 87.7069 41.8216 87.857C41.9208 87.8886 42.0255 87.8986 42.1289 87.8866C42.2323 87.8745 42.3319 87.8406 42.4212 87.787C42.5104 87.7335 42.5872 87.6615 42.6465 87.576C42.7058 87.4905 42.7462 87.3933 42.7651 87.2909C43.1039 85.8071 41.2469 85.1466 39.9689 85.1166C40.5865 84.6877 42.3619 83.5169 41.4184 82.9423C40.4749 82.3676 38.3821 84.0359 37.7045 84.5848C36.7052 85.3954 35.5173 86.6048 35.4701 87.8699C35.3929 89.3495 36.6838 88.4403 37.4729 88.1315Z" fill="#DBDBDB"/>
<path d="M37.1682 88.3803C38.4548 87.7928 40.938 88.6376 41.1481 88.1487C41.577 87.1538 39.5956 86.4719 38.5235 86.3389C39.5098 86.073 41.3968 85.6485 41.3411 84.7007C41.2682 83.5384 38.4463 84.5377 37.0139 85.6313C35.2169 87.0122 35.2255 88.346 35.5257 88.6119C35.9331 88.9764 36.9538 88.4747 37.1682 88.3803Z" fill="#EBEBEB"/>
<path d="M22.9942 86.8922C29.0755 92.4074 30.4006 101.251 29.4571 109.077C29.4571 109.253 29.1569 109.219 29.1527 109.052C29.084 107.28 29.0712 105.522 28.9983 103.777L28.8996 103.541C27.33 102.49 25.8718 101.285 24.9369 99.5951C23.8819 97.7081 23.4145 95.5509 22.591 93.5653C22.5138 93.3766 22.7197 93.4238 22.8569 93.5181C26.5237 96.0141 27.7717 98.8017 28.9382 102.546C28.837 100.568 28.5498 98.6032 28.0805 96.6788C27.1713 93.1193 25.5073 89.6197 22.8312 87.0551C22.7454 86.9479 22.8912 86.7935 22.9942 86.8922Z" fill="#A6A6A6"/>
<path d="M21.9181 87.6041C20.9103 87.677 20.3399 89.3196 19.5722 89.8128C19.4926 89.8834 19.3988 89.9363 19.2972 89.9681C19.1957 89.9999 19.0885 90.0098 18.9828 89.9973C18.8771 89.9847 18.7752 89.9499 18.6839 89.8952C18.5926 89.8405 18.5139 89.7671 18.4529 89.6798C17.6338 88.6205 18.6502 87.2396 19.628 86.4505C18.9204 86.7764 18.3414 87.3082 17.5737 87.4926C17.4748 87.5287 17.3692 87.5428 17.2643 87.5342C17.1594 87.5255 17.0575 87.4943 16.9658 87.4425C16.8742 87.3907 16.7948 87.3197 16.7331 87.2344C16.6715 87.149 16.6291 87.0513 16.6088 86.948C16.21 85.477 18.0455 84.7479 19.3192 84.6664C18.6845 84.2633 16.8661 83.1611 17.7882 82.5521C18.7102 81.9431 20.8631 83.5299 21.5622 84.0531C22.5914 84.8251 23.8266 85.9873 23.9166 87.2525C24.0324 88.7449 22.7072 87.8829 21.9181 87.6041Z" fill="#DBDBDB"/>
<path d="M22.2181 87.84C20.9101 87.3039 18.4613 88.2431 18.234 87.7628C17.7708 86.785 19.7221 86.0473 20.8072 85.8543C19.8122 85.627 17.9123 85.2711 17.9338 84.3233C17.9595 83.1611 20.82 84.0488 22.291 85.091C24.1394 86.4033 24.178 87.7328 23.8907 88.0115C23.479 88.3932 22.4368 87.93 22.2181 87.84Z" fill="#EBEBEB"/>
<path d="M29.2129 101.461C29.6254 104.411 30.2576 107.327 31.1042 110.184C31.1166 110.24 31.1503 110.288 31.1983 110.32C31.2462 110.351 31.3046 110.362 31.3607 110.351C31.4169 110.34 31.4664 110.307 31.4986 110.26C31.5308 110.212 31.5432 110.154 31.5331 110.098C31.1342 107.413 30.4052 104.771 30.0063 102.087C29.568 99.3668 29.4114 96.6089 29.5389 93.8568C29.7919 89.328 31.0227 84.5076 33.9776 80.9651C34.0462 80.8794 33.9047 80.7636 33.8404 80.8408C27.922 87.7412 28.8656 96.1984 28.8698 96.9575C28.0121 94.1013 27.1544 90.8247 23.9979 87.917C23.8607 87.7927 23.7535 87.8527 23.7792 88.0671C24.341 93.3808 25.812 96.1298 28.8956 98.956C28.9728 99.8137 29.08 100.637 29.2129 101.461Z" fill="#A6A6A6"/>
<path d="M34.042 81.7586C35.1056 81.2868 36.5766 82.6421 37.6273 82.7321C37.7468 82.763 37.8716 82.7678 37.9931 82.746C38.1147 82.7243 38.23 82.6765 38.3314 82.6061C38.4328 82.5357 38.5178 82.4442 38.5806 82.3379C38.6434 82.2316 38.6824 82.113 38.6952 81.9902C38.9568 80.4677 37.1727 79.6143 35.7489 79.3441C36.6452 79.2883 37.5244 79.5242 38.4036 79.2883C38.5217 79.2695 38.6346 79.2261 38.735 79.161C38.8354 79.0959 38.921 79.0106 38.9865 78.9104C39.0519 78.8102 39.0957 78.6975 39.1149 78.5794C39.1342 78.4613 39.1285 78.3405 39.0983 78.2248C38.708 76.5093 36.4436 76.7666 35.1056 77.367C35.5345 76.6079 36.7824 74.5022 35.5345 74.365C34.2865 74.2277 32.9355 77.0282 32.511 77.9417C31.8805 79.284 31.2544 81.141 31.8462 82.4748C32.4981 84.0659 33.3773 82.4705 34.042 81.7586Z" fill="#DBDBDB"/>
<path d="M33.8488 82.1619C34.8953 80.9053 37.893 80.5322 37.863 79.9189C37.8072 78.6752 35.4099 78.9626 34.2348 79.3657C35.1183 78.5937 36.8637 77.1999 36.3277 76.2436C35.6672 75.0771 33.2398 77.5302 32.3092 79.3914C31.1384 81.7287 31.8203 83.1054 32.262 83.2298C32.871 83.4056 33.6773 82.372 33.8488 82.1619Z" fill="#EBEBEB"/>
<path d="M25.3189 103.056L22.7114 122.998H38.5794C38.2535 121.231 35.2986 103.035 35.2986 103.035L25.3189 103.056Z" fill="#DBDBDB"/>
<path d="M180.199 44.7605H191.555V39.9615H180.199V44.7605Z" fill="#EBEBEB"/>
<path d="M186.533 38.7092H197.89V33.9102H186.533V38.7092Z" fill="#EBEBEB"/>
<path d="M173.86 38.7092H185.216V33.9102H173.86V38.7092Z" fill="#EBEBEB"/>
<path d="M10.3341 106.654H21.6904V101.855H10.3341V106.654Z" fill="#EBEBEB"/>
<path d="M4.00013 100.603H15.3564V95.804H4.00013V100.603Z" fill="#EBEBEB"/>
<path d="M186.533 106.65H197.89V101.851H186.533V106.65Z" fill="#EBEBEB"/>
<path d="M53.3021 0H41.9458V4.79899H53.3021V0Z" fill="#EBEBEB"/>
<path d="M46.9637 6.05127H35.6074V10.8503H46.9637V6.05127Z" fill="#EBEBEB"/>
<path d="M18.5815 122.981L39.1713 122.878L59.7611 122.84L100.945 122.767L142.124 122.84L162.718 122.878L183.308 122.981L162.718 123.088L142.124 123.123L100.945 123.195L59.7611 123.123L39.1713 123.084L18.5815 122.981Z" fill="#263238"/>
<path d="M113.926 67.5417C113.911 67.6398 113.931 67.7401 113.982 67.8253C114.033 67.9106 114.112 67.9755 114.205 68.0092C114.655 68.0778 115.204 68.1507 115.813 68.2365C117.627 64.2995 119.48 61.1988 118.957 62.4254C118.158 64.3523 117.633 66.3822 117.4 68.4552C118.108 68.5495 119.759 68.7511 120.582 68.8497C122.478 61.8249 124.566 56.6614 124.322 58.2825C123.327 64.8227 123.503 66.9584 123.73 69.2443C131.42 70.1792 141.519 71.2857 148.84 71.9161C150.037 68.0563 151.156 63.8363 151.259 64.1451C152.061 66.4395 152.044 69.6817 151.842 72.1691C154.175 72.3536 156.045 72.4522 157.19 72.4522C157.19 72.4522 158.048 69.1842 158.202 68.1035C158.661 65.3382 158.635 62.5141 158.125 59.7578C157.597 56.9445 156.474 54.4142 155.423 51.8281C155.42 51.8121 155.416 51.7964 155.41 51.781C154.713 50.0867 154.213 48.3183 153.918 46.5102C153.915 46.4961 153.915 46.4815 153.918 46.4673C153.722 45.1487 153.637 43.816 153.665 42.4832C153.759 37.6027 151.572 33.2154 147.416 31.6286C140.318 24.3765 130.57 27.7045 127.817 33.8373C126.741 36.5863 125.673 40.1759 124.742 42.9421C124.745 42.9466 124.746 42.9518 124.746 42.9571C124.746 42.9623 124.745 42.9675 124.742 42.9721C124.391 44.0571 123.974 45.1198 123.494 46.1543C120.942 51.0948 116.028 53.6422 113.926 67.5417Z" fill="#263238"/>
<path d="M149.127 33.0696C151.791 34.8322 153.309 37.2382 153.416 40.8149C153.485 42.8992 153.416 44.9277 154.004 46.9305C154.591 48.9976 155.655 50.7388 156.757 52.4757C158.502 55.2376 159.652 57.948 159.647 61.4475C159.643 64.9471 159.116 69.1671 157.705 72.3793C157.705 72.4007 157.67 72.3793 157.679 72.3793C158.88 69.0985 159.317 64.4753 159.073 60.9329C158.803 57.0388 156.984 54.4742 155.157 51.3993C153.685 48.9583 152.871 46.1775 152.794 43.328C152.743 41.5611 152.931 39.7384 152.417 38.0401C151.808 36.0159 150.35 34.6478 148.892 33.4256C148.699 33.2497 148.926 32.9367 149.127 33.0696Z" fill="#263238"/>
<path d="M118.254 51.2706C120.475 48.6588 122.744 46.4587 124.211 43.1222C125.544 40.0815 126.441 36.835 127.792 33.803C127.792 33.7515 127.882 33.7772 127.86 33.833C125.716 39.2367 124.892 44.7862 121.144 49.1906C119.103 51.5837 117.083 53.7923 115.616 56.73C114.116 59.8282 113.178 63.1679 112.846 66.5939C112.846 66.714 112.687 66.6968 112.687 66.5939C112.685 60.9908 114.656 55.5659 118.254 51.2706Z" fill="#263238"/>
<path d="M96.6558 117.826C96.6558 117.826 117.357 123.401 120.779 122.801C124.202 122.2 135.755 106.65 138.32 101.01C140.885 95.3707 145.143 67.3145 144.324 64.2266C143.505 61.1388 139.221 61.0959 135.605 69.0556C131.99 77.0154 123.443 94.513 121.92 95.954C120.398 97.395 94.9875 116.334 96.6558 117.826Z" fill="#DD6A57"/>
<path d="M118.983 120.957C115.809 119.297 111.945 115.27 109.312 114.85C108.668 114.724 108 114.808 107.408 115.091C106.815 115.374 106.33 115.839 106.022 116.419C106.022 116.419 104.813 113.73 102.36 113.743C101.103 113.743 100.005 115.767 100.005 115.767C100.005 115.767 98.9375 113.653 96.7631 113.799C95.0262 113.915 94.1899 115.922 94.1899 115.922C94.1899 115.922 92.2257 114.369 90.4931 115.064C86.985 116.449 86.4018 131.361 91.8055 133.883C94.3229 135.058 94.2671 131.408 94.2671 131.408C94.2671 131.408 95.6138 136.64 98.6844 136.838C101.755 137.035 101.399 132.3 101.399 132.3C101.399 132.3 102.75 137.356 105.954 137.241C109.29 137.125 108.124 132.446 108.124 132.446C108.124 132.446 110.242 135.851 112.674 135.199C116.692 134.127 112.374 126.056 113.283 122.809H118.331L118.983 120.957Z" fill="#DD6A57"/>
<path d="M114.402 117.783C117.546 119.096 121.131 114.134 124.365 115.287C128.559 116.784 124.682 121.96 118.327 122.801H113.279L114.402 117.783Z" fill="#DD6A57"/>
<path d="M94.0058 116.218C94.0058 116.208 94.0018 116.198 93.9945 116.191C93.9873 116.183 93.9775 116.179 93.9672 116.179C93.957 116.179 93.9472 116.183 93.9399 116.191C93.9327 116.198 93.9286 116.208 93.9286 116.218C92.5434 121.077 92.5048 126.841 94.2417 131.618C94.2975 131.773 94.5805 131.751 94.5505 131.567C93.7013 126.283 93.3668 121.54 94.0058 116.218Z" fill="#263238"/>
<path d="M99.9756 115.682C99.9756 115.622 99.8855 115.609 99.8684 115.682C98.466 120.7 98.5818 127.188 101.254 132.463C101.344 132.643 101.61 132.712 101.519 132.498C100.023 128.861 99.3752 120.481 99.9756 115.682Z" fill="#263238"/>
<path d="M108.433 132.759C106.087 127.613 105.628 122.222 105.954 116.621C105.954 116.548 105.855 116.548 105.834 116.621C104.929 119.318 105.096 122.908 105.461 125.691C105.746 128.274 106.702 130.738 108.235 132.836C108.313 132.926 108.484 132.871 108.433 132.759Z" fill="#263238"/>
<path d="M124.614 114.893C122.555 114.206 120.441 115.853 118.708 116.775C118.154 117.105 117.569 117.382 116.963 117.603C115.591 118.032 114.574 117.757 113.961 117.376C113 116.762 110.002 113.769 107.837 114.764C107.09 115.113 106.45 115.657 105.984 116.338C105.324 115.137 104.479 113.829 103.016 113.589C102.694 113.534 102.364 113.548 102.048 113.63C101.731 113.712 101.436 113.86 101.181 114.065C100.908 114.275 100.666 114.522 100.46 114.798C100.257 115.046 100.089 115.322 99.9627 115.617C99.9622 115.607 99.9622 115.597 99.9627 115.587L99.9156 115.497L99.8255 115.313C99.7031 115.066 99.5291 114.848 99.3152 114.674C99.2744 114.632 99.2257 114.599 99.1718 114.577C99.118 114.555 99.0603 114.544 99.0021 114.545C98.993 114.545 98.9843 114.549 98.9778 114.555C98.9714 114.562 98.9678 114.57 98.9678 114.579C98.9678 114.589 98.9714 114.597 98.9778 114.604C98.9843 114.61 98.993 114.614 99.0021 114.614C99.1025 114.662 99.184 114.742 99.2337 114.841C99.3023 114.944 99.3666 115.051 99.4395 115.15C99.5124 115.248 99.5811 115.351 99.654 115.45L99.7612 115.609L99.8083 115.69C99.829 115.717 99.8519 115.741 99.877 115.763C99.883 115.771 99.8907 115.778 99.8997 115.782C99.9086 115.787 99.9184 115.789 99.9284 115.789C99.9384 115.789 99.9483 115.787 99.9572 115.782C99.9661 115.778 99.9739 115.771 99.9799 115.763C100.201 115.567 100.4 115.348 100.576 115.111C100.792 114.86 101.032 114.63 101.292 114.425C101.539 114.234 101.824 114.097 102.128 114.023C102.432 113.949 102.747 113.94 103.055 113.996C104.367 114.254 105.199 115.42 105.898 116.462C105.898 116.462 105.898 116.462 105.92 116.462C105.898 116.496 105.945 116.526 105.971 116.501C106.692 115.87 107.378 115.163 108.373 115.017C109.445 114.858 110.461 115.373 111.349 115.913C111.794 116.175 112.223 116.461 112.636 116.771C113 117.054 113.348 117.371 113.738 117.629C115.406 118.679 117.233 117.865 117.688 117.672C118.584 117.268 119.454 116.806 120.291 116.291C121.132 115.726 122.081 115.342 123.079 115.163C123.536 115.095 124.004 115.145 124.437 115.307C124.871 115.469 125.256 115.738 125.557 116.089C125.87 116.492 126.269 117.247 125.45 118.967C125.45 118.967 125.45 119.001 125.476 118.988C125.905 118.542 127.269 115.78 124.614 114.893Z" fill="#263238"/>
<path d="M142.699 90.2845L123.164 87.1623C123.164 87.1623 132.496 68.6826 138.101 63.3218C143.634 58.0296 146.327 63.4504 145.512 71.6246C144.612 80.6865 142.699 90.2845 142.699 90.2845Z" fill="#37474F"/>
<path d="M142.064 86.6475C141.515 86.5189 140.953 86.4374 140.404 86.313C139.855 86.1886 139.328 86.1114 138.787 86.03C137.685 85.8584 136.579 85.704 135.477 85.5539C133.298 85.2537 131.119 84.9235 128.932 84.6962C127.689 84.559 126.453 84.3703 125.205 84.2673C125.167 84.2673 125.162 84.3274 125.205 84.336C127.371 84.842 129.576 85.1937 131.771 85.5754C133.967 85.9571 136.129 86.2658 138.316 86.5017C138.929 86.5703 139.547 86.6475 140.16 86.6775C140.773 86.7076 141.425 86.7676 142.055 86.7762C142.073 86.7773 142.089 86.7716 142.102 86.7604C142.115 86.7491 142.123 86.7332 142.124 86.7161C142.125 86.6991 142.12 86.6823 142.108 86.6694C142.097 86.6565 142.081 86.6487 142.064 86.6475Z" fill="#263238"/>
<path d="M131.823 122.972H183.557C183.557 122.972 162.054 69.6045 151.122 61.8078C147.841 59.4662 142.613 59.2046 139.088 63.9049C136.197 67.7647 128.173 83.0966 127.809 88.6118C127.444 94.127 131.772 99.5778 131.772 99.5778L131.823 122.972Z" fill="#455A64"/>
<path d="M148.952 86.8105C149.085 86.7762 149.213 86.759 149.342 86.7333C149.455 86.7076 149.573 86.7077 149.687 86.7336C149.8 86.7596 149.906 86.8107 149.997 86.8831C150.088 86.9556 150.162 87.0476 150.212 87.1523C150.263 87.257 150.289 87.3718 150.29 87.4881C150.286 87.5916 150.31 87.6941 150.358 87.7858C150.406 87.8775 150.477 87.9552 150.564 88.0113C150.662 88.0725 150.772 88.1106 150.886 88.1228C151.017 88.1419 151.147 88.1677 151.276 88.2C151.147 88.2343 151.019 88.2515 150.886 88.2772C150.742 88.3058 150.593 88.2924 150.457 88.2386C150.312 88.1767 150.188 88.0732 150.102 87.9411C150.016 87.8091 149.971 87.6544 149.972 87.4967C149.97 87.3936 149.942 87.2928 149.89 87.2036C149.838 87.1144 149.765 87.0397 149.676 86.9863C149.574 86.9308 149.462 86.8972 149.346 86.8877C149.213 86.862 149.085 86.8448 148.952 86.8105Z" fill="white"/>
<path d="M129.164 86.8105C129.293 86.7762 129.421 86.759 129.55 86.7333C129.663 86.7076 129.781 86.7077 129.895 86.7336C130.008 86.7596 130.114 86.8107 130.205 86.8831C130.296 86.9556 130.37 87.0476 130.42 87.1523C130.471 87.257 130.497 87.3718 130.498 87.4881C130.495 87.5919 130.52 87.6946 130.569 87.7862C130.618 87.8779 130.689 87.9554 130.777 88.0113C130.873 88.0738 130.984 88.112 131.098 88.1228C131.227 88.1486 131.356 88.1614 131.484 88.2C131.356 88.2343 131.227 88.2515 131.098 88.2772C130.955 88.3051 130.806 88.2917 130.669 88.2386C130.525 88.1753 130.403 88.0715 130.317 87.9397C130.231 87.808 130.185 87.654 130.185 87.4967C130.182 87.3936 130.154 87.2928 130.102 87.2036C130.05 87.1144 129.977 87.0397 129.889 86.9863C129.787 86.9302 129.674 86.8965 129.559 86.8877C129.421 86.862 129.293 86.8448 129.164 86.8105Z" fill="white"/>
<path d="M156.14 112.517C156.268 112.482 156.401 112.465 156.53 112.44C156.643 112.415 156.761 112.417 156.874 112.444C156.986 112.47 157.092 112.522 157.182 112.595C157.273 112.667 157.346 112.759 157.396 112.864C157.446 112.968 157.473 113.083 157.473 113.199C157.472 113.302 157.497 113.404 157.546 113.496C157.595 113.587 157.666 113.665 157.752 113.722C157.85 113.782 157.96 113.818 158.074 113.829C158.202 113.855 158.335 113.872 158.464 113.906C158.335 113.945 158.202 113.962 158.074 113.988C157.93 114.015 157.781 114 157.645 113.945C157.5 113.883 157.376 113.779 157.289 113.647C157.202 113.515 157.156 113.361 157.156 113.203C157.155 113.1 157.128 112.999 157.076 112.91C157.024 112.822 156.949 112.748 156.86 112.697C156.761 112.639 156.649 112.605 156.534 112.598C156.401 112.573 156.268 112.555 156.14 112.517Z" fill="white"/>
<path d="M165.085 88.2C165.214 88.1614 165.347 88.1486 165.476 88.1228C165.589 88.097 165.707 88.0971 165.82 88.123C165.933 88.149 166.039 88.2001 166.129 88.2727C166.22 88.3452 166.293 88.4373 166.343 88.542C166.394 88.6468 166.42 88.7615 166.419 88.8776C166.418 88.9813 166.442 89.0837 166.491 89.1752C166.54 89.2667 166.611 89.3443 166.698 89.4008C166.794 89.4631 166.905 89.5 167.02 89.5081C167.148 89.5381 167.281 89.5509 167.41 89.5895C167.281 89.6238 167.148 89.641 167.02 89.6667C166.876 89.6955 166.727 89.6821 166.591 89.6281C166.446 89.566 166.322 89.4625 166.235 89.3306C166.148 89.1987 166.102 89.0442 166.102 88.8862C166.101 88.7828 166.073 88.6813 166.021 88.5918C165.97 88.5024 165.895 88.4279 165.806 88.3758C165.706 88.3196 165.595 88.286 165.48 88.2772C165.347 88.2343 165.214 88.2343 165.085 88.2Z" fill="white"/>
<path d="M142.214 75.1242C142.347 75.0898 142.476 75.0727 142.605 75.047C142.748 75.0157 142.896 75.0261 143.033 75.077C143.182 75.1326 143.311 75.232 143.402 75.3622C143.493 75.4924 143.543 75.6471 143.544 75.806C143.543 75.9095 143.569 76.0114 143.617 76.1027C143.666 76.194 143.737 76.2719 143.823 76.3293C143.921 76.3872 144.031 76.4237 144.144 76.4365C144.277 76.4622 144.406 76.4794 144.535 76.5137C144.406 76.5523 144.277 76.5651 144.144 76.5952C144 76.62 143.852 76.6052 143.715 76.5523C143.568 76.4896 143.443 76.384 143.357 76.2494C143.271 76.1148 143.227 75.9574 143.231 75.7975C143.229 75.6949 143.201 75.5945 143.149 75.5059C143.097 75.4173 143.023 75.3434 142.935 75.2914C142.834 75.2324 142.721 75.1972 142.605 75.1885C142.476 75.1756 142.347 75.1628 142.214 75.1242Z" fill="white"/>
<path d="M156.294 74.8282C156.423 74.7939 156.551 74.7767 156.684 74.751C156.827 74.7209 156.976 74.7313 157.113 74.781C157.262 74.8374 157.39 74.9369 157.482 75.0668C157.574 75.1967 157.624 75.3511 157.628 75.5101C157.626 75.6138 157.65 75.7163 157.699 75.8079C157.748 75.8995 157.819 75.977 157.906 76.0333C158.004 76.0936 158.114 76.1304 158.228 76.1405C158.357 76.1662 158.485 76.1834 158.618 76.2177C158.485 76.2563 158.357 76.2734 158.228 76.2992C158.084 76.3264 157.935 76.3115 157.799 76.2563C157.654 76.1941 157.53 76.0907 157.443 75.9588C157.356 75.8268 157.31 75.6723 157.31 75.5144C157.309 75.4117 157.281 75.3111 157.229 75.2224C157.177 75.1338 157.103 75.06 157.014 75.0083C156.915 74.9501 156.803 74.9163 156.689 74.9097C156.556 74.8892 156.424 74.862 156.294 74.8282Z" fill="white"/>
<path d="M147.181 61.3148C147.309 61.2804 147.442 61.2633 147.571 61.2376C147.684 61.2118 147.802 61.2118 147.915 61.2378C148.028 61.2637 148.134 61.3149 148.225 61.3874C148.315 61.46 148.389 61.552 148.439 61.6568C148.489 61.7615 148.515 61.8762 148.514 61.9924C148.512 62.0962 148.536 62.1988 148.585 62.2905C148.634 62.3821 148.706 62.4596 148.793 62.5156C148.89 62.5775 149 62.6157 149.115 62.6271C149.244 62.6528 149.376 62.6657 149.505 62.7043C149.376 62.7386 149.244 62.7557 149.115 62.7815C148.971 62.8103 148.822 62.7969 148.686 62.7429C148.541 62.6807 148.417 62.5772 148.33 62.4453C148.243 62.3134 148.197 62.1589 148.197 62.0009C148.196 61.8975 148.169 61.7961 148.117 61.7066C148.065 61.6171 147.991 61.5427 147.901 61.4906C147.801 61.4344 147.69 61.4007 147.575 61.392C147.442 61.3662 147.309 61.3491 147.181 61.3148Z" fill="white"/>
<path d="M138.762 97.5665C138.89 97.5322 139.019 97.515 139.148 97.4893C139.291 97.4577 139.439 97.4682 139.577 97.5193C139.726 97.5739 139.855 97.6724 139.946 97.8018C140.038 97.9312 140.089 98.0854 140.091 98.2441C140.089 98.3479 140.113 98.4506 140.162 98.5422C140.211 98.6338 140.282 98.7114 140.37 98.7673C140.467 98.8298 140.577 98.868 140.692 98.8788C140.82 98.9045 140.949 98.9217 141.078 98.956C140.949 98.9946 140.82 99.0075 140.692 99.0332C140.548 99.061 140.399 99.0476 140.263 98.9946C140.119 98.9313 139.996 98.8275 139.91 98.6957C139.824 98.564 139.778 98.41 139.778 98.2527C139.776 98.1496 139.747 98.0488 139.696 97.9596C139.644 97.8704 139.57 97.7956 139.482 97.7423C139.38 97.6867 139.268 97.6531 139.152 97.6437C139.019 97.6179 138.89 97.6051 138.762 97.5665Z" fill="white"/>
<path d="M154.124 121.124C154.253 121.085 154.386 121.068 154.514 121.043C154.628 121.018 154.745 121.02 154.858 121.047C154.971 121.073 155.076 121.125 155.167 121.198C155.257 121.27 155.33 121.362 155.38 121.467C155.431 121.571 155.457 121.686 155.458 121.802C155.457 121.905 155.482 122.007 155.53 122.099C155.579 122.19 155.65 122.268 155.737 122.325C155.833 122.386 155.944 122.423 156.058 122.432C156.187 122.458 156.32 122.475 156.448 122.509C156.32 122.548 156.187 122.565 156.058 122.591C155.914 122.618 155.765 122.603 155.629 122.548C155.484 122.486 155.36 122.383 155.273 122.251C155.186 122.119 155.14 121.964 155.14 121.806C155.14 121.703 155.112 121.602 155.06 121.513C155.008 121.425 154.934 121.351 154.845 121.3C154.745 121.242 154.633 121.208 154.519 121.201C154.373 121.176 154.24 121.158 154.124 121.124Z" fill="white"/>
<path d="M146.554 108.464C146.683 108.43 146.812 108.412 146.94 108.387C147.083 108.357 147.232 108.368 147.369 108.417C147.518 108.472 147.647 108.571 147.739 108.702C147.831 108.832 147.882 108.987 147.884 109.146C147.882 109.25 147.906 109.352 147.955 109.444C148.004 109.535 148.075 109.613 148.162 109.669C148.259 109.73 148.37 109.767 148.484 109.776C148.613 109.802 148.741 109.819 148.874 109.853C148.741 109.892 148.613 109.905 148.484 109.935C148.34 109.959 148.192 109.944 148.055 109.892C147.911 109.829 147.789 109.725 147.703 109.593C147.616 109.461 147.571 109.307 147.571 109.15C147.568 109.048 147.539 108.948 147.488 108.859C147.436 108.771 147.363 108.697 147.275 108.644C147.175 108.583 147.061 108.549 146.944 108.545C146.833 108.515 146.683 108.503 146.554 108.464Z" fill="white"/>
<path d="M132.569 110.767C132.702 110.728 132.83 110.711 132.959 110.685C133.073 110.661 133.19 110.663 133.303 110.689C133.416 110.716 133.521 110.768 133.611 110.841C133.702 110.913 133.775 111.005 133.825 111.11C133.876 111.214 133.902 111.329 133.903 111.445C133.901 111.548 133.926 111.65 133.975 111.742C134.024 111.833 134.095 111.911 134.181 111.968C134.278 112.029 134.389 112.066 134.503 112.075C134.636 112.101 134.765 112.118 134.893 112.152C134.765 112.186 134.634 112.213 134.503 112.234C134.359 112.261 134.21 112.246 134.074 112.191C133.929 112.129 133.805 112.026 133.718 111.894C133.631 111.762 133.585 111.607 133.585 111.449C133.585 111.346 133.557 111.246 133.506 111.157C133.455 111.069 133.382 110.995 133.294 110.943C133.192 110.885 133.08 110.852 132.963 110.844C132.83 110.818 132.702 110.801 132.569 110.767Z" fill="white"/>
<path d="M152.992 97.8753C153.12 97.841 153.249 97.8239 153.378 97.7981C153.491 97.774 153.609 97.7754 153.722 97.8022C153.835 97.829 153.941 97.8806 154.031 97.9533C154.122 98.0259 154.195 98.1177 154.246 98.2222C154.297 98.3266 154.324 98.4411 154.325 98.5572C154.324 98.661 154.348 98.7635 154.397 98.855C154.446 98.9466 154.517 99.0242 154.604 99.0804C154.701 99.1416 154.812 99.1783 154.926 99.1877C155.055 99.2134 155.183 99.2305 155.312 99.2648C155.183 99.3034 155.055 99.3163 154.926 99.3463C154.782 99.3726 154.633 99.3577 154.497 99.3034C154.353 99.2402 154.23 99.1363 154.144 99.0046C154.058 98.8728 154.012 98.7189 154.012 98.5615C154.01 98.4591 153.981 98.359 153.929 98.2705C153.878 98.1821 153.804 98.1081 153.716 98.0554C153.616 97.996 153.503 97.9622 153.386 97.9568C153.266 97.9268 153.12 97.9139 152.992 97.8753Z" fill="white"/>
<path d="M170.871 115.206C171 115.171 171.133 115.154 171.261 115.129C171.404 115.097 171.553 115.108 171.69 115.159C171.839 115.214 171.968 115.314 172.059 115.444C172.15 115.574 172.199 115.729 172.201 115.888C172.2 115.991 172.225 116.093 172.274 116.184C172.323 116.276 172.393 116.353 172.479 116.411C172.578 116.469 172.687 116.505 172.801 116.518C172.934 116.544 173.063 116.561 173.191 116.595C173.063 116.634 172.934 116.647 172.801 116.677C172.687 116.698 172.57 116.693 172.458 116.663C172.346 116.633 172.242 116.579 172.153 116.504C172.065 116.428 171.995 116.334 171.947 116.229C171.9 116.123 171.876 116.008 171.879 115.892C171.878 115.789 171.851 115.688 171.799 115.599C171.747 115.511 171.672 115.437 171.583 115.386C171.484 115.326 171.372 115.291 171.257 115.283C171.133 115.253 171 115.253 170.871 115.206Z" fill="white"/>
<path d="M163.773 104.626C163.902 104.591 164.035 104.574 164.164 104.548C164.277 104.524 164.395 104.526 164.507 104.552C164.62 104.579 164.726 104.631 164.816 104.704C164.906 104.776 164.979 104.868 165.03 104.973C165.08 105.077 165.107 105.192 165.107 105.308C165.105 105.411 165.13 105.514 165.179 105.605C165.227 105.697 165.299 105.775 165.386 105.831C165.482 105.893 165.593 105.93 165.708 105.938C165.836 105.964 165.969 105.981 166.098 106.015C165.969 106.054 165.836 106.071 165.708 106.097C165.564 106.124 165.415 106.109 165.279 106.054C165.133 105.992 165.009 105.889 164.922 105.757C164.835 105.625 164.789 105.47 164.79 105.312C164.789 105.209 164.761 105.108 164.71 105.019C164.658 104.93 164.583 104.857 164.494 104.806C164.395 104.748 164.283 104.714 164.168 104.707C164.035 104.681 163.902 104.664 163.773 104.626Z" fill="white"/>
<path d="M178.861 120.043C178.994 120.009 179.122 119.992 179.251 119.966C179.365 119.942 179.482 119.943 179.595 119.97C179.708 119.997 179.813 120.048 179.903 120.121C179.994 120.194 180.067 120.286 180.117 120.39C180.168 120.495 180.194 120.609 180.195 120.725C180.193 120.829 180.218 120.931 180.267 121.022C180.316 121.114 180.387 121.191 180.473 121.248C180.57 121.31 180.681 121.347 180.795 121.355C180.928 121.381 181.057 121.398 181.185 121.433C181.057 121.466 180.926 121.494 180.795 121.514C180.651 121.541 180.502 121.526 180.366 121.471C180.221 121.41 180.097 121.306 180.011 121.174C179.924 121.042 179.879 120.887 179.882 120.729C179.879 120.627 179.85 120.527 179.798 120.438C179.747 120.35 179.674 120.276 179.586 120.223C179.484 120.166 179.372 120.132 179.255 120.125C179.122 120.099 178.998 120.082 178.861 120.043Z" fill="white"/>
<path d="M143.402 82.4277C143.338 82.5435 143.256 82.6464 143.183 82.7579C143.121 82.8563 143.037 82.9393 142.939 83.001C142.84 83.0626 142.728 83.1013 142.613 83.114C142.497 83.1268 142.38 83.1134 142.27 83.0747C142.16 83.0361 142.06 82.9733 141.978 82.8909C141.907 82.8158 141.817 82.7606 141.718 82.7305C141.618 82.7005 141.513 82.6966 141.412 82.7193C141.3 82.7444 141.196 82.7958 141.108 82.8694C141.002 82.9482 140.891 83.0212 140.777 83.0881C140.846 82.9723 140.923 82.8694 140.996 82.7579C141.08 82.6347 141.198 82.538 141.335 82.4791C141.48 82.4222 141.638 82.4089 141.791 82.4409C141.943 82.4729 142.083 82.5488 142.193 82.6593C142.267 82.7309 142.358 82.7823 142.458 82.8086C142.558 82.8349 142.663 82.8351 142.763 82.8094C142.874 82.779 142.977 82.7232 143.063 82.6464C143.2 82.5735 143.303 82.492 143.402 82.4277Z" fill="white"/>
<path d="M138.226 73.7431C138.161 73.8589 138.08 73.9618 138.007 74.0733C137.945 74.1717 137.861 74.2548 137.762 74.3164C137.664 74.3781 137.552 74.4167 137.436 74.4295C137.321 74.4422 137.204 74.4288 137.094 74.3902C136.984 74.3515 136.884 74.2887 136.802 74.2063C136.731 74.1309 136.641 74.0754 136.542 74.0453C136.442 74.0153 136.337 74.0116 136.236 74.0347C136.124 74.0598 136.019 74.1113 135.931 74.1848C135.825 74.2636 135.715 74.3367 135.601 74.4036C135.67 74.2878 135.747 74.1848 135.82 74.0733C135.904 73.9501 136.021 73.8534 136.159 73.7946C136.304 73.7376 136.462 73.7243 136.614 73.7563C136.767 73.7883 136.907 73.8642 137.016 73.9747C137.09 74.0467 137.182 74.0983 137.282 74.1246C137.382 74.1509 137.487 74.151 137.587 74.1248C137.698 74.0944 137.801 74.0386 137.887 73.9618C138.007 73.8889 138.11 73.8074 138.226 73.7431Z" fill="white"/>
<path d="M164.417 97.5452C164.348 97.6652 164.271 97.7682 164.198 97.8754C164.116 97.9998 164.002 98.0992 163.868 98.1627C163.725 98.2246 163.568 98.243 163.415 98.2155C163.263 98.1881 163.122 98.116 163.01 98.0083C162.938 97.9343 162.848 97.8798 162.749 97.8498C162.65 97.8198 162.545 97.8153 162.444 97.8368C162.332 97.862 162.227 97.9135 162.139 97.9869C162.028 98.0598 161.925 98.1413 161.809 98.2056C161.873 98.0898 161.955 97.9869 162.028 97.8754C162.11 97.7523 162.226 97.6555 162.362 97.5966C162.508 97.5413 162.666 97.5288 162.818 97.5608C162.97 97.5927 163.109 97.6677 163.22 97.7768C163.293 97.8487 163.384 97.9004 163.483 97.9267C163.582 97.9531 163.687 97.9531 163.786 97.9269C163.898 97.8975 164.002 97.8433 164.091 97.7682C164.211 97.6953 164.314 97.6138 164.417 97.5452Z" fill="white"/>
<path d="M151.319 69.3986C151.255 69.5144 151.173 69.6174 151.1 69.7289C151.02 69.8517 150.907 69.9497 150.774 70.0119C150.63 70.0773 150.468 70.098 150.312 70.0712C150.155 70.0445 150.01 69.9715 149.895 69.8618C149.823 69.787 149.734 69.7317 149.635 69.7009C149.536 69.6702 149.431 69.665 149.329 69.686C149.217 69.7119 149.113 69.7633 149.025 69.8361C148.913 69.909 148.81 69.9905 148.694 70.0591C148.759 69.939 148.84 69.8361 148.913 69.7246C148.996 69.6014 149.114 69.5058 149.252 69.4501C149.397 69.3931 149.555 69.3798 149.708 69.4118C149.86 69.4438 150 69.5197 150.11 69.6302C150.185 69.7052 150.278 69.7596 150.38 69.7881C150.482 69.8166 150.59 69.8184 150.693 69.7932C150.803 69.761 150.906 69.7055 150.993 69.6302C151.122 69.5444 151.203 69.463 151.319 69.3986Z" fill="white"/>
<path d="M142.235 62.9829C142.171 63.0987 142.09 63.2016 142.017 63.3131C141.936 63.4363 141.823 63.5356 141.691 63.6004C141.546 63.6653 141.384 63.6852 141.228 63.6577C141.071 63.6302 140.926 63.5565 140.812 63.446C140.74 63.371 140.65 63.3158 140.551 63.2857C140.452 63.2556 140.347 63.2518 140.246 63.2745C140.133 63.2987 140.029 63.3503 139.941 63.4246C139.83 63.4975 139.727 63.579 139.611 63.6433C139.675 63.5275 139.757 63.4246 139.83 63.3131C139.913 63.1888 140.03 63.0919 140.168 63.0343C140.313 62.9773 140.472 62.964 140.624 62.996C140.777 63.028 140.916 63.104 141.026 63.2144C141.1 63.2868 141.191 63.3387 141.291 63.365C141.391 63.3913 141.497 63.3911 141.596 63.3645C141.708 63.3342 141.811 63.2784 141.897 63.2016C142.017 63.1287 142.115 63.0472 142.235 62.9829Z" fill="white"/>
<path d="M150.808 77.5642C150.847 77.6929 150.86 77.8258 150.89 77.9545C150.916 78.0977 150.906 78.2453 150.86 78.3833C150.803 78.5315 150.704 78.6594 150.574 78.7504C150.444 78.8413 150.289 78.8913 150.131 78.8937C150.027 78.8921 149.925 78.9169 149.833 78.9656C149.742 79.0144 149.664 79.0855 149.608 79.1724C149.545 79.2689 149.509 79.3796 149.5 79.4941C149.47 79.6228 149.458 79.7557 149.419 79.8844C149.385 79.7557 149.367 79.6228 149.342 79.4941C149.312 79.3501 149.327 79.2006 149.385 79.0652C149.446 78.9193 149.549 78.795 149.681 78.7079C149.813 78.6209 149.968 78.5751 150.127 78.5763C150.229 78.5752 150.33 78.5473 150.419 78.4954C150.508 78.4435 150.581 78.3694 150.633 78.2804C150.689 78.1802 150.722 78.069 150.731 77.9545C150.757 77.8258 150.774 77.6929 150.808 77.5642Z" fill="white"/>
<path d="M147.717 100.41C147.751 100.539 147.768 100.672 147.794 100.8C147.818 100.914 147.817 101.031 147.79 101.144C147.763 101.257 147.711 101.362 147.639 101.452C147.566 101.543 147.474 101.616 147.37 101.666C147.265 101.717 147.151 101.743 147.035 101.744C146.931 101.742 146.829 101.766 146.737 101.815C146.645 101.864 146.568 101.935 146.512 102.022C146.451 102.12 146.414 102.23 146.404 102.344C146.379 102.473 146.361 102.606 146.327 102.734C146.289 102.606 146.271 102.473 146.246 102.344C146.218 102.2 146.233 102.051 146.289 101.915C146.351 101.77 146.454 101.646 146.586 101.559C146.718 101.472 146.873 101.426 147.03 101.426C147.133 101.426 147.234 101.398 147.323 101.346C147.412 101.294 147.485 101.22 147.537 101.13C147.595 101.031 147.628 100.919 147.635 100.804C147.661 100.672 147.691 100.539 147.717 100.41Z" fill="white"/>
<path d="M177.711 110.994C177.75 111.123 177.767 111.251 177.793 111.38C177.817 111.494 177.815 111.611 177.789 111.724C177.762 111.837 177.71 111.943 177.638 112.034C177.565 112.124 177.473 112.198 177.369 112.249C177.264 112.3 177.15 112.327 177.034 112.328C176.93 112.326 176.827 112.351 176.736 112.399C176.644 112.448 176.567 112.519 176.51 112.607C176.448 112.703 176.411 112.814 176.403 112.928C176.378 113.057 176.36 113.186 176.326 113.314C176.287 113.186 176.27 113.057 176.245 112.928C176.218 112.784 176.233 112.636 176.287 112.499C176.35 112.355 176.454 112.232 176.586 112.146C176.718 112.06 176.872 112.014 177.029 112.015C177.132 112.012 177.232 111.983 177.32 111.932C177.409 111.88 177.483 111.807 177.535 111.719C177.593 111.618 177.627 111.505 177.634 111.389C177.664 111.251 177.681 111.123 177.711 110.994Z" fill="white"/>
<path d="M163.816 80.7292C163.85 80.8579 163.867 80.9866 163.893 81.1195C163.923 81.2625 163.913 81.411 163.863 81.5484C163.807 81.6971 163.707 81.8255 163.577 81.9172C163.447 82.0089 163.293 82.0597 163.134 82.063C163.03 82.0611 162.928 82.0856 162.836 82.1344C162.745 82.1832 162.667 82.2546 162.611 82.3418C162.551 82.4392 162.514 82.5493 162.504 82.6634C162.478 82.7921 162.461 82.9207 162.426 83.0537C162.388 82.9207 162.375 82.7921 162.345 82.6634C162.324 82.5494 162.329 82.4321 162.359 82.3201C162.388 82.208 162.443 82.1041 162.518 82.0158C162.593 81.9275 162.687 81.857 162.793 81.8096C162.899 81.7621 163.014 81.7388 163.13 81.7414C163.233 81.7398 163.333 81.7118 163.422 81.6599C163.51 81.6081 163.584 81.5342 163.636 81.4455C163.696 81.3469 163.73 81.2348 163.735 81.1195C163.765 80.9866 163.777 80.8579 163.816 80.7292Z" fill="white"/>
<path d="M163.816 117.397C163.851 117.526 163.868 117.655 163.894 117.783C163.918 117.897 163.916 118.014 163.889 118.127C163.863 118.24 163.811 118.346 163.738 118.437C163.666 118.528 163.574 118.601 163.469 118.652C163.365 118.703 163.251 118.73 163.134 118.731C163.031 118.729 162.928 118.754 162.837 118.802C162.745 118.851 162.667 118.923 162.611 119.01C162.55 119.107 162.513 119.217 162.504 119.331C162.478 119.46 162.461 119.589 162.427 119.717C162.388 119.589 162.375 119.46 162.345 119.331C162.321 119.187 162.336 119.039 162.388 118.903C162.451 118.758 162.555 118.636 162.687 118.55C162.819 118.464 162.973 118.418 163.13 118.418C163.233 118.415 163.333 118.387 163.421 118.335C163.51 118.283 163.584 118.21 163.636 118.122C163.697 118.022 163.731 117.908 163.735 117.792C163.765 117.667 163.778 117.539 163.816 117.397Z" fill="white"/>
<path d="M170.871 96.4043C170.91 96.533 170.922 96.6659 170.948 96.7946C170.974 96.9078 170.974 97.0254 170.948 97.1386C170.922 97.2518 170.871 97.3577 170.798 97.4484C170.726 97.539 170.634 97.6122 170.529 97.6623C170.424 97.7125 170.309 97.7384 170.193 97.7381C170.09 97.7365 169.987 97.7613 169.896 97.81C169.804 97.8588 169.727 97.9299 169.67 98.0168C169.608 98.1133 169.571 98.2239 169.563 98.3385C169.533 98.4671 169.52 98.6001 169.481 98.7287C169.447 98.6001 169.43 98.4671 169.404 98.3385C169.375 98.1945 169.39 98.045 169.447 97.9096C169.508 97.7644 169.611 97.6405 169.742 97.5535C169.873 97.4665 170.027 97.4203 170.185 97.4207C170.288 97.4199 170.39 97.3922 170.479 97.3403C170.569 97.2884 170.643 97.2142 170.695 97.1248C170.751 97.0246 170.785 96.9134 170.794 96.7989C170.819 96.6659 170.85 96.533 170.871 96.4043Z" fill="white"/>
<path d="M135.121 101.229C135.159 101.358 135.172 101.486 135.198 101.615C135.224 101.728 135.224 101.846 135.198 101.96C135.172 102.073 135.121 102.179 135.048 102.27C134.976 102.361 134.884 102.435 134.779 102.485C134.674 102.536 134.559 102.562 134.443 102.563C134.339 102.56 134.237 102.585 134.145 102.634C134.053 102.682 133.976 102.754 133.92 102.842C133.857 102.938 133.82 103.049 133.813 103.163C133.783 103.292 133.77 103.421 133.731 103.549C133.697 103.421 133.68 103.292 133.654 103.163C133.626 103.019 133.641 102.87 133.697 102.734C133.759 102.59 133.861 102.467 133.993 102.381C134.124 102.294 134.278 102.249 134.435 102.25C134.538 102.247 134.638 102.219 134.728 102.167C134.817 102.115 134.892 102.042 134.945 101.954C135.002 101.852 135.035 101.74 135.044 101.624C135.069 101.486 135.086 101.358 135.121 101.229Z" fill="white"/>
<path d="M135.815 80.7292C135.848 80.8579 135.874 80.9882 135.893 81.1195C135.924 81.2621 135.915 81.4106 135.867 81.5484C135.811 81.6971 135.711 81.8255 135.581 81.9172C135.451 82.0089 135.297 82.0597 135.138 82.063C135.034 82.0606 134.931 82.0851 134.84 82.1339C134.748 82.1827 134.671 82.2543 134.615 82.3418C134.552 82.4383 134.516 82.5489 134.507 82.6634C134.477 82.7921 134.465 82.9207 134.426 83.0537C134.392 82.9207 134.375 82.7921 134.349 82.6634C134.32 82.5197 134.333 82.3708 134.387 82.2346C134.45 82.0894 134.553 81.9656 134.685 81.8787C134.817 81.7918 134.971 81.7455 135.129 81.7457C135.233 81.744 135.334 81.716 135.423 81.6642C135.512 81.6124 135.587 81.5385 135.64 81.4497C135.696 81.3496 135.73 81.2383 135.738 81.1238C135.764 80.9866 135.781 80.8579 135.815 80.7292Z" fill="white"/>
<path d="M143.295 67.4045C143.329 67.5332 143.347 67.6619 143.372 67.7948C143.402 67.9378 143.392 68.0863 143.342 68.2237C143.286 68.3724 143.186 68.5008 143.056 68.5925C142.927 68.6842 142.772 68.735 142.613 68.7383C142.51 68.7364 142.407 68.7609 142.315 68.8097C142.224 68.8585 142.146 68.9299 142.09 69.0171C142.03 69.1144 141.993 69.2246 141.983 69.3387C141.957 69.4674 141.94 69.596 141.906 69.729C141.867 69.596 141.854 69.4674 141.824 69.3387C141.798 69.1946 141.813 69.046 141.867 68.9099C141.93 68.7658 142.034 68.6432 142.166 68.5572C142.298 68.4711 142.452 68.4253 142.609 68.4252C142.712 68.4237 142.812 68.3956 142.901 68.3438C142.99 68.2919 143.063 68.2181 143.115 68.1293C143.175 68.0308 143.209 67.9186 143.214 67.8034C143.244 67.649 143.257 67.5332 143.295 67.4045Z" fill="white"/>
<path d="M141.288 88.0029C141.322 88.1359 141.339 88.2645 141.365 88.3932C141.389 88.5068 141.388 88.6244 141.361 88.7374C141.334 88.8505 141.283 88.9562 141.21 89.0468C141.137 89.1375 141.045 89.2109 140.941 89.2618C140.837 89.3127 140.722 89.3397 140.606 89.341C140.502 89.339 140.4 89.3636 140.308 89.4124C140.217 89.4612 140.139 89.5326 140.083 89.6198C140.022 89.7168 139.985 89.8271 139.975 89.9414C139.95 90.0701 139.933 90.1987 139.898 90.3274C139.86 90.1987 139.843 90.0701 139.817 89.9414C139.791 89.7973 139.805 89.6486 139.86 89.5125C139.923 89.3685 140.027 89.2459 140.159 89.1599C140.29 89.0738 140.444 89.028 140.602 89.0279C140.704 89.0252 140.804 88.9966 140.893 88.9449C140.981 88.8931 141.055 88.8199 141.108 88.732C141.165 88.6308 141.199 88.5179 141.206 88.4018C141.232 88.2645 141.258 88.1359 141.288 88.0029Z" fill="white"/>
<path d="M159.313 90.7732C159.347 90.9019 159.365 91.0348 159.39 91.1634C159.415 91.2769 159.413 91.3943 159.386 91.5071C159.36 91.6199 159.308 91.7253 159.235 91.8157C159.162 91.9061 159.071 91.9791 158.966 92.0295C158.862 92.0799 158.747 92.1063 158.631 92.107C158.528 92.1058 158.425 92.1307 158.334 92.1794C158.243 92.2282 158.165 92.2991 158.108 92.3857C158.048 92.4833 158.012 92.5934 158.001 92.7074C157.975 92.836 157.958 92.969 157.924 93.0976C157.885 92.969 157.872 92.836 157.842 92.7074C157.815 92.5632 157.83 92.4144 157.885 92.2785C157.947 92.1333 158.051 92.0095 158.183 91.9226C158.315 91.8357 158.469 91.7895 158.627 91.7896C158.73 91.7889 158.831 91.7612 158.92 91.7093C159.008 91.6573 159.082 91.583 159.133 91.4937C159.193 91.3951 159.227 91.283 159.232 91.1677C159.27 91.0348 159.27 90.9019 159.313 90.7732Z" fill="white"/>
<path d="M142.652 113.906C142.686 114.039 142.703 114.168 142.729 114.297C142.755 114.41 142.755 114.528 142.729 114.641C142.703 114.755 142.652 114.861 142.579 114.952C142.507 115.043 142.415 115.116 142.31 115.167C142.205 115.217 142.09 115.244 141.974 115.244C141.87 115.241 141.767 115.265 141.675 115.314C141.584 115.363 141.506 115.435 141.451 115.523C141.389 115.619 141.351 115.727 141.339 115.84C141.32 115.972 141.295 116.102 141.262 116.231C141.228 116.102 141.211 115.973 141.185 115.84C141.156 115.697 141.17 115.548 141.224 115.412C141.286 115.266 141.389 115.143 141.521 115.057C141.653 114.97 141.808 114.925 141.966 114.927C142.069 114.925 142.169 114.896 142.259 114.844C142.348 114.793 142.423 114.719 142.476 114.631C142.531 114.529 142.565 114.417 142.575 114.301C142.6 114.168 142.617 114.039 142.652 113.906Z" fill="white"/>
<path d="M156.221 84.2333C156.289 84.1175 156.371 84.0145 156.444 83.903C156.523 83.7791 156.636 83.6808 156.77 83.62C156.912 83.5581 157.069 83.5393 157.221 83.566C157.374 83.5927 157.515 83.6637 157.627 83.7701C157.7 83.8449 157.79 83.9002 157.89 83.9309C157.99 83.9616 158.096 83.9668 158.198 83.9459C158.308 83.9198 158.411 83.8684 158.498 83.7958C158.609 83.7186 158.712 83.6414 158.832 83.5728C158.764 83.6929 158.682 83.7958 158.609 83.9073C158.527 84.0292 158.411 84.1245 158.275 84.1818C158.13 84.2377 157.972 84.2504 157.819 84.2185C157.667 84.1865 157.528 84.1112 157.417 84.0017C157.343 83.9311 157.252 83.8803 157.153 83.8541C157.054 83.8279 156.95 83.827 156.851 83.8516C156.741 83.8837 156.638 83.9393 156.551 84.0145C156.444 84.0874 156.341 84.1689 156.221 84.2333Z" fill="white"/>
<path d="M145.709 93.7582C145.774 93.6424 145.855 93.5394 145.928 93.4279C145.991 93.3296 146.074 93.2465 146.173 93.1849C146.272 93.1232 146.383 93.0846 146.499 93.0718C146.615 93.0591 146.732 93.0725 146.841 93.1111C146.951 93.1498 147.051 93.2126 147.133 93.295C147.205 93.3704 147.294 93.4258 147.394 93.4559C147.493 93.486 147.598 93.4897 147.699 93.4665C147.811 93.4415 147.916 93.39 148.004 93.3164C148.11 93.2376 148.22 93.1646 148.334 93.0977C148.266 93.2135 148.188 93.3164 148.115 93.4279C148.05 93.524 147.964 93.6042 147.863 93.6626C147.762 93.7211 147.65 93.7563 147.534 93.7658C147.418 93.7752 147.302 93.7587 147.193 93.7173C147.084 93.6759 146.986 93.6107 146.906 93.5266C146.833 93.455 146.742 93.4035 146.643 93.3772C146.543 93.3509 146.439 93.3507 146.34 93.3765C146.229 93.4086 146.127 93.4642 146.04 93.5394C145.928 93.6124 145.825 93.6938 145.709 93.7582Z" fill="white"/>
<path d="M138.582 107.791C138.65 107.671 138.732 107.568 138.805 107.46C138.867 107.362 138.951 107.279 139.049 107.217C139.148 107.156 139.259 107.117 139.375 107.104C139.491 107.092 139.608 107.105 139.718 107.144C139.828 107.182 139.927 107.245 140.01 107.327C140.082 107.402 140.171 107.457 140.27 107.487C140.37 107.517 140.475 107.521 140.576 107.499C140.688 107.474 140.792 107.422 140.88 107.349C140.986 107.27 141.097 107.197 141.21 107.13C141.142 107.246 141.065 107.349 140.992 107.46C140.927 107.556 140.841 107.637 140.741 107.695C140.64 107.753 140.528 107.789 140.413 107.798C140.297 107.808 140.181 107.791 140.073 107.75C139.964 107.708 139.867 107.643 139.787 107.559C139.713 107.487 139.621 107.435 139.521 107.409C139.421 107.383 139.316 107.383 139.216 107.409C139.105 107.438 139.002 107.492 138.916 107.568C138.805 107.645 138.684 107.722 138.582 107.791Z" fill="white"/>
<path d="M141.661 122.368C141.73 122.252 141.811 122.149 141.884 122.037C141.963 121.914 142.076 121.815 142.21 121.754C142.352 121.694 142.509 121.675 142.661 121.702C142.814 121.729 142.955 121.799 143.068 121.905C143.139 121.98 143.229 122.035 143.328 122.066C143.427 122.097 143.532 122.102 143.634 122.08C143.746 122.054 143.85 122.001 143.938 121.926C144.046 121.853 144.149 121.776 144.269 121.707C144.2 121.827 144.123 121.93 144.05 122.037C143.966 122.161 143.848 122.258 143.711 122.316C143.566 122.372 143.408 122.385 143.256 122.353C143.103 122.321 142.964 122.246 142.853 122.136C142.779 122.066 142.688 122.015 142.59 121.989C142.491 121.962 142.387 121.961 142.287 121.986C142.177 122.018 142.074 122.074 141.987 122.149C141.884 122.222 141.781 122.303 141.661 122.368Z" fill="white"/>
<path d="M155.449 106.345C155.514 106.23 155.595 106.127 155.668 106.015C155.748 105.892 155.861 105.794 155.994 105.732C156.139 105.667 156.3 105.646 156.456 105.673C156.613 105.699 156.758 105.772 156.873 105.882C156.945 105.957 157.034 106.013 157.133 106.044C157.232 106.074 157.338 106.079 157.439 106.058C157.55 106.031 157.654 105.98 157.744 105.908C157.851 105.835 157.954 105.754 158.074 105.685C158.005 105.805 157.928 105.908 157.855 106.019C157.772 106.143 157.654 106.238 157.516 106.294C157.371 106.351 157.213 106.364 157.061 106.332C156.908 106.3 156.768 106.224 156.659 106.114C156.584 106.043 156.492 105.992 156.393 105.966C156.293 105.94 156.188 105.939 156.088 105.964C155.978 105.996 155.875 106.051 155.788 106.127C155.668 106.2 155.565 106.281 155.449 106.345Z" fill="white"/>
<path d="M164.936 112.152C165 112.036 165.081 111.933 165.154 111.822C165.235 111.7 165.348 111.602 165.48 111.539C165.622 111.478 165.779 111.46 165.931 111.487C166.084 111.513 166.225 111.584 166.338 111.689C166.41 111.764 166.499 111.819 166.598 111.85C166.697 111.881 166.803 111.886 166.904 111.865C167.016 111.839 167.12 111.787 167.209 111.715C167.32 111.642 167.423 111.56 167.539 111.492C167.474 111.612 167.393 111.715 167.32 111.826C167.238 111.95 167.12 112.046 166.981 112.101C166.836 112.158 166.678 112.171 166.525 112.139C166.373 112.107 166.233 112.031 166.124 111.921C166.048 111.85 165.957 111.799 165.857 111.773C165.758 111.747 165.653 111.746 165.553 111.77C165.443 111.803 165.34 111.858 165.253 111.933C165.154 112.006 165.051 112.088 164.936 112.152Z" fill="white"/>
<path d="M148.978 116.561C149.042 116.445 149.123 116.342 149.196 116.231C149.275 116.107 149.388 116.008 149.522 115.948C149.667 115.882 149.828 115.862 149.985 115.888C150.141 115.915 150.286 115.988 150.401 116.098C150.473 116.173 150.563 116.228 150.662 116.259C150.761 116.29 150.866 116.295 150.967 116.274C151.08 116.247 151.184 116.194 151.272 116.119C151.379 116.046 151.482 115.969 151.602 115.9C151.534 116.021 151.456 116.123 151.383 116.231C151.301 116.355 151.183 116.452 151.045 116.509C150.9 116.566 150.741 116.58 150.589 116.548C150.436 116.516 150.297 116.44 150.187 116.329C150.112 116.259 150.02 116.208 149.921 116.182C149.821 116.156 149.717 116.155 149.617 116.179C149.506 116.211 149.404 116.267 149.316 116.342C149.196 116.415 149.093 116.497 148.978 116.561Z" fill="white"/>
<path d="M169.563 122.368C169.632 122.252 169.709 122.149 169.782 122.038C169.862 121.915 169.975 121.817 170.108 121.755C170.252 121.689 170.414 121.668 170.57 121.695C170.727 121.722 170.872 121.795 170.987 121.905C171.059 121.979 171.148 122.035 171.247 122.065C171.346 122.096 171.451 122.101 171.553 122.08C171.665 122.054 171.769 122.003 171.857 121.93C171.969 121.853 172.072 121.776 172.188 121.707C172.123 121.827 172.042 121.93 171.969 122.042C171.886 122.164 171.77 122.259 171.634 122.316C171.489 122.373 171.331 122.386 171.179 122.354C171.026 122.322 170.887 122.246 170.777 122.136C170.702 122.066 170.612 122.015 170.513 121.989C170.414 121.963 170.31 121.962 170.211 121.986C170.098 122.017 169.994 122.073 169.906 122.149C169.777 122.222 169.674 122.303 169.563 122.368Z" fill="white"/>
<path d="M171.883 106.676C171.948 106.555 172.029 106.453 172.102 106.341C172.183 106.219 172.296 106.121 172.428 106.058C172.573 105.993 172.734 105.972 172.89 105.999C173.047 106.025 173.192 106.098 173.307 106.208C173.379 106.283 173.469 106.338 173.568 106.369C173.667 106.4 173.772 106.405 173.873 106.384C173.985 106.358 174.089 106.307 174.178 106.234C174.289 106.161 174.392 106.079 174.508 106.011C174.444 106.131 174.362 106.234 174.289 106.345C174.207 106.469 174.089 106.565 173.95 106.62C173.805 106.677 173.647 106.69 173.495 106.658C173.342 106.626 173.202 106.55 173.093 106.44C173.018 106.369 172.928 106.319 172.829 106.293C172.73 106.266 172.626 106.265 172.527 106.29C172.414 106.321 172.31 106.376 172.222 106.453C172.102 106.53 171.999 106.611 171.883 106.676Z" fill="white"/>
<path d="M134.289 118.572C134.358 118.452 134.435 118.349 134.508 118.238C134.589 118.116 134.702 118.018 134.834 117.955C134.979 117.889 135.14 117.869 135.296 117.895C135.453 117.922 135.598 117.995 135.713 118.105C135.785 118.18 135.874 118.235 135.973 118.266C136.072 118.296 136.177 118.302 136.279 118.281C136.391 118.255 136.495 118.203 136.583 118.131C136.695 118.058 136.798 117.976 136.914 117.908C136.849 118.028 136.768 118.131 136.695 118.242C136.613 118.365 136.497 118.461 136.36 118.517C136.215 118.573 136.057 118.586 135.905 118.554C135.753 118.522 135.613 118.446 135.503 118.336C135.429 118.266 135.338 118.215 135.239 118.19C135.14 118.164 135.036 118.165 134.937 118.191C134.824 118.218 134.719 118.273 134.632 118.349C134.508 118.422 134.396 118.504 134.289 118.572Z" fill="white"/>
<path d="M133.109 94.0885C133.174 93.9727 133.255 93.8698 133.328 93.7583C133.409 93.635 133.522 93.5358 133.654 93.4709C133.799 93.4061 133.961 93.3861 134.117 93.4136C134.274 93.4411 134.419 93.5149 134.533 93.6253C134.605 93.7003 134.694 93.7556 134.794 93.7856C134.893 93.8157 134.998 93.8196 135.099 93.7969C135.212 93.7746 135.317 93.7228 135.404 93.6468C135.515 93.5738 135.618 93.4924 135.734 93.428C135.667 93.542 135.594 93.6522 135.515 93.7583C135.433 93.8814 135.317 93.9781 135.181 94.037C135.036 94.0935 134.877 94.1065 134.725 94.0745C134.573 94.0425 134.433 93.9669 134.323 93.8569C134.249 93.7856 134.159 93.7344 134.06 93.7082C133.96 93.6819 133.856 93.6814 133.757 93.7068C133.645 93.7378 133.541 93.7935 133.452 93.8698C133.332 93.9427 133.229 94.0242 133.109 94.0885Z" fill="white"/>
<path d="M147.103 61.4219C146.945 62.2239 143.325 67.5032 139.688 67.4561C138.505 67.4346 138.316 60.9673 138.316 60.9673L138.192 60.4956L136.476 53.8568L144.166 48.5517L145.281 47.8484C145.281 47.8484 145.628 49.6968 146.044 51.9998C146.044 52.107 146.083 52.2142 146.1 52.33C146.117 52.4458 146.156 52.5788 146.173 52.7031C146.241 53.0462 146.306 53.3979 146.366 53.7496C146.413 54.0155 146.456 54.2728 146.494 54.5558C146.533 54.8389 146.576 55.1133 146.623 55.4135C146.92 57.4031 147.08 59.4105 147.103 61.4219Z" fill="#DD6A57"/>
<path d="M146.044 51.9998C145.43 53.9007 144.409 55.6452 143.053 57.1123C141.697 58.5793 140.038 59.7338 138.192 60.4956L136.476 53.8568L144.166 48.5517L145.281 47.8484C145.281 47.8484 145.628 49.6968 146.044 51.9998Z" fill="#263238"/>
<path d="M127.05 43.9972C126.732 56.0311 133.912 57.5793 136.485 57.6436C138.839 57.7036 146.868 57.6093 148.429 45.674C149.99 33.7387 144.492 29.806 139.114 29.3772C133.736 28.9483 127.367 31.9632 127.05 43.9972Z" fill="#DD6A57"/>
<path d="M128.877 40.3561C129.16 40.309 129.408 40.2232 129.683 40.1503C129.976 40.1145 130.25 39.9852 130.463 39.7815C130.518 39.7041 130.546 39.6109 130.542 39.5162C130.538 39.4215 130.503 39.3308 130.442 39.2582C130.299 39.1337 130.126 39.0494 129.94 39.0139C129.753 38.9785 129.561 38.9933 129.383 39.0567C129.003 39.1285 128.663 39.3395 128.431 39.6485C128.382 39.7222 128.355 39.8083 128.355 39.8966C128.354 39.9849 128.378 40.0716 128.425 40.1463C128.472 40.221 128.54 40.2806 128.62 40.3178C128.7 40.355 128.789 40.3683 128.877 40.3561Z" fill="#263238"/>
<path d="M136.922 42.1144C136.645 42.084 136.37 42.0382 136.099 41.9771C135.805 41.9691 135.522 41.8652 135.292 41.6812C135.231 41.6091 135.195 41.5187 135.19 41.424C135.186 41.3293 135.213 41.2358 135.267 41.158C135.398 41.021 135.563 40.9213 135.746 40.8693C135.928 40.8173 136.121 40.8148 136.305 40.8621C136.69 40.9017 137.046 41.0837 137.304 41.3724C137.36 41.441 137.395 41.5245 137.404 41.6127C137.414 41.7009 137.397 41.7899 137.357 41.8687C137.316 41.9476 137.253 42.0129 137.176 42.0565C137.099 42.1002 137.011 42.1203 136.922 42.1144Z" fill="#263238"/>
<path d="M130.652 44.2715C130.652 44.2415 130.592 44.3144 130.592 44.3487C130.674 45.1635 130.631 46.1113 129.91 46.433C129.885 46.433 129.91 46.4844 129.91 46.4801C130.811 46.2914 130.858 45.0306 130.652 44.2715Z" fill="#263238"/>
<path d="M129.863 43.4653C128.542 43.4653 128.615 46.0986 129.842 46.1114C131.068 46.1243 130.965 43.4782 129.863 43.4653Z" fill="#263238"/>
<path d="M129.319 43.6584C129.113 43.8042 128.915 44.0615 128.662 44.0872C128.409 44.113 128.152 43.8342 127.959 43.564C127.959 43.5383 127.92 43.564 127.92 43.594C127.92 44.1001 128.105 44.6233 128.589 44.7048C129.074 44.7863 129.349 44.3403 129.447 43.8471C129.477 43.7399 129.4 43.5983 129.319 43.6584Z" fill="#263238"/>
<path d="M136.034 51.2749C135.833 51.4593 135.627 51.7038 135.327 51.7338C135.027 51.7139 134.735 51.6321 134.469 51.4936C134.463 51.4908 134.456 51.4899 134.45 51.4911C134.444 51.4924 134.438 51.4957 134.433 51.5005C134.429 51.5054 134.426 51.5115 134.426 51.518C134.425 51.5245 134.427 51.531 134.43 51.5365C134.542 51.7024 134.697 51.8348 134.878 51.9195C135.06 52.0041 135.261 52.0377 135.46 52.0168C135.629 51.9809 135.784 51.8945 135.903 51.7689C136.023 51.6434 136.101 51.4846 136.129 51.3135C136.111 51.2663 136.064 51.2492 136.034 51.2749Z" fill="#263238"/>
<path d="M131.934 47.9856C131.934 47.9856 131.84 49.2121 131.87 49.7868C132.993 49.7252 134.12 49.8233 135.215 50.0784C135.472 50.1471 135.455 49.9369 135.164 49.7825C134.295 49.3299 133.311 49.1477 132.337 49.2593C132.286 49.1006 132.522 47.3723 132.432 47.3723C131.988 47.4374 131.556 47.5614 131.145 47.7411C131.274 45.168 131.814 42.6634 131.904 40.1116C131.906 40.093 131.9 40.0744 131.889 40.0596C131.877 40.0447 131.861 40.0345 131.842 40.0308C131.824 40.0271 131.805 40.0303 131.789 40.0396C131.773 40.049 131.76 40.0639 131.754 40.0816C130.999 42.6848 130.785 45.6268 130.583 48.2686C130.558 48.5946 131.711 48.0971 131.934 47.9856Z" fill="#263238"/>
<path d="M137.66 44.3145C137.178 44.1257 136.651 44.0839 136.146 44.1945C135.875 44.256 135.619 44.3696 135.391 44.529C135.156 44.7041 134.964 44.9298 134.829 45.1894L134.576 45.6569L135.095 45.6011C135.46 45.5625 135.828 45.5625 136.193 45.6011C136.574 45.6344 136.94 45.7643 137.257 45.9785C137.049 45.5997 136.701 45.3177 136.287 45.1937C135.884 45.0605 135.458 45.0123 135.035 45.0522L135.301 45.481C135.523 45.1089 135.865 44.8231 136.27 44.6705C136.717 44.4946 137.184 44.375 137.66 44.3145Z" fill="#263238"/>
<path d="M136.171 46.4459C135.783 46.3548 135.409 46.2105 135.061 46.0171C134.979 45.9656 134.666 45.7297 134.683 45.6611C134.727 45.4617 134.797 45.2686 134.889 45.0864C134.745 45.2483 134.635 45.4381 134.567 45.644C134.591 45.7573 134.64 45.8641 134.71 45.9567C134.779 46.0493 134.868 46.1255 134.971 46.18C135.339 46.3759 135.754 46.4678 136.171 46.4459Z" fill="#263238"/>
<path d="M133.324 49.7011C133.324 49.7011 134.07 50.7732 134.928 50.9019C135.914 51.0563 136.03 50.1685 134.928 49.6625C134.37 49.4009 133.324 49.7011 133.324 49.7011Z" fill="#263238"/>
<path d="M134.924 50.9233C134.55 50.8457 134.206 50.6627 133.933 50.3958C134.139 50.0913 134.611 49.7525 135.67 50.3229C135.824 50.6831 135.55 51.0005 134.924 50.9233Z" fill="#FF99BA"/>
<path d="M148.356 45.9612C146.374 46.21 145.714 42.0629 145.714 42.0629C145.714 42.0629 141.674 42.2687 140.057 36.5219C140.258 38.2581 140.961 39.8978 142.081 41.2394C142.081 41.2394 134.915 40.8106 131.626 35.008C131.626 35.008 132.972 37.9886 134.147 39.0136C134.147 39.0136 131.115 38.3275 129.541 35.9687C129.541 35.9687 128.461 39.4725 127.547 40.4718C127.547 40.4718 127.234 27.9875 138.852 28.7509C138.852 28.7509 146.108 28.8796 148.986 34.4805C151.864 40.0815 148.356 45.9612 148.356 45.9612Z" fill="#263238"/>
<path d="M146.503 46.5445C146.503 46.5445 148.9 42.6375 150.659 43.4695C152.417 44.3015 150.77 49.8596 148.819 50.7216C148.576 50.85 148.31 50.9279 148.037 50.9506C147.763 50.9733 147.488 50.9404 147.227 50.8538C146.967 50.7673 146.726 50.6289 146.521 50.4469C146.315 50.265 146.149 50.0433 146.031 49.7953L146.503 46.5445Z" fill="#DD6A57"/>
<path d="M150.148 45.052C150.178 45.052 150.187 45.0906 150.148 45.1035C148.78 45.7553 148.124 47.0977 147.687 48.4786C148.073 47.934 148.621 47.6209 149.346 48.0498C149.385 48.0712 149.346 48.1312 149.312 48.127C149.061 48.0627 148.797 48.0781 148.556 48.1711C148.314 48.2641 148.108 48.4301 147.965 48.6459C147.725 49.0054 147.527 49.391 147.373 49.7952C147.313 49.9239 147.086 49.8724 147.125 49.7266C147.122 49.7153 147.122 49.7036 147.125 49.6923C147.005 47.9211 148.24 45.3479 150.148 45.052Z" fill="#263238"/>
<path d="M147.691 50.0955C147.697 50.2066 147.736 50.3133 147.803 50.4022C147.87 50.4911 147.962 50.5581 148.067 50.5948C148.172 50.6315 148.285 50.6363 148.393 50.6084C148.5 50.5805 148.597 50.5213 148.671 50.4383C148.745 50.3553 148.793 50.2522 148.808 50.142C148.824 50.0318 148.806 49.9196 148.758 49.8195C148.709 49.7194 148.632 49.636 148.536 49.5798C148.44 49.5235 148.33 49.4971 148.219 49.5037C148.145 49.5075 148.073 49.5259 148.006 49.5578C147.94 49.5897 147.88 49.6345 147.831 49.6895C147.782 49.7445 147.745 49.8088 147.72 49.8785C147.696 49.9482 147.686 50.0219 147.691 50.0955Z" fill="white"/>
<path d="M149.037 49.1649C149.041 49.2362 149.065 49.3048 149.108 49.3621C149.151 49.4194 149.209 49.4627 149.277 49.4866C149.344 49.5105 149.417 49.5138 149.486 49.4962C149.555 49.4786 149.617 49.4409 149.665 49.3878C149.713 49.3346 149.744 49.2686 149.754 49.1979C149.764 49.1272 149.753 49.0551 149.722 48.9908C149.691 48.9265 149.641 48.8728 149.58 48.8366C149.518 48.8004 149.447 48.7833 149.376 48.7875C149.329 48.7897 149.283 48.8012 149.24 48.8214C149.197 48.8416 149.159 48.8701 149.128 48.9053C149.096 48.9404 149.072 48.9814 149.056 49.026C149.041 49.0706 149.034 49.1178 149.037 49.1649Z" fill="white"/>
<path d="M110.011 72.5702L103.783 74.0173L108.263 93.3001L114.491 91.853L110.011 72.5702Z" fill="#EBEBEB"/>
<path d="M94.8291 21.3874C89.6253 22.5981 84.8973 25.3244 81.2428 29.2217C77.5882 33.1189 75.1712 38.0122 74.2971 43.2829C73.4231 48.5537 74.1313 53.9652 76.3323 58.8335C78.5333 63.7018 82.1282 67.8083 86.6626 70.6338C91.197 73.4594 96.4674 74.8771 101.807 74.7079C107.147 74.5386 112.317 72.79 116.664 69.683C121.01 66.576 124.338 62.2502 126.226 57.2523C128.114 52.2544 128.479 46.8089 127.273 41.6041C126.471 38.1455 124.996 34.8789 122.932 31.9908C120.867 29.1026 118.254 26.6497 115.24 24.7722C112.227 22.8947 108.874 21.6294 105.372 21.0486C101.869 20.4678 98.2869 20.5829 94.8291 21.3874ZM105.774 68.5067C101.662 69.463 97.3594 69.1785 93.4096 67.6891C89.4598 66.1997 86.0405 63.5724 83.5841 60.1395C81.1277 56.7065 79.7446 52.6222 79.6097 48.4031C79.4748 44.184 80.5942 40.0197 82.8264 36.4369C85.0585 32.854 88.3031 30.0137 92.1497 28.2751C95.9963 26.5365 100.272 25.9777 104.436 26.6695C108.6 27.3613 112.466 29.2725 115.544 32.1614C118.622 35.0503 120.774 38.7871 121.727 42.8992C123.006 48.4105 122.043 54.2038 119.052 59.0057C116.06 63.8076 111.284 67.225 105.774 68.5067Z" fill="#A6A6A6"/>
<path d="M112.137 86.3962L107.96 87.3668C106.513 87.7029 105.613 89.148 105.949 90.5946L111.292 113.591C111.628 115.038 113.073 115.938 114.52 115.602L118.697 114.631C120.144 114.295 121.044 112.85 120.708 111.403L115.365 88.4069C115.029 86.9604 113.583 86.0601 112.137 86.3962Z" fill="#263238"/>
<g opacity="0.3">
<path d="M121.727 42.8907C122.681 47.0012 122.394 51.302 120.903 55.2494C119.412 59.1968 116.784 62.6136 113.352 65.0676C109.919 67.5216 105.836 68.9028 101.619 69.0364C97.4011 69.17 93.2388 68.0501 89.6578 65.8183C86.0768 63.5865 83.238 60.3429 81.5002 56.4978C79.7625 52.6527 79.204 48.3786 79.8952 44.2161C80.5863 40.0535 82.4963 36.1894 85.3834 33.1123C88.2706 30.0351 92.0054 27.8831 96.1155 26.9284C98.8453 26.2938 101.673 26.2032 104.438 26.6621C107.203 27.1209 109.85 28.12 112.229 29.6024C114.608 31.0848 116.671 33.0214 118.3 35.3015C119.93 37.5815 121.095 40.1604 121.727 42.8907Z" fill="white"/>
<path d="M122.251 48.9033C121.936 54.5202 119.416 59.7857 115.24 63.5554C111.065 67.325 105.569 69.2939 99.9497 69.0342L122.251 48.9033Z" fill="#EBEBEB"/>
<path d="M112.434 29.7374L81.8858 57.3091C81.1258 55.795 80.5499 54.1954 80.1704 52.5444C79.7258 50.6528 79.5469 48.7085 79.6386 46.7676L102.193 26.4094C105.835 26.6237 109.361 27.7696 112.434 29.7374Z" fill="#EBEBEB"/>
<path d="M121.14 40.845L92.0411 67.1043C90.7695 66.52 89.5585 65.8118 88.4258 64.99L119.411 37.0281C120.115 38.2385 120.694 39.5173 121.14 40.845Z" fill="#EBEBEB"/>
<path d="M114.78 31.4787L83.361 59.8266C83.2152 59.6121 83.0694 59.3977 82.9321 59.179L114.171 30.9897C114.385 31.1441 114.587 31.3028 114.78 31.4787Z" fill="#EBEBEB"/>
<path d="M95.0777 27.1985L81.1396 39.7728C81.3755 39.1767 81.6414 38.5934 81.933 38.0273L93.2679 27.7946C93.8555 27.5759 94.4602 27.3743 95.0777 27.1985Z" fill="#EBEBEB"/>
</g>
<path d="M85.7973 51.408C85.7953 51.3794 85.7953 51.3507 85.7973 51.3222C85.7202 50.8933 85.8531 51.7296 85.7973 51.4508C85.7416 51.1721 85.7116 50.7904 85.6858 50.4602C85.5872 49.2957 85.5872 48.1251 85.6858 46.9606C85.6858 46.7934 85.7159 46.6304 85.7287 46.4674C85.7287 46.416 85.6816 46.8534 85.7287 46.506L85.7673 46.2058C85.8188 45.8199 85.8831 45.4339 85.9603 45.0522C86.123 44.2107 86.3422 43.3811 86.6165 42.5691C86.6808 42.3761 86.7537 42.1831 86.8223 41.9901C86.9124 41.7285 86.7023 42.2774 86.8438 41.9344L86.9853 41.5956C87.1697 41.1667 87.3713 40.7378 87.5857 40.309C87.8002 39.8801 88.0789 39.4212 88.3491 38.9966C88.4778 38.7994 88.6064 38.6064 88.7394 38.4134C88.9667 38.0832 88.6321 38.5463 88.808 38.3147L89.061 37.9802C89.842 36.9985 90.7151 36.0937 91.6685 35.2784C91.6685 35.2784 91.8658 35.1197 91.72 35.2398C91.5742 35.3599 91.7972 35.1755 91.8229 35.154L92.2518 34.8152C92.5391 34.6008 92.8307 34.3863 93.1309 34.1976C93.7597 33.7773 94.4096 33.3894 95.078 33.0354C95.2571 32.9228 95.4122 32.776 95.5346 32.6034C95.6569 32.4308 95.7441 32.2358 95.7911 32.0295C95.8381 31.8232 95.844 31.6097 95.8085 31.4011C95.7729 31.1925 95.6967 30.993 95.584 30.8139C95.4714 30.6348 95.3246 30.4797 95.152 30.3573C94.9794 30.2349 94.7844 30.1478 94.5781 30.1008C94.3718 30.0538 94.1583 30.0479 93.9497 30.0834C93.7411 30.119 93.5416 30.1952 93.3625 30.3078C89.1253 32.568 85.643 36.1361 83.8932 40.6349C82.7086 43.6603 82.2035 46.9091 82.4136 50.1514C82.4564 50.8716 82.5481 51.588 82.6881 52.2957C82.8103 52.7039 83.089 53.0472 83.4635 53.2505C83.838 53.4538 84.2777 53.5006 84.6866 53.3807C85.0888 53.2483 85.4252 52.9672 85.6269 52.5949C85.8286 52.2225 85.8804 51.7872 85.7716 51.3779L85.7973 51.408Z" fill="white"/>
<path d="M87.2212 55.9711C87.3099 56.2702 87.308 56.589 87.2156 56.887C87.1232 57.1851 86.9446 57.4491 86.7022 57.6456C86.4599 57.8422 86.1647 57.9625 85.854 57.9913C85.5433 58.0202 85.231 57.9563 84.9566 57.8077C84.6822 57.6591 84.458 57.4325 84.3124 57.1566C84.1667 56.8806 84.1061 56.5677 84.1383 56.2573C84.1704 55.9469 84.2939 55.653 84.493 55.4128C84.6921 55.1725 84.958 54.9967 85.257 54.9075C85.4558 54.8476 85.6644 54.8276 85.871 54.8487C86.0775 54.8698 86.2779 54.9316 86.4604 55.0305C86.643 55.1293 86.8042 55.2633 86.9348 55.4248C87.0653 55.5862 87.1627 55.7719 87.2212 55.9711Z" fill="white"/>
<path d="M155.466 69.4931C159.326 83.4483 161.179 97.4593 159.043 104.686C157.679 109.292 154.39 112.405 152.297 113.435C147.404 115.853 131.171 112.422 120.595 110.295C117.996 109.772 124.125 88.8306 126.737 89.9414C130.596 91.5753 142.412 93.7797 142.738 93.8869C143.437 94.1271 144.882 78.9839 145.903 70.1064C147.313 57.738 153.24 61.4348 155.466 69.4931Z" fill="#DD6A57"/>
<path d="M100.271 85.9528C99.1218 87.8269 100.614 89.5424 100.614 89.5424C99.6345 90.0324 98.8576 90.8503 98.4185 91.8539C97.728 93.6552 100.25 95.5293 100.25 95.5293C99.3397 96.2486 98.6685 97.2263 98.3242 98.3341C97.8353 100.127 100.113 102.378 100.113 102.378C99.6423 103.501 99.592 104.755 99.971 105.912C101.107 108.961 105.975 109.961 109.063 110.63C112.151 111.299 121.534 110.287 123.344 110.278L127.783 90.4944C127.783 90.4944 114.784 83.5683 111.057 83.3024C107.888 83.088 101.562 83.8513 100.271 85.9528Z" fill="#DD6A57"/>
<path d="M100.821 89.255C104.251 88.6932 107.622 89.1649 111.032 89.4437C111.048 89.4437 111.063 89.45 111.074 89.4613C111.085 89.4725 111.092 89.4878 111.092 89.5037C111.092 89.5197 111.085 89.5349 111.074 89.5462C111.063 89.5575 111.048 89.5638 111.032 89.5638C107.639 89.2464 104.23 89.6024 100.838 89.4223C100.818 89.4203 100.8 89.4117 100.786 89.3977C100.771 89.3837 100.763 89.3653 100.761 89.3457C100.759 89.326 100.764 89.3062 100.774 89.2896C100.785 89.2731 100.802 89.2609 100.821 89.255Z" fill="#263238"/>
<path d="M100.374 95.2849C101.161 95.23 101.951 95.2805 102.725 95.435C103.551 95.5436 104.376 95.6665 105.199 95.8038C106.849 96.0897 108.49 96.4056 110.123 96.7516C110.195 96.7516 110.191 96.8802 110.123 96.8674C108.476 96.5972 106.829 96.3527 105.178 96.1512C104.35 96.0482 103.522 95.9582 102.69 95.8681C101.903 95.8362 101.122 95.7168 100.362 95.5121C100.338 95.5028 100.318 95.4864 100.305 95.4651C100.291 95.4439 100.285 95.419 100.286 95.3939C100.288 95.3688 100.297 95.3447 100.313 95.3252C100.329 95.3056 100.35 95.2915 100.374 95.2849Z" fill="#263238"/>
<path d="M100.181 102.387C100.85 102.271 101.631 102.511 102.291 102.636C103.042 102.777 103.788 102.91 104.539 103.043C106.04 103.309 107.541 103.571 109.05 103.785C109.123 103.785 109.115 103.914 109.05 103.901C107.515 103.695 105.98 103.506 104.448 103.288C103.698 103.18 102.943 103.065 102.193 102.949C101.554 102.85 100.747 102.799 100.177 102.464C100.17 102.46 100.164 102.454 100.16 102.447C100.156 102.44 100.154 102.432 100.155 102.424C100.155 102.416 100.158 102.408 100.163 102.402C100.167 102.395 100.174 102.39 100.181 102.387Z" fill="#263238"/>
<path d="M104.508 83.903C102.952 84.1046 101.168 84.4477 100.16 85.7729C99.6938 86.335 99.4646 87.0563 99.5207 87.7842C99.6094 88.464 99.9527 89.0847 100.481 89.5211C99.8591 89.7216 99.3061 90.0935 98.8858 90.5942C98.4655 91.0949 98.195 91.7041 98.1055 92.3516C98.0793 92.6759 98.1203 93.002 98.2258 93.3097C98.3313 93.6174 98.4991 93.9 98.7187 94.14C98.9332 94.393 99.1776 94.616 99.4135 94.8476C99.6494 95.0792 99.911 95.2765 100.155 95.4781C99.8911 95.6845 99.643 95.9111 99.4135 96.1557C99.1561 96.4029 98.9247 96.676 98.723 96.9705C98.3056 97.554 98.0699 98.2477 98.0454 98.9647C98.0811 99.6772 98.329 100.363 98.7573 100.933C99.1055 101.523 99.5967 102.016 100.185 102.366C100.193 102.369 100.201 102.37 100.209 102.368C100.217 102.366 100.224 102.361 100.229 102.354C100.233 102.348 100.235 102.339 100.235 102.331C100.234 102.323 100.23 102.316 100.224 102.31C99.7612 101.887 99.3689 101.394 99.0618 100.847C98.6909 100.265 98.4876 99.591 98.4743 98.9004C98.5311 98.2455 98.7523 97.6156 99.1176 97.0691C99.2992 96.7728 99.4968 96.4864 99.7094 96.2114C99.9212 95.9865 100.119 95.7488 100.301 95.4995C100.301 95.4995 99.7909 94.9591 99.6108 94.7275C99.4306 94.496 99.2548 94.2472 99.0918 93.9942C98.7466 93.5139 98.5936 92.9219 98.663 92.3345C98.7642 91.7862 99.0133 91.2761 99.3835 90.8592C99.7437 90.4303 100.211 90.0915 100.589 89.6712C100.602 89.649 100.611 89.6242 100.615 89.5984C100.618 89.5726 100.617 89.5463 100.61 89.5211C99.7523 88.1831 99.8595 86.9136 100.777 85.923C101.245 85.4426 101.792 85.0465 102.394 84.7522C103.087 84.4371 103.804 84.1775 104.538 83.9759C104.568 83.9716 104.556 83.8987 104.508 83.903Z" fill="#263238"/>
<path d="M132.942 112.718C132.029 112.435 131.064 112.289 130.129 112.083C129.194 111.878 128.251 111.685 127.307 111.496C126.364 111.307 125.381 111.119 124.421 110.938C123.46 110.758 122.564 110.557 121.629 110.445C120.726 110.358 119.816 110.378 118.919 110.505C118.012 110.608 117.103 110.681 116.191 110.724C114.353 110.813 112.512 110.773 110.68 110.604C108.607 110.411 106.555 110.046 104.543 109.51C104.5 109.51 104.487 109.562 104.543 109.575C108.031 110.739 111.687 111.318 115.363 111.29C116.272 111.29 117.186 111.234 118.091 111.144C118.995 111.016 119.906 110.939 120.818 110.913C121.784 110.976 122.742 111.12 123.683 111.342C124.631 111.517 125.574 111.697 126.522 111.865C127.594 112.053 128.667 112.246 129.743 112.414C130.819 112.581 131.887 112.821 132.942 112.898C133.02 112.881 133.024 112.74 132.942 112.718Z" fill="#263238"/>
<path d="M146.263 94.7532C144.89 94.2857 143.441 93.9941 142.03 93.6553C140.619 93.3165 139.191 92.9905 137.771 92.6689C135.061 92.0556 132.316 91.5367 129.623 90.7862C128.915 90.5889 128.216 90.3573 127.526 90.1257C127.178 90.0014 126.84 89.8641 126.501 89.6969C126.162 89.5296 125.772 89.4267 125.437 89.268C125.399 89.2423 125.369 89.3023 125.407 89.328C125.677 89.4953 125.926 89.6969 126.205 89.8598C126.484 90.0228 126.822 90.1858 127.14 90.3316C127.72 90.5967 128.314 90.8301 128.92 91.0306C130.18 91.4595 131.493 91.7554 132.779 92.0556C135.61 92.7032 138.445 93.3422 141.284 93.9555C142.081 94.127 142.883 94.2986 143.685 94.4573C144.487 94.6159 145.362 94.8132 146.211 94.9076C146.231 94.9131 146.253 94.9107 146.271 94.9009C146.29 94.8911 146.304 94.8746 146.31 94.8548C146.317 94.835 146.316 94.8134 146.307 94.7945C146.298 94.7756 146.282 94.7608 146.263 94.7532Z" fill="#263238"/>
<path d="M141.798 89.5639L161.415 92.2315C161.415 92.2315 157.829 71.839 154.017 65.0844C150.256 58.4198 146.104 62.8243 144.522 70.8869C142.746 79.8244 141.798 89.5639 141.798 89.5639Z" fill="#37474F"/>
<path d="M159.943 89.2767C159.394 89.148 158.832 89.0665 158.284 88.9465C157.735 88.8264 157.207 88.7449 156.667 88.6591C155.565 88.4876 154.458 88.3332 153.352 88.1831C151.173 87.8829 148.999 87.5526 146.811 87.3253C145.568 87.1881 144.328 87.0037 143.085 86.8965C143.076 86.8965 143.067 86.9001 143.06 86.9065C143.054 86.913 143.05 86.9217 143.05 86.9308C143.05 86.9399 143.054 86.9486 143.06 86.9551C143.067 86.9615 143.076 86.9651 143.085 86.9651C145.25 87.4712 147.459 87.8486 149.655 88.2045C151.851 88.5605 154.012 88.895 156.199 89.1352C156.813 89.1995 157.426 89.281 158.043 89.311C158.661 89.341 159.309 89.3968 159.939 89.4096C159.957 89.4102 159.974 89.4037 159.987 89.3917C159.999 89.3796 160.007 89.3629 160.008 89.3453C160.008 89.3277 160.002 89.3105 159.99 89.2977C159.978 89.2848 159.961 89.2772 159.943 89.2767Z" fill="#263238"/>
<path d="M170.691 15.289C170.439 17.7016 169.522 19.9967 168.041 21.9183C166.561 23.8399 164.576 25.3123 162.307 26.1712C160.039 27.0302 157.576 27.2418 155.194 26.7825C152.813 26.3233 150.605 25.2112 148.819 23.5703L142.266 24.5353L145.546 18.87C144.794 17.0261 144.472 15.0349 144.605 13.0478C144.738 11.0607 145.322 9.13015 146.314 7.40286C147.305 5.67557 148.677 4.19707 150.325 3.0798C151.974 1.96253 153.856 1.23592 155.827 0.955218C157.799 0.674517 159.809 0.847126 161.703 1.45991C163.598 2.0727 165.329 3.10952 166.762 4.49154C168.196 5.87356 169.296 7.56437 169.978 9.43539C170.661 11.3064 170.907 13.3084 170.699 15.289H170.691Z" fill="white"/>
<path d="M170.691 15.289C170.44 17.7034 169.526 20.0011 168.049 21.9278C167.324 22.8976 166.457 23.7521 165.476 24.4624C163.528 25.9249 161.215 26.824 158.79 27.0613C158.186 27.1178 157.578 27.1293 156.972 27.0956C156.364 27.0823 155.759 27.0192 155.162 26.9069C152.747 26.4646 150.503 25.3582 148.682 23.7119L148.836 23.7591L142.296 24.7626L141.82 24.8355L142.06 24.4066L145.319 18.7328V18.9558C144.367 16.6123 144.105 14.0453 144.565 11.5578C145.024 9.07036 146.186 6.76625 147.912 4.91753C149.639 3.06882 151.858 1.75268 154.308 1.1245C156.759 0.496315 159.338 0.58232 161.741 1.37236C163.633 2.01533 165.358 3.07327 166.788 4.46876C168.216 5.85871 169.309 7.55501 169.986 9.42949C170.662 11.304 170.903 13.3076 170.691 15.289ZM170.691 15.289C170.898 13.3185 170.649 11.3269 169.966 9.46743C169.282 7.60793 168.18 5.93012 166.746 4.56311C165.312 3.1961 163.583 2.17632 161.693 1.58226C159.803 0.988206 157.802 0.835703 155.844 1.13648C153.9 1.42924 152.048 2.16271 150.431 3.2808C148.83 4.40857 147.494 5.87214 146.516 7.56944C145.55 9.26709 144.981 11.1614 144.852 13.1104C144.733 15.0565 145.048 17.0047 145.774 18.8143L145.821 18.9343L145.761 19.0416L142.463 24.694L142.227 24.3466L148.785 23.4288H148.875L148.939 23.4889C150.691 25.126 152.863 26.2441 155.213 26.7182C155.798 26.8383 156.392 26.9114 156.989 26.9369C157.586 26.9777 158.185 26.9777 158.781 26.9369C159.977 26.8437 161.153 26.5839 162.277 26.165C163.409 25.7528 164.475 25.1747 165.437 24.4495C165.922 24.0947 166.383 23.7093 166.818 23.2959C167.243 22.8702 167.641 22.419 168.011 21.945C169.503 20.0175 170.431 17.7131 170.691 15.289Z" fill="#263238"/>
<path d="M151.264 20.0451C151.255 19.8711 151.283 19.6973 151.344 19.5343C151.405 19.3712 151.498 19.2221 151.619 19.0962C151.739 18.9703 151.883 18.8702 152.044 18.8018C152.204 18.7334 152.376 18.6982 152.55 18.6984C152.907 18.6984 153.25 18.8403 153.502 19.0928C153.755 19.3454 153.897 19.6879 153.897 20.0451C153.897 20.4022 153.755 20.7447 153.502 20.9973C153.25 21.2498 152.907 21.3917 152.55 21.3917C152.376 21.3919 152.204 21.3567 152.044 21.2883C151.883 21.22 151.739 21.1198 151.619 20.9939C151.498 20.868 151.405 20.719 151.344 20.5559C151.283 20.3928 151.255 20.219 151.264 20.0451ZM151.808 16.9401L151.504 6.5144H153.588L153.266 16.9272L151.808 16.9401Z" fill="#719FFF"/>
<path d="M156.268 20.0451C156.26 19.8711 156.288 19.6973 156.349 19.5343C156.41 19.3712 156.503 19.2221 156.623 19.0962C156.744 18.9703 156.888 18.8702 157.048 18.8018C157.209 18.7334 157.381 18.6982 157.555 18.6984C157.912 18.6984 158.255 18.8403 158.507 19.0928C158.76 19.3454 158.902 19.6879 158.902 20.0451C158.902 20.4022 158.76 20.7447 158.507 20.9973C158.255 21.2498 157.912 21.3917 157.555 21.3917C157.381 21.3919 157.209 21.3567 157.048 21.2883C156.888 21.22 156.744 21.1198 156.623 20.9939C156.503 20.868 156.41 20.719 156.349 20.5559C156.288 20.3928 156.26 20.219 156.268 20.0451ZM156.813 16.9401L156.509 6.5144H158.593L158.288 16.9401H156.813Z" fill="#719FFF"/>
<path d="M161.256 20.0451C161.248 19.8711 161.275 19.6973 161.336 19.5343C161.397 19.3712 161.49 19.2221 161.611 19.0962C161.731 18.9703 161.876 18.8702 162.036 18.8018C162.196 18.7334 162.368 18.6982 162.542 18.6984C162.9 18.6984 163.242 18.8403 163.495 19.0928C163.747 19.3454 163.889 19.6879 163.889 20.0451C163.889 20.4022 163.747 20.7447 163.495 20.9973C163.242 21.2498 162.9 21.3917 162.542 21.3917C162.368 21.3919 162.196 21.3567 162.036 21.2883C161.876 21.22 161.731 21.1198 161.611 20.9939C161.49 20.868 161.397 20.719 161.336 20.5559C161.275 20.3928 161.248 20.219 161.256 20.0451ZM161.8 16.9401L161.496 6.5144H163.58L163.276 16.9401H161.8Z" fill="#719FFF"/>
</g>
<defs>
<filter id="filter0_d_883_75286" x="0" y="0" width="201.89" height="145.243" filterUnits="userSpaceOnUse" color-interpolation-filters="sRGB">
<feFlood flood-opacity="0" result="BackgroundImageFix"/>
<feColorMatrix in="SourceAlpha" type="matrix" values="0 0 0 0 0 0 0 0 0 0 0 0 0 0 0 0 0 0 127 0" result="hardAlpha"/>
<feOffset dy="4"/>
<feGaussianBlur stdDeviation="2"/>
<feComposite in2="hardAlpha" operator="out"/>
<feColorMatrix type="matrix" values="0 0 0 0 0 0 0 0 0 0 0 0 0 0 0 0 0 0 0.15 0"/>
<feBlend mode="normal" in2="BackgroundImageFix" result="effect1_dropShadow_883_75286"/>
<feBlend mode="normal" in="SourceGraphic" in2="effect1_dropShadow_883_75286" result="shape"/>
</filter>
</defs>
</svg>
