<svg width="32" height="32" viewBox="0 0 32 32" fill="none" xmlns="http://www.w3.org/2000/svg">
<path d="M27.3263 5.94558L20.0007 27.1085C19.9317 27.3078 19.8015 27.4802 19.6287 27.601C19.4558 27.7218 19.2492 27.7849 19.0384 27.7812C18.8275 27.7776 18.6232 27.7074 18.4547 27.5806C18.2861 27.4538 18.162 27.277 18.0999 27.0755L15.1555 17.506C15.1075 17.3501 15.0222 17.2083 14.9068 17.093C14.7915 16.9777 14.6497 16.8923 14.4938 16.8443L4.92434 13.8999C4.72278 13.8379 4.54598 13.7137 4.41923 13.5452C4.29247 13.3766 4.22224 13.1723 4.21858 12.9615C4.21491 12.7506 4.278 12.544 4.39883 12.3712C4.51965 12.1983 4.69203 12.0681 4.89131 11.9991L26.0542 4.67348C26.2316 4.6121 26.4226 4.60185 26.6055 4.64392C26.7884 4.68598 26.9558 4.77866 27.0885 4.91136C27.2212 5.04406 27.3138 5.21142 27.3559 5.39431C27.398 5.5772 27.3877 5.76824 27.3263 5.94558V5.94558Z" stroke="#313952" stroke-width="2" stroke-linecap="round" stroke-linejoin="round"/>
</svg>
