<svg width="32" height="32" viewBox="0 0 32 32" fill="none" xmlns="http://www.w3.org/2000/svg">
<path d="M14.6667 21.0834C18.2105 21.0834 21.0833 18.2106 21.0833 14.6667C21.0833 11.1229 18.2105 8.25006 14.6667 8.25006C11.1228 8.25006 8.25 11.1229 8.25 14.6667C8.25 18.2106 11.1228 21.0834 14.6667 21.0834Z" stroke="#313952" stroke-width="2" stroke-linecap="round" stroke-linejoin="round"/>
<path d="M6.39249 20.5022L6.25535 22.6294C6.2455 22.7658 6.26583 22.9026 6.31489 23.0302C6.36395 23.1577 6.44054 23.2729 6.53919 23.3675C7.85762 24.6181 9.45305 25.5392 11.1953 26.0557C11.3265 26.0938 11.4646 26.1025 11.5996 26.0813C11.7346 26.06 11.8632 26.0092 11.9764 25.9325L13.75 24.7501H15.5833L17.357 25.9325C17.4701 26.0092 17.5988 26.06 17.7338 26.0813C17.8688 26.1026 18.0068 26.0939 18.1381 26.0557C19.8803 25.5392 21.4757 24.6181 22.7941 23.3675C22.8928 23.2729 22.9694 23.1578 23.0184 23.0302C23.0675 22.9026 23.0878 22.7658 23.078 22.6295L22.9409 20.5023L23.8575 18.9146L25.7683 17.9698C25.8913 17.9101 25.9996 17.8241 26.0856 17.7179C26.1715 17.6116 26.233 17.4877 26.2656 17.3549C26.6894 15.5879 26.6894 13.7456 26.2656 11.9786C26.233 11.8458 26.1715 11.7219 26.0856 11.6156C25.9996 11.5094 25.8913 11.4233 25.7683 11.3637L23.8576 10.4189L22.9409 8.83117L23.0781 6.70394C23.0879 6.56762 23.0676 6.4308 23.0185 6.30324C22.9695 6.17567 22.8929 6.06049 22.7942 5.96589C21.4758 4.71534 19.8804 3.79422 18.1381 3.27773C18.0069 3.23958 17.8689 3.23085 17.7339 3.25214C17.5989 3.27343 17.4702 3.32423 17.3571 3.40091L15.5835 4.58325H13.7501L11.9765 3.40086C11.8633 3.32417 11.7347 3.27337 11.5997 3.25208C11.4647 3.23078 11.3266 3.23951 11.1954 3.27765C9.45314 3.79416 7.85772 4.71529 6.5393 5.96587C6.44064 6.06046 6.36406 6.17564 6.31499 6.3032C6.26593 6.43077 6.24559 6.56758 6.25544 6.7039L6.39256 8.83106L5.4759 10.4188L3.56509 11.3636C3.44211 11.4233 3.33379 11.5093 3.24785 11.6155C3.1619 11.7218 3.10044 11.8457 3.06785 11.9785C2.64404 13.7455 2.64405 15.5878 3.06787 17.3548C3.10046 17.4876 3.16191 17.6115 3.24786 17.7178C3.3338 17.824 3.44211 17.9101 3.56509 17.9697L5.47583 18.9145L6.39249 20.5022Z" stroke="#313952" stroke-width="2" stroke-miterlimit="10"/>
</svg>
