<svg width="23" height="22" viewBox="0 0 23 22" fill="none" xmlns="http://www.w3.org/2000/svg">
<path d="M4.4375 5.5H19.4263C19.527 5.5 19.6265 5.52212 19.7177 5.56479C19.8089 5.60747 19.8896 5.66965 19.9541 5.74696C20.0186 5.82426 20.0654 5.9148 20.0911 6.01216C20.1168 6.10953 20.1207 6.21134 20.1027 6.31042L18.6036 14.5604C18.5748 14.7188 18.4913 14.8621 18.3677 14.9653C18.2441 15.0685 18.0882 15.125 17.9272 15.125H6.768C6.60706 15.125 6.45122 15.0685 6.32762 14.9654C6.20403 14.8624 6.12053 14.7192 6.09165 14.5608L3.91538 2.62666C3.88651 2.46833 3.803 2.32515 3.67941 2.22206C3.55582 2.11896 3.39998 2.0625 3.23903 2.0625H1.6875" stroke="#777F96" stroke-width="2" stroke-linecap="round" stroke-linejoin="round"/>
<path d="M7.1875 19.9375C7.94689 19.9375 8.5625 19.3219 8.5625 18.5625C8.5625 17.8031 7.94689 17.1875 7.1875 17.1875C6.42811 17.1875 5.8125 17.8031 5.8125 18.5625C5.8125 19.3219 6.42811 19.9375 7.1875 19.9375Z" fill="#777F96"/>
<path d="M17.5 19.9375C18.2594 19.9375 18.875 19.3219 18.875 18.5625C18.875 17.8031 18.2594 17.1875 17.5 17.1875C16.7406 17.1875 16.125 17.8031 16.125 18.5625C16.125 19.3219 16.7406 19.9375 17.5 19.9375Z" fill="#777F96"/>
</svg>
