<svg width="323" height="277" viewBox="0 0 323 277" fill="none" xmlns="http://www.w3.org/2000/svg">
<g filter="url(#filter0_d_316_7108)">
<path d="M302.678 135.284C302.678 135.284 302.678 131.514 297.137 126.289C291.596 121.064 288.082 118.033 288.082 118.033C288.082 118.033 285.327 126.659 290.456 131.914C294.222 135.605 298.305 138.989 302.662 142.032L302.678 135.284Z" fill="#719FFF"/>
<path d="M294.687 158.702C294.687 158.702 294.687 154.932 289.146 149.707C283.605 144.482 280.106 141.451 280.106 141.451C280.106 141.451 277.344 150.077 282.481 155.332C286.247 159.023 290.329 162.407 294.687 165.45V158.702Z" fill="#719FFF"/>
<path d="M302.334 141.67C302.334 141.67 302.753 137.946 308.816 133.279C314.88 128.612 318.735 125.988 318.735 125.988C318.735 125.988 320.516 134.839 314.848 139.559C310.695 142.851 306.26 145.807 301.59 148.396L302.334 141.67Z" fill="#719FFF"/>
<path d="M292.678 169.326C292.678 169.326 293.469 165.661 300.047 161.628C306.625 157.594 310.709 155.37 310.709 155.37C310.709 155.37 311.501 164.357 305.351 168.466C300.857 171.325 296.12 173.822 291.19 175.93L292.678 169.326Z" fill="#719FFF"/>
<path d="M294.487 199.484C294.487 199.484 294.487 195.714 300.028 190.481C305.569 185.249 309.075 182.233 309.075 182.233C309.075 182.233 311.838 190.858 306.7 196.106C302.937 199.801 298.854 203.188 294.495 206.232L294.487 199.484Z" fill="#719FFF"/>
<path d="M294.401 206.843C294.401 206.843 294.955 203.133 290.285 197.192C285.615 191.251 282.552 187.797 282.552 187.797C282.552 187.797 278.538 195.963 282.821 201.851C285.995 206.016 289.53 209.92 293.388 213.523L294.401 206.843Z" fill="#719FFF"/>
<path d="M288.961 228.655C288.961 228.655 288.961 224.885 294.502 219.66C300.043 214.435 303.557 211.404 303.557 211.404C303.557 211.404 306.312 220.029 301.182 225.284C297.416 228.976 293.333 232.363 288.977 235.41L288.961 228.655Z" fill="#719FFF"/>
<path d="M292.641 248.432C292.641 248.432 291.644 244.806 295.578 238.397C299.512 231.988 302.148 228.233 302.148 228.233C302.148 228.233 307.103 235.909 303.549 242.227C300.89 246.706 297.843 250.966 294.438 254.962L292.641 248.432Z" fill="#719FFF"/>
<path d="M303.18 134.326C302.903 138.23 302.401 142.116 301.676 145.967C299.491 156.689 294.045 163.61 291.869 173.291C289.692 182.972 295.945 195.45 294.243 207.891C292.541 220.331 287.491 227.245 288.94 235.546C290.388 243.847 298.019 266.331 298.019 266.331" stroke="#263238" stroke-linecap="round" stroke-linejoin="round"/>
<path d="M302.285 144.166L308.221 139.823" stroke="#263238" stroke-linecap="round" stroke-linejoin="round"/>
<path d="M302.561 139.167L300.068 134.952" stroke="#263238" stroke-linecap="round" stroke-linejoin="round"/>
<path d="M292.198 172.847C292.198 172.847 297.169 169.296 302.283 165.745" stroke="#263238" stroke-linecap="round" stroke-linejoin="round"/>
<path d="M294.686 165.45C294.686 165.45 290.538 157.714 285.844 152.587" stroke="#263238" stroke-linecap="round" stroke-linejoin="round"/>
<path d="M294.684 204.822C297.519 199.831 301.103 195.259 305.322 191.251" stroke="#263238" stroke-linecap="round" stroke-linejoin="round"/>
<path d="M293.719 210.085C292.21 206.7 290.407 203.442 288.328 200.344C285.431 196.265 285.012 195.737 285.012 195.737" stroke="#263238" stroke-linecap="round" stroke-linejoin="round"/>
<path d="M288.961 235.546C290.223 232.574 291.721 229.698 293.441 226.943C295.163 224.382 297.103 221.962 299.243 219.705" stroke="#263238" stroke-linecap="round" stroke-linejoin="round"/>
<path d="M294.442 254.961C294.153 252.12 294.667 249.257 295.93 246.668C298.004 242.853 300.347 237.854 301.313 235.878" stroke="#263238" stroke-linecap="round" stroke-linejoin="round"/>
<path d="M257.706 185.385C257.706 185.385 257.278 183.033 260.136 179.165C262.993 175.297 264.885 173.058 264.885 173.058C264.885 173.058 267.592 178.185 264.98 182C263.04 184.706 260.866 187.253 258.481 189.615L257.706 185.385Z" fill="#719FFF"/>
<path d="M265.389 199.242C265.389 199.242 264.961 196.89 267.819 193.022C270.676 189.154 272.568 186.915 272.568 186.915C272.568 186.915 275.275 192.042 272.663 195.865C270.722 198.567 268.548 201.112 266.165 203.472L265.389 199.242Z" fill="#719FFF"/>
<path d="M258.646 189.351C258.646 189.351 257.965 187.089 253.627 184.759C249.289 182.429 246.582 181.208 246.582 181.208C246.582 181.208 246.471 186.946 250.54 189.313C253.519 190.947 256.635 192.341 259.857 193.483L258.646 189.351Z" fill="#719FFF"/>
<path d="M267.858 205.696C267.858 205.696 266.924 203.48 262.365 201.625C257.806 199.77 254.956 198.805 254.956 198.805C254.956 198.805 255.478 204.52 259.816 206.465C262.959 207.792 266.214 208.866 269.544 209.677L267.858 205.696Z" fill="#719FFF"/>
<path d="M270.156 224.795C270.156 224.795 269.736 222.443 265.676 219.721C261.615 216.999 259.058 215.483 259.058 215.483C259.058 215.483 258.314 221.176 262.122 223.935C264.903 225.865 267.85 227.567 270.932 229.025L270.156 224.795Z" fill="#719FFF"/>
<path d="M271.058 229.401C271.058 229.401 270.267 227.139 272.539 222.917C274.81 218.695 276.314 216.229 276.314 216.229C276.314 216.229 279.758 220.934 277.747 225.074C276.232 228.012 274.461 230.824 272.452 233.48L271.058 229.401Z" fill="#719FFF"/>
<path d="M277.978 248.364C277.978 248.364 278.263 245.997 282.149 243.086C286.036 240.176 288.482 238.495 288.482 238.495C288.482 238.495 289.566 244.142 285.933 247.105C283.272 249.179 280.433 251.038 277.447 252.662L277.978 248.364Z" fill="#719FFF"/>
<path d="M276.937 242.513C276.937 242.513 276.51 240.16 272.457 237.438C268.404 234.717 265.856 233.201 265.856 233.201C265.856 233.201 265.111 238.894 268.919 241.661C271.702 243.587 274.649 245.289 277.729 246.75L276.937 242.513Z" fill="#719FFF"/>
<path d="M276.935 255.3C276.935 255.3 277.141 252.918 273.943 249.306C270.745 245.695 268.671 243.614 268.671 243.614C268.671 243.614 266.431 248.937 269.384 252.533C271.548 255.066 273.931 257.421 276.508 259.575L276.935 255.3Z" fill="#719FFF"/>
<path d="M257.283 184.827C257.903 187.247 258.661 189.633 259.555 191.974C262.143 198.473 266.347 202.251 268.816 208.094C271.286 213.937 268.816 222.419 271.254 230.042C273.692 237.665 277.729 241.48 277.729 246.833C277.729 252.186 275.544 267.077 275.544 267.077" stroke="#263238" stroke-linecap="round" stroke-linejoin="round"/>
<path d="M258.972 190.904L254.753 188.8" stroke="#263238" stroke-linecap="round" stroke-linejoin="round"/>
<path d="M258.229 187.798L259.305 184.902" stroke="#263238" stroke-linecap="round" stroke-linejoin="round"/>
<path d="M268.555 207.853C268.555 207.853 265.033 206.142 261.431 204.438" stroke="#263238" stroke-linecap="round" stroke-linejoin="round"/>
<path d="M266.156 203.472C267.194 200.365 268.56 197.367 270.232 194.522" stroke="#263238" stroke-linecap="round" stroke-linejoin="round"/>
<path d="M270.644 228.157C268.295 225.326 265.528 222.835 262.428 220.761" stroke="#263238" stroke-linecap="round" stroke-linejoin="round"/>
<path d="M271.848 231.354C272.411 229.079 273.171 226.852 274.119 224.696C275.473 221.839 275.703 221.462 275.703 221.462" stroke="#263238" stroke-linecap="round" stroke-linejoin="round"/>
<path d="M277.54 250.898C278.912 249.278 280.433 247.776 282.083 246.412C283.133 245.675 284.118 244.858 285.028 243.969" stroke="#263238" stroke-linecap="round" stroke-linejoin="round"/>
<path d="M277.729 246.833C276.598 245.095 275.331 243.442 273.938 241.887C272.566 240.46 271.072 239.144 269.473 237.951" stroke="#263238" stroke-linecap="round" stroke-linejoin="round"/>
<path d="M276.512 259.575C276.37 257.762 275.722 256.018 274.636 254.524C272.902 252.345 270.86 249.45 270.029 248.311" stroke="#263238" stroke-linecap="round" stroke-linejoin="round"/>
<path d="M32.8745 152.543L29.4074 143.111L32.8745 147.114L30.1515 132.962L34.3626 143.111L35.8507 123.289L38.3283 142.161L41.0513 138.391V143.111L44.2729 136.74L42.5394 147.823L45.5077 145.938L40.8059 152.068L32.8745 152.543Z" fill="#719FFF"/>
<path d="M43.7768 150.184H30.8981L33.2174 174.951H41.4575L43.7768 150.184Z" fill="#263238" stroke="#263238" stroke-linecap="round" stroke-linejoin="round"/>
<path d="M67.9339 174.671H24.0578V263.187H67.9339V174.671Z" fill="white" stroke="#263238" stroke-linecap="round" stroke-linejoin="round"/>
<path d="M70.3299 174.671H45.9895V263.187H70.3299V174.671Z" fill="white" stroke="#263238" stroke-linecap="round" stroke-linejoin="round"/>
<path d="M67.5911 174.671H45.9895V263.187H67.5911V174.671Z" fill="#263238" stroke="#263238" stroke-linecap="round" stroke-linejoin="round"/>
<path d="M65.1611 242.604H45.9895V260.73H65.1611V242.604Z" fill="#719FFF" stroke="#263238" stroke-linecap="round" stroke-linejoin="round"/>
<path d="M65.1611 243.585H45.9895V245.907H65.1611V243.585Z" fill="white" stroke="#263238" stroke-linecap="round" stroke-linejoin="round"/>
<path d="M65.1611 256.93H45.9895V259.252H65.1611V256.93Z" fill="white" stroke="#263238" stroke-linecap="round" stroke-linejoin="round"/>
<path d="M49.6229 242.982V265.903" stroke="#263238" stroke-linecap="round" stroke-linejoin="round"/>
<path d="M56.3156 242.982V265.903" stroke="#263238" stroke-linecap="round" stroke-linejoin="round"/>
<path d="M62.1881 242.982V265.903" stroke="#263238" stroke-linecap="round" stroke-linejoin="round"/>
<path d="M65.1611 177.959H45.9895V204.612H65.1611V177.959Z" fill="#719FFF" stroke="#263238" stroke-linecap="round" stroke-linejoin="round"/>
<path d="M65.1611 179.075H45.9895V181.714H65.1611V179.075Z" fill="white" stroke="#263238" stroke-linecap="round" stroke-linejoin="round"/>
<path d="M65.1611 196.16H45.9895V198.799H65.1611V196.16Z" fill="white" stroke="#263238" stroke-linecap="round" stroke-linejoin="round"/>
<path d="M49.6229 178.381V204.431" stroke="#263238" stroke-linecap="round" stroke-linejoin="round"/>
<path d="M56.3156 178.381V204.431" stroke="#263238" stroke-linecap="round" stroke-linejoin="round"/>
<path d="M62.1881 178.381V204.431" stroke="#263238" stroke-linecap="round" stroke-linejoin="round"/>
<path d="M65.1611 210.078H45.9895V236.731H65.1611V210.078Z" fill="#719FFF" stroke="#263238" stroke-linecap="round" stroke-linejoin="round"/>
<path d="M65.1611 211.195H45.9895V213.834H65.1611V211.195Z" fill="white" stroke="#263238" stroke-linecap="round" stroke-linejoin="round"/>
<path d="M65.1611 228.279H45.9895V230.918H65.1611V228.279Z" fill="white" stroke="#263238" stroke-linecap="round" stroke-linejoin="round"/>
<path d="M49.6229 210.508V236.55" stroke="#263238" stroke-linecap="round" stroke-linejoin="round"/>
<path d="M56.3156 210.508V236.55" stroke="#263238" stroke-linecap="round" stroke-linejoin="round"/>
<path d="M62.1881 210.508V236.55" stroke="#263238" stroke-linecap="round" stroke-linejoin="round"/>
<path d="M67.9236 204.243H45.9895V207.274H67.9236V204.243Z" fill="white" stroke="#263238" stroke-linecap="round" stroke-linejoin="round"/>
<path d="M67.9236 236.565H45.9895V239.596H67.9236V236.565Z" fill="white" stroke="#263238" stroke-linecap="round" stroke-linejoin="round"/>
<path d="M67.9273 174.671V263.18" stroke="#263238" stroke-linecap="round" stroke-linejoin="round"/>
<path d="M42.8994 174.672V263.181H45.9944V177.96H67.5486V174.635L42.8994 174.672Z" fill="white" stroke="#263238" stroke-linecap="round" stroke-linejoin="round"/>
<path d="M45.9895 177.959V174.671" stroke="#263238" stroke-linecap="round" stroke-linejoin="round"/>
<path d="M67.7632 134.01C65.4597 129.78 64.494 126.749 64.494 126.048C64.494 124.661 67.6603 123.832 67.6603 123.832C72.5996 121.344 95.8319 124.94 106.288 126.599C112.142 127.571 118.063 128.125 124.003 128.257C124.003 128.257 125.452 127.157 127.17 125.769C128.887 124.382 137.04 115.259 140.238 114.46C143.436 113.661 146.333 115.568 146.333 115.568C146.333 115.568 151.566 118.584 150.687 119.165C149.808 119.745 137.04 130.225 133.843 132.163C130.645 134.101 123.972 133.271 118.162 134.38C113.159 135.33 92.8952 136.506 88.2487 136.868C84.7592 137.656 81.0968 137.366 77.7922 136.038" fill="white"/>
<mask id="mask0_316_7108" style="mask-type:luminance" maskUnits="userSpaceOnUse" x="64" y="114" width="87" height="24">
<path d="M67.7658 134.01C65.4623 129.78 64.4966 126.749 64.4966 126.048C64.4966 124.661 67.6629 123.832 67.6629 123.832C72.6022 121.344 95.8345 124.94 106.291 126.599C112.144 127.571 118.066 128.125 124.006 128.257C124.006 128.257 125.455 127.157 127.172 125.769C128.89 124.382 137.043 115.259 140.241 114.46C143.439 113.661 146.336 115.568 146.336 115.568C146.336 115.568 151.568 118.584 150.69 119.165C149.811 119.745 137.043 130.225 133.845 132.163C130.647 134.101 123.974 133.271 118.164 134.38C113.162 135.33 92.8978 136.506 88.2513 136.868C84.7618 137.656 81.0994 137.366 77.7948 136.038" fill="white"/>
</mask>
<g mask="url(#mask0_316_7108)">
<path d="M146.39 115.538C146.39 115.538 143.485 113.601 140.295 114.43C137.105 115.259 128.968 124.39 127.226 125.74C125.485 127.089 124.06 128.228 124.06 128.228C118.12 128.095 112.199 127.541 106.345 126.569C95.8885 124.91 72.6563 121.291 67.7169 123.802C67.7169 123.802 64.5507 124.631 64.5507 126.019C64.6607 126.794 64.8707 127.554 65.176 128.28L65.6114 128.431C65.6114 128.431 71.4135 127.851 83.936 128.137C96.4585 128.424 125.422 130.06 127.282 130.701C128.073 130.987 133.686 129.781 139.907 127.685C144.657 123.998 150.237 119.391 150.799 119.067C151.622 118.577 146.39 115.538 146.39 115.538Z" fill="#719FFF"/>
<path opacity="0.5" d="M146.39 115.538C146.39 115.538 143.485 113.601 140.295 114.43C137.105 115.259 128.968 124.39 127.226 125.74C125.485 127.089 124.06 128.228 124.06 128.228C118.12 128.095 112.199 127.541 106.345 126.569C95.8885 124.91 72.6563 121.291 67.7169 123.802C67.7169 123.802 64.5507 124.631 64.5507 126.019C64.6607 126.794 64.8707 127.554 65.176 128.28L65.6114 128.431C65.6114 128.431 71.4135 127.851 83.936 128.137C96.4585 128.424 125.422 130.06 127.282 130.701C128.073 130.987 133.686 129.781 139.907 127.685C144.657 123.998 150.237 119.391 150.799 119.067C151.622 118.577 146.39 115.538 146.39 115.538Z" fill="white"/>
</g>
<path d="M67.7632 134.01C65.4597 129.78 64.494 126.749 64.494 126.048C64.494 124.661 67.6603 123.832 67.6603 123.832C72.5996 121.344 95.8319 124.94 106.288 126.599C112.142 127.571 118.063 128.125 124.003 128.257C124.003 128.257 125.452 127.157 127.17 125.769C128.887 124.382 137.04 115.259 140.238 114.46C143.436 113.661 146.333 115.568 146.333 115.568C146.333 115.568 151.566 118.584 150.687 119.165C149.808 119.745 137.04 130.225 133.843 132.163C130.645 134.101 123.972 133.271 118.162 134.38C113.159 135.33 92.8952 136.506 88.2487 136.868C84.7592 137.656 81.0968 137.366 77.7922 136.038" stroke="#263238" stroke-linecap="round" stroke-linejoin="round"/>
<path d="M182.468 158.605C182.993 157.655 183.781 156.86 184.747 156.306C185.712 155.752 186.818 155.46 187.945 155.461H240.742C240.742 155.461 244.558 155.461 243.418 162.367C242.278 169.274 226.621 211.443 222.837 224.193C219.054 236.942 218.254 263.813 218.254 263.813H154.929C154.929 263.813 159.948 199.553 182.468 158.605Z" fill="white"/>
<mask id="mask1_316_7108" style="mask-type:luminance" maskUnits="userSpaceOnUse" x="154" y="155" width="90" height="109">
<path d="M182.467 158.606C182.993 157.656 183.781 156.861 184.746 156.307C185.712 155.753 186.818 155.461 187.945 155.462H240.742C240.742 155.462 244.557 155.462 243.417 162.368C242.277 169.275 226.62 211.444 222.837 224.194C219.053 236.943 218.254 263.814 218.254 263.814H154.929C154.929 263.814 159.947 199.554 182.467 158.606Z" fill="white"/>
</mask>
<g mask="url(#mask1_316_7108)">
<path opacity="0.16" d="M206.247 155.462H187.946C186.819 155.461 185.713 155.753 184.747 156.307C183.782 156.861 182.994 157.656 182.469 158.606C159.949 199.554 154.875 263.792 154.875 263.792H183.276L190.281 238.451L219.49 244.189C219.696 242.063 219.933 239.899 220.21 237.765L219.569 230.979C219.569 230.979 213.585 224.985 211.701 223.485C209.817 221.984 211.068 219.278 210.751 207.584C210.434 195.89 199.416 187.483 195.316 180.282C191.215 173.082 197.524 168.581 203.192 161.381C205.21 158.779 206.033 156.864 206.247 155.462Z" fill="black"/>
</g>
<path d="M182.468 158.605C182.993 157.655 183.781 156.86 184.747 156.306C185.712 155.752 186.818 155.46 187.945 155.461H240.742C240.742 155.461 244.558 155.461 243.418 162.367C242.278 169.274 226.621 211.443 222.837 224.193C219.054 236.942 218.254 263.814 218.254 263.814H154.929C154.929 263.814 159.948 199.553 182.468 158.605Z" stroke="#263238" stroke-linecap="round" stroke-linejoin="round"/>
<path d="M231.585 167.456C226.25 179.316 214.962 226.265 213.125 263.79H218.223C218.223 263.79 219.015 236.889 222.806 224.169C226.598 211.45 242.271 169.273 243.387 162.344C244.503 155.415 240.711 155.438 240.711 155.438C240.711 155.438 235.867 157.948 231.585 167.456Z" fill="#263238" stroke="#263238" stroke-linecap="round" stroke-linejoin="round"/>
<path d="M138.838 143.752C138.838 143.752 130.416 139.047 127.226 130.753C124.036 122.46 152.199 109.175 164.429 108.346C176.658 107.516 180.11 110.555 187.384 122.452C194.659 134.35 199.582 150.666 195.806 158.688C192.031 166.71 185.643 168.648 190.265 175.275C194.888 181.903 207.98 200.722 207.11 209.573C206.239 218.425 197.239 226.16 184.155 227.005C171.07 227.849 153.656 220.362 139.139 208.156C124.621 195.949 128.389 177.997 133.598 172.191C138.806 166.386 146.666 164.169 147.244 158.364C147.822 152.558 138.838 143.752 138.838 143.752Z" fill="#263238" stroke="#263238" stroke-linecap="round" stroke-linejoin="round"/>
<path d="M174.733 130.625C179.205 138.556 184.801 149.18 186.551 155.596C189.606 166.83 173.886 173.902 178.247 179.308" stroke="white" stroke-linecap="round" stroke-linejoin="round"/>
<path d="M168.637 120.235C168.637 120.235 170.378 123.063 172.785 127.225" stroke="white" stroke-linecap="round" stroke-linejoin="round"/>
<path d="M192.1 140.192C192.616 141.679 192.951 143.217 193.097 144.776" stroke="white" stroke-linecap="round" stroke-linejoin="round"/>
<path d="M171.663 116.112C171.663 116.112 185.421 125.793 190.914 137.381" stroke="white" stroke-linecap="round" stroke-linejoin="round"/>
<path d="M152.569 123.372C142.746 125.996 128.617 130.256 129.764 132.714" stroke="white" stroke-linecap="round" stroke-linejoin="round"/>
<path d="M161.651 121.065C161.651 121.065 159.553 121.563 156.426 122.362" stroke="white" stroke-linecap="round" stroke-linejoin="round"/>
<path d="M149.502 116.179C155.129 114.49 161.022 113.75 166.916 113.993" stroke="white" stroke-linecap="round" stroke-linejoin="round"/>
<path d="M145.495 117.74C146.385 117.298 147.305 116.915 148.25 116.594" stroke="white" stroke-linecap="round" stroke-linejoin="round"/>
<path d="M67.7618 134.011C66.4286 131.685 65.3668 129.228 64.5955 126.682C65.3631 129.229 66.425 131.687 67.7618 134.011ZM64.5085 126.252C64.5085 126.298 64.5085 126.35 64.5085 126.418C64.5243 126.35 64.5164 126.298 64.5085 126.252ZM67.7618 134.003C70.7222 139.344 74.4053 144.292 78.7169 148.721C89.1734 159.51 119.379 187.731 122.253 189.669C125.126 191.606 124.287 197.133 122.253 202.667C120.218 208.201 112.667 216.238 112.96 225.075C113.253 233.911 116.126 247.483 115.865 250.25C115.604 253.017 108.337 262.426 108.337 262.426H183.266C183.266 262.426 173.926 251.117 173.926 247.249C173.926 243.381 186.749 193.823 187.327 190.226C187.905 186.63 185.585 184.142 180.939 183.863C176.292 183.584 158.577 179.988 157.707 177.221C156.836 174.453 162.353 163.943 162.353 163.943L144.939 164.773C144.939 164.773 144.068 171.965 142.904 173.353C141.741 174.74 139.999 171.965 135.931 170.035C131.862 168.105 124.057 166.439 121.121 164.222C118.184 162.006 90.337 137.079 90.337 137.079" fill="white"/>
<mask id="mask2_316_7108" style="mask-type:luminance" maskUnits="userSpaceOnUse" x="64" y="126" width="124" height="137">
<path d="M67.7656 134.011C66.4325 131.685 65.3707 129.228 64.5994 126.682C65.367 129.229 66.4289 131.687 67.7656 134.011ZM64.5123 126.252C64.5123 126.298 64.5123 126.35 64.5123 126.418C64.5282 126.35 64.5203 126.298 64.5123 126.252ZM67.7656 134.003C70.7261 139.344 74.4092 144.292 78.7208 148.721C89.1773 159.51 119.383 187.731 122.257 189.669C125.13 191.606 124.291 197.133 122.257 202.667C120.222 208.201 112.671 216.238 112.964 225.075C113.257 233.911 116.13 247.483 115.869 250.25C115.607 253.017 108.341 262.426 108.341 262.426H183.27C183.27 262.426 173.93 251.117 173.93 247.249C173.93 243.381 186.753 193.823 187.331 190.226C187.909 186.63 185.589 184.142 180.943 183.863C176.296 183.584 158.581 179.988 157.711 177.221C156.84 174.453 162.357 163.943 162.357 163.943L144.943 164.773C144.943 164.773 144.072 171.965 142.908 173.353C141.745 174.74 140.003 171.965 135.935 170.035C131.866 168.105 124.061 166.439 121.125 164.222C118.188 162.006 90.3409 137.079 90.3409 137.079" fill="white"/>
</mask>
<g mask="url(#mask2_316_7108)">
<path d="M125.57 166.355C127.018 168.768 128.467 170.947 128.467 170.947C128.467 170.947 133.351 173.563 134.57 173.563C135.789 173.563 143.119 177.333 143.119 177.333C143.119 177.333 149.229 175.878 147.076 170.932C146.397 169.666 145.54 168.494 144.528 167.449C144.163 169.643 143.578 172.515 142.889 173.337C141.725 174.717 139.984 171.95 135.915 170.02C133.279 168.768 129.013 167.622 125.57 166.355Z" fill="#719FFF"/>
<path d="M110.657 155.159C101.689 147.25 90.338 137.109 90.338 137.109L83.7364 136.204L82.9448 136.626C82.9448 136.626 101.578 152.331 105.544 154.081C107.148 154.783 108.892 155.151 110.657 155.159Z" fill="#719FFF"/>
<path d="M120.053 163.347L119.34 162.744C119.705 163.317 119.91 163.679 119.91 163.679L120.053 163.347Z" fill="#719FFF"/>
<g opacity="0.5">
<path d="M125.568 166.355C127.016 168.768 128.465 170.947 128.465 170.947C128.465 170.947 133.349 173.563 134.568 173.563C135.787 173.563 143.117 177.333 143.117 177.333C143.117 177.333 149.227 175.878 147.074 170.932C146.395 169.665 145.538 168.493 144.525 167.448C144.161 169.642 143.576 172.515 142.887 173.337C141.723 174.716 139.982 171.949 135.913 170.019C133.277 168.768 129.011 167.622 125.568 166.355Z" fill="white"/>
<path d="M110.657 155.159C101.689 147.25 90.3381 137.109 90.3381 137.109L83.7365 136.204L82.9449 136.626C82.9449 136.626 101.578 152.331 105.544 154.081C107.148 154.783 108.892 155.151 110.657 155.159Z" fill="white"/>
<path d="M120.051 163.347L119.338 162.744C119.702 163.317 119.908 163.679 119.908 163.679L120.051 163.347Z" fill="white"/>
</g>
</g>
<path d="M64.4926 126.049C64.489 126.102 64.489 126.154 64.4926 126.207M64.5955 126.682C65.3668 129.228 66.4286 131.685 67.7618 134.011C66.425 131.687 65.3631 129.229 64.5955 126.682ZM64.5955 126.682C64.5737 126.611 64.5578 126.537 64.548 126.464M67.7618 134.003C70.7222 139.344 74.4053 144.292 78.7169 148.721C89.1734 159.51 119.379 187.731 122.253 189.669C125.126 191.606 124.287 197.133 122.253 202.667C120.218 208.201 112.667 216.238 112.96 225.075C113.253 233.911 116.126 247.483 115.865 250.25C115.604 253.017 108.337 262.426 108.337 262.426H183.266C183.266 262.426 173.926 251.117 173.926 247.249C173.926 243.381 186.749 193.823 187.327 190.226C187.905 186.63 185.585 184.142 180.939 183.863C176.292 183.584 158.577 179.988 157.707 177.221C156.836 174.453 162.353 163.943 162.353 163.943L144.939 164.773C144.939 164.773 144.068 171.965 142.904 173.353C141.741 174.74 139.999 171.965 135.931 170.035C131.862 168.105 124.057 166.439 121.121 164.222C118.184 162.006 90.337 137.079 90.337 137.079M64.5085 126.252C64.5085 126.298 64.5085 126.35 64.5085 126.418C64.5243 126.35 64.5164 126.298 64.5085 126.252Z" stroke="#263238" stroke-linecap="round" stroke-linejoin="round"/>
<path d="M90.3382 137.109C90.3382 137.109 81.0611 137.275 75.8843 133.211" stroke="#263238" stroke-linecap="round" stroke-linejoin="round"/>
<path d="M157.714 177.22C156.843 174.461 162.36 163.943 162.36 163.943L144.946 164.772C144.946 164.772 144.075 171.965 142.911 173.352C141.748 174.74 140.006 171.965 135.938 170.035C135.629 169.884 135.289 169.741 134.94 169.598L133.888 185.363C133.888 185.363 135.415 200.631 153.732 197.728C161.149 196.552 169.065 190.249 175.896 183.161C168.867 181.933 158.378 179.339 157.714 177.22Z" fill="white"/>
<mask id="mask3_316_7108" style="mask-type:luminance" maskUnits="userSpaceOnUse" x="133" y="163" width="43" height="36">
<path d="M157.718 177.22C156.847 174.46 162.364 163.942 162.364 163.942L144.95 164.772C144.95 164.772 144.079 171.965 142.916 173.352C141.752 174.739 140.011 171.965 135.942 170.034C135.634 169.884 135.293 169.74 134.945 169.597L133.892 185.363C133.892 185.363 135.42 200.63 153.736 197.728C161.153 196.551 169.069 190.248 175.9 183.161C168.871 181.932 158.383 179.338 157.718 177.22Z" fill="white"/>
</mask>
<g mask="url(#mask3_316_7108)">
<path d="M157.226 166.031C157.226 166.031 156.173 171.656 155.326 177.876C154.479 184.096 153.854 188.725 153.854 188.725L157.716 177.22L162.07 165.028C162.07 165.028 157.859 165.028 157.226 166.031Z" fill="#719FFF"/>
<path opacity="0.5" d="M157.226 166.031C157.226 166.031 156.173 171.656 155.326 177.876C154.479 184.096 153.854 188.725 153.854 188.725L157.716 177.22L162.07 165.028C162.07 165.028 157.859 165.028 157.226 166.031Z" fill="white"/>
</g>
<path d="M157.714 177.22C156.843 174.461 162.36 163.943 162.36 163.943L144.946 164.772C144.946 164.772 144.075 171.965 142.911 173.352C141.748 174.74 140.006 171.965 135.938 170.035C135.629 169.884 135.289 169.741 134.94 169.598L133.888 185.363C133.888 185.363 135.415 200.631 153.732 197.728C161.149 196.552 169.065 190.249 175.896 183.161C168.867 181.933 158.378 179.339 157.714 177.22Z" stroke="#263238" stroke-linecap="round" stroke-linejoin="round"/>
<path d="M142.906 173.352C141.743 174.732 140.001 171.965 135.933 170.035C133.368 168.806 129.284 167.69 125.904 166.483C124.946 164.319 123.679 161.5 122.864 159.796C121.415 156.78 119.088 158.687 119.088 158.687C117.874 157.372 116.893 155.877 116.183 154.262C114.735 151.246 112.408 151.495 109.218 150.944C106.028 150.394 99.3389 144.581 99.3389 144.581C99.3389 144.581 96.2122 142.319 94.922 141.195C93.418 144.015 89.8164 148.976 82.0275 152.075C94.447 164.433 119.642 187.911 122.286 189.675C125.191 191.606 124.321 197.14 122.286 202.674C120.252 208.208 112.7 216.245 112.993 225.082C113.286 233.918 116.16 247.49 115.898 250.257C115.637 252.722 109.843 260.45 108.584 262.109L111.537 262.426H126.909C126.822 255.007 126.83 224.727 132.157 212.664C138.26 198.798 142.906 173.352 142.906 173.352Z" fill="#719FFF"/>
<mask id="mask4_316_7108" style="mask-type:luminance" maskUnits="userSpaceOnUse" x="82" y="141" width="61" height="122">
<path d="M142.907 173.352C141.744 174.732 140.002 171.965 135.934 170.035C133.369 168.806 129.284 167.69 125.904 166.483C124.947 164.319 123.68 161.5 122.865 159.796C121.416 156.78 119.089 158.687 119.089 158.687C117.875 157.372 116.894 155.877 116.184 154.262C114.736 151.246 112.408 151.495 109.218 150.944C106.028 150.394 99.3398 144.581 99.3398 144.581C99.3398 144.581 96.2131 142.319 94.9229 141.195C93.4189 144.015 89.8173 148.976 82.0284 152.075C94.4479 164.433 119.643 187.911 122.287 189.675C125.192 191.606 124.321 197.14 122.287 202.674C120.253 208.208 112.701 216.245 112.994 225.082C113.287 233.918 116.16 247.49 115.899 250.257C115.638 252.722 109.844 260.45 108.585 262.109L111.538 262.426H126.91C126.823 255.007 126.831 224.727 132.158 212.664C138.261 198.798 142.907 173.352 142.907 173.352Z" fill="white"/>
</mask>
<g mask="url(#mask4_316_7108)">
<path opacity="0.16" d="M135.935 170.035C133.371 168.806 129.286 167.69 125.906 166.483C124.948 164.319 123.682 161.5 122.867 159.796C121.418 156.78 119.091 158.687 119.091 158.687C117.877 157.372 116.896 155.877 116.186 154.262C114.737 151.246 112.41 151.495 109.22 150.944C106.03 150.394 99.3414 144.581 99.3414 144.581C99.3414 144.581 96.2148 142.319 94.9245 141.195C94.2807 142.393 93.5145 143.527 92.6369 144.581C97.8295 148.765 103.56 153.198 105.563 154.081C109.521 155.822 110.447 154.367 113.479 156.116C116.51 157.866 119.89 163.656 119.89 163.656C119.89 163.656 121.727 158.996 123.254 162.201C124.782 165.405 128.447 170.924 128.447 170.924C128.447 170.924 133.331 173.541 134.55 173.541C135.508 173.541 140.202 175.863 142.196 176.865C142.64 174.656 142.885 173.329 142.885 173.329C141.745 174.732 140.004 171.965 135.935 170.035Z" fill="black"/>
</g>
<path d="M142.906 173.352C141.743 174.732 140.001 171.965 135.933 170.035C133.368 168.806 129.284 167.69 125.904 166.483C124.946 164.319 123.679 161.5 122.864 159.796C121.415 156.78 119.088 158.687 119.088 158.687C117.874 157.372 116.893 155.877 116.183 154.262C114.735 151.246 112.408 151.495 109.218 150.944C106.028 150.394 99.3389 144.581 99.3389 144.581C99.3389 144.581 96.2122 142.319 94.922 141.195C93.418 144.015 89.8164 148.976 82.0275 152.075C94.447 164.433 119.642 187.911 122.286 189.675C125.191 191.606 124.321 197.14 122.286 202.674C120.252 208.208 112.7 216.245 112.993 225.082C113.286 233.918 116.16 247.49 115.898 250.257C115.637 252.722 109.843 260.45 108.584 262.109L111.537 262.426H126.909C126.822 255.007 126.83 224.727 132.157 212.664C138.26 198.798 142.906 173.352 142.906 173.352Z" stroke="#263238" stroke-linecap="round" stroke-linejoin="round"/>
<path d="M143.111 172.387C143.111 172.387 139.502 171.331 137.277 173.186C135.053 175.041 131.736 184.556 129.781 194.878C128.576 200.887 129.408 207.105 132.156 212.634C132.156 212.634 136.723 201.226 138.108 195.669C139.494 190.113 143.111 172.387 143.111 172.387Z" fill="#719FFF"/>
<mask id="mask5_316_7108" style="mask-type:luminance" maskUnits="userSpaceOnUse" x="129" y="172" width="15" height="41">
<path d="M143.112 172.387C143.112 172.387 139.502 171.331 137.278 173.186C135.054 175.04 131.737 184.556 129.782 194.877C128.577 200.886 129.408 207.104 132.156 212.633C132.156 212.633 136.724 201.226 138.109 195.669C139.494 190.112 143.112 172.387 143.112 172.387Z" fill="white"/>
</mask>
<g mask="url(#mask5_316_7108)">
<path opacity="0.16" d="M136.186 174.068C136.186 174.068 138.799 173.465 139.875 173.812C140.782 174.182 141.629 174.672 142.392 175.267L143.113 172.387C142.032 171.861 140.806 171.668 139.606 171.836C137.809 172.183 136.186 174.068 136.186 174.068Z" fill="black"/>
</g>
<path d="M143.111 172.387C143.111 172.387 139.502 171.331 137.277 173.186C135.053 175.041 131.736 184.556 129.781 194.878C128.576 200.887 129.408 207.105 132.156 212.634C132.156 212.634 136.723 201.226 138.108 195.669C139.494 190.113 143.111 172.387 143.111 172.387Z" stroke="#263238" stroke-linecap="round" stroke-linejoin="round"/>
<path d="M118.801 173.292L123.448 191.274L112.991 168.587" stroke="#263238" stroke-linecap="round" stroke-linejoin="round"/>
<path d="M149.41 262.426H183.273C183.273 262.426 173.933 251.117 173.933 247.249C173.933 243.381 186.756 193.823 187.334 190.226C187.912 186.63 185.593 184.142 180.946 183.863C176.3 183.584 158.585 179.987 157.714 177.22C157.714 177.22 151.033 199.628 148.714 214.843C146.719 227.894 148.785 254.977 149.41 262.426Z" fill="#719FFF"/>
<mask id="mask6_316_7108" style="mask-type:luminance" maskUnits="userSpaceOnUse" x="147" y="177" width="41" height="86">
<path d="M149.412 262.426H183.275C183.275 262.426 173.934 251.117 173.934 247.249C173.934 243.381 186.758 193.823 187.335 190.226C187.913 186.63 185.594 184.142 180.948 183.863C176.301 183.584 158.586 179.987 157.715 177.22C157.715 177.22 151.034 199.628 148.715 214.843C146.72 227.894 148.786 254.977 149.412 262.426Z" fill="white"/>
</mask>
<g mask="url(#mask6_316_7108)">
<path opacity="0.16" d="M180.947 183.862C177.14 183.636 164.562 181.178 159.662 178.781L161.443 182.701C164.67 184.332 168.141 185.481 171.734 186.109C177.631 187.112 183.116 186.916 186.702 191.937L186.876 192.186C187.098 191.221 187.248 190.543 187.296 190.226C187.921 186.63 185.594 184.141 180.947 183.862Z" fill="black"/>
</g>
<path d="M149.41 262.426H183.273C183.273 262.426 173.933 251.117 173.933 247.249C173.933 243.381 186.756 193.823 187.334 190.226C187.912 186.63 185.593 184.142 180.946 183.863C176.3 183.584 158.585 179.987 157.714 177.22C157.714 177.22 151.033 199.628 148.714 214.843C146.719 227.894 148.785 254.977 149.41 262.426Z" stroke="#263238" stroke-linecap="round" stroke-linejoin="round"/>
<path d="M157.715 177.22C157.715 177.22 148.754 204.363 148.714 214.843C148.714 214.843 161.443 200.163 163.105 189.849C164.767 179.535 157.715 177.22 157.715 177.22Z" fill="#719FFF"/>
<mask id="mask7_316_7108" style="mask-type:luminance" maskUnits="userSpaceOnUse" x="148" y="177" width="16" height="38">
<path d="M157.716 177.22C157.716 177.22 148.756 204.363 148.716 214.843C148.716 214.843 161.444 200.163 163.107 189.849C164.769 179.535 157.716 177.22 157.716 177.22Z" fill="white"/>
</mask>
<g mask="url(#mask7_316_7108)">
<path opacity="0.16" d="M156.172 180.688C157.518 180.645 158.856 180.915 160.068 181.475C161.28 182.035 162.331 182.867 163.13 183.9C163.13 183.9 161.373 178.977 157.716 177.22L156.172 180.688Z" fill="black"/>
</g>
<path d="M157.715 177.22C157.715 177.22 148.754 204.363 148.714 214.843C148.714 214.843 161.443 200.163 163.105 189.849C164.767 179.535 157.715 177.22 157.715 177.22Z" stroke="#263238" stroke-linecap="round" stroke-linejoin="round"/>
<path d="M253.375 257.322C253.375 257.322 259.937 257.578 264.235 258.166C267.101 258.536 269.987 258.755 272.879 258.822C272.879 258.822 270.504 254.253 267.971 252.964C265.438 251.675 260.847 249.368 257 249.88C253.153 250.393 247.652 254.087 248.111 255.264C248.57 256.44 250.62 256.968 253.375 257.322Z" fill="white"/>
<mask id="mask8_316_7108" style="mask-type:luminance" maskUnits="userSpaceOnUse" x="248" y="249" width="25" height="10">
<path d="M253.37 257.322C253.37 257.322 259.932 257.578 264.23 258.166C267.096 258.536 269.982 258.755 272.874 258.822C272.874 258.822 270.499 254.253 267.966 252.964C265.433 251.675 260.842 249.368 256.995 249.88C253.148 250.393 247.647 254.087 248.106 255.264C248.565 256.44 250.615 256.968 253.37 257.322Z" fill="white"/>
</mask>
<g mask="url(#mask8_316_7108)">
<path d="M253.37 257.322C253.37 257.322 259.932 257.578 264.23 258.166C267.096 258.536 269.982 258.755 272.874 258.822C272.874 258.822 270.499 254.253 267.966 252.964C265.433 251.675 260.842 249.368 256.995 249.88C253.148 250.393 247.647 254.087 248.106 255.264C248.565 256.44 250.615 256.968 253.37 257.322Z" fill="#719FFF"/>
<path opacity="0.5" d="M253.37 257.322C253.37 257.322 259.932 257.578 264.23 258.166C267.096 258.536 269.982 258.755 272.874 258.822C272.874 258.822 270.499 254.253 267.966 252.964C265.433 251.675 260.842 249.368 256.995 249.88C253.148 250.393 247.647 254.087 248.106 255.264C248.565 256.44 250.615 256.968 253.37 257.322Z" fill="white"/>
</g>
<path d="M253.375 257.322C253.375 257.322 259.937 257.578 264.235 258.166C267.101 258.536 269.987 258.755 272.879 258.822C272.879 258.822 270.504 254.253 267.971 252.964C265.438 251.675 260.847 249.368 257 249.88C253.153 250.393 247.652 254.087 248.111 255.264C248.57 256.44 250.62 256.968 253.375 257.322Z" stroke="#263238" stroke-linecap="round" stroke-linejoin="round"/>
<path d="M264.274 255.452C264.274 255.452 269.475 252.881 270.773 252.919C272.071 252.957 280.699 258.513 280.272 259.403C279.981 259.816 279.562 260.131 279.074 260.304C278.585 260.477 278.051 260.5 277.549 260.368C276.591 259.938 270.781 257.586 270.781 257.586L266.981 258.438L264.274 255.452Z" fill="white"/>
<mask id="mask9_316_7108" style="mask-type:luminance" maskUnits="userSpaceOnUse" x="264" y="252" width="17" height="9">
<path d="M264.276 255.452C264.276 255.452 269.477 252.881 270.775 252.919C272.073 252.957 280.701 258.513 280.274 259.403C279.983 259.816 279.564 260.131 279.076 260.304C278.587 260.477 278.053 260.5 277.551 260.368C276.593 259.938 270.783 257.586 270.783 257.586L266.983 258.438L264.276 255.452Z" fill="white"/>
</mask>
<g mask="url(#mask9_316_7108)">
<path d="M264.276 255.452C264.276 255.452 269.477 252.881 270.775 252.919C272.073 252.957 280.701 258.513 280.274 259.403C279.846 260.293 277.804 261.016 277.551 260.368C277.297 259.72 270.783 257.586 270.783 257.586L266.983 258.438L264.276 255.452Z" fill="#719FFF"/>
<path opacity="0.5" d="M264.276 255.452C264.276 255.452 269.477 252.881 270.775 252.919C272.073 252.957 280.701 258.513 280.274 259.403C279.846 260.293 277.804 261.016 277.551 260.368C277.297 259.72 270.783 257.586 270.783 257.586L266.983 258.438L264.276 255.452Z" fill="white"/>
</g>
<path d="M264.274 255.452C264.274 255.452 269.475 252.881 270.773 252.919C272.071 252.957 280.699 258.513 280.272 259.403C279.981 259.816 279.562 260.131 279.074 260.304C278.585 260.477 278.051 260.5 277.549 260.368C276.591 259.938 270.781 257.586 270.781 257.586L266.981 258.438L264.274 255.452Z" stroke="#263238" stroke-linecap="round" stroke-linejoin="round"/>
<path d="M260.563 251.222C260.563 251.222 267.497 251.011 268.874 251.675C270.251 252.338 276.473 262.502 275.539 263.241C274.605 263.979 272.025 263.761 272.104 262.939C272.183 262.117 266.373 256.674 266.373 256.674L261.853 255.731L260.563 251.222Z" fill="white"/>
<mask id="mask10_316_7108" style="mask-type:luminance" maskUnits="userSpaceOnUse" x="260" y="251" width="16" height="13">
<path d="M260.562 251.222C260.562 251.222 267.496 251.011 268.873 251.674C270.25 252.338 276.472 262.501 275.538 263.24C274.604 263.979 272.024 263.76 272.103 262.939C272.182 262.117 266.372 256.673 266.372 256.673L261.852 255.731L260.562 251.222Z" fill="white"/>
</mask>
<g mask="url(#mask10_316_7108)">
<path d="M260.562 251.222C260.562 251.222 267.496 251.011 268.873 251.674C270.25 252.338 276.472 262.501 275.538 263.24C274.604 263.979 272.024 263.76 272.103 262.939C272.182 262.117 266.372 256.673 266.372 256.673L261.852 255.731L260.562 251.222Z" fill="#719FFF"/>
<path opacity="0.5" d="M260.562 251.222C260.562 251.222 267.496 251.011 268.873 251.674C270.25 252.338 276.472 262.501 275.538 263.24C274.604 263.979 272.024 263.76 272.103 262.939C272.182 262.117 266.372 256.673 266.372 256.673L261.852 255.731L260.562 251.222Z" fill="white"/>
</g>
<path d="M260.563 251.222C260.563 251.222 267.497 251.011 268.874 251.675C270.251 252.338 276.473 262.502 275.539 263.241C274.605 263.979 272.025 263.761 272.104 262.939C272.183 262.117 266.373 256.674 266.373 256.674L261.853 255.731L260.563 251.222Z" stroke="#263238" stroke-linecap="round" stroke-linejoin="round"/>
<path d="M256.452 249.857C256.452 249.857 263.473 249.639 264.866 250.317C266.259 250.996 272.56 261.272 271.61 262.026C270.66 262.78 268.064 262.547 268.143 261.717C268.222 260.888 262.341 255.376 262.341 255.376L257.766 254.419L256.452 249.857Z" fill="white"/>
<mask id="mask11_316_7108" style="mask-type:luminance" maskUnits="userSpaceOnUse" x="256" y="249" width="16" height="14">
<path d="M256.453 249.857C256.453 249.857 263.474 249.638 264.867 250.317C266.261 250.995 272.561 261.272 271.612 262.026C270.662 262.78 268.065 262.546 268.145 261.717C268.224 260.887 262.342 255.376 262.342 255.376L257.767 254.418L256.453 249.857Z" fill="white"/>
</mask>
<g mask="url(#mask11_316_7108)">
<path d="M256.453 249.857C256.453 249.857 263.474 249.638 264.867 250.317C266.261 250.995 272.561 261.272 271.612 262.026C270.662 262.78 268.065 262.546 268.145 261.717C268.224 260.887 262.342 255.376 262.342 255.376L257.767 254.418L256.453 249.857Z" fill="#719FFF"/>
<path opacity="0.5" d="M256.453 249.857C256.453 249.857 263.474 249.638 264.867 250.317C266.261 250.995 272.561 261.272 271.612 262.026C270.662 262.78 268.065 262.546 268.145 261.717C268.224 260.887 262.342 255.376 262.342 255.376L257.767 254.418L256.453 249.857Z" fill="white"/>
</g>
<path d="M256.452 249.857C256.452 249.857 263.473 249.639 264.866 250.317C266.259 250.996 272.56 261.272 271.61 262.026C270.66 262.78 268.064 262.547 268.143 261.717C268.222 260.888 262.341 255.376 262.341 255.376L257.766 254.419L256.452 249.857Z" stroke="#263238" stroke-linecap="round" stroke-linejoin="round"/>
<path d="M176.625 211.541C181.707 218.997 191.91 237.892 194.887 240.018C199.533 243.335 230.594 251.388 233.586 253.589C236.578 255.791 236.372 258 239.206 258.807C242.04 259.614 252.663 261.928 256.715 262.29C260.768 262.652 258.955 260.262 258.955 260.262L252.045 255.738L258.069 254.321C258.069 254.321 264.108 261.242 265.24 261.619C266.372 261.996 268.367 261.619 268.24 260.767C268.019 259.402 261.576 248.236 259.288 247.761C257 247.286 243.116 249.118 243.116 249.118C243.116 249.118 213.995 230.412 213.472 229.749C213.472 229.749 211.731 225.044 210.306 223.107C208.881 221.169 207.979 221.727 207.979 221.727C207.979 221.727 208.565 219.231 207.694 218.402L203.048 213.976L202.881 214.187C202.09 212.679 201.298 210.96 200.428 209C197.997 203.549 189.393 188.251 187.945 186.042C186.86 184.39 177.773 183.207 173.166 182.709" fill="#719FFF"/>
<mask id="mask12_316_7108" style="mask-type:luminance" maskUnits="userSpaceOnUse" x="173" y="182" width="96" height="81">
<path d="M176.622 211.541C181.704 218.997 191.907 237.892 194.883 240.018C199.529 243.335 230.59 251.388 233.582 253.589C236.574 255.791 236.369 258 239.202 258.807C242.036 259.614 252.659 261.928 256.712 262.29C260.765 262.652 258.952 260.262 258.952 260.262L252.042 255.738L258.065 254.321C258.065 254.321 264.105 261.242 265.237 261.619C266.369 261.996 268.364 261.619 268.237 260.767C268.015 259.402 261.572 248.236 259.284 247.761C256.997 247.286 243.113 249.118 243.113 249.118C243.113 249.118 213.991 230.412 213.469 229.749C213.469 229.749 211.727 225.044 210.303 223.107C208.878 221.169 207.975 221.727 207.975 221.727C207.975 221.727 208.561 219.231 207.69 218.402L203.044 213.976L202.878 214.187C202.086 212.679 201.295 210.96 200.424 209C197.994 203.549 189.39 188.251 187.941 186.042C186.857 184.39 177.77 183.207 173.163 182.709" fill="white"/>
</mask>
<g mask="url(#mask12_316_7108)">
<path opacity="0.16" d="M196.854 212.015C200.653 215.227 199.387 215.227 198.54 218.047C197.693 220.867 199.173 217.044 202.759 217.248C206.345 217.451 205.292 221.862 204.865 222.669C204.437 223.476 209.297 224.478 208.45 226.28C207.603 228.082 202.759 230.699 200.02 233.315C197.281 235.931 207.184 229.093 210.556 228.897C211.585 228.829 212.432 228.957 213.144 228.942C212.397 226.925 211.437 224.984 210.279 223.151C208.822 221.214 207.952 221.772 207.952 221.772C207.952 221.772 208.537 219.276 207.667 218.447L203.02 214.021L202.854 214.232C202.062 212.724 201.271 211.005 200.4 209.045C197.97 203.594 189.366 188.296 187.917 186.086C186.833 184.435 177.746 183.252 173.139 182.754L173.558 186.245L173.661 186.32C173.661 186.32 179.353 187.323 181.252 187.527C183.152 187.73 185.471 189.328 185.258 190.542C185.044 191.756 179.566 197.17 181.252 197.577C182.938 197.984 184.838 193.558 186.738 194.161C188.638 194.765 193.031 208.803 196.854 212.015Z" fill="black"/>
</g>
<path d="M176.625 211.541C181.707 218.997 191.91 237.892 194.887 240.018C199.533 243.335 230.594 251.388 233.586 253.589C236.578 255.791 236.372 258 239.206 258.807C242.04 259.614 252.663 261.928 256.715 262.29C260.768 262.652 258.955 260.262 258.955 260.262L252.045 255.738L258.069 254.321C258.069 254.321 264.108 261.242 265.24 261.619C266.372 261.996 268.367 261.619 268.24 260.767C268.019 259.402 261.576 248.236 259.288 247.761C257 247.286 243.116 249.118 243.116 249.118C243.116 249.118 213.995 230.412 213.472 229.749C213.472 229.749 211.731 225.044 210.306 223.107C208.881 221.169 207.979 221.727 207.979 221.727C207.979 221.727 208.565 219.231 207.694 218.402L203.048 213.976L202.881 214.187C202.09 212.679 201.298 210.96 200.428 209C197.997 203.549 189.393 188.251 187.945 186.042C186.86 184.39 177.773 183.207 173.166 182.709" stroke="#263238" stroke-linecap="round" stroke-linejoin="round"/>
<path d="M176.702 201.309C176.488 201.988 176.306 202.666 176.164 203.36" stroke="#263238" stroke-linecap="round" stroke-linejoin="round"/>
<path d="M184.399 188.831C181.911 191.532 179.814 194.536 178.161 197.766" stroke="#263238" stroke-linecap="round" stroke-linejoin="round"/>
<path d="M196.027 231.642C198.164 228.626 201.568 224.803 205.32 223.71" stroke="#263238" stroke-linecap="round" stroke-linejoin="round"/>
<path d="M193.658 235.351C193.658 235.351 194.038 234.642 194.719 233.572" stroke="#263238" stroke-linecap="round" stroke-linejoin="round"/>
<path d="M193.658 230.586C193.658 230.586 197.545 221.327 201.432 218.945C205.318 216.562 203.094 221.327 203.094 221.327" stroke="#263238" stroke-linecap="round" stroke-linejoin="round"/>
<path d="M233.583 253.596C236.583 255.806 236.369 258.007 239.203 258.814C242.037 259.621 252.66 261.935 256.713 262.297C260.765 262.659 258.953 260.269 258.953 260.269L252.042 255.745L258.066 254.328C258.066 254.328 264.106 261.249 265.238 261.626C266.37 262.003 268.523 262.139 268.238 260.774C267.684 258.135 261.573 248.243 259.285 247.768C256.998 247.293 243.114 249.125 243.114 249.125C243.114 249.125 216.588 231.784 213.683 229.907C202.419 230.94 197.061 236.557 194.805 239.927L194.884 239.987C199.53 243.335 230.591 251.387 233.583 253.596Z" fill="white"/>
<mask id="mask13_316_7108" style="mask-type:luminance" maskUnits="userSpaceOnUse" x="194" y="229" width="75" height="34">
<path d="M233.586 253.596C236.586 255.806 236.372 258.007 239.206 258.814C242.04 259.621 252.663 261.935 256.715 262.297C260.768 262.659 258.955 260.269 258.955 260.269L252.045 255.745L258.069 254.328C258.069 254.328 264.108 261.249 265.24 261.626C266.372 262.003 268.525 262.139 268.24 260.774C267.686 258.135 261.576 248.243 259.288 247.768C257 247.293 243.116 249.125 243.116 249.125C243.116 249.125 216.591 231.784 213.686 229.907C202.422 230.94 197.063 236.557 194.807 239.927L194.887 239.987C199.533 243.335 230.594 251.387 233.586 253.596Z" fill="white"/>
</mask>
<g mask="url(#mask13_316_7108)">
<path d="M268.231 260.804C266.791 257.449 261.567 248.273 259.279 247.798C256.991 247.323 243.107 249.156 243.107 249.156C243.107 249.156 216.582 231.814 213.677 229.937C210.721 230.182 207.82 230.85 205.073 231.92C209.26 234.182 237.171 249.261 240.693 249.932C244.429 250.686 256.896 248.733 259.089 250.136C260.482 251.025 264.63 257.291 267.432 261.739C268.231 261.626 268.524 261.483 268.231 260.804Z" fill="#719FFF"/>
<path opacity="0.5" d="M268.231 260.804C265.983 256.002 261.567 248.273 259.279 247.798C256.991 247.323 243.107 249.156 243.107 249.156C243.107 249.156 216.582 231.814 213.677 229.937C210.721 230.182 207.82 230.85 205.073 231.92C209.26 234.182 237.171 249.261 240.693 249.932C244.429 250.686 256.896 248.733 259.089 250.136C260.482 251.025 264.63 257.291 267.432 261.739C268.231 261.626 268.548 261.475 268.231 260.804Z" fill="white"/>
</g>
<path d="M233.583 253.596C236.583 255.806 236.369 258.007 239.203 258.814C242.037 259.621 252.66 261.935 256.713 262.297C260.765 262.659 258.953 260.269 258.953 260.269L252.042 255.745L258.066 254.328C258.066 254.328 264.106 261.249 265.238 261.626C266.37 262.003 268.523 262.139 268.238 260.774C267.684 258.135 261.573 248.243 259.285 247.768C256.998 247.293 243.114 249.125 243.114 249.125C243.114 249.125 216.588 231.784 213.683 229.907C202.419 230.94 197.061 236.557 194.805 239.927L194.884 239.987C199.53 243.335 230.591 251.387 233.583 253.596Z" stroke="#263238" stroke-linecap="round" stroke-linejoin="round"/>
<path d="M163.627 121.939L139.786 131.416C139.497 135.407 138.459 139.317 136.722 142.96C133.904 148.637 135.551 159.381 138.258 165.179C140.965 170.977 152.894 168.708 157.255 167.984C160.213 167.448 163.111 166.642 165.907 165.579C167.18 166.046 168.558 166.197 169.909 166.018C171.261 165.838 172.542 165.334 173.633 164.553C173.633 164.553 160.873 130.436 163.627 121.939Z" fill="white"/>
<mask id="mask14_316_7108" style="mask-type:luminance" maskUnits="userSpaceOnUse" x="135" y="121" width="39" height="49">
<path d="M163.624 121.939L139.782 131.416C139.493 135.407 138.456 139.317 136.719 142.96C133.901 148.637 135.547 159.381 138.254 165.179C140.961 170.977 152.89 168.708 157.252 167.984C160.21 167.448 163.107 166.642 165.904 165.579C167.177 166.046 168.554 166.197 169.906 166.018C171.257 165.838 172.539 165.334 173.629 164.553C173.629 164.553 160.869 130.436 163.624 121.939Z" fill="white"/>
</mask>
<g mask="url(#mask14_316_7108)">
<path d="M163.624 121.939L139.782 131.416C139.493 135.407 138.456 139.317 136.719 142.96C133.901 148.637 135.547 159.381 138.254 165.179C138.708 166.111 139.437 166.897 140.352 167.441V167.004C140.352 167.004 135.927 156.561 136.766 150.537C137.605 144.513 141.199 141.489 141.618 137.682C142.038 133.874 141.824 132.065 149.843 129.252C157.861 126.44 161.225 123.831 162.064 126.636C162.904 129.441 166.283 147.928 168.603 152.346C170.922 156.765 170.708 161.394 167.13 163.392C163.514 165.46 159.64 167.086 155.597 168.233L157.283 167.954C160.242 167.418 163.139 166.612 165.935 165.548C167.208 166.016 168.586 166.167 169.937 165.988C171.289 165.808 172.57 165.304 173.661 164.523C173.661 164.523 160.869 130.436 163.624 121.939Z" fill="#719FFF"/>
<path opacity="0.5" d="M163.624 121.939L139.782 131.416C139.493 135.407 138.456 139.317 136.719 142.96C133.901 148.637 135.547 159.381 138.254 165.179C138.708 166.111 139.437 166.897 140.352 167.441V167.004C140.352 167.004 135.927 156.561 136.766 150.537C137.605 144.513 141.199 141.489 141.618 137.682C142.038 133.874 141.824 132.065 149.843 129.252C157.861 126.44 161.225 123.831 162.064 126.636C162.904 129.441 166.283 147.928 168.603 152.346C170.922 156.765 170.708 161.394 167.13 163.392C163.514 165.46 159.64 167.086 155.597 168.233L157.283 167.954C160.242 167.418 163.139 166.612 165.935 165.548C167.208 166.016 168.586 166.167 169.937 165.988C171.289 165.808 172.57 165.304 173.661 164.523C173.661 164.523 160.869 130.436 163.624 121.939Z" fill="white"/>
</g>
<path d="M163.627 121.939L139.786 131.416C139.497 135.407 138.459 139.317 136.722 142.96C133.904 148.637 135.551 159.381 138.258 165.179C140.965 170.977 152.894 168.708 157.255 167.984C160.213 167.448 163.111 166.642 165.907 165.579C167.18 166.046 168.558 166.197 169.909 166.018C171.261 165.838 172.542 165.334 173.633 164.553C173.633 164.553 160.873 130.436 163.627 121.939Z" stroke="#263238" stroke-linecap="round" stroke-linejoin="round"/>
<path d="M151.58 136.8C151.645 138.135 151.471 139.471 151.066 140.751C150.432 142.259 144.456 148.185 144.638 148.826C144.82 149.466 145.358 151.525 146.419 151.721" stroke="#263238" stroke-linecap="round" stroke-linejoin="round"/>
<path d="M158.204 142.101C159.035 140.518 161.766 142.063 161.726 145.63" stroke="#263238" stroke-linecap="round" stroke-linejoin="round"/>
<path d="M144.671 137.441C144.671 137.441 146.998 136.468 149.08 140.057" stroke="#263238" stroke-linecap="round" stroke-linejoin="round"/>
<path d="M154.895 147.325C157.584 147.454 160.141 148.476 162.121 150.213" stroke="#263238" stroke-width="0.5" stroke-linecap="round" stroke-linejoin="round"/>
<path d="M141.86 142.613C143.25 142.79 144.608 143.148 145.897 143.676" stroke="#263238" stroke-width="0.5" stroke-linecap="round" stroke-linejoin="round"/>
<path d="M151.32 133.452C150.705 133.143 150.023 132.973 149.328 132.958C148.633 132.942 147.944 133.08 147.314 133.362C145.185 134.334 143.879 135.405 144.021 134.161C144.164 132.917 146.665 131.545 147.417 131.364C148.169 131.183 151.533 130.685 151.32 133.452Z" fill="#263238"/>
<path d="M157.285 130.641C159.504 132.351 161.267 134.537 162.431 137.019C164.014 140.789 165.264 136.673 164.014 134.207C162.763 131.742 159.146 129.118 157.285 130.641Z" fill="#263238"/>
<path d="M173.982 171C173.982 172.757 172.938 174.182 171.655 174.182C170.373 174.182 169.336 172.757 169.336 171C169.336 169.243 170.373 164.772 171.655 164.772C172.938 164.772 173.982 169.243 173.982 171Z" fill="#719FFF" stroke="#263238" stroke-linecap="round" stroke-linejoin="round"/>
<path d="M158.41 141.414C158.319 141.644 158.248 141.881 158.196 142.123C157.967 143.239 157.737 145.568 158.196 145.666C158.655 145.764 159.779 143.585 159.977 142.47C160.022 142.251 160.048 142.029 160.057 141.806C159.516 141.645 158.966 141.514 158.41 141.414Z" fill="#263238"/>
<path d="M144.909 137.222C144.838 137.419 144.783 137.62 144.743 137.825C144.505 138.941 144.513 141.391 145.012 141.482C145.51 141.572 146.326 139.28 146.555 138.164C146.612 137.894 146.644 137.619 146.65 137.342C146.084 137.194 145.492 137.153 144.909 137.222Z" fill="#263238"/>
<path d="M158.204 142.138L158.996 140.736C160.251 140.969 161.387 141.595 162.225 142.515" stroke="#263238" stroke-width="0.75" stroke-linecap="round" stroke-linejoin="round"/>
<path d="M144.909 137.222L145.7 136.34C145.7 136.34 146.041 136.182 147.909 136.989" stroke="#263238" stroke-width="0.75" stroke-linecap="round" stroke-linejoin="round"/>
<path d="M141.907 157.67C141.907 157.67 143.237 155.34 145.018 155.34C146.799 155.34 148.129 159.148 148.129 159.148" stroke="#263238" stroke-linecap="round" stroke-linejoin="round"/>
<path d="M84.5855 258.143C82.8643 258.062 81.1737 257.678 79.5986 257.012C79.379 256.935 79.1782 256.816 79.0085 256.662C78.8387 256.508 78.7036 256.323 78.6113 256.118C78.519 255.913 78.4714 255.693 78.4715 255.47C78.4716 255.247 78.5194 255.026 78.6119 254.821C78.7043 254.616 78.8396 254.431 79.0095 254.278C79.1794 254.124 79.3803 254.005 79.6 253.928C79.8197 253.851 80.0536 253.817 80.2874 253.829C80.5212 253.841 80.7501 253.898 80.9601 253.996C82.5432 254.637 84.5934 255.037 85.1395 254.81C86.1448 253.74 87.6884 247.271 85.6936 244.149C85.2424 243.456 84.8229 243.328 84.5459 243.297C83.4139 243.147 81.7358 244.255 81.1422 244.805C80.9769 244.954 80.7825 245.07 80.5702 245.147C80.3578 245.224 80.1316 245.26 79.9045 245.254C79.6773 245.248 79.4537 245.199 79.2464 245.11C79.0391 245.022 78.8522 244.895 78.6963 244.737C78.5403 244.58 78.4185 244.395 78.3377 244.193C78.2569 243.99 78.2187 243.775 78.2253 243.559C78.2319 243.342 78.2832 243.129 78.3762 242.932C78.4693 242.734 78.6022 242.556 78.7675 242.408C79.0762 242.121 81.9337 239.671 84.9812 240.063C85.7371 240.168 86.4573 240.438 87.0861 240.851C87.7148 241.264 88.2351 241.81 88.6066 242.445C91.5433 247.007 89.5327 255.685 87.2768 257.404C86.4928 257.932 85.5444 258.193 84.5855 258.143Z" fill="white"/>
<mask id="mask15_316_7108" style="mask-type:luminance" maskUnits="userSpaceOnUse" x="78" y="240" width="13" height="19">
<path d="M84.5887 258.144C82.8675 258.062 81.1769 257.679 79.6019 257.013C79.3823 256.935 79.1815 256.816 79.0117 256.662C78.842 256.509 78.7069 256.324 78.6145 256.119C78.5222 255.914 78.4747 255.693 78.4748 255.47C78.4749 255.247 78.5226 255.027 78.6151 254.822C78.7076 254.617 78.8429 254.432 79.0128 254.278C79.1827 254.125 79.3836 254.006 79.6032 253.929C79.8229 253.852 80.0568 253.818 80.2906 253.83C80.5245 253.841 80.7533 253.898 80.9634 253.997C82.5465 254.638 84.5966 255.037 85.1428 254.811C86.1481 253.74 87.6916 247.271 85.6969 244.15C85.2457 243.456 84.8262 243.328 84.5491 243.298C83.4172 243.147 81.7391 244.255 81.1454 244.806C80.9801 244.954 80.7858 245.07 80.5734 245.147C80.361 245.224 80.1348 245.261 79.9077 245.254C79.6806 245.248 79.457 245.199 79.2497 245.111C79.0424 245.022 78.8554 244.895 78.6995 244.738C78.5436 244.581 78.4217 244.395 78.3409 244.193C78.2601 243.991 78.2219 243.775 78.2286 243.559C78.2352 243.343 78.2865 243.13 78.3795 242.932C78.4725 242.735 78.6055 242.557 78.7707 242.408C79.0795 242.122 81.937 239.671 84.9845 240.063C85.7403 240.168 86.4606 240.438 87.0893 240.851C87.718 241.265 88.2384 241.81 88.6098 242.446C91.5465 247.007 89.536 255.686 87.28 257.405C86.496 257.933 85.5476 258.193 84.5887 258.144Z" fill="white"/>
</mask>
<g mask="url(#mask15_316_7108)">
<path d="M86.9048 243.652C86.6972 243.184 86.3721 242.771 85.9581 242.451C85.5441 242.13 85.0537 241.911 84.5301 241.813C82.5512 241.511 80.691 243.404 80.4852 243.615C80.296 243.832 80.1791 244.098 80.1495 244.378C80.1199 244.659 80.1789 244.942 80.319 245.191C80.6304 245.131 80.9182 244.99 81.1501 244.783C81.7438 244.256 83.4219 243.147 84.5539 243.275C84.8309 243.275 85.2504 243.434 85.7016 244.127C87.6963 247.219 86.1528 253.718 85.1475 254.789C84.6013 255.015 82.5591 254.615 80.9681 253.974C80.7723 253.896 80.563 253.852 80.3507 253.846C80.3651 254.053 80.4335 254.253 80.5496 254.428C80.6657 254.603 80.8259 254.748 81.0156 254.849C82.0165 255.358 83.1206 255.656 84.2531 255.723C84.8993 255.753 85.5322 255.542 86.0182 255.135C87.5064 253.831 88.8203 247.158 86.9048 243.652Z" fill="#719FFF"/>
<path opacity="0.5" d="M86.9048 243.652C86.6972 243.184 86.3721 242.771 85.9581 242.451C85.5441 242.13 85.0537 241.911 84.5301 241.813C82.5512 241.511 80.691 243.404 80.4852 243.615C80.296 243.832 80.1791 244.098 80.1495 244.378C80.1199 244.659 80.1789 244.942 80.319 245.191C80.6304 245.131 80.9182 244.99 81.1501 244.783C81.7438 244.256 83.4219 243.147 84.5539 243.275C84.8309 243.275 85.2504 243.434 85.7016 244.127C87.6963 247.219 86.1528 253.718 85.1475 254.789C84.6013 255.015 82.5591 254.615 80.9681 253.974C80.7723 253.896 80.563 253.852 80.3507 253.846C80.3651 254.053 80.4335 254.253 80.5496 254.428C80.6657 254.603 80.8259 254.748 81.0156 254.849C82.0165 255.358 83.1206 255.656 84.2531 255.723C84.8993 255.753 85.5322 255.542 86.0182 255.135C87.5064 253.831 88.8203 247.158 86.9048 243.652Z" fill="white"/>
</g>
<path d="M84.5855 258.143C82.8643 258.062 81.1737 257.678 79.5986 257.012C79.379 256.935 79.1782 256.816 79.0085 256.662C78.8387 256.508 78.7036 256.323 78.6113 256.118C78.519 255.913 78.4714 255.693 78.4715 255.47C78.4716 255.247 78.5194 255.026 78.6119 254.821C78.7043 254.616 78.8396 254.431 79.0095 254.278C79.1794 254.124 79.3803 254.005 79.6 253.928C79.8197 253.851 80.0536 253.817 80.2874 253.829C80.5212 253.841 80.7501 253.898 80.9601 253.996C82.5432 254.637 84.5934 255.037 85.1395 254.81C86.1448 253.74 87.6884 247.271 85.6936 244.149C85.2424 243.456 84.8229 243.328 84.5459 243.297C83.4139 243.147 81.7358 244.255 81.1422 244.805C80.9769 244.954 80.7825 245.07 80.5702 245.147C80.3578 245.224 80.1316 245.26 79.9045 245.254C79.6773 245.248 79.4537 245.199 79.2464 245.11C79.0391 245.022 78.8522 244.895 78.6963 244.737C78.5403 244.58 78.4185 244.395 78.3377 244.193C78.2569 243.99 78.2187 243.775 78.2253 243.559C78.2319 243.342 78.2832 243.129 78.3762 242.932C78.4693 242.734 78.6022 242.556 78.7675 242.408C79.0762 242.121 81.9337 239.671 84.9812 240.063C85.7371 240.168 86.4573 240.438 87.0861 240.851C87.7148 241.264 88.2351 241.81 88.6066 242.445C91.5433 247.007 89.5327 255.685 87.2768 257.404C86.4928 257.932 85.5444 258.193 84.5855 258.143Z" stroke="#263238" stroke-linecap="round" stroke-linejoin="round"/>
<path d="M81.5633 238.691H62.5263V262.758H81.5633V238.691Z" fill="white"/>
<mask id="mask16_316_7108" style="mask-type:luminance" maskUnits="userSpaceOnUse" x="62" y="238" width="20" height="25">
<path d="M81.5645 238.69H62.5275V262.757H81.5645V238.69Z" fill="white"/>
</mask>
<g mask="url(#mask16_316_7108)">
<path d="M70.3243 238.69H62.5275V262.757H70.3243V238.69Z" fill="#719FFF"/>
<path opacity="0.5" d="M70.3243 238.69H62.5275V262.757H70.3243V238.69Z" fill="white"/>
</g>
<path d="M81.5633 238.691H62.5263V262.758H81.5633V238.691Z" stroke="#263238" stroke-linecap="round" stroke-linejoin="round"/>
<path d="M186.179 262.425H104.854L102.203 219.841C102.129 219.428 102.151 219.005 102.266 218.601C102.381 218.197 102.587 217.821 102.869 217.5C103.151 217.179 103.503 216.92 103.9 216.741C104.298 216.562 104.731 216.467 105.171 216.463H185.831C186.273 216.463 186.71 216.555 187.112 216.732C187.513 216.909 187.869 217.167 188.154 217.489C188.44 217.81 188.649 218.187 188.765 218.594C188.882 219 188.905 219.426 188.831 219.841L186.179 262.425Z" fill="#263238" stroke="#263238" stroke-linecap="round" stroke-linejoin="round"/>
<path d="M108.857 217.482H185.242C185.674 217.477 186.101 217.563 186.494 217.733C186.887 217.902 187.237 218.152 187.518 218.463C187.799 218.775 188.006 219.142 188.122 219.537C188.239 219.933 188.264 220.348 188.195 220.754" stroke="white" stroke-linecap="round" stroke-linejoin="round"/>
<path d="M102.798 220.083C102.861 219.37 103.205 218.707 103.759 218.224C104.314 217.742 105.039 217.477 105.79 217.482" stroke="white" stroke-linecap="round" stroke-linejoin="round"/>
<path d="M186.522 258.279H104.516V262.426H186.522V258.279Z" fill="white" stroke="#263238" stroke-linecap="round" stroke-linejoin="round"/>
<path d="M145.223 242.928C148.432 242.928 151.033 241.443 151.033 239.611C151.033 237.779 148.432 236.293 145.223 236.293C142.014 236.293 139.413 237.779 139.413 239.611C139.413 241.443 142.014 242.928 145.223 242.928Z" fill="white" stroke="#263238" stroke-linecap="round" stroke-linejoin="round"/>
<path d="M310.205 261.936H4.77364V269H310.205V261.936Z" fill="#263238"/>
<path d="M231.013 0H84.0756C79.1225 0 75.1073 3.82458 75.1073 8.54245V88.8475C75.1073 93.5653 79.1225 97.3899 84.0756 97.3899H231.013C235.966 97.3899 239.981 93.5653 239.981 88.8475V8.54245C239.981 3.82458 235.966 0 231.013 0Z" fill="#EBEAE9"/>
<path d="M161.421 55.9672C174.75 53.9269 183.818 41.981 181.676 29.2853C179.534 16.5897 166.993 7.95184 153.664 9.99217C140.336 12.0325 131.267 23.9784 133.409 36.674C135.551 49.3697 148.093 58.0076 161.421 55.9672Z" fill="#263238"/>
<path d="M157.361 37.2839L149.216 47.2438C148.939 47.6584 148.558 48.0009 148.108 48.2405C147.657 48.48 147.151 48.6091 146.636 48.616C145.928 48.6252 145.245 48.3678 144.736 47.8998C144.477 47.6736 144.272 47.3969 144.136 47.0885C143.999 46.7802 143.934 46.4474 143.944 46.1129C143.97 45.3637 144.247 44.6422 144.736 44.0545L154.021 33.1145L145.314 22.1669C144.909 21.6531 144.687 21.0297 144.68 20.3875C144.678 20.0045 144.76 19.6252 144.919 19.2736C145.078 18.9219 145.312 18.6055 145.607 18.3443C145.883 18.0696 146.214 17.8512 146.582 17.7021C146.949 17.5531 147.344 17.4766 147.744 17.4772C148.255 17.4851 148.756 17.6148 149.201 17.8545C149.647 18.0942 150.022 18.4362 150.293 18.8494L158.161 28.7189L166.076 19.0153C166.359 18.5626 166.755 18.1833 167.229 17.9111C167.702 17.6389 168.239 17.4821 168.791 17.4546C169.134 17.4538 169.473 17.5203 169.788 17.65C170.103 17.7798 170.386 17.9699 170.62 18.2086C170.869 18.4323 171.068 18.7021 171.204 19.0016C171.34 19.3011 171.411 19.6239 171.411 19.9502C171.403 20.5342 171.191 21.099 170.81 21.5562L161.493 32.9109L170.493 44.2204C170.919 44.7259 171.155 45.352 171.166 45.9998C171.169 46.3744 171.086 46.745 170.923 47.0861C170.76 47.4272 170.522 47.7305 170.224 47.9752C169.643 48.5071 168.869 48.8044 168.063 48.8045C167.549 48.7985 167.045 48.6696 166.597 48.4299C166.149 48.1902 165.771 47.8472 165.498 47.4323L157.361 37.2839Z" fill="white"/>
<path d="M204.114 80.5236H110.94C109.05 80.5236 107.238 79.8086 105.902 78.5361C104.566 77.2635 103.816 75.5375 103.816 73.7379C103.816 71.9382 104.566 70.2122 105.902 68.9396C107.238 67.6671 109.05 66.9521 110.94 66.9521H204.114C206.004 66.9521 207.816 67.6671 209.152 68.9396C210.488 70.2122 211.238 71.9382 211.238 73.7379C211.238 75.5375 210.488 77.2635 209.152 78.5361C207.816 79.8086 206.004 80.5236 204.114 80.5236Z" fill="white"/>
<path d="M123.707 75.9241C123.645 75.9241 123.584 75.9121 123.527 75.8887C123.469 75.8654 123.418 75.8313 123.375 75.7884C123.328 75.7441 123.291 75.6911 123.267 75.6328C123.242 75.5744 123.231 75.5119 123.232 75.4491C123.232 75.3429 123.262 75.2387 123.32 75.1475L124.032 74.0919H122.576C122.508 74.0952 122.441 74.0848 122.378 74.0614C122.315 74.038 122.258 74.0022 122.211 73.9562C122.13 73.866 122.085 73.751 122.085 73.632C122.085 73.5131 122.13 73.3981 122.211 73.3078C122.258 73.2619 122.315 73.226 122.378 73.2026C122.441 73.1792 122.508 73.1688 122.576 73.1721L124.008 73.2098L123.375 72.2296C123.311 72.1293 123.276 72.015 123.272 71.8979C123.27 71.8351 123.282 71.7726 123.306 71.7142C123.331 71.6558 123.368 71.6029 123.415 71.5586C123.459 71.5155 123.512 71.4813 123.57 71.458C123.629 71.4347 123.692 71.4227 123.755 71.4229C123.844 71.4216 123.931 71.4453 124.005 71.4909C124.08 71.5365 124.139 71.602 124.174 71.6793L124.871 72.863L125.536 71.732C125.578 71.644 125.644 71.5687 125.728 71.5142C125.812 71.4597 125.91 71.4281 126.011 71.4229C126.073 71.4229 126.135 71.4349 126.192 71.4583C126.249 71.4816 126.3 71.5157 126.343 71.5586C126.39 71.6 126.426 71.6503 126.451 71.7062C126.476 71.7621 126.487 71.8223 126.486 71.8828C126.485 71.9899 126.452 72.0945 126.391 72.1844L125.694 73.2475L127.143 73.2098C127.21 73.206 127.278 73.2162 127.34 73.2396C127.403 73.263 127.46 73.2992 127.507 73.3455C127.588 73.4358 127.633 73.5508 127.633 73.6697C127.633 73.7887 127.588 73.9037 127.507 73.9939C127.46 74.0403 127.403 74.0764 127.34 74.0998C127.278 74.1233 127.21 74.1334 127.143 74.1296H125.678L126.327 75.0947C126.401 75.2112 126.442 75.3435 126.446 75.4792C126.448 75.5403 126.438 75.6012 126.415 75.6582C126.391 75.7153 126.356 75.7672 126.312 75.811C126.27 75.8533 126.22 75.8871 126.164 75.9105C126.108 75.9338 126.048 75.9461 125.987 75.9467C125.889 75.9444 125.794 75.9155 125.713 75.8635C125.631 75.8114 125.567 75.7382 125.528 75.6527L124.871 74.5443L124.214 75.6527C124.166 75.74 124.093 75.8121 124.003 75.8604C123.913 75.9086 123.81 75.9307 123.707 75.9241Z" fill="black"/>
<path d="M130.974 75.9247C130.912 75.9247 130.851 75.9126 130.793 75.8893C130.736 75.866 130.685 75.8318 130.642 75.789C130.595 75.7447 130.558 75.6917 130.534 75.6334C130.509 75.575 130.497 75.5125 130.499 75.4497C130.499 75.3435 130.529 75.2393 130.586 75.1481L131.299 74.0925H129.842C129.775 74.0958 129.708 74.0854 129.645 74.062C129.582 74.0386 129.525 74.0028 129.478 73.9568C129.397 73.8666 129.352 73.7516 129.352 73.6326C129.352 73.5137 129.397 73.3986 129.478 73.3084C129.525 73.2625 129.582 73.2266 129.645 73.2032C129.708 73.1798 129.775 73.1694 129.842 73.1727L131.275 73.2104L130.602 72.1925C130.539 72.0921 130.503 71.9779 130.499 71.8608C130.497 71.798 130.509 71.7355 130.534 71.6771C130.558 71.6187 130.595 71.5658 130.642 71.5215C130.686 71.4784 130.739 71.4442 130.798 71.4209C130.856 71.3976 130.919 71.3856 130.982 71.3858C131.071 71.3845 131.158 71.4082 131.232 71.4538C131.307 71.4994 131.366 71.5649 131.402 71.6421L132.098 72.8259L132.763 71.6949C132.805 71.6069 132.871 71.5316 132.955 71.4771C133.039 71.4225 133.137 71.391 133.238 71.3858C133.3 71.3858 133.362 71.3978 133.419 71.4212C133.476 71.4445 133.528 71.4786 133.571 71.5215C133.617 71.5629 133.654 71.6132 133.678 71.6691C133.703 71.725 133.715 71.7852 133.713 71.8457C133.712 71.9528 133.679 72.0574 133.618 72.1473L132.921 73.2104L134.37 73.1727C134.437 73.1689 134.505 73.1791 134.568 73.2025C134.631 73.2259 134.687 73.2621 134.734 73.3084C134.816 73.3986 134.86 73.5137 134.86 73.6326C134.86 73.7516 134.816 73.8666 134.734 73.9568C134.687 74.0032 134.631 74.0393 134.568 74.0627C134.505 74.0861 134.437 74.0963 134.37 74.0925H132.906L133.555 75.0576C133.628 75.1741 133.669 75.3064 133.673 75.4421C133.676 75.5032 133.665 75.5641 133.642 75.6211C133.619 75.6782 133.584 75.7301 133.539 75.7739C133.497 75.8162 133.447 75.85 133.391 75.8734C133.335 75.8967 133.275 75.909 133.214 75.9096C133.116 75.9082 133.02 75.8797 132.939 75.8275C132.857 75.7753 132.794 75.7017 132.755 75.6155L132.098 74.5072L131.441 75.6155C131.402 75.704 131.338 75.78 131.255 75.8348C131.172 75.8895 131.075 75.9207 130.974 75.9247Z" fill="black"/>
<path d="M138.243 75.9247C138.181 75.9247 138.119 75.9126 138.062 75.8893C138.005 75.866 137.954 75.8318 137.911 75.789C137.864 75.7447 137.827 75.6917 137.803 75.6334C137.778 75.575 137.766 75.5125 137.768 75.4497C137.768 75.3435 137.798 75.2393 137.855 75.1481L138.568 74.0925H137.111C137.044 74.0958 136.977 74.0854 136.914 74.062C136.851 74.0386 136.794 74.0028 136.747 73.9568C136.666 73.8666 136.621 73.7516 136.621 73.6326C136.621 73.5137 136.666 73.3986 136.747 73.3084C136.794 73.2625 136.851 73.2266 136.914 73.2032C136.977 73.1798 137.044 73.1694 137.111 73.1727L138.544 73.2104L137.871 72.1925C137.808 72.0921 137.772 71.9779 137.768 71.8608C137.766 71.798 137.778 71.7355 137.803 71.6771C137.827 71.6187 137.864 71.5658 137.911 71.5215C137.955 71.4784 138.008 71.4442 138.066 71.4209C138.125 71.3976 138.188 71.3856 138.251 71.3858C138.34 71.3845 138.427 71.4082 138.501 71.4538C138.576 71.4994 138.635 71.5649 138.671 71.6421L139.367 72.8259L140.032 71.6949C140.074 71.6069 140.14 71.5316 140.224 71.4771C140.308 71.4225 140.406 71.391 140.507 71.3858C140.569 71.3858 140.631 71.3978 140.688 71.4212C140.745 71.4445 140.797 71.4786 140.839 71.5215C140.886 71.5629 140.923 71.6132 140.947 71.6691C140.972 71.725 140.983 71.7852 140.982 71.8457C140.981 71.9528 140.948 72.0574 140.887 72.1473L140.19 73.2104L141.639 73.1727C141.706 73.1689 141.774 73.1791 141.837 73.2025C141.899 73.2259 141.956 73.2621 142.003 73.3084C142.084 73.3986 142.129 73.5137 142.129 73.6326C142.129 73.7516 142.084 73.8666 142.003 73.9568C141.956 74.0032 141.899 74.0393 141.837 74.0627C141.774 74.0861 141.706 74.0963 141.639 74.0925H140.175L140.824 75.0576C140.897 75.1741 140.938 75.3064 140.942 75.4421C140.945 75.5032 140.934 75.5641 140.911 75.6211C140.888 75.6782 140.853 75.7301 140.808 75.7739C140.766 75.8162 140.716 75.85 140.66 75.8734C140.604 75.8967 140.544 75.909 140.483 75.9096C140.385 75.9082 140.289 75.8797 140.208 75.8275C140.126 75.7753 140.062 75.7017 140.024 75.6155L139.367 74.5072L138.71 75.6155C138.671 75.704 138.607 75.78 138.524 75.8348C138.441 75.8895 138.344 75.9207 138.243 75.9247Z" fill="black"/>
<path d="M145.541 75.9247C145.479 75.9247 145.417 75.9126 145.36 75.8893C145.303 75.866 145.251 75.8318 145.208 75.789C145.161 75.7447 145.125 75.6917 145.1 75.6334C145.076 75.575 145.064 75.5125 145.066 75.4497C145.066 75.3435 145.096 75.2393 145.153 75.1481L145.865 74.0925H144.409C144.341 74.0958 144.274 74.0854 144.211 74.062C144.149 74.0386 144.092 74.0028 144.045 73.9568C143.963 73.8666 143.919 73.7516 143.919 73.6326C143.919 73.5137 143.963 73.3986 144.045 73.3084C144.092 73.2625 144.149 73.2266 144.211 73.2032C144.274 73.1798 144.341 73.1694 144.409 73.1727L145.841 73.2104L145.169 72.1925C145.105 72.0921 145.07 71.9779 145.066 71.8608C145.064 71.798 145.076 71.7355 145.1 71.6771C145.125 71.6187 145.161 71.5658 145.208 71.5215C145.253 71.4784 145.306 71.4442 145.364 71.4209C145.422 71.3976 145.485 71.3856 145.549 71.3858C145.637 71.3845 145.724 71.4082 145.799 71.4538C145.874 71.4994 145.932 71.5649 145.968 71.6421L146.665 72.8259L147.33 71.6949C147.371 71.6069 147.438 71.5316 147.522 71.4771C147.605 71.4225 147.703 71.391 147.805 71.3858C147.867 71.3858 147.928 71.3978 147.985 71.4212C148.043 71.4445 148.094 71.4786 148.137 71.5215C148.183 71.5629 148.22 71.6132 148.245 71.6691C148.269 71.725 148.281 71.7852 148.279 71.8457C148.278 71.9528 148.245 72.0574 148.184 72.1473L147.488 73.2104L148.936 73.1727C149.004 73.1689 149.071 73.1791 149.134 73.2025C149.197 73.2259 149.254 73.2621 149.301 73.3084C149.382 73.3986 149.427 73.5137 149.427 73.6326C149.427 73.7516 149.382 73.8666 149.301 73.9568C149.254 74.0032 149.197 74.0393 149.134 74.0627C149.071 74.0861 149.004 74.0963 148.936 74.0925H147.472L148.121 75.0576C148.194 75.1741 148.235 75.3064 148.24 75.4421C148.242 75.5032 148.231 75.5641 148.208 75.6211C148.185 75.6782 148.15 75.7301 148.105 75.7739C148.064 75.8162 148.013 75.85 147.958 75.8734C147.902 75.8967 147.842 75.909 147.781 75.9096C147.683 75.9073 147.588 75.8784 147.506 75.8264C147.425 75.7743 147.361 75.7011 147.322 75.6155L146.665 74.5072L146.008 75.6155C145.969 75.704 145.904 75.78 145.821 75.8348C145.739 75.8895 145.641 75.9207 145.541 75.9247Z" fill="black"/>
<path d="M152.777 75.9247C152.715 75.9247 152.653 75.9127 152.596 75.8893C152.539 75.866 152.487 75.8319 152.444 75.789C152.397 75.7447 152.361 75.6917 152.336 75.6334C152.312 75.575 152.3 75.5125 152.302 75.4497C152.305 75.344 152.335 75.2407 152.389 75.1481L153.101 74.0925H151.645C151.577 74.0958 151.51 74.0854 151.447 74.062C151.385 74.0386 151.328 74.0028 151.281 73.9568C151.199 73.8666 151.155 73.7516 151.155 73.6326C151.155 73.5137 151.199 73.3986 151.281 73.3084C151.328 73.2625 151.385 73.2266 151.447 73.2032C151.51 73.1798 151.577 73.1694 151.645 73.1727L153.078 73.2104L152.405 72.1925C152.341 72.0921 152.306 71.9779 152.302 71.8608C152.3 71.798 152.312 71.7355 152.336 71.6771C152.361 71.6187 152.397 71.5658 152.444 71.5215C152.489 71.4784 152.542 71.4442 152.6 71.4209C152.659 71.3976 152.721 71.3856 152.785 71.3858C152.873 71.3845 152.96 71.4082 153.035 71.4538C153.11 71.4994 153.168 71.5649 153.204 71.6421L153.901 72.8259L154.566 71.6949C154.608 71.6069 154.674 71.5316 154.758 71.4771C154.841 71.4225 154.939 71.391 155.041 71.3858C155.103 71.3849 155.165 71.3965 155.222 71.4199C155.279 71.4433 155.331 71.4779 155.373 71.5215C155.419 71.5629 155.456 71.6132 155.481 71.6691C155.505 71.725 155.517 71.7852 155.516 71.8457C155.514 71.9528 155.482 72.0574 155.421 72.1473L154.724 73.2104L156.173 73.1727C156.24 73.1689 156.307 73.1791 156.37 73.2025C156.433 73.2259 156.49 73.2621 156.537 73.3084C156.618 73.3986 156.663 73.5137 156.663 73.6326C156.663 73.7516 156.618 73.8666 156.537 73.9568C156.49 74.0032 156.433 74.0393 156.37 74.0627C156.307 74.0862 156.24 74.0963 156.173 74.0925H154.708L155.357 75.0576C155.43 75.1741 155.471 75.3064 155.476 75.4421C155.478 75.5032 155.467 75.5641 155.444 75.6211C155.421 75.6782 155.386 75.7301 155.341 75.7739C155.3 75.8162 155.249 75.85 155.194 75.8734C155.138 75.8967 155.078 75.909 155.017 75.9096C154.919 75.9073 154.824 75.8784 154.742 75.8264C154.661 75.7743 154.597 75.7011 154.558 75.6155L153.901 74.5072L153.244 75.6155C153.205 75.704 153.14 75.78 153.057 75.8348C152.975 75.8895 152.877 75.9207 152.777 75.9247Z" fill="black"/>
<path d="M160.044 75.9247C159.981 75.9247 159.92 75.9127 159.863 75.8893C159.806 75.866 159.754 75.8319 159.711 75.789C159.664 75.7447 159.627 75.6917 159.603 75.6334C159.578 75.575 159.567 75.5125 159.569 75.4497C159.572 75.344 159.602 75.2407 159.656 75.1481L160.368 74.0925H158.92C158.851 74.0964 158.782 74.0863 158.718 74.0629C158.654 74.0395 158.596 74.0034 158.548 73.9568C158.466 73.8666 158.421 73.7516 158.421 73.6326C158.421 73.5137 158.466 73.3986 158.548 73.3084C158.596 73.2619 158.654 73.2257 158.718 73.2023C158.782 73.1789 158.851 73.1688 158.92 73.1727L160.344 73.2104L159.672 72.1925C159.608 72.0921 159.573 71.9779 159.569 71.8608C159.567 71.798 159.578 71.7355 159.603 71.6771C159.627 71.6187 159.664 71.5658 159.711 71.5215C159.755 71.4784 159.808 71.4442 159.867 71.4209C159.925 71.3976 159.988 71.3856 160.051 71.3858C160.14 71.3845 160.227 71.4082 160.302 71.4538C160.376 71.4994 160.435 71.5649 160.471 71.6421L161.168 72.8259L161.832 71.6949C161.874 71.6069 161.941 71.5316 162.025 71.4771C162.108 71.4225 162.206 71.391 162.307 71.3858C162.37 71.3849 162.432 71.3965 162.489 71.4199C162.546 71.4433 162.598 71.4779 162.64 71.5215C162.686 71.5629 162.723 71.6132 162.747 71.6691C162.772 71.725 162.784 71.7852 162.782 71.8457C162.781 71.9528 162.748 72.0574 162.687 72.1473L161.991 73.2104L163.439 73.1727C163.507 73.1689 163.574 73.1791 163.637 73.2025C163.7 73.2259 163.757 73.2621 163.803 73.3084C163.885 73.3986 163.93 73.5137 163.93 73.6326C163.93 73.7516 163.885 73.8666 163.803 73.9568C163.757 74.0032 163.7 74.0393 163.637 74.0627C163.574 74.0862 163.507 74.0963 163.439 74.0925H161.975L162.624 75.0576C162.697 75.1741 162.738 75.3064 162.743 75.4421C162.745 75.5032 162.734 75.5641 162.711 75.6211C162.688 75.6782 162.653 75.7301 162.608 75.7739C162.567 75.8162 162.516 75.85 162.461 75.8734C162.405 75.8967 162.345 75.909 162.284 75.9096C162.186 75.9073 162.09 75.8784 162.009 75.8264C161.928 75.7743 161.864 75.7011 161.825 75.6155L161.168 74.5072L160.511 75.6155C160.472 75.704 160.407 75.78 160.324 75.8348C160.242 75.8895 160.144 75.9207 160.044 75.9247Z" fill="black"/>
<path d="M167.306 75.9241C167.244 75.9241 167.183 75.9121 167.125 75.8887C167.068 75.8654 167.017 75.8313 166.974 75.7884C166.927 75.7441 166.89 75.6911 166.866 75.6328C166.841 75.5744 166.829 75.5119 166.831 75.4491C166.831 75.3429 166.861 75.2387 166.918 75.1475L167.631 74.092H166.174C166.107 74.0952 166.04 74.0848 165.977 74.0614C165.914 74.038 165.857 74.0022 165.81 73.9562C165.729 73.866 165.684 73.751 165.684 73.632C165.684 73.5131 165.729 73.3981 165.81 73.3078C165.857 73.2619 165.914 73.226 165.977 73.2026C166.04 73.1792 166.107 73.1688 166.174 73.1721L167.607 73.2098L166.91 72.2297C166.847 72.1293 166.812 72.015 166.808 71.8979C166.806 71.8351 166.817 71.7726 166.842 71.7142C166.866 71.6558 166.903 71.6029 166.95 71.5586C166.994 71.5155 167.047 71.4813 167.106 71.458C167.164 71.4347 167.227 71.4227 167.29 71.4229C167.379 71.4217 167.466 71.4453 167.541 71.4909C167.615 71.5365 167.674 71.602 167.71 71.6793L168.407 72.863L169.071 71.732C169.113 71.644 169.18 71.5687 169.264 71.5142C169.347 71.4597 169.445 71.4281 169.546 71.4229C169.609 71.422 169.671 71.4336 169.728 71.457C169.785 71.4804 169.837 71.515 169.879 71.5586C169.925 71.6 169.962 71.6503 169.986 71.7062C170.011 71.7621 170.023 71.8223 170.021 71.8828C170.02 71.9899 169.987 72.0945 169.926 72.1844L169.23 73.2475L170.678 73.2098C170.746 73.206 170.813 73.2162 170.876 73.2396C170.939 73.263 170.996 73.2992 171.042 73.3455C171.124 73.4358 171.169 73.5508 171.169 73.6697C171.169 73.7887 171.124 73.9037 171.042 73.9939C170.996 74.0403 170.939 74.0764 170.876 74.0998C170.813 74.1233 170.746 74.1334 170.678 74.1297H169.214L169.863 75.0947C169.936 75.2112 169.977 75.3435 169.982 75.4792C169.984 75.5403 169.973 75.6012 169.95 75.6582C169.927 75.7153 169.892 75.7672 169.847 75.811C169.805 75.8533 169.755 75.8872 169.699 75.9105C169.644 75.9338 169.584 75.9461 169.523 75.9467C169.425 75.9444 169.329 75.9155 169.248 75.8635C169.167 75.8114 169.103 75.7382 169.064 75.6527L168.407 74.5443L167.75 75.6527C167.707 75.7308 167.644 75.7969 167.566 75.8445C167.488 75.8921 167.399 75.9196 167.306 75.9241Z" fill="black"/>
<path d="M174.575 75.9243C174.513 75.9243 174.452 75.9123 174.395 75.889C174.337 75.8657 174.286 75.8315 174.243 75.7886C174.196 75.7444 174.159 75.6914 174.135 75.633C174.11 75.5747 174.099 75.5122 174.1 75.4494C174.104 75.3437 174.134 75.2404 174.188 75.1478L174.9 74.0922H173.451C173.384 74.0971 173.316 74.0874 173.253 74.0639C173.19 74.0404 173.133 74.0037 173.087 73.9565C173.001 73.8685 172.953 73.7527 172.953 73.6323C172.953 73.5119 173.001 73.396 173.087 73.3081C173.133 73.2609 173.19 73.2242 173.253 73.2007C173.316 73.1772 173.384 73.1675 173.451 73.1724L174.876 73.2101L174.203 72.1922C174.14 72.0918 174.104 71.9776 174.1 71.8605C174.098 71.7988 174.109 71.7374 174.133 71.6798C174.156 71.6223 174.191 71.5698 174.236 71.5255C174.281 71.4811 174.335 71.4459 174.395 71.4219C174.454 71.3978 174.519 71.3854 174.583 71.3855C174.672 71.3842 174.759 71.4079 174.834 71.4535C174.908 71.499 174.967 71.5646 175.003 71.6418L175.699 72.8255L176.364 71.6946C176.406 71.6066 176.473 71.5312 176.556 71.4767C176.64 71.4222 176.738 71.3906 176.839 71.3855C176.902 71.3836 176.964 71.3947 177.021 71.4182C177.079 71.4416 177.13 71.4768 177.172 71.5212C177.218 71.5626 177.255 71.6129 177.279 71.6688C177.304 71.7246 177.316 71.7848 177.314 71.8454C177.313 71.9524 177.28 72.057 177.219 72.147L176.523 73.2101L177.971 73.1724C178.039 73.1686 178.106 73.1788 178.169 73.2022C178.232 73.2256 178.288 73.2617 178.335 73.3081C178.417 73.3983 178.461 73.5133 178.461 73.6323C178.461 73.7512 178.417 73.8663 178.335 73.9565C178.288 74.0028 178.232 74.039 178.169 74.0624C178.106 74.0858 178.039 74.096 177.971 74.0922H176.507L177.156 75.0573C177.229 75.1738 177.27 75.3061 177.275 75.4418C177.277 75.5012 177.266 75.5605 177.245 75.6161C177.223 75.6718 177.189 75.7228 177.147 75.7662C177.104 75.8096 177.053 75.8446 176.996 75.8691C176.939 75.8937 176.878 75.9073 176.815 75.9093C176.718 75.907 176.622 75.8781 176.541 75.826C176.46 75.7739 176.396 75.7008 176.356 75.6152L175.699 74.5069L175.042 75.6152C175.003 75.7037 174.939 75.7797 174.856 75.8344C174.773 75.8892 174.676 75.9204 174.575 75.9243Z" fill="black"/>
<path d="M181.84 75.9243C181.778 75.9243 181.716 75.9123 181.659 75.889C181.602 75.8657 181.551 75.8315 181.508 75.7886C181.461 75.7444 181.424 75.6914 181.4 75.633C181.375 75.5747 181.363 75.5122 181.365 75.4494C181.369 75.3437 181.399 75.2404 181.452 75.1478L182.165 74.0922H180.708C180.642 74.0959 180.576 74.0857 180.514 74.0622C180.453 74.0388 180.397 74.0027 180.352 73.9565C180.266 73.8685 180.218 73.7527 180.218 73.6323C180.218 73.5119 180.266 73.396 180.352 73.3081C180.397 73.2619 180.453 73.2258 180.514 73.2024C180.576 73.1789 180.642 73.1687 180.708 73.1724L182.141 73.2101L181.468 72.1922C181.405 72.0918 181.369 71.9776 181.365 71.8605C181.363 71.7988 181.374 71.7374 181.397 71.6798C181.421 71.6223 181.456 71.5698 181.501 71.5255C181.546 71.4811 181.6 71.4459 181.66 71.4219C181.719 71.3978 181.783 71.3854 181.848 71.3855C181.937 71.3842 182.024 71.4079 182.098 71.4535C182.173 71.499 182.232 71.5646 182.268 71.6418L182.964 72.8255L183.629 71.6946C183.671 71.6066 183.737 71.5312 183.821 71.4767C183.905 71.4222 184.003 71.3906 184.104 71.3855C184.166 71.3836 184.229 71.3947 184.286 71.4182C184.343 71.4416 184.395 71.4768 184.436 71.5212C184.483 71.5626 184.52 71.6129 184.544 71.6688C184.569 71.7246 184.581 71.7848 184.579 71.8454C184.578 71.9524 184.545 72.057 184.484 72.147L183.787 73.2101L185.236 73.1724C185.303 73.1686 185.371 73.1788 185.434 73.2022C185.496 73.2256 185.553 73.2617 185.6 73.3081C185.681 73.3983 185.726 73.5133 185.726 73.6323C185.726 73.7512 185.681 73.8663 185.6 73.9565C185.553 74.0028 185.496 74.039 185.434 74.0624C185.371 74.0858 185.303 74.096 185.236 74.0922H183.772L184.421 75.0573C184.494 75.1738 184.535 75.3061 184.539 75.4418C184.541 75.5012 184.531 75.5605 184.509 75.6161C184.487 75.6718 184.454 75.7228 184.412 75.7662C184.369 75.8096 184.318 75.8446 184.261 75.8691C184.204 75.8937 184.143 75.9073 184.08 75.9093C183.982 75.907 183.887 75.8781 183.806 75.826C183.724 75.7739 183.66 75.7008 183.621 75.6152L182.964 74.5069L182.307 75.6152C182.268 75.7037 182.204 75.7797 182.121 75.8344C182.038 75.8892 181.941 75.9204 181.84 75.9243Z" fill="black"/>
<path d="M189.078 75.9243C189.016 75.9243 188.955 75.9123 188.897 75.889C188.84 75.8657 188.789 75.8315 188.746 75.7886C188.699 75.7444 188.662 75.6914 188.638 75.633C188.613 75.5747 188.601 75.5122 188.603 75.4494C188.607 75.3437 188.637 75.2404 188.69 75.1478L189.403 74.0922H187.946C187.88 74.0959 187.814 74.0857 187.752 74.0622C187.691 74.0388 187.635 74.0027 187.59 73.9565C187.504 73.8685 187.456 73.7527 187.456 73.6323C187.456 73.5119 187.504 73.396 187.59 73.3081C187.635 73.2619 187.691 73.2258 187.752 73.2024C187.814 73.1789 187.88 73.1687 187.946 73.1724L189.379 73.2101L188.706 72.1922C188.643 72.0918 188.607 71.9776 188.603 71.8605C188.601 71.7976 188.613 71.7351 188.638 71.6768C188.662 71.6184 188.699 71.5655 188.746 71.5212C188.79 71.4781 188.843 71.4439 188.902 71.4206C188.96 71.3972 189.023 71.3853 189.086 71.3855C189.175 71.3842 189.262 71.4079 189.336 71.4535C189.411 71.499 189.47 71.5646 189.506 71.6418L190.202 72.8255L190.867 71.6946C190.909 71.6066 190.975 71.5312 191.059 71.4767C191.143 71.4222 191.241 71.3906 191.342 71.3855C191.405 71.3836 191.467 71.3947 191.524 71.4182C191.582 71.4416 191.633 71.4768 191.675 71.5212C191.721 71.5626 191.758 71.6129 191.782 71.6688C191.807 71.7246 191.819 71.7848 191.817 71.8454C191.816 71.9524 191.783 72.057 191.722 72.147L191.025 73.2101L192.474 73.1724C192.541 73.1686 192.609 73.1788 192.672 73.2022C192.735 73.2256 192.791 73.2617 192.838 73.3081C192.92 73.3983 192.964 73.5133 192.964 73.6323C192.964 73.7512 192.92 73.8663 192.838 73.9565C192.791 74.0028 192.735 74.039 192.672 74.0624C192.609 74.0858 192.541 74.096 192.474 74.0922H191.01L191.659 75.0573C191.732 75.1738 191.773 75.3061 191.777 75.4418C191.78 75.5029 191.769 75.5638 191.746 75.6208C191.723 75.6778 191.688 75.7298 191.643 75.7736C191.601 75.8159 191.551 75.8497 191.495 75.873C191.439 75.8964 191.379 75.9087 191.318 75.9093C191.22 75.907 191.125 75.8781 191.044 75.826C190.962 75.7739 190.898 75.7008 190.859 75.6152L190.202 74.5069L189.545 75.6152C189.506 75.7037 189.442 75.7797 189.359 75.8344C189.276 75.8892 189.179 75.9204 189.078 75.9243Z" fill="black"/>
<path d="M213.981 92.6016H223.661" stroke="white" stroke-width="3" stroke-linecap="round" stroke-linejoin="round"/>
<path d="M79.7064 24.7075V85.9523C79.7064 87.7259 80.4462 89.427 81.7629 90.6812C83.0796 91.9353 84.8655 92.6399 86.7276 92.6399H204.789" stroke="white" stroke-width="3" stroke-linecap="round" stroke-linejoin="round"/>
<path d="M79.7064 8.46729V17.6506" stroke="white" stroke-width="3" stroke-linecap="round" stroke-linejoin="round"/>
</g>
<defs>
<filter id="filter0_d_316_7108" x="0.773643" y="0" width="322.226" height="277" filterUnits="userSpaceOnUse" color-interpolation-filters="sRGB">
<feFlood flood-opacity="0" result="BackgroundImageFix"/>
<feColorMatrix in="SourceAlpha" type="matrix" values="0 0 0 0 0 0 0 0 0 0 0 0 0 0 0 0 0 0 127 0" result="hardAlpha"/>
<feOffset dy="4"/>
<feGaussianBlur stdDeviation="2"/>
<feComposite in2="hardAlpha" operator="out"/>
<feColorMatrix type="matrix" values="0 0 0 0 0 0 0 0 0 0 0 0 0 0 0 0 0 0 0.1 0"/>
<feBlend mode="normal" in2="BackgroundImageFix" result="effect1_dropShadow_316_7108"/>
<feBlend mode="normal" in="SourceGraphic" in2="effect1_dropShadow_316_7108" result="shape"/>
</filter>
</defs>
</svg>
