<svg width="20" height="18" viewBox="0 0 20 18" fill="none" xmlns="http://www.w3.org/2000/svg">
<path d="M18.9971 10.9824C19.0226 11.0775 19.0291 11.1768 19.0162 11.2744C19.0033 11.3721 18.9714 11.4662 18.9221 11.5515C18.8729 11.6368 18.8073 11.7116 18.7292 11.7715C18.651 11.8315 18.5618 11.8755 18.4667 11.901L16.1176 12.5304L16.7471 14.8794C16.7727 14.9746 16.7792 15.0739 16.7665 15.1716C16.7537 15.2693 16.7217 15.3636 16.6725 15.449C16.6233 15.5343 16.5577 15.6092 16.4795 15.6692C16.4013 15.7292 16.3121 15.7732 16.2169 15.7987C16.1217 15.8242 16.0224 15.8307 15.9247 15.8178C15.827 15.8049 15.7328 15.7729 15.6474 15.7236C15.5621 15.6743 15.4874 15.6086 15.4274 15.5304C15.3675 15.4521 15.3236 15.3628 15.2981 15.2676L14.555 12.4942L10.7529 10.299V14.6893L12.7832 16.7196C12.9239 16.8603 13.0029 17.0511 13.0029 17.25C13.0029 17.4489 12.9239 17.6397 12.7832 17.7803C12.6426 17.921 12.4518 18 12.2529 18C12.054 18 11.8632 17.921 11.7226 17.7804L10.0029 16.0607L8.28319 17.7804C8.14253 17.921 7.95176 18 7.75284 18C7.55392 18 7.36316 17.921 7.22251 17.7803C7.08186 17.6397 7.00285 17.4489 7.00286 17.25C7.00286 17.0511 7.08189 16.8603 7.22255 16.7197L9.25287 14.6893V10.299L5.45076 12.4942L4.7076 15.2676C4.65612 15.4598 4.53043 15.6236 4.35817 15.723C4.18591 15.8225 3.98119 15.8495 3.78905 15.798C3.59691 15.7465 3.43309 15.6208 3.33363 15.4486C3.23417 15.2763 3.20721 15.0716 3.25869 14.8794L3.88816 12.5304L1.53905 11.901C1.44383 11.8755 1.35455 11.8316 1.27631 11.7717C1.19808 11.7117 1.13242 11.637 1.0831 11.5517C1.03378 11.4663 1.00176 11.3721 0.988866 11.2744C0.975974 11.1767 0.982467 11.0774 1.00797 10.9822C1.03348 10.887 1.07749 10.7978 1.13751 10.7196C1.19752 10.6414 1.27235 10.5758 1.35772 10.5266C1.4431 10.4774 1.53734 10.4454 1.63506 10.4326C1.73278 10.4199 1.83206 10.4264 1.92723 10.452L4.7008 11.1952L8.50294 9.00002L4.7008 6.80486L1.92723 7.54799C1.83206 7.57359 1.73278 7.58018 1.63506 7.56739C1.53734 7.55459 1.4431 7.52266 1.35772 7.47343C1.27235 7.42419 1.19752 7.35861 1.13751 7.28043C1.07749 7.20226 1.03348 7.11302 1.00797 7.01782C0.982468 6.92262 0.975975 6.82333 0.988867 6.72563C1.00176 6.62792 1.03378 6.53371 1.0831 6.44838C1.13242 6.36306 1.19808 6.28829 1.27631 6.22836C1.35455 6.16842 1.44383 6.12449 1.53905 6.09908L3.88816 5.46966L3.25869 3.12059C3.23309 3.02542 3.2265 2.92614 3.23929 2.82842C3.25209 2.7307 3.28402 2.63645 3.33325 2.55108C3.38249 2.46571 3.44807 2.39088 3.52625 2.33086C3.60442 2.27085 3.69366 2.22683 3.78886 2.20133C3.88406 2.17583 3.98335 2.16933 4.08105 2.18222C4.17876 2.19512 4.27297 2.22714 4.3583 2.27646C4.44362 2.32578 4.51839 2.39144 4.57832 2.46967C4.63826 2.54791 4.68219 2.63719 4.7076 2.73241L5.45075 5.50588L9.25287 7.70102V3.31071L7.22255 1.28038C7.08189 1.13973 7.00286 0.948967 7.00286 0.75005C7.00285 0.551133 7.08186 0.36036 7.22251 0.219698C7.36316 0.0790365 7.55392 8.61714e-06 7.75284 7.04664e-10C7.95176 -8.61573e-06 8.14253 0.0790026 8.28319 0.219652L10.0029 1.93938L11.7226 0.219652C11.7922 0.150009 11.8749 0.0947673 11.9659 0.0570794C12.0569 0.0193914 12.1544 -4.26305e-06 12.2529 7.04664e-10C12.3514 4.26445e-06 12.4489 0.0194082 12.5399 0.0571041C12.6309 0.0947999 12.7136 0.150049 12.7832 0.219698C12.8529 0.289346 12.9081 0.37203 12.9458 0.463028C12.9835 0.554026 13.0029 0.651556 13.0029 0.75005C13.0029 0.848544 12.9835 0.946072 12.9458 1.03707C12.9081 1.12806 12.8528 1.21074 12.7832 1.28038L10.7529 3.31071V7.70102L14.555 5.50588L15.2981 2.73241C15.3236 2.63727 15.3676 2.54808 15.4276 2.46994C15.4875 2.3918 15.5623 2.32623 15.6476 2.27698C15.7329 2.22774 15.827 2.19577 15.9247 2.18291C16.0223 2.17005 16.1216 2.17655 16.2167 2.20204C16.3118 2.22753 16.401 2.27151 16.4792 2.33146C16.5573 2.39142 16.6229 2.46618 16.6721 2.55147C16.7214 2.63677 16.7533 2.73093 16.7662 2.82858C16.779 2.92623 16.7725 3.02546 16.7471 3.12059L16.1176 5.46965L18.4667 6.09908C18.5619 6.12449 18.6512 6.16842 18.7294 6.22835C18.8077 6.28829 18.8733 6.36306 18.9226 6.44838C18.972 6.5337 19.004 6.62791 19.0169 6.72562C19.0298 6.82333 19.0233 6.92262 18.9978 7.01782C18.9723 7.11301 18.9283 7.20225 18.8682 7.28043C18.8082 7.3586 18.7334 7.42418 18.648 7.47342C18.5626 7.52266 18.4684 7.55459 18.3707 7.56738C18.273 7.58018 18.1737 7.57359 18.0785 7.54799L15.3049 6.80486L11.5028 9.00002L15.3049 11.1952L18.0785 10.452C18.2706 10.4006 18.4754 10.4275 18.6476 10.527C18.8199 10.6265 18.9456 10.7903 18.9971 10.9824Z" fill="#FD6746"/>
</svg>
