<svg width="336" height="278" viewBox="0 0 336 278" fill="none" xmlns="http://www.w3.org/2000/svg">
<g filter="url(#filter0_d_316_6949)">
<path d="M332 237.427H4V237.607H332V237.427Z" fill="#E0E0E0"/>
<path d="M82.4909 245.065H60.3574V245.246H82.4909V245.065Z" fill="#E0E0E0"/>
<path d="M55.5413 245.152H42.4082V245.332H55.5413V245.152Z" fill="#E0E0E0"/>
<path d="M202.846 241.286H140.664V241.466H202.846V241.286Z" fill="#E0E0E0"/>
<path d="M114.065 250.179H94.2402V250.359H114.065V250.179Z" fill="#E0E0E0"/>
<path d="M275.367 243.767H223.76V243.947H275.367V243.767Z" fill="#E0E0E0"/>
<path d="M159.473 205.257H32.8056C31.8133 205.255 30.8622 204.821 30.1612 204.048C29.4601 203.276 29.0664 202.23 29.0664 201.139V5.36031C29.075 4.27551 29.4726 3.23827 30.1727 2.47388C30.8728 1.70949 31.819 1.27969 32.8056 1.27783H159.473C160.466 1.27783 161.419 1.71175 162.121 2.48412C162.824 3.2565 163.218 4.30407 163.218 5.39637V201.139C163.218 202.231 162.824 203.279 162.121 204.051C161.419 204.823 160.466 205.257 159.473 205.257ZM32.8056 1.42209C31.8568 1.424 30.9475 1.83976 30.2772 2.57811C29.6069 3.31646 29.2304 4.31708 29.2304 5.36031V201.139C29.2304 202.182 29.6069 203.183 30.2772 203.921C30.9475 204.659 31.8568 205.075 32.8056 205.077H159.473C160.422 205.075 161.332 204.66 162.003 203.921C162.675 203.183 163.053 202.183 163.054 201.139V5.36031C163.053 4.31641 162.675 3.31582 162.003 2.57767C161.332 1.83953 160.422 1.424 159.473 1.42209H32.8056Z" fill="#E0E0E0"/>
<path d="M301.371 205.257H174.697C173.704 205.255 172.752 204.821 172.05 204.049C171.348 203.277 170.953 202.23 170.951 201.139V5.36031C170.962 4.27485 171.361 3.23762 172.062 2.47343C172.763 1.70924 173.71 1.27967 174.697 1.27783H301.371C302.356 1.28159 303.3 1.71223 303.999 2.47641C304.698 3.2406 305.095 4.27676 305.103 5.36031V201.139C305.103 202.229 304.71 203.274 304.011 204.046C303.311 204.818 302.362 205.253 301.371 205.257ZM174.697 1.42209C173.748 1.424 172.837 1.83953 172.166 2.57767C171.495 3.31582 171.117 4.31641 171.115 5.36031V201.139C171.117 202.183 171.495 203.183 172.166 203.921C172.837 204.66 173.748 205.075 174.697 205.077H301.371C302.32 205.075 303.23 204.66 303.901 203.921C304.573 203.183 304.951 202.183 304.952 201.139V5.36031C304.951 4.31641 304.573 3.31582 303.901 2.57767C303.23 1.83953 302.32 1.424 301.371 1.42209H174.697Z" fill="#E0E0E0"/>
<path d="M280.32 153.31H263.605V237.427H280.32V153.31Z" fill="#E0E0E0"/>
<path d="M277.144 237.427H280.319V227.495H273.818L277.144 237.427Z" fill="#F0F0F0"/>
<path d="M217.856 153.31H201.141V237.427H217.856V153.31Z" fill="#E0E0E0"/>
<path d="M280.321 153.31H215.082V231.332H280.321V153.31Z" fill="#F0F0F0"/>
<path d="M248.766 193.125V218.918H277.859V193.125H248.766Z" fill="#E0E0E0"/>
<path d="M217.547 193.125V218.918H246.64V193.125H217.547Z" fill="#E0E0E0"/>
<path d="M234.971 195.909H229.211C227.975 195.909 226.751 195.631 225.615 195.093C224.479 194.555 223.455 193.767 222.605 192.779H241.577C240.727 193.767 239.703 194.555 238.568 195.093C237.432 195.631 236.208 195.909 234.971 195.909Z" fill="#F0F0F0"/>
<path d="M266.485 195.909H260.732C259.494 195.909 258.269 195.632 257.132 195.093C255.995 194.555 254.97 193.768 254.119 192.779H273.097C272.246 193.767 271.221 194.554 270.084 195.092C268.947 195.63 267.722 195.908 266.485 195.909Z" fill="#F0F0F0"/>
<path d="M248.766 159.181V184.975H277.859V159.181H248.766Z" fill="#E0E0E0"/>
<path d="M217.541 159.189V184.982H246.635V159.189H217.541Z" fill="#E0E0E0"/>
<path d="M234.971 161.966H229.211C227.975 161.965 226.752 161.688 225.616 161.151C224.481 160.614 223.456 159.829 222.605 158.843H241.577C240.726 159.829 239.702 160.614 238.566 161.151C237.43 161.688 236.207 161.965 234.971 161.966Z" fill="#F0F0F0"/>
<path d="M266.485 161.966H260.732C259.494 161.965 258.27 161.688 257.134 161.151C255.997 160.615 254.971 159.829 254.119 158.843H273.097C272.245 159.828 271.219 160.613 270.082 161.15C268.946 161.687 267.722 161.965 266.485 161.966Z" fill="#F0F0F0"/>
<path d="M218.257 237.427H215.082V227.495H221.59L218.257 237.427Z" fill="#F0F0F0"/>
<path d="M231.219 140.132C231.219 143.349 233.252 145.585 230.327 145.585C227.401 145.585 220.631 143.349 220.631 140.132C220.631 138.589 221.189 137.108 222.181 136.016C223.174 134.925 224.521 134.312 225.925 134.312C227.329 134.312 228.675 134.925 229.668 136.016C230.661 137.108 231.219 138.589 231.219 140.132Z" fill="#E0E0E0"/>
<path d="M240.278 142.909C240.278 146.119 242.312 148.362 239.386 148.362C236.46 148.362 229.664 146.119 229.664 142.909C229.664 141.365 230.222 139.885 231.215 138.793C232.207 137.702 233.554 137.088 234.958 137.088C236.362 137.088 237.709 137.702 238.701 138.793C239.694 139.885 240.252 141.365 240.252 142.909H240.278Z" fill="#E0E0E0"/>
<path d="M248.957 141.207C248.957 144.417 250.991 146.66 248.065 146.66C245.139 146.66 238.369 144.417 238.369 141.207C238.369 139.663 238.927 138.183 239.92 137.091C240.912 135.999 242.259 135.386 243.663 135.386C245.067 135.386 246.414 135.999 247.406 137.091C248.399 138.183 248.957 139.663 248.957 141.207Z" fill="#E0E0E0"/>
<path d="M217.391 141.928C217.391 141.928 217.824 153.281 234.414 153.281C251.004 153.281 251.43 141.928 251.43 141.928H217.391Z" fill="#E6E6E6"/>
<path d="M281.015 14.9751H196.896V117.325H281.015V14.9751Z" fill="#E0E0E0"/>
<path d="M290.017 11.8159H191.453C191.343 11.815 191.234 11.838 191.132 11.8836C191.03 11.9292 190.938 11.9965 190.86 12.0817C190.782 12.1668 190.72 12.2681 190.677 12.3798C190.635 12.4914 190.613 12.6111 190.613 12.732C190.613 12.9768 190.702 13.2117 190.859 13.3848C191.017 13.558 191.23 13.6552 191.453 13.6552H290.017C290.127 13.6552 290.236 13.6313 290.337 13.5848C290.439 13.5383 290.531 13.4702 290.608 13.3844C290.686 13.2986 290.747 13.1967 290.789 13.0847C290.83 12.9728 290.851 12.8529 290.85 12.732C290.85 12.489 290.762 12.256 290.606 12.0842C290.45 11.9125 290.238 11.8159 290.017 11.8159Z" fill="#E0E0E0"/>
<path d="M284.584 14.9751H198.562V117.325H284.584V14.9751Z" fill="#E6E6E6"/>
<path d="M281.015 117.325H196.896V124.617H281.015V117.325Z" fill="#E0E0E0"/>
<path d="M290.527 117.325H204.506V124.617H290.527V117.325Z" fill="#E6E6E6"/>
<path d="M279.586 111.822V20.4644L203.562 20.4644V111.822H279.586Z" fill="#F5F5F5"/>
<path d="M220.82 111.829L250.15 20.4712H263.992L234.662 111.829H220.82Z" fill="#FAFAFA"/>
<path d="M237.635 111.829L266.965 20.4712H272.363L243.034 111.829H237.635Z" fill="#FAFAFA"/>
<path d="M279.586 111.829V20.4712H278.95V111.829H279.586Z" fill="#E0E0E0"/>
<path d="M203.622 10.1714H195.021V98.3269H203.622V10.1714Z" fill="#EBEBEB"/>
<path d="M206.967 10.1714H200.27V98.3269H206.967V10.1714Z" fill="#E0E0E0"/>
<path d="M212.221 10.1714H203.621V98.3269H212.221V10.1714Z" fill="#EBEBEB"/>
<path d="M215.567 10.1714H208.869V98.3269H215.567V10.1714Z" fill="#E0E0E0"/>
<path d="M220.821 10.1714H212.221V98.3269H220.821V10.1714Z" fill="#EBEBEB"/>
<path d="M276.384 10.1714H271.432V98.3269H276.384V10.1714Z" fill="#EBEBEB"/>
<path d="M278.319 10.1714H274.455V98.3269H278.319V10.1714Z" fill="#E0E0E0"/>
<path d="M281.338 10.1714H276.385V98.3269H281.338V10.1714Z" fill="#EBEBEB"/>
<path d="M283.272 10.1714H279.408V98.3269H283.272V10.1714Z" fill="#E0E0E0"/>
<path d="M286.297 10.1714H281.344V98.3269H286.297V10.1714Z" fill="#EBEBEB"/>
<path d="M76.4024 37.8037H67.4414V64.686H76.4024V37.8037Z" fill="#E6E6E6"/>
<path d="M55.1947 70.8386L52.3477 79.3786H55.1947L72.6181 70.8386H55.1947Z" fill="#F0F0F0"/>
<path d="M52.3477 70.8386V79.3786L69.7776 70.8386H52.3477Z" fill="#E0E0E0"/>
<path d="M123.524 70.8386L120.684 79.3786H123.524L140.954 70.8386H123.524Z" fill="#F0F0F0"/>
<path d="M120.684 70.8386V79.3786L138.107 70.8386H120.684Z" fill="#E0E0E0"/>
<path d="M39.5618 71.2429H58.5137V64.7441H39.5618V71.2429Z" fill="#E0E0E0"/>
<path d="M152.729 64.7437H58.5078V71.2424H152.729V64.7437Z" fill="#F0F0F0"/>
<path d="M91.3265 64.6859H69.5145L66.8184 32.1055H88.6304L91.3265 64.6859Z" fill="#E0E0E0"/>
<path d="M92.4554 64.6859H70.65L67.9473 32.1055H89.7593L92.4554 64.6859Z" fill="#F0F0F0"/>
<path d="M73.6265 61.0798L71.5273 35.7122H86.7793L88.8785 61.0798H73.6265Z" fill="#FAFAFA"/>
<path d="M101.26 54.1047C101.26 54.1047 101.66 64.686 117.122 64.686C132.584 64.686 132.984 54.1047 132.984 54.1047H101.26Z" fill="#E6E6E6"/>
<path d="M85.1874 235.09H61.2893C60.7483 235.102 60.218 234.922 59.7767 234.578C59.3354 234.234 59.0063 233.742 58.8381 233.177C58.6698 232.611 58.6712 232.001 58.8421 231.437C59.0129 230.872 59.3442 230.383 59.7871 230.041L60.1741 230.618C59.8593 230.877 59.6264 231.238 59.5084 231.65C59.3904 232.063 59.3932 232.506 59.5165 232.916C59.6397 233.327 59.8772 233.684 60.1953 233.939C60.5134 234.193 60.8961 234.33 61.2893 234.332H85.1874C86.6518 234.331 88.0557 233.69 89.0912 232.552C90.1267 231.413 90.7092 229.869 90.7109 228.259V150.497C90.7127 148.745 91.3461 147.065 92.4724 145.825C93.5988 144.585 95.1262 143.887 96.7199 143.883H103.87V144.605H96.7199C95.3001 144.608 93.9396 145.231 92.9363 146.335C91.933 147.44 91.3687 148.936 91.3669 150.497V228.295C91.3635 230.096 90.7113 231.822 89.5532 233.096C88.395 234.369 86.8253 235.086 85.1874 235.09Z" fill="#E0E0E0"/>
<path d="M165.015 145.369H121.975V237.427H165.015V145.369Z" fill="#E0E0E0"/>
<path d="M166.635 145.369H163.086V237.427H166.635V145.369Z" fill="#EBEBEB"/>
<path d="M82.1487 152.272H167.73V145.369H82.1487V152.272Z" fill="#EBEBEB"/>
<path d="M81.6378 145.369H38.5977V237.427H81.6378V145.369Z" fill="#E0E0E0"/>
<path d="M83.2501 145.369H79.7012V237.427H83.2501V145.369Z" fill="#EBEBEB"/>
<path d="M68.3086 117.888H108.416L114.229 143.926H74.1208L68.3086 117.888Z" fill="#E0E0E0"/>
<path d="M74.1211 143.927L74.2851 145.369H114.393L114.235 143.927H74.1211Z" fill="#E0E0E0"/>
<path d="M69.5469 117.888H109.655L115.467 143.926H75.359L69.5469 117.888Z" fill="#F0F0F0"/>
<path d="M76.2066 142.737L70.9258 119.078H108.803L114.084 142.737H76.2066Z" fill="#FAFAFA"/>
<path d="M85.8105 143.927L85.968 145.369H130.136L129.972 143.927H85.8105Z" fill="#F0F0F0"/>
<path d="M54.5577 138.805C54.5577 138.805 48.6537 127.618 56.8471 118.71C56.8471 118.71 58.9791 120.247 58.9463 122.317C58.9135 124.387 56.6634 124.899 57.1423 126.645C57.6212 128.39 59.7663 130.049 58.3625 131.47C56.9586 132.891 58.5855 134.153 58.4937 135.899C58.4018 137.644 54.5577 138.805 54.5577 138.805Z" fill="#F0F0F0"/>
<path d="M55.0032 139.83C55.0032 139.83 57.3976 127.164 47.0722 121.552C47.0722 121.552 45.4847 123.752 46.1079 125.692C46.7311 127.633 49.0205 127.344 49.0533 129.147C49.0861 130.951 47.5445 133.28 49.2829 134.146C51.0213 135.011 49.834 136.771 50.4244 138.387C51.0148 140.003 55.0032 139.83 55.0032 139.83Z" fill="#F0F0F0"/>
<path d="M45.9844 137.024C45.9844 137.024 46.1812 145.369 53.7055 145.369C61.2298 145.369 61.4069 137.024 61.4069 137.024H45.9844Z" fill="#E0E0E0"/>
<path d="M152.085 237.427H150.59L146.306 214.23L145.558 210.169L140.887 184.924H122.985L113.283 237.427H111.787L121.673 183.922C121.705 183.74 121.794 183.576 121.925 183.459C122.056 183.341 122.219 183.278 122.388 183.28H141.484C141.653 183.278 141.817 183.341 141.947 183.459C142.078 183.576 142.167 183.74 142.199 183.922L146.299 206.123L147.054 210.184L152.085 237.427Z" fill="#EBEBEB"/>
<path d="M180.825 237.427H179.323L169.621 184.896H151.725L147.055 210.184L146.307 214.23L142.023 237.427H140.527L145.559 210.169L146.3 206.123L150.407 183.922C150.439 183.74 150.528 183.576 150.659 183.459C150.789 183.341 150.953 183.278 151.122 183.28H170.218C170.387 183.279 170.551 183.343 170.683 183.46C170.814 183.577 170.905 183.74 170.94 183.922L180.825 237.427Z" fill="#EBEBEB"/>
<path d="M136.701 184.088H169.593C172.611 184.085 175.507 182.782 177.662 180.459C179.816 178.136 181.057 174.977 181.119 171.66L182.346 116.698C182.363 115.473 182.159 114.256 181.745 113.119C181.331 111.981 180.715 110.945 179.934 110.071C179.153 109.198 178.221 108.503 177.194 108.029C176.166 107.554 175.063 107.309 173.949 107.307H153.331C151.267 107.308 149.276 108.144 147.736 109.655C146.196 111.166 145.215 113.246 144.98 115.501L136.701 184.088Z" fill="#E6E6E6"/>
<path d="M154.637 184.087H119.587C119.152 184.087 118.735 183.897 118.427 183.559C118.119 183.221 117.947 182.762 117.947 182.284V182.111C117.947 180.797 118.421 179.536 119.267 178.607C120.112 177.678 121.258 177.156 122.453 177.156H154.637V184.087Z" fill="#E6E6E6"/>
<path d="M168 270C238.247 270 295.192 266.344 295.192 261.835C295.192 257.326 238.247 253.67 168 253.67C97.7543 253.67 40.8086 257.326 40.8086 261.835C40.8086 266.344 97.7543 270 168 270Z" fill="#F5F5F5"/>
<path d="M185.345 84.8169L185.772 85.2136C185.929 85.365 186.106 85.5093 186.277 85.6536C186.618 85.9493 186.933 86.245 187.327 86.5263C188.035 87.0961 188.789 87.6155 189.544 88.1348C191.066 89.1661 192.66 90.061 194.313 90.8108C195.958 91.5817 197.653 92.2182 199.384 92.7149C199.817 92.8448 200.263 92.9313 200.696 93.0395L201.352 93.1982C201.49 93.1982 201.352 93.1982 201.352 93.2343C201.262 93.2573 201.178 93.2989 201.103 93.3569C201.043 93.4218 201.043 93.4218 201.07 93.4074C201.199 93.1959 201.301 92.9652 201.371 92.7222C201.604 91.8899 201.747 91.0305 201.798 90.1616C201.877 89.2167 201.903 88.2213 201.896 87.2187C201.896 85.2064 201.752 83.1507 201.608 81.0878C201.463 79.0249 201.234 76.9549 200.991 74.8776C200.748 72.8003 200.479 70.723 200.197 68.6745L202.664 68.0542C203.75 72.171 204.626 76.3513 205.288 80.5757C205.631 82.724 205.87 84.8909 206.003 87.0673C206.08 88.1904 206.104 89.3171 206.075 90.4429C206.066 91.6857 205.923 92.9229 205.649 94.1287C205.463 94.8997 205.162 95.6311 204.756 96.2925C204.473 96.7434 204.12 97.1364 203.713 97.4538C203.247 97.8205 202.711 98.067 202.146 98.1751C201.659 98.2652 201.162 98.2652 200.676 98.1751L199.922 98.038C199.417 97.9443 198.905 97.8721 198.406 97.7495C196.395 97.3103 194.42 96.6878 192.502 95.8886C190.585 95.0798 188.731 94.1004 186.959 92.9602C186.074 92.3759 185.208 91.7629 184.368 91.0921C183.948 90.7603 183.535 90.3708 183.122 90.0534C182.918 89.8659 182.715 89.6855 182.511 89.4836C182.308 89.2816 182.118 89.1157 181.855 88.8416L185.345 84.8169Z" fill="#E4897B"/>
<path d="M178.214 81.535C185.43 80.4603 191.229 86.8581 191.229 86.8581L184.629 98.0524C184.629 98.0524 177.558 93.0756 176.311 89.6855C175.026 86.1585 174.521 82.0616 178.214 81.535Z" fill="#719FFF"/>
<path opacity="0.6" d="M178.214 81.535C185.43 80.4603 191.229 86.8581 191.229 86.8581L184.629 98.0524C184.629 98.0524 177.558 93.0756 176.311 89.6855C175.026 86.1585 174.521 82.0616 178.214 81.535Z" fill="#FAFAFA"/>
<path d="M200.256 69.6483L197.861 64.3685L204.139 64.3108C204.139 64.3108 204.264 67.9966 202.676 70.0811L200.256 69.6483Z" fill="#E4897B"/>
<path d="M198.977 58.6917L203.647 59.6077L204.139 64.3105L197.861 64.3682L198.977 58.6917Z" fill="#E4897B"/>
<path d="M152.695 255.797L158.573 256.418L162.64 241.242L156.763 240.614L152.695 255.797Z" fill="#E4897B"/>
<path d="M115.324 233.351L119.68 237.852L129.087 226.485L124.731 221.984L115.324 233.351Z" fill="#E4897B"/>
<path d="M121.693 235.695L118.413 229.204C118.357 229.092 118.267 229.007 118.158 228.963C118.05 228.92 117.93 228.92 117.822 228.966L112.778 231.072C112.653 231.131 112.541 231.218 112.448 231.328C112.356 231.437 112.285 231.567 112.242 231.708C112.198 231.85 112.181 232 112.193 232.148C112.205 232.297 112.246 232.442 112.312 232.572C113.486 234.808 114.162 235.825 115.592 238.674C116.478 240.434 118.216 244.445 119.43 246.883C120.643 249.32 122.893 248.102 122.585 246.976C121.181 241.927 121.45 239.093 121.844 236.878C121.923 236.477 121.869 236.058 121.693 235.695Z" fill="#263238"/>
<path d="M159.262 254.448H152.138C152.011 254.45 151.887 254.497 151.787 254.583C151.686 254.669 151.614 254.789 151.581 254.924L150.026 261.12C149.989 261.267 149.984 261.421 150.011 261.57C150.038 261.719 150.096 261.86 150.181 261.98C150.265 262.1 150.374 262.197 150.499 262.263C150.623 262.33 150.76 262.363 150.898 262.361C153.411 262.361 154.598 262.361 157.734 262.361H167.305C169.929 262.361 170.454 259.476 169.378 259.202C164.55 258.033 161.762 256.41 160.273 254.874C159.997 254.597 159.636 254.445 159.262 254.448Z" fill="#263238"/>
<path d="M162.64 241.242L160.541 249.068H154.492L156.755 240.622L162.64 241.242Z" fill="#CE6F64"/>
<path d="M124.723 221.991L129.085 226.485L124.231 232.341L119.875 227.848L124.723 221.991Z" fill="#CE6F64"/>
<path d="M185.324 77.0561C185.279 71.8124 180.962 69.9803 180.962 69.9803C180.962 69.9803 186.361 58.7427 183.586 51.2846C180.811 43.8265 171.667 42.5138 168.767 45.9976C163.67 45.7595 162.05 53.8091 162.05 53.8091C162.05 53.8091 157.786 54.5953 156.638 58.007C155.49 61.4186 158.986 65.2631 158.986 65.2631C158.986 65.2631 154.119 65.9844 152.328 70.1029C150.537 74.2215 151.639 79.6888 157.018 84.406C164.838 91.2582 179.21 82.6605 179.21 82.6605C179.21 82.6605 185.377 83.0861 185.324 77.0561Z" fill="#263238"/>
<path d="M184.4 82.2708C184.4 82.2708 187.024 83.533 178.26 121.595L153.988 119.28C155.248 108.461 155.792 101.738 152.82 78.9745C156.283 78.5242 159.772 78.3531 163.257 78.4624C166.953 78.5236 170.64 78.8731 174.291 79.5083C177.701 80.2429 181.075 81.1649 184.4 82.2708Z" fill="#719FFF"/>
<path opacity="0.6" d="M184.4 82.2708C184.4 82.2708 187.024 83.533 178.26 121.595L153.988 119.28C155.248 108.461 155.792 101.738 152.82 78.9745C156.283 78.5242 159.772 78.3531 163.257 78.4624C166.953 78.5236 170.64 78.8731 174.291 79.5083C177.701 80.2429 181.075 81.1649 184.4 82.2708Z" fill="#FAFAFA"/>
<path d="M178.108 80.4098C176.849 80.078 175.484 79.7606 174.238 79.5082C170.587 78.8706 166.9 78.5187 163.204 78.4551C161.938 78.4046 160.672 78.4046 159.484 78.4551L160.298 80.1573C160.442 80.4603 163.906 87.5649 170.485 91.5969L172.296 92.7077L173.982 91.3877C178.233 88.0482 178.863 83.7061 178.108 80.4098Z" fill="#FAFAFA"/>
<path d="M165.376 64.9023C165.763 68.8766 165.894 76.0967 163.211 78.4625C163.211 78.4625 166.281 84.8747 172.093 88.4307C177.236 84.4059 174.245 79.5084 174.245 79.5084C170.368 78.0658 170.722 74.8777 171.621 71.906L165.376 64.9023Z" fill="#E4897B"/>
<path d="M167.928 67.7585L171.641 71.9059C171.415 72.5951 171.244 73.3047 171.129 74.0265C169.64 73.6442 167.475 71.9348 167.449 70.1749C167.479 69.3448 167.641 68.527 167.928 67.7585Z" fill="#CE6F64"/>
<path d="M165.218 55.8857C164.503 62.3773 164.077 65.1254 166.484 69.0275C170.105 74.8844 177.531 74.4227 179.991 68.3062C182.209 62.7812 183.002 53.0727 177.695 49.3581C176.532 48.5346 175.196 48.0514 173.815 47.9543C172.434 47.8571 171.054 48.1493 169.804 48.803C168.555 49.4567 167.477 50.4504 166.675 51.6898C165.872 52.9293 165.371 54.3735 165.218 55.8857Z" fill="#E4897B"/>
<path d="M169.798 47.8872C174.357 49.1855 169.851 64.4335 162.582 60.012C162.582 60.012 162.91 53.5709 164.931 50.8373C166.152 49.2086 167.893 48.1536 169.798 47.8872Z" fill="#263238"/>
<path d="M169.312 48.731C171.281 52.2509 185.876 58.9228 180.97 51.3493C176.063 43.7758 169.312 48.731 169.312 48.731Z" fill="#263238"/>
<path d="M163.343 61.5051C163.261 62.7697 163.636 64.0188 164.386 64.9817C165.396 66.2439 166.728 65.4794 167.148 63.9502C167.522 62.5798 167.45 60.2717 166.105 59.5648C165.808 59.4209 165.484 59.3599 165.16 59.3872C164.837 59.4145 164.524 59.5293 164.251 59.7213C163.978 59.9133 163.752 60.1767 163.593 60.4879C163.435 60.7991 163.349 61.1485 163.343 61.5051Z" fill="#E4897B"/>
<path d="M178.233 121.595C178.233 121.595 186.452 161.583 180.968 189.771C177.294 208.654 164.037 246.796 164.037 246.796L153.672 246.507C153.672 246.507 163.702 206.476 165.782 190.738C169.331 163.805 160.442 119.9 160.442 119.9L178.233 121.595Z" fill="#263238"/>
<path d="M168.755 129.666L163.572 138.653C165.134 149.31 166.124 160.059 166.537 170.844C173.826 156.498 170.375 137.261 168.755 129.666Z" fill="#263238"/>
<path d="M164.891 247.387L152.086 247.027L152.827 242.706L166.807 243.435L164.891 247.387Z" fill="#719FFF"/>
<path opacity="0.6" d="M164.891 247.387L152.086 247.027L152.827 242.706L166.807 243.435L164.891 247.387Z" fill="#FAFAFA"/>
<path d="M172.92 121.163C172.92 121.163 168.098 163.574 157.642 186.728C149.199 205.402 126.672 232.089 126.672 232.089L120.912 225.562C120.912 225.562 136.131 196.631 142.409 184.203C157.799 153.743 145.217 130.503 153.942 119.287L172.92 121.163Z" fill="#263238"/>
<path d="M127.25 232.926L119.811 224.955L122.284 221.262L130.385 230.473L127.25 232.926Z" fill="#719FFF"/>
<path opacity="0.6" d="M127.25 232.926L119.811 224.955L122.284 221.262L130.385 230.473L127.25 232.926Z" fill="#FAFAFA"/>
<path d="M153.693 117.679L152.414 119.965C152.309 120.146 152.499 120.355 152.775 120.376L178.26 122.8C178.484 122.8 178.674 122.721 178.7 122.569L179.107 120.203C179.107 120.037 178.956 119.879 178.713 119.857L154.107 117.513C154.03 117.499 153.952 117.507 153.88 117.536C153.808 117.565 153.743 117.614 153.693 117.679Z" fill="#719FFF"/>
<path opacity="0.3" d="M153.693 117.679L152.414 119.965C152.309 120.146 152.499 120.355 152.775 120.376L178.26 122.8C178.484 122.8 178.674 122.721 178.7 122.569L179.107 120.203C179.107 120.037 178.956 119.879 178.713 119.857L154.107 117.513C154.03 117.499 153.952 117.507 153.88 117.536C153.808 117.565 153.743 117.614 153.693 117.679Z" fill="black"/>
<path d="M156.762 121.011L156.106 120.946C155.974 120.946 155.883 120.852 155.896 120.758L156.453 117.686C156.453 117.592 156.591 117.527 156.722 117.541L157.378 117.606C157.51 117.606 157.601 117.7 157.588 117.794L157.037 120.866C157.011 120.967 156.893 121.011 156.762 121.011Z" fill="#263238"/>
<path d="M176.391 122.887L175.735 122.822C175.603 122.822 175.512 122.728 175.525 122.634L176.082 119.554C176.082 119.468 176.22 119.403 176.351 119.417L177.007 119.482C177.138 119.482 177.23 119.576 177.217 119.663L176.666 122.742C176.64 122.836 176.528 122.894 176.391 122.887Z" fill="#263238"/>
<path d="M166.576 121.949L165.92 121.891C165.789 121.891 165.697 121.79 165.71 121.703L166.268 118.623C166.268 118.537 166.406 118.472 166.537 118.486L167.193 118.544C167.324 118.544 167.416 118.645 167.403 118.732L166.852 121.812C166.825 121.898 166.688 121.963 166.576 121.949Z" fill="#263238"/>
<path d="M173.792 59.4708C173.707 59.9902 173.891 60.4662 174.199 60.5311C174.507 60.5961 174.855 60.221 174.921 59.6945C174.986 59.1679 174.829 58.6919 174.514 58.6342C174.199 58.5765 173.904 58.9804 173.792 59.4708Z" fill="#263238"/>
<path d="M179.152 60.5528C179.066 61.0722 179.25 61.5482 179.558 61.6131C179.867 61.678 180.214 61.303 180.28 60.7764C180.346 60.2499 180.188 59.7739 179.873 59.7162C179.558 59.6585 179.27 60.0263 179.152 60.5528Z" fill="#263238"/>
<path d="M179.762 59.7018L180.962 59.572C180.962 59.572 180.214 60.4231 179.762 59.7018Z" fill="#263238"/>
<path d="M177.604 61.144C177.834 62.4241 178.22 63.664 178.752 64.8298C178.477 64.971 178.177 65.0441 177.873 65.0441C177.569 65.0441 177.269 64.971 176.994 64.8298L177.604 61.144Z" fill="#DE5753"/>
<path d="M174.998 66.5612C174.358 66.4521 173.751 66.1758 173.229 65.7553C172.706 65.3349 172.282 64.7826 171.994 64.1449C171.983 64.1133 171.984 64.0783 171.996 64.0473C172.008 64.0163 172.031 63.9918 172.06 63.979C172.073 63.9719 172.088 63.9679 172.103 63.9674C172.118 63.9668 172.134 63.9696 172.148 63.9757C172.162 63.9818 172.175 63.991 172.185 64.0027C172.196 64.0144 172.205 64.0284 172.21 64.0439C172.487 64.6383 172.887 65.1526 173.378 65.5449C173.87 65.9372 174.438 66.1964 175.038 66.3015C175.069 66.3015 175.099 66.3152 175.121 66.3395C175.143 66.3639 175.156 66.3969 175.156 66.4313C175.156 66.4658 175.143 66.4988 175.121 66.5231C175.099 66.5475 175.069 66.5612 175.038 66.5612H174.998Z" fill="#263238"/>
<path d="M172.512 55.374C172.462 55.3751 172.413 55.3585 172.372 55.3268C172.331 55.2951 172.3 55.2499 172.284 55.1977C172.268 55.1454 172.267 55.0889 172.282 55.0364C172.297 54.9838 172.327 54.9378 172.368 54.9052C172.713 54.5991 173.121 54.3889 173.556 54.2923C173.991 54.1956 174.441 54.2153 174.867 54.3498C174.896 54.3611 174.923 54.3787 174.947 54.4015C174.97 54.4243 174.989 54.4519 175.002 54.4828C175.015 54.5136 175.023 54.547 175.025 54.5811C175.026 54.6153 175.022 54.6494 175.011 54.6816C175.001 54.7138 174.985 54.7435 174.964 54.7689C174.944 54.7944 174.919 54.8151 174.891 54.8298C174.862 54.8445 174.832 54.8531 174.801 54.8549C174.77 54.8567 174.739 54.8517 174.71 54.8403C174.358 54.7339 173.988 54.7216 173.631 54.8044C173.273 54.8872 172.939 55.0627 172.656 55.3163C172.615 55.351 172.564 55.371 172.512 55.374Z" fill="#263238"/>
<path d="M182.223 58.5622C182.188 58.562 182.154 58.5535 182.122 58.5374C182.09 58.5212 182.062 58.4976 182.039 58.4684C181.815 58.1507 181.526 57.8955 181.196 57.7238C180.865 57.5521 180.502 57.4687 180.137 57.4802C180.075 57.4864 180.013 57.4658 179.964 57.4228C179.915 57.3798 179.883 57.3177 179.875 57.2494C179.871 57.2157 179.874 57.1815 179.882 57.1489C179.891 57.1163 179.906 57.0859 179.925 57.0597C179.945 57.0334 179.969 57.0118 179.996 56.996C180.024 56.9803 180.054 56.9708 180.085 56.9681C180.529 56.943 180.972 57.0361 181.376 57.2395C181.78 57.4429 182.134 57.7507 182.407 58.1366C182.45 58.1862 182.474 58.2521 182.474 58.3205C182.474 58.389 182.45 58.4549 182.407 58.5045C182.354 58.5484 182.289 58.569 182.223 58.5622Z" fill="#263238"/>
<path d="M154.611 88.553C153.624 90.7053 152.529 92.7955 151.331 94.8138C150.15 96.8045 148.903 98.752 147.559 100.627C146.2 102.509 144.743 104.304 143.196 106.001C142.396 106.83 141.615 107.674 140.756 108.453L140.1 109.045L139.942 109.189L139.733 109.369C139.594 109.493 139.45 109.609 139.3 109.716C138.703 110.165 138.054 110.524 137.371 110.783C136.084 111.245 134.724 111.409 133.376 111.266C132.169 111.134 130.98 110.845 129.834 110.408C127.71 109.593 125.686 108.496 123.805 107.141C120.186 104.56 116.853 101.524 113.873 98.0956L115.618 96.0832C117.186 97.4681 118.839 98.8457 120.531 100.094C122.189 101.37 123.915 102.536 125.701 103.585C127.4 104.611 129.195 105.436 131.054 106.044C132.825 106.585 134.603 106.679 135.829 106.116C136.522 105.785 137.142 105.293 137.646 104.674C138.375 103.952 139.05 103.152 139.739 102.373C141.084 100.764 142.33 99.0405 143.557 97.3238C144.784 95.6072 145.892 93.7174 146.968 91.8421C147.513 90.9044 148.031 89.9523 148.543 89.0002C149.054 88.0481 149.546 87.0455 149.973 86.1511L154.611 88.553Z" fill="#E4897B"/>
<path d="M117.277 96.9417L114.942 91.6331L111.059 97.0571C111.059 97.0571 113.63 99.4157 116.129 99.3292L117.277 96.9417Z" fill="#E4897B"/>
<path d="M112.391 90.082L110.193 94.7055L111.059 97.0569L114.943 91.6328L112.391 90.082Z" fill="#E4897B"/>
<path d="M152.768 78.9744C149.79 79.5514 145.611 88.9497 145.611 88.9497L153.792 97.0786C153.792 97.0786 159.092 89.2527 158.777 84.9827C158.508 81.3402 156.56 78.2387 152.768 78.9744Z" fill="#719FFF"/>
<path opacity="0.6" d="M152.768 78.9744C149.79 79.5514 145.611 88.9497 145.611 88.9497L153.792 97.0786C153.792 97.0786 159.092 89.2527 158.777 84.9827C158.508 81.3402 156.56 78.2387 152.768 78.9744Z" fill="#FAFAFA"/>
<path d="M122.84 239.179C122.762 239.18 122.684 239.165 122.611 239.136C121.896 238.876 121.43 237.426 121.214 236.582C121.207 236.558 121.207 236.532 121.214 236.507C121.221 236.483 121.235 236.461 121.253 236.445C121.273 236.433 121.296 236.426 121.319 236.426C121.342 236.426 121.364 236.433 121.384 236.445C121.601 236.568 123.503 237.693 123.562 238.515C123.571 238.606 123.557 238.697 123.521 238.778C123.485 238.86 123.429 238.929 123.359 238.977C123.211 239.105 123.029 239.176 122.84 239.179ZM121.528 236.813C121.856 237.974 122.283 238.739 122.69 238.89C122.782 238.921 122.881 238.924 122.975 238.9C123.069 238.876 123.156 238.826 123.228 238.753C123.263 238.73 123.292 238.696 123.311 238.655C123.33 238.614 123.337 238.568 123.332 238.523C123.293 238.018 122.178 237.217 121.522 236.813H121.528Z" fill="#719FFF"/>
<path d="M123.136 237.138C122.487 237.135 121.848 236.97 121.266 236.655C121.248 236.645 121.232 236.63 121.222 236.61C121.212 236.591 121.206 236.569 121.207 236.547C121.207 236.523 121.213 236.499 121.225 236.479C121.237 236.458 121.253 236.442 121.273 236.431C121.332 236.431 122.841 235.486 123.654 235.804C123.754 235.84 123.845 235.9 123.922 235.979C123.998 236.059 124.056 236.157 124.094 236.265C124.145 236.369 124.163 236.49 124.144 236.607C124.125 236.723 124.07 236.83 123.989 236.907C123.735 237.084 123.435 237.166 123.136 237.138ZM121.588 236.547C122.244 236.85 123.483 237.037 123.838 236.705C123.897 236.655 123.949 236.561 123.877 236.359C123.851 236.286 123.81 236.22 123.758 236.166C123.706 236.113 123.643 236.073 123.575 236.049C123.018 235.833 122.014 236.316 121.588 236.547Z" fill="#719FFF"/>
<path d="M162.424 255.718C161.761 255.701 161.102 255.61 160.456 255.444C160.432 255.438 160.41 255.424 160.393 255.403C160.377 255.382 160.367 255.356 160.364 255.329C160.361 255.302 160.365 255.275 160.377 255.252C160.389 255.228 160.408 255.21 160.43 255.199C160.725 255.047 163.303 253.756 163.959 254.218C164.018 254.262 164.065 254.323 164.094 254.394C164.124 254.465 164.137 254.544 164.13 254.622C164.122 254.763 164.086 254.901 164.025 255.025C163.964 255.15 163.879 255.258 163.776 255.343C163.37 255.615 162.899 255.745 162.424 255.718ZM160.889 255.271C161.657 255.43 163.074 255.632 163.658 255.148C163.735 255.085 163.798 255.003 163.844 254.91C163.889 254.817 163.915 254.713 163.92 254.607C163.924 254.575 163.92 254.542 163.908 254.511C163.897 254.481 163.878 254.454 163.854 254.434C163.487 254.16 161.959 254.752 160.889 255.271Z" fill="#719FFF"/>
<path d="M160.509 255.444C160.484 255.455 160.456 255.455 160.431 255.444C160.414 255.428 160.402 255.407 160.395 255.385C160.388 255.362 160.387 255.337 160.391 255.314C160.391 255.199 161.008 252.393 162.405 252.573C162.759 252.616 162.851 252.811 162.871 252.963C162.963 253.684 161.329 255.126 160.555 255.465L160.509 255.444ZM162.28 252.797C161.382 252.797 160.864 254.427 160.686 255.083C161.533 254.593 162.694 253.424 162.654 252.97C162.654 252.934 162.654 252.833 162.399 252.804L162.28 252.797Z" fill="#719FFF"/>
<path d="M174.377 58.6339L175.577 58.4968C175.577 58.4968 174.83 59.3624 174.377 58.6339Z" fill="#263238"/>
<path opacity="0.6" d="M125.026 17.5283L105.799 154.19L213.986 172.569L233.214 35.8995L125.026 17.5283ZM169.477 95.2612C164.511 94.4162 159.885 91.9707 156.183 88.2341C152.482 84.4975 149.872 79.6378 148.683 74.2697C147.494 68.9016 147.78 63.2663 149.504 58.0769C151.229 52.8875 154.314 48.3771 158.371 45.1163C162.427 41.8555 167.272 39.9908 172.292 39.7583C177.313 39.5257 182.283 40.9356 186.575 43.8097C190.866 46.6837 194.286 50.8928 196.401 55.9043C198.517 60.9159 199.233 66.5047 198.459 71.9637C197.422 79.277 193.787 85.8387 188.353 90.2071C182.918 94.5755 176.129 96.3933 169.477 95.2612Z" fill="#719FFF"/>
<g style="mix-blend-mode:multiply" opacity="0.3">
<path d="M210.719 167.383H210.555L102.203 148.925V148.745L121.483 11.9241H121.64L229.992 30.3818V30.5621L210.719 167.383ZM102.577 148.629L210.443 166.972L229.618 30.6486L121.752 12.3352L102.577 148.629Z" fill="#719FFF"/>
</g>
<path d="M173.373 96.6749C172.017 96.6733 170.664 96.5575 169.325 96.3287C162.595 95.1743 156.534 91.1988 152.412 85.2364C148.29 79.2741 146.429 71.7883 147.219 64.3496C148.008 56.911 151.388 50.0978 156.647 45.3395C161.907 40.5812 168.639 38.2477 175.429 38.8285C182.22 39.4094 188.542 42.8595 193.07 48.455C197.597 54.0504 199.977 61.3563 199.711 68.8397C199.445 76.3231 196.553 83.4024 191.642 88.5921C186.732 93.7819 180.184 96.6788 173.373 96.6749ZM169.627 94.1937C174.398 95.0041 179.28 94.241 183.656 92.0008C188.032 89.7606 191.706 86.1439 194.213 81.6081C196.721 77.0722 197.948 71.8209 197.741 66.518C197.534 61.215 195.901 56.0987 193.05 51.8159C190.199 47.533 186.256 44.2759 181.721 42.4565C177.186 40.637 172.263 40.3368 167.573 41.5939C162.883 42.851 158.637 45.6089 155.372 49.5189C152.108 53.4289 149.971 58.3155 149.232 63.5607C148.249 70.5954 149.845 77.7712 153.668 83.514C157.492 89.2568 163.231 93.0976 169.627 94.1937Z" fill="#FAFAFA"/>
<path d="M148.577 103.716L124.746 99.6643L123.918 105.552L147.749 109.604L148.577 103.716Z" fill="#719FFF"/>
<path opacity="0.6" d="M148.577 103.716L124.746 99.6643L123.918 105.552L147.749 109.604L148.577 103.716Z" fill="#FAFAFA"/>
<path d="M167.84 106.992L151.717 104.25L150.889 110.138L167.012 112.88L167.84 106.992Z" fill="#719FFF"/>
<path opacity="0.6" d="M167.84 106.992L151.717 104.25L150.889 110.138L167.012 112.88L167.84 106.992Z" fill="#FAFAFA"/>
<path d="M209.242 126.247L123.064 111.595L122.236 117.483L208.414 132.135L209.242 126.247Z" fill="#FAFAFA"/>
<path d="M164.86 131.195L121.932 124.043L121.119 129.942L164.047 137.093L164.86 131.195Z" fill="#FAFAFA"/>
<path d="M200.16 137.522L171.492 132.648L170.664 138.536L199.332 143.41L200.16 137.522Z" fill="#FAFAFA"/>
<path d="M188.441 148.351L119.547 136.638L118.719 142.526L187.613 154.239L188.441 148.351Z" fill="#FAFAFA"/>
<path d="M234.366 172.569H233.71C233.713 170.779 233.512 168.996 233.113 167.26L233.769 167.087C234.175 168.88 234.375 170.722 234.366 172.569ZM231.795 163.25C230.351 159.929 228.169 157.061 225.451 154.912L225.832 154.328C228.639 156.544 230.895 159.5 232.392 162.925L231.795 163.25Z" fill="#719FFF"/>
<path opacity="0.6" d="M234.366 172.569H233.71C233.713 170.779 233.512 168.996 233.113 167.26L233.769 167.087C234.175 168.88 234.375 170.722 234.366 172.569ZM231.795 163.25C230.351 159.929 228.169 157.061 225.451 154.912L225.832 154.328C228.639 156.544 230.895 159.5 232.392 162.925L231.795 163.25Z" fill="#FAFAFA"/>
<path d="M213.986 152.682C210.409 152.682 206.913 153.849 203.938 156.034C200.964 158.219 198.646 161.325 197.277 164.958C195.908 168.592 195.55 172.59 196.248 176.448C196.946 180.305 198.668 183.849 201.198 186.63C203.727 189.411 206.95 191.305 210.458 192.072C213.966 192.839 217.603 192.445 220.907 190.94C224.212 189.435 227.037 186.886 229.024 183.616C231.012 180.346 232.072 176.501 232.072 172.568C232.072 167.294 230.167 162.236 226.775 158.507C223.383 154.777 218.783 152.682 213.986 152.682ZM213.986 189.879C210.872 189.879 207.829 188.864 205.239 186.962C202.65 185.06 200.632 182.356 199.441 179.193C198.249 176.03 197.937 172.549 198.545 169.191C199.152 165.833 200.652 162.749 202.854 160.328C205.055 157.907 207.861 156.258 210.915 155.59C213.969 154.922 217.134 155.265 220.011 156.575C222.888 157.885 225.347 160.104 227.077 162.951C228.807 165.798 229.73 169.144 229.73 172.568C229.73 177.159 228.072 181.562 225.119 184.809C222.166 188.055 218.162 189.879 213.986 189.879Z" fill="#719FFF"/>
<path opacity="0.6" d="M213.986 152.682C210.409 152.682 206.913 153.849 203.938 156.034C200.964 158.219 198.646 161.325 197.277 164.958C195.908 168.592 195.55 172.59 196.248 176.448C196.946 180.305 198.668 183.849 201.198 186.63C203.727 189.411 206.95 191.305 210.458 192.072C213.966 192.839 217.603 192.445 220.907 190.94C224.212 189.435 227.037 186.886 229.024 183.616C231.012 180.346 232.072 176.501 232.072 172.568C232.072 167.294 230.167 162.236 226.775 158.507C223.383 154.777 218.783 152.682 213.986 152.682ZM213.986 189.879C210.872 189.879 207.829 188.864 205.239 186.962C202.65 185.06 200.632 182.356 199.441 179.193C198.249 176.03 197.937 172.549 198.545 169.191C199.152 165.833 200.652 162.749 202.854 160.328C205.055 157.907 207.861 156.258 210.915 155.59C213.969 154.922 217.134 155.265 220.011 156.575C222.888 157.885 225.347 160.104 227.077 162.951C228.807 165.798 229.73 169.144 229.73 172.568C229.73 177.159 228.072 181.562 225.119 184.809C222.166 188.055 218.162 189.879 213.986 189.879Z" fill="#FAFAFA"/>
<path d="M213.986 189.872C222.677 189.872 229.723 182.125 229.723 172.569C229.723 163.012 222.677 155.265 213.986 155.265C205.294 155.265 198.248 163.012 198.248 172.569C198.248 182.125 205.294 189.872 213.986 189.872Z" fill="#719FFF"/>
<path opacity="0.2" d="M213.986 189.872C222.677 189.872 229.723 182.125 229.723 172.569C229.723 163.012 222.677 155.265 213.986 155.265C205.294 155.265 198.248 163.012 198.248 172.569C198.248 182.125 205.294 189.872 213.986 189.872Z" fill="black"/>
<path d="M211.539 183.518L202.303 173.362L204.625 170.816L211.539 178.419L223.354 165.428L225.669 167.982L211.539 183.518Z" fill="#FAFAFA"/>
</g>
<defs>
<filter id="filter0_d_316_6949" x="0" y="1.27783" width="336" height="276.722" filterUnits="userSpaceOnUse" color-interpolation-filters="sRGB">
<feFlood flood-opacity="0" result="BackgroundImageFix"/>
<feColorMatrix in="SourceAlpha" type="matrix" values="0 0 0 0 0 0 0 0 0 0 0 0 0 0 0 0 0 0 127 0" result="hardAlpha"/>
<feOffset dy="4"/>
<feGaussianBlur stdDeviation="2"/>
<feComposite in2="hardAlpha" operator="out"/>
<feColorMatrix type="matrix" values="0 0 0 0 0 0 0 0 0 0 0 0 0 0 0 0 0 0 0.1 0"/>
<feBlend mode="normal" in2="BackgroundImageFix" result="effect1_dropShadow_316_6949"/>
<feBlend mode="normal" in="SourceGraphic" in2="effect1_dropShadow_316_6949" result="shape"/>
</filter>
</defs>
</svg>
