<svg width="21" height="21" viewBox="0 0 21 21" fill="none" xmlns="http://www.w3.org/2000/svg">
<path fill-rule="evenodd" clip-rule="evenodd" d="M15.5908 12.7662C15.3467 12.6337 14.1404 11.9902 13.9151 11.8996C13.6898 11.809 13.5232 11.7625 13.3472 12.0018C13.1711 12.2434 12.6712 12.7824 12.521 12.9404C12.3685 13.1007 12.223 13.1146 11.9765 12.9822C11.7325 12.8498 10.9368 12.5571 10.0145 11.6812C9.29634 10.9982 8.82695 10.1711 8.69083 9.91787C8.5547 9.66464 8.69083 9.53686 8.81991 9.41838C8.93725 9.31151 9.08042 9.13727 9.21185 8.99787C9.34093 8.85848 9.38787 8.75625 9.47705 8.59595C9.56623 8.43333 9.53103 8.28928 9.47236 8.16151C9.41368 8.03605 8.96072 6.80009 8.77297 6.29827C8.58287 5.79646 8.37164 5.8708 8.22613 5.86383C8.08062 5.85918 7.91399 5.83131 7.74736 5.82666C7.58072 5.81969 7.30613 5.87312 7.06909 6.11009C6.8297 6.34939 6.16317 6.92322 6.11623 8.1406C6.0693 9.35797 6.92123 10.5661 7.03858 10.7356C7.15828 10.9052 8.66266 13.5421 11.1645 14.6271C13.6663 15.712 13.6804 15.3821 14.1381 15.3566C14.5981 15.3333 15.6378 14.8129 15.8701 14.2437C16.1001 13.6745 16.1189 13.1797 16.0602 13.0728C16.0015 12.9683 15.8373 12.8986 15.5932 12.7662H15.5908ZM11.0002 0.878174C5.59756 0.878174 1.21583 5.21333 1.21583 10.5637C1.21583 12.3944 1.72981 14.1067 2.6193 15.5656L0.852051 20.7627L6.27113 19.0459C7.67225 19.8125 9.2846 20.2516 11.0002 20.2516C16.4052 20.2516 20.7869 15.9141 20.7869 10.5637C20.7869 5.21333 16.4076 0.878174 11.0002 0.878174Z" fill="white"/>
</svg>
