<svg width="20" height="20" viewBox="0 0 20 20" fill="none" xmlns="http://www.w3.org/2000/svg">
<path d="M14.1929 0H5.81293C2.17293 0 0.00292969 2.17 0.00292969 5.81V14.18C0.00292969 17.83 2.17293 20 5.81293 20H14.1829C17.8229 20 19.9929 17.83 19.9929 14.19V5.81C20.0029 2.17 17.8329 0 14.1929 0ZM12.7929 14.6C12.6429 14.79 12.4229 14.89 12.2029 14.89C12.0429 14.89 11.8829 14.84 11.7429 14.73C10.6829 13.91 9.31293 13.91 8.25293 14.73C7.92293 14.98 7.45293 14.92 7.20293 14.6C6.95293 14.27 7.01293 13.8 7.33293 13.55C8.92293 12.32 11.0629 12.32 12.6529 13.55C12.9929 13.8 13.0529 14.27 12.7929 14.6ZM15.0029 11.51C14.8529 11.7 14.6329 11.8 14.4129 11.8C14.2529 11.8 14.0929 11.75 13.9529 11.64C11.5529 9.79 8.46293 9.79 6.06293 11.64C5.73293 11.9 5.26293 11.84 5.00293 11.51C4.74293 11.18 4.81293 10.71 5.13293 10.46C8.08293 8.18 11.9029 8.18 14.8529 10.46C15.1929 10.71 15.2529 11.18 15.0029 11.51ZM16.5929 8.42C16.4429 8.61 16.2229 8.71 16.0029 8.71C15.8429 8.71 15.6829 8.66 15.5429 8.55C12.1729 5.95 7.82293 5.95 4.46293 8.55C4.13293 8.8 3.66293 8.74 3.41293 8.42C3.16293 8.09 3.22293 7.62 3.54293 7.37C7.46293 4.34 12.5329 4.34 16.4629 7.37C16.7929 7.62 16.8529 8.09 16.5929 8.42Z" fill="#FD6746"/>
</svg>
